<svg width="113" height="127" viewBox="0 0 113 127" fill="none" xmlns="http://www.w3.org/2000/svg">
<g clip-path="url(#clip0_520_47)">
<path d="M123.293 3.46646C123.194 2.18222 124.218 1.22854 124.839 0.210266C126.457 0.25586 128.075 0.225466 129.692 0.236864C131.097 3.33348 130.446 6.84045 130.073 10.089C131.101 10.2562 132.414 9.72809 133.194 10.5944C133.297 22.183 133.122 33.7753 133.282 45.3601C135.547 45.4095 137.812 45.3677 140.077 45.4247C140.096 51.0708 140.08 56.7169 140.073 62.3668C140.039 63.0811 140.256 63.7726 140.438 64.4565C146.59 64.4945 152.741 64.4375 158.893 64.4831C159.528 64.3919 159.791 65.2696 159.795 65.775C159.814 70.4902 159.776 75.2054 159.81 79.9244C158.398 80.9579 156.666 80.8515 155.006 80.8021C154.732 81.7862 154.462 82.7893 153.94 83.6745C153.069 84.3547 151.927 84.1799 150.899 84.2065C148.542 84.1799 146.182 84.2103 143.826 84.1875C143.51 85.1678 143.149 86.1632 143.126 87.2043C143.103 100.252 143.13 113.299 143.103 126.347C142.414 126.556 141.721 126.799 140.994 126.765C137.355 126.784 133.712 126.716 130.073 126.811C129.586 126.165 129.114 125.515 128.668 124.842C94.3825 124.899 60.0928 124.846 25.8031 124.869C25.5595 125.504 25.2588 126.115 24.9885 126.742C19.8991 126.799 14.8059 126.719 9.71652 126.795C9.52238 126.415 9.14172 126.108 9.11508 125.663C9.00849 123.801 9.16837 121.936 9.0732 120.078C8.9552 119.941 8.723 119.671 8.60499 119.535C7.47063 119.489 6.33627 119.531 5.20191 119.569C4.46724 118.596 4.45202 117.452 4.82506 116.328C4.95068 111.377 4.85551 106.415 4.87074 101.46C4.75273 101.331 4.52434 101.069 4.41014 100.936C3.04739 100.898 1.68463 100.924 0.325684 100.928C0.337103 92.1703 0.363749 83.4086 0.325684 74.6507C2.27465 73.6096 4.52053 74.1187 6.62557 74.0009C7.69141 74.0503 9.22166 73.7654 9.80026 74.9128C9.86878 82.6411 9.80026 90.3731 9.84213 98.1052C9.87639 98.9221 9.68987 99.72 9.46909 100.503C8.71919 100.693 7.97691 100.913 7.21559 101.054C7.01765 106.403 7.21179 111.761 7.19656 117.114C7.90078 117.616 8.65829 116.905 9.08082 116.362C9.14553 113.584 9.05036 110.807 9.09224 108.033C9.03514 107.163 9.78884 106.567 10.2038 105.887C11.1288 105.913 12.0423 105.769 12.9064 105.442C12.8646 104.31 12.9064 103.181 12.9217 102.053C13.5041 102.049 14.0903 102.045 14.6765 102.03C14.8135 102.444 14.962 102.858 15.1142 103.273C22.8721 103.189 30.6299 103.341 38.3877 103.189C37.9918 102.794 37.5921 102.399 37.1886 102.007C34.897 102.144 32.5826 102.144 30.3558 101.517C30.9763 101.168 31.6386 100.902 32.3504 100.81C32.2096 99.0779 32.3999 97.3605 32.8148 95.6811C34.9427 95.5405 37.1658 95.9698 39.2099 95.2251C39.1756 93.4355 39.149 91.6422 39.2251 89.8526C37.1505 88.8951 34.9541 90.2667 32.8719 89.617C31.4102 89.3814 29.8533 89.8108 28.4715 89.1345C28.7456 86.2506 28.0718 83.2604 28.9169 80.4563C30.7022 79.6318 32.5522 80.5209 34.3984 80.3842C46.5794 80.3766 58.7643 80.3918 70.9454 80.3766C72.8106 80.6767 74.6872 79.647 76.4801 80.3842C76.4421 83.1616 76.4649 85.9391 76.4915 88.7203C75.7645 89.0319 75.0793 89.5638 74.2495 89.5372C71.9731 89.541 69.6968 89.579 67.4243 89.5144C66.0158 91.2318 66.7429 93.5495 66.5678 95.5785C68.8479 95.871 71.2118 95.3087 73.4272 96.0344C73.3701 97.7784 73.5833 99.5642 72.9971 101.244C71.8056 101.794 70.5571 102.22 69.2248 102.072C69.221 102.467 69.2096 102.866 69.1867 103.265C72.3271 102.938 75.4409 103.972 78.5547 103.276C88.6688 103.166 98.7905 103.379 108.901 103.166C108.063 102.551 107.192 101.984 106.286 101.479C107.024 101.179 107.736 100.822 108.463 100.495C108.398 97.463 108.448 94.431 108.448 91.399C106.164 91.4484 103.876 91.38 101.592 91.4256C101.543 85.9087 101.585 80.3918 101.573 74.8748C101.573 74.2821 101.478 73.6932 101.333 73.1233C100.778 73.146 100.226 73.1688 99.6736 73.1954C99.6888 74.3049 99.685 75.4182 99.6812 76.5276C98.1053 77.0292 96.438 77.0976 94.8012 76.9342C94.4434 76.7024 94.2949 76.3756 94.3558 75.9539C94.3444 72.5343 94.3901 69.1185 94.3596 65.7028C94.2264 65.585 93.9599 65.3456 93.8267 65.224C87.6753 65.1822 81.5238 65.2278 75.3724 65.2088C74.7672 63.4079 74.5502 61.1509 75.7416 59.5399C76.1033 59.5133 76.4687 59.4829 76.8303 59.4487C76.8379 59.9959 76.8493 60.543 76.8646 61.0939C81.284 61.0407 85.7073 61.0635 90.1305 61.0863C90.1952 60.429 90.3247 59.7831 90.4921 59.1448C91.8511 59.2474 93.1567 58.8902 94.3825 58.3165C94.3634 55.1211 94.352 51.9219 94.3748 48.7265C94.3139 48.1147 94.7098 47.3092 95.4179 47.3776C96.8339 47.2864 98.25 47.3776 99.666 47.389C99.6774 48.4757 99.6926 49.5624 99.6774 50.649C99.9477 50.8162 100.488 51.1544 100.758 51.3215C102.117 49.6992 101.406 47.4992 101.623 45.5729C103.834 44.6534 106.35 45.5805 108.467 44.3418C108.375 33.7525 108.478 23.1632 108.421 12.5777C108.368 11.757 108.592 10.9629 108.874 10.203C109.883 10.1194 110.869 9.88387 111.858 9.6901C112.277 8.36786 112.277 6.97723 112.27 5.6056C114.82 4.68991 117.591 5.31684 120.241 5.22185C120.275 6.72266 120.279 8.21968 120.229 9.71669C121.215 10.2676 122.319 10.0776 123.339 9.74709C123.259 7.65355 123.293 5.56 123.293 3.46646ZM127.066 4.23777C127.199 4.50373 127.462 5.03567 127.591 5.30164C128.193 5.15346 129.277 5.19525 129.022 4.24157C129.194 3.45886 128.078 3.43987 127.622 3.11311C127.481 3.39427 127.207 3.9566 127.066 4.23777ZM124.158 12.7829C123.96 15.1196 124.074 17.4677 124.047 19.8082C124.078 28.2204 124.013 36.6364 124.066 45.0485C124.439 45.0637 124.812 45.0827 125.185 45.1055C125.25 34.3262 125.239 23.547 125.197 12.7639C124.938 12.7715 124.416 12.7791 124.158 12.7829ZM118.691 14.2571C118.676 24.5387 118.649 34.8164 118.714 45.0979C119.475 45.0903 120.237 45.0979 121.002 45.0865C121.097 34.8164 121.032 24.5463 121.025 14.2799C120.244 14.2685 119.468 14.2647 118.691 14.2571ZM129.681 49.399C127.652 49.8169 126.011 51.3747 125.258 53.2669C125.143 54.517 125.162 55.7784 125.254 57.0322C125.954 58.6052 127.275 59.9275 128.882 60.5848C130.103 60.7444 131.356 60.733 132.581 60.5886C134.157 60.0909 135.349 58.761 136.137 57.3552C136.369 55.8734 136.297 54.3536 136.175 52.8642C134.846 50.6642 132.399 48.7455 129.681 49.399ZM114.005 49.6764C111.592 50.9644 109.666 53.7456 110.522 56.5497C111.367 58.6964 113.316 60.9572 115.855 60.695C118.143 61.0065 120.408 59.5779 121.352 57.5224C122.014 56.3369 121.775 54.9197 121.721 53.6241C121.329 51.7851 119.75 50.4515 118.139 49.6346C116.765 49.532 115.372 49.5054 114.005 49.6764ZM129.852 69.8937C128.794 70.7599 127.633 72.2 128.649 73.5488C129.304 75.6613 132.345 76.1971 133.727 74.5139C134.287 73.7046 134.945 72.7395 134.637 71.7098C134.157 70.8397 133.487 70.1026 132.837 69.3617C131.835 69.4605 130.621 69.054 129.852 69.8937ZM109.818 75.4562C107.903 76.1059 106.152 77.5345 105.555 79.5179C104.371 83.4428 108.414 87.6071 112.357 86.8054C114.215 86.243 115.768 84.8562 116.541 83.078C117.454 80.6045 116.575 77.4813 114.169 76.1781C112.928 75.2054 111.295 75.3308 109.818 75.4562ZM3.32908 76.463C2.83422 77.0482 2.44975 77.7131 2.13 78.4084C3.93432 79.3735 6.05078 78.6478 8.00355 78.9669C7.98833 78.15 7.95788 77.3293 7.9122 76.5124C7.07856 76.5998 6.28298 76.8734 5.46457 77.033C4.72609 76.9684 4.04471 76.634 3.32908 76.463ZM2.21375 81.4518C2.25943 81.8242 2.28988 82.1965 2.29749 82.5727C2.9408 82.8045 3.58792 83.2794 4.29595 82.964C5.49883 82.4017 6.72074 83.002 7.93504 83.1654C7.99594 82.2231 8.01117 81.2694 7.70283 80.369C5.97845 81.4404 3.75541 80.0688 2.21375 81.4518ZM30.6679 81.1099C30.3634 83.4238 30.2073 85.8669 30.7859 88.1504C33.4125 87.3753 36.2179 87.4969 38.8787 87.987C43.184 88.0022 47.493 88.0364 51.7983 87.968C51.646 90.5175 51.1587 93.0404 51.3415 95.6089C54.7598 95.7001 58.1819 95.6963 61.6002 95.6051C61.7068 93.0328 61.3414 90.5061 61.132 87.9528C62.765 87.9604 64.4399 88.196 66.0387 87.7438C66.7772 87.5805 67.5499 87.5919 68.3036 87.6641C70.3515 88.1048 72.5365 88.1922 74.5844 87.7287C74.5273 85.6921 74.6415 83.6517 74.5426 81.619C74.2571 80.9845 73.4615 81.1821 72.9172 81.0263C73.3168 83.0704 73.7851 85.2704 72.9933 87.2765C59.6132 87.1967 46.233 87.2651 32.8529 87.2499C32.2933 87.3449 31.8822 87.1473 31.6196 86.6572C31.5054 85.2856 31.5511 83.9063 31.6005 82.5385C31.5777 81.9268 32.2667 81.486 32.8377 81.5658C45.544 81.5848 58.2504 81.5506 70.9568 81.5886C71.6077 81.5886 72.251 81.5278 72.8867 81.3948C71.5201 80.9617 70.066 81.1973 68.6614 81.1517C55.9969 81.1213 43.3324 81.2086 30.6679 81.1099ZM3.1121 84.9436C2.35078 85.3197 2.64769 86.2202 2.55634 86.8927C3.48134 86.9307 4.41014 86.9231 5.33514 86.8927C5.31611 86.2468 5.29707 85.6047 5.27804 84.9588C4.55479 84.9436 3.83535 84.9132 3.1121 84.9436ZM5.6549 84.9512C5.63967 85.5933 5.62444 86.2354 5.61302 86.8775C6.4086 86.9003 7.20417 86.9193 7.99975 86.9345C7.98833 86.2658 7.97691 85.5971 7.96549 84.9284C7.19656 84.9322 6.42382 84.9398 5.6549 84.9512ZM5.64728 88.9217C5.57496 89.4536 5.60541 89.9856 5.73483 90.5099C6.43144 90.8671 7.25746 90.6847 8.01117 90.7645C7.98833 89.9514 7.95788 89.1421 7.92362 88.3328C7.13565 88.4316 6.13833 88.0972 5.64728 88.9217ZM2.92938 88.6519C2.92558 89.3548 2.92558 90.0578 2.93319 90.7607C3.54986 90.7569 4.17033 90.7341 4.78699 90.6847C5.59399 90.4187 5.21714 89.4004 5.35418 88.7849C4.54718 88.7355 3.73638 88.6937 2.92938 88.6519ZM2.27465 94.3626C3.35572 94.602 4.42537 94.4576 5.45695 94.1157C6.26775 94.3664 7.09378 94.5488 7.94646 94.5602C7.96549 93.7927 7.98072 93.0252 7.97691 92.2615C7.72567 92.1323 7.22701 91.8777 6.97578 91.7486C6.44666 92.0639 5.92516 92.3869 5.39985 92.7098C4.78699 92.3907 4.18555 92.0449 3.53844 91.7904C2.56395 92.2387 2.18329 93.3482 2.27465 94.3626ZM3.03977 95.8406C2.81899 96.4524 2.61724 97.0717 2.4764 97.7062C2.8266 98.0558 3.173 98.4053 3.52321 98.7549C4.16652 98.4091 4.82506 98.09 5.46076 97.7328C6.1193 98.1394 6.81209 98.4851 7.50489 98.8385C8.15201 97.9798 7.95407 96.8855 7.96168 95.8938C7.05572 95.8596 6.1802 96.0496 5.46076 96.6196C4.72609 96.156 3.91529 95.871 3.03977 95.8406ZM39.8989 98.3293C39.8799 100.085 39.8799 101.84 39.8913 103.595C44.4249 103.66 48.9585 103.637 53.4922 103.607C53.6026 102.148 53.6597 100.677 53.5645 99.2146C53.4237 98.2495 52.4644 97.8012 51.5661 97.9266C47.6757 98.033 43.7473 97.6188 39.8989 98.3293ZM112.589 98.3369C112.7 99.0854 112.357 100.058 113.164 100.514C116.316 100.67 119.483 100.43 122.635 100.605C124.169 101.453 125.924 101.434 127.629 101.289C128.512 101.019 129.338 100.461 130.305 100.544C133.545 100.552 136.784 100.571 140.023 100.544C140.039 99.7884 140.058 99.0322 140.08 98.2761C139.388 98.0938 138.687 97.8886 137.964 97.9228C130.336 97.9342 122.703 97.9342 115.075 97.9228C114.222 97.8848 113.412 98.1584 112.589 98.3369ZM56.6402 101.643C56.9942 103.831 55.582 106.213 57.0361 108.17C60.0623 108.09 63.0886 108.204 66.1186 108.151C66.8038 106.084 66.545 103.869 66.4308 101.734C64.5351 101.38 62.5899 101.133 60.7133 101.738C61.2614 102.744 61.349 103.873 61.2995 104.998C60.5153 105.609 59.4723 106.244 58.4788 105.735C57.9192 105.294 57.3521 104.808 57.0285 104.162C56.9181 103.128 57.8926 102.49 58.4179 101.726C57.8241 101.696 57.2341 101.669 56.6402 101.643ZM114.554 104.705C113.941 106.54 114.276 108.489 114.165 110.385C114.801 110.416 115.437 110.446 116.072 110.476C116.11 108.565 116.103 106.654 116.053 104.743C115.551 104.735 115.052 104.72 114.554 104.705ZM125.516 105.45C125.516 105.868 125.513 106.293 125.497 106.715C125.905 106.673 126.316 106.639 126.727 106.612C126.719 106.244 126.712 105.879 126.712 105.514C126.312 105.495 125.912 105.472 125.516 105.45ZM135.143 111.563C134.492 113.269 134.664 115.131 135.204 116.844C136.27 116.856 137.332 116.852 138.402 116.833C139.155 115.138 138.832 113.303 138.432 111.567C137.336 111.559 136.24 111.567 135.143 111.563ZM15.5368 115.393C15.5177 116.917 15.5482 118.44 15.5101 119.968C17.1812 120.534 18.9703 120.211 20.6985 120.291C22.2896 120.226 23.9645 120.568 25.4605 119.857C25.373 118.36 25.6851 116.791 25.0837 115.37C21.9014 115.359 18.7191 115.321 15.5368 115.393ZM63.8918 115.385C64.006 117.023 63.6481 118.74 64.2762 120.31C67.4433 120.26 70.6104 120.321 73.7736 120.272C73.8193 118.645 73.8079 117.015 73.7813 115.393C70.4848 115.328 67.1883 115.351 63.8918 115.385ZM75.7416 115.385C75.7188 117.012 75.715 118.638 75.7569 120.268C79.0381 120.302 82.3194 120.302 85.5969 120.264C85.6426 118.638 85.6464 117.012 85.6349 115.382C82.3384 115.34 79.0419 115.336 75.7416 115.385ZM87.5306 115.374C86.9749 116.951 86.933 118.748 87.5649 120.31C90.5302 120.241 93.4993 120.351 96.4647 120.26C96.6017 120.142 96.8758 119.903 97.0128 119.781C97.1118 118.322 97.0204 116.856 97.0242 115.393C93.861 115.332 90.6939 115.355 87.5306 115.374ZM98.9199 115.382C98.9047 117.008 98.9237 118.638 98.9504 120.264C102.239 120.317 105.524 120.283 108.813 120.279C108.878 118.695 108.6 117.05 109.179 115.53C105.776 115.146 102.338 115.446 98.9199 115.382ZM111.455 115.37C111.455 116.856 111.402 118.345 111.455 119.835C111.588 119.949 111.855 120.173 111.992 120.283C115.003 120.272 118.021 120.374 121.029 120.207C121.048 118.6 121.074 116.993 121.032 115.385C117.839 115.355 114.645 115.34 111.455 115.37ZM28.2241 115.374C27.7331 116.632 27.6645 117.992 27.8168 119.322C28.0109 119.823 28.4182 120.397 29.0387 120.294C31.8822 120.313 34.7296 120.256 37.5731 120.302C38.1326 118.923 38.0299 117.414 37.9499 115.959C37.8281 115.822 37.5883 115.553 37.4665 115.416C34.3908 115.271 31.3036 115.382 28.2241 115.374ZM40.4356 115.366C40.2986 115.484 40.0283 115.724 39.8951 115.841C39.8342 117.205 39.8989 118.573 39.8722 119.941C40.4394 120.116 41.0142 120.321 41.6195 120.294C44.0633 120.268 46.5109 120.302 48.9547 120.298C49.0804 120.177 49.3316 119.93 49.4572 119.808C49.5524 118.326 49.48 116.841 49.4534 115.359C46.4462 115.366 43.439 115.336 40.4356 115.366ZM51.4138 118.942C51.4442 119.592 51.882 120.389 52.6395 120.294C54.9425 120.302 57.2455 120.283 59.5447 120.298C60.1499 120.336 60.7285 120.158 61.2995 119.979C61.2843 118.44 61.2919 116.905 61.2462 115.37C58.0791 115.332 54.9082 115.382 51.7412 115.351C51.292 116.495 51.3415 117.737 51.4138 118.942Z" fill="#0011A4"/>
<path d="M130.465 51.1278C131.611 51.0442 132.829 51.3557 133.586 52.2676C135.379 53.852 135.105 56.9563 133.206 58.3469C130.903 60.3568 126.822 58.4647 126.693 55.4554C126.674 53.3885 128.208 51.0784 130.465 51.1278Z" fill="#0011A4"/>
<path d="M115.262 51.1734C116.872 50.8884 118.729 51.4014 119.574 52.8984C120.34 53.7913 120.332 54.9995 120.195 56.1052C119.449 57.7504 117.801 59.293 115.89 59.1562C114.733 59.217 113.785 58.3811 113.012 57.6212C112.155 56.7739 112.22 55.5124 112.247 54.403C112.11 52.7464 113.876 51.6217 115.262 51.1734Z" fill="#0011A4"/>
<path d="M129.475 71.5578C129.962 71.0373 130.446 70.4788 131.074 70.1292C132.071 70 133.107 70.5852 133.567 71.4514C133.624 72.4621 133.594 73.7122 132.608 74.2973C131.39 74.5823 130.233 74.2517 129.327 73.4044C129.376 72.7889 129.308 72.1544 129.475 71.5578Z" fill="#0011A4"/>
<path d="M109.963 77.071C110.854 76.9798 111.767 76.9684 112.658 77.0976C114.348 77.9943 115.745 79.9776 115.197 81.9458C114.729 83.1046 114.009 84.1913 112.943 84.8828C111.843 85.0196 110.713 85.0348 109.613 84.8904C108.295 84.0317 106.959 82.7361 107.26 81.0149C106.99 79.2101 108.425 77.7397 109.963 77.071Z" fill="#0011A4"/>
<path d="M52.4645 89.1193C53.104 89.1155 53.7436 89.1079 54.3831 89.0927C54.7637 89.9286 54.9312 90.8481 54.7561 91.7599C54.227 92.5009 53.203 92.0943 52.4341 92.2159C52.4112 91.1824 52.4341 90.149 52.4645 89.1193Z" fill="#0011A4"/>
</g>
<defs>
<clipPath id="clip0_520_47">
<rect width="113" height="127" fill="white"/>
</clipPath>
</defs>
</svg>
