<svg width="113" height="127" viewBox="0 0 113 127" fill="none" xmlns="http://www.w3.org/2000/svg">
<g clip-path="url(#clip0_520_80)">
<path d="M8.96606 125.233C9.23924 125.052 9.5342 124.848 9.88447 124.905C10.3504 124.902 10.642 125.334 11.0761 125.436C11.4749 125.576 11.9811 125.594 12.2408 125.97C12.4386 126.262 12.4637 126.624 12.5459 126.959H11.961C11.7598 126.67 11.6878 126.144 11.2202 126.21C10.1895 126.195 9.15377 126.161 8.12474 126.233C7.93368 126.456 7.79626 126.716 7.63034 126.959H7.08398C7.20298 126.569 7.208 126.102 7.52811 125.805C7.95379 125.498 8.5387 125.537 8.96606 125.233Z" fill="#0011A4"/>
<path d="M26.2199 125.529C26.9355 125.494 26.6791 126.267 26.7042 126.714C27.2087 126.422 27.7266 126.616 28.1422 126.959H26.2015C26.1897 126.482 26.1964 126.004 26.2199 125.529Z" fill="#0011A4"/>
<path d="M29.6908 125.695C30.0009 125.266 30.5657 126.074 30.0997 126.211C29.7478 126.46 29.3154 125.935 29.6908 125.695Z" fill="#0011A4"/>
<path d="M35.0671 125.707C35.2866 125.414 35.7576 125.617 35.6302 125.994C35.7039 126.572 34.5073 126.126 35.0671 125.707Z" fill="#0011A4"/>
<path d="M37.5709 126.564C37.5759 126.12 37.5206 125.578 38.1122 125.509C38.1306 125.991 38.1357 126.476 38.1306 126.959H36.1631C36.5586 126.621 37.0497 126.471 37.5709 126.564Z" fill="#0011A4"/>
<path d="M41.9302 125.702C42.2453 125.249 42.8218 126.09 42.3341 126.215C41.9905 126.461 41.5715 125.934 41.9302 125.702Z" fill="#0011A4"/>
<path d="M15.695 125.912C16.295 125.53 17.0776 125.885 17.3525 126.481C16.9503 126.889 16.3821 126.321 15.8911 126.314C15.8575 126.528 15.8207 126.744 15.7805 126.959H15.2944C15.328 126.58 15.2408 126.076 15.695 125.912Z" fill="#0011A4"/>
<path d="M51.29 126.959C51.5582 126.819 51.8062 126.592 52.1247 126.572C52.4431 126.598 52.6961 126.82 52.9727 126.959H51.29Z" fill="#0011A4"/>
<path d="M17.7363 126.959C18.0531 126.788 18.3497 126.476 18.7452 126.54C19.0335 126.585 19.2396 126.811 19.4776 126.959H17.7363Z" fill="#0011A4"/>
<path d="M20.1162 126.959C20.4246 126.791 20.7112 126.486 21.095 126.541C21.3916 126.557 21.5894 126.812 21.824 126.959H20.1162Z" fill="#0011A4"/>
<path d="M22.2866 126.959C22.6888 126.618 23.5486 126.265 23.7983 126.959H22.2866Z" fill="#0011A4"/>
<path d="M23.9658 126.959C24.2323 126.802 24.4686 126.531 24.8038 126.536C25.1541 126.507 25.4054 126.783 25.6719 126.959H23.9658Z" fill="#0011A4"/>
<path d="M29.7125 126.959C29.451 126.451 30.3778 126.45 30.1298 126.959H29.7125Z" fill="#0011A4"/>
<path d="M30.5942 126.959C31.0166 126.559 31.6149 126.541 32.1663 126.535C32.2484 126.641 32.4093 126.853 32.4914 126.959H30.5942Z" fill="#0011A4"/>
<path d="M32.9707 126.959C33.2489 126.796 33.4953 126.491 33.8539 126.535C34.174 126.571 34.4154 126.814 34.6902 126.959H32.9707Z" fill="#0011A4"/>
<path d="M35.1039 126.959C34.829 126.459 35.7742 126.459 35.5312 126.959H35.1039Z" fill="#0011A4"/>
<path d="M38.5732 126.959C38.8414 126.809 39.0794 126.575 39.3978 126.538C39.7849 126.487 40.0766 126.794 40.3933 126.959H38.5732Z" fill="#0011A4"/>
<path d="M41.9619 126.959C41.6938 126.458 42.6289 126.458 42.3876 126.959H41.9619Z" fill="#0011A4"/>
<path d="M42.8452 126.959C43.5893 126.185 44.6804 126.91 45.5703 126.53C45.6524 126.636 45.8183 126.851 45.9004 126.959H42.8452Z" fill="#0011A4"/>
<path d="M46.4434 126.959C46.7484 126.796 47.0366 126.494 47.4137 126.549C47.7137 126.624 47.9634 126.814 48.2316 126.959H46.4434Z" fill="#0011A4"/>
<path d="M48.793 126.959C49.393 126.443 50.2376 126.603 50.8762 126.959H48.793Z" fill="#0011A4"/>
<path d="M42.7897 0.156765C45.0522 0.0767524 47.3214 0.133904 49.5856 0.132272C50.7688 0.0979803 51.5197 1.3292 51.5448 2.35957C51.5314 5.30208 51.5414 8.2446 51.5381 11.1871C51.5163 12.1865 51.342 13.2593 50.6968 14.0659C49.2454 14.6342 47.6214 14.4742 46.0879 14.5052C44.9885 14.5493 43.8941 14.4301 42.7998 14.3452C42.3942 14.2962 41.9719 14.1427 41.7339 13.8014C41.2361 13.1482 41.2177 12.291 41.159 11.5121C41.1573 8.46177 41.1624 5.41149 41.1674 2.36283C41.1439 1.39452 41.7841 0.369044 42.7897 0.156765Z" fill="#0011A4"/>
<path d="M34.0197 1.9726C36.1699 1.97423 38.3184 1.91381 40.4687 1.94157C40.5692 2.51636 40.6262 3.09604 40.5625 3.67573C40.6731 5.95854 40.5793 8.24626 40.6212 10.5323C40.6078 11.161 40.6983 11.8158 40.4703 12.42C40.1502 12.7172 39.6408 12.7057 39.2218 12.7188C38.0469 12.6862 36.8654 12.7792 35.6973 12.6192C34.98 12.5882 34.0901 12.6404 33.6677 13.3001C33.1716 14.1084 33.1465 15.1012 32.6789 15.921C32.2934 16.1904 31.8158 16.3325 31.3415 16.3292C28.1036 16.3472 24.8657 16.3406 21.6278 16.3243C21.1116 16.3569 20.7127 15.9569 20.4764 15.5536C19.9736 14.7453 20.0558 13.7459 19.6435 12.9017C19.2597 12.082 18.8826 11.228 18.2441 10.5617C17.6357 9.9004 16.6151 9.67016 15.757 9.94775C15.0347 10.1519 14.252 10.08 13.5582 10.3837C13.042 10.5993 12.4671 10.7299 12.0582 11.1284C12.9196 11.1382 13.6436 10.6058 14.4833 10.5013C15.2894 10.3984 16.114 10.3854 16.9234 10.4621C17.8402 10.6221 18.3044 11.5774 18.4016 12.3955C16.9134 12.451 15.4201 12.389 13.9319 12.4494C12.5828 12.7009 11.2236 12.9311 9.91467 13.3491C8.46834 13.7786 6.97675 14.1541 5.6779 14.9347C4.89356 15.3413 4.16788 15.8605 3.33494 16.1773C3.29137 16.1136 3.20422 15.9846 3.16064 15.921C3.2612 15.3331 3.48913 14.7649 3.85113 14.2815C4.39246 13.5761 4.69077 12.727 5.25221 12.0346C6.00974 11.0402 7.05552 10.3184 7.97729 9.48237C8.73313 8.76389 9.75881 8.42588 10.5834 7.79557C12.4252 6.73254 14.3475 5.77729 16.3754 5.0931C17.3692 4.6914 18.3899 4.34522 19.4457 4.12968C20.3139 3.96475 21.1217 3.57938 21.9982 3.44712C23.1462 3.29199 24.2473 2.91315 25.402 2.79722C26.6556 2.67638 27.8941 2.45267 29.146 2.31387C30.7734 2.24039 32.3957 2.08853 34.0197 1.9726Z" fill="#0011A4"/>
<path d="M22.7708 16.9399C25.4288 16.9562 28.0886 16.9382 30.7466 16.9693C30.7633 21.8452 30.7566 26.721 30.7516 31.5969C30.7734 32.3856 30.5622 33.3099 31.2125 33.9255C31.1119 33.9026 30.9108 33.8553 30.8103 33.8308C30.7416 34.7762 30.7416 35.7249 30.7684 36.6704C30.7566 37.1162 31.0533 37.4803 31.1823 37.8902C31.1321 38.2919 30.8874 38.656 30.9008 39.0724C30.8991 40.2987 30.7231 41.5169 30.755 42.7432C30.7751 43.6658 30.6293 44.6096 30.879 45.5126C30.7633 45.867 30.7483 46.2393 30.7449 46.6083C30.7516 51.5691 30.7499 56.5299 30.7499 61.4907C30.7248 61.7487 30.7684 62.17 30.4081 62.2174C29.5097 62.4476 28.5695 62.3333 27.6528 62.3562C26.0372 62.3251 24.4132 62.4411 22.8043 62.2549C22.6183 60.3493 22.7859 58.4323 22.687 56.5234C22.7239 56.1086 22.744 55.6939 22.749 55.2791C22.7457 48.638 22.7473 41.9953 22.7457 35.3526C22.7088 32.6649 22.801 29.9738 22.7122 27.286C22.7574 23.8373 22.6451 20.3853 22.7708 16.9399Z" fill="#0011A4"/>
<path d="M50.7135 24.9281C51.2414 24.9967 51.7408 25.191 52.1883 25.4719C53.0313 25.983 53.9179 26.4173 54.7709 26.9137C55.505 27.3464 56.11 28.1058 56.0798 28.9761C56.0815 31.1805 56.0564 33.3833 56.0899 35.5878C60.4892 35.6008 64.907 36.3014 69.0365 37.7971C66.4572 37.0296 63.8562 36.2801 61.168 35.978C59.4635 35.8507 57.7491 35.5927 56.0396 35.8066C56.0698 36.7455 56.0698 37.6877 56.058 38.6283C56.0614 39.4888 55.5904 40.3232 54.853 40.7919C53.1168 41.8467 51.2665 42.7138 49.5487 43.7981C48.7526 44.2781 47.9113 44.6831 47.1303 45.1877C46.47 45.5959 45.741 46.0205 44.9315 45.9894C43.7349 45.8131 42.7712 45.0424 41.7238 44.5149C40.3897 43.8226 39.0992 43.0567 37.8406 42.2452C37.306 41.8843 36.7043 41.6426 36.0976 41.4254C35.1038 40.9895 34.053 40.2334 33.934 39.0969C33.8536 37.4966 34.0681 35.8833 33.8184 34.2896C34.0463 32.5326 33.8686 30.7592 33.9441 28.9957C33.9709 28.3834 34.3128 27.8265 34.7368 27.3922C35.3703 26.7733 36.2099 26.4222 36.9741 25.9846C37.7116 25.596 38.4155 24.9934 39.3138 25.0816C39.3456 26.819 39.3322 28.5581 39.3205 30.2955C39.3071 30.6988 39.3808 31.1038 39.5685 31.4663C38.94 32.7236 39.4948 34.4758 40.812 35.0914C41.3014 35.3281 41.8645 35.2955 42.3958 35.3102C44.2997 35.3004 46.2035 35.32 48.1074 35.302C48.8046 35.3249 49.4884 35.0489 49.9727 34.5639C50.6062 33.9745 50.6766 33.06 50.6984 32.2583C50.7068 29.8138 50.6783 27.3709 50.7135 24.9281ZM50.023 40.9535C48.7024 41.5985 47.4856 42.4215 46.1868 43.1041C45.7912 43.3294 45.3538 43.5188 45.0572 43.8716C44.789 44.2243 45.0907 44.7158 45.503 44.7746C46.0644 44.8693 46.5739 44.5476 47.0532 44.3124C48.4744 43.509 49.9325 42.7628 51.3235 41.9088C51.9939 41.4875 52.6341 41.0188 53.333 40.6416C53.9145 40.3085 54.6201 40.0767 54.9335 39.4415C54.7123 39.1165 54.5011 38.5009 53.9832 38.7083C52.5151 39.1884 51.4056 40.3085 50.023 40.9535Z" fill="#0011A4"/>
<path d="M45.1998 47.9718C46.7534 47.5718 48.0489 46.574 49.4601 45.8654C49.9762 45.9454 49.8288 46.5724 49.874 46.9398C49.8086 50.4816 49.9243 54.0267 49.8137 57.5668C49.9059 64.6912 49.8371 71.8238 49.8572 78.9515C49.8589 88.1497 49.8573 97.3479 49.8388 106.548C49.8606 107.075 49.7181 107.728 50.2561 108.063C49.445 107.851 48.6204 107.694 47.7975 107.539C46.3194 107.266 44.9216 106.709 43.4803 106.308C42.2502 105.965 41.1223 105.369 39.981 104.82C40.0513 100.117 39.9122 95.4096 40.0882 90.7085C39.9508 89.1343 40.0111 87.5521 40.0027 85.973C40.0094 79.7679 40.0061 73.5629 40.0111 67.3578C40.0212 65.6987 39.9558 64.0364 40.1016 62.3807C40.1335 57.8885 40.1083 53.3964 40.1184 48.9042C40.1117 48.2265 40.3228 47.5718 40.343 46.8957C40.3698 46.6296 40.3681 46.2279 40.72 46.1772C42.339 46.4516 43.4904 48.0224 45.1998 47.9718Z" fill="#0011A4"/>
<path d="M55.7248 48.2053C56.0818 48.1383 56.4488 48.1547 56.8125 48.1481C59.4974 48.1661 62.1822 48.1318 64.8671 48.1645C65.5073 48.0796 65.8089 48.7344 66.0553 49.1916C66.3989 49.8055 66.2581 50.524 66.2815 51.1919C66.2782 57.4492 66.2832 63.7066 66.2748 69.9639C66.3503 70.3884 65.8776 70.5648 65.5207 70.5272C61.8705 70.524 58.2203 70.5468 54.5718 70.5272C54.5869 63.7555 54.5768 56.9838 54.5768 50.2121C54.5617 49.4087 55.0528 48.6462 55.7248 48.2053ZM56.4237 50.493C55.9578 50.7755 55.7717 51.3356 55.7315 51.8434C55.6947 52.4982 55.5623 53.1449 55.5656 53.8029C55.579 57.944 55.5572 62.0834 55.5706 66.2229C55.5522 66.9593 55.9544 67.6011 56.2695 68.2412C56.6483 68.2314 57.0287 68.2346 57.4091 68.251C57.6991 67.7676 58.1398 67.3088 58.0963 66.7095C58.0762 65.7804 58.0963 64.8529 58.2102 63.9303C58.2153 60.8816 58.2069 57.833 58.2169 54.7843C58.2371 53.9629 58.0695 53.1514 58.0963 52.33C58.1398 51.7552 58.0175 51.169 57.6153 50.7281C57.3723 50.3199 56.8226 50.4522 56.4237 50.493ZM59.4236 50.4603C59.1354 50.9437 58.7147 51.4074 58.7432 52.0034C58.7449 56.9055 58.7382 61.8075 58.7398 66.7095C58.6711 67.4721 59.3633 68.1203 60.1024 68.2346C60.647 68.3424 61.18 68.1481 61.7062 68.0403C61.8906 67.5031 62.1235 66.9626 62.0884 66.3845C62.1034 61.6458 62.1001 56.9071 62.09 52.1684C62.1303 51.4972 61.7163 50.929 61.299 50.4375C60.6739 50.4375 60.0487 50.4473 59.4236 50.4603ZM63.2582 50.7706C62.7403 51.4515 62.7721 52.3447 62.7822 53.1514C62.7855 57.4509 62.7788 61.752 62.7805 66.0531C62.7922 66.7193 62.8224 67.5031 63.4174 67.9472C63.652 68.2363 64.0458 68.3457 64.3978 68.1954C65.0028 67.8885 65.3212 67.1961 65.2827 66.5495C65.2844 61.6458 65.2877 56.7438 65.2777 51.8402C65.3045 51.298 64.9207 50.8735 64.6408 50.4456C64.1782 50.5028 63.538 50.2856 63.2582 50.7706Z" fill="#0011A4"/>
<path d="M21.7852 64.43C22.0098 63.8078 22.3483 63.0126 23.1226 62.9375C25.0214 62.7628 26.9253 63.073 28.8275 62.9979C29.5599 63.0289 30.3258 62.8934 31.0364 63.0992C31.8408 63.736 31.8626 64.8562 32.2129 65.7428C32.7509 67.0949 32.5799 68.5547 32.5983 69.9705C32.5967 74.0528 32.6017 78.135 32.595 82.2173C32.5464 86.7389 32.6319 91.2588 32.5983 95.7787C32.5464 96.9724 33.3542 97.9505 33.6357 99.069C33.8821 99.7989 33.8804 100.606 34.2156 101.303C34.7586 101.812 35.4307 102.17 36.0206 102.627C35.3351 102.225 34.6363 101.837 34.043 101.308C32.9101 100.286 31.6414 99.4119 30.5755 98.3179C26.0169 94.0903 22.593 88.7114 20.7227 82.8574C21.1735 82.2973 21.0411 81.5691 21.0511 80.911C21.0361 76.445 21.0578 71.979 21.0394 67.5129C21.0143 66.4385 21.4701 65.4391 21.7852 64.43Z" fill="#0011A4"/>
<path d="M54.0117 71.187C58.1882 71.218 62.3646 71.1788 66.541 71.1919C67.2785 71.0873 67.4846 71.9495 67.5818 72.49C67.617 73.331 67.6924 74.1997 67.4896 75.0276C67.3991 75.524 66.8645 75.8228 66.3734 75.7738C62.1417 75.7657 57.91 75.7999 53.6799 75.7591C53.4972 75.4815 53.2358 75.2105 53.2391 74.8594C53.2157 74.0984 53.2257 73.3375 53.2341 72.5766C53.2039 72.0018 53.6983 71.6131 54.0117 71.187Z" fill="#0011A4"/>
<path d="M58.9089 76.4204C59.9128 76.4025 60.9183 76.4123 61.9222 76.4253C61.9608 86.9821 61.9021 97.5389 61.9524 108.094C63.6635 107.87 65.3596 107.527 67.0154 107.047C67.7327 106.817 68.4466 106.574 69.1874 106.425C67.2768 107.06 65.3478 107.705 63.3367 107.957C61.8083 108.231 60.253 108.293 58.7212 108.54C58.9659 107.901 58.9374 107.216 58.9307 106.546C58.9106 96.5053 58.9357 86.4629 58.9089 76.4204Z" fill="#0011A4"/>
<path d="M47.848 17.1783C48.6926 16.7276 49.6898 16.8696 50.6133 16.85C52.0697 16.8827 53.5328 16.7684 54.9824 16.9431C56.2629 17.0346 57.5449 16.9333 58.8254 16.9562C59.8326 16.9741 60.8331 16.8076 61.842 16.8484C62.7119 16.8794 63.6018 16.7521 64.4548 16.9725C65.3565 17.2419 66.1257 18.06 66.1174 19.0136C66.1475 22.4575 66.1056 25.9029 66.1391 29.3467C70.9843 30.3902 75.6333 32.2501 79.8667 34.768C80.1198 34.9133 80.4952 35.1158 80.7282 34.8203C83.0762 32.5342 85.4208 30.2399 87.7721 27.9571C88.4576 27.2533 89.609 27.0149 90.4939 27.495C91.1927 27.8869 91.6921 28.5237 92.272 29.0544C95.1178 31.8337 97.9601 34.6145 100.818 37.3839C101.277 37.8493 101.83 38.269 102.09 38.8813C102.323 39.6815 102.256 40.6579 101.577 41.2442C99.1149 43.6364 96.6596 46.0351 94.1993 48.429C96.2809 51.5495 97.9048 54.9509 99.0696 58.4926C99.4165 59.7843 99.7886 61.071 100.206 62.3447C100.372 62.5455 100.648 62.5178 100.886 62.5341C104.131 62.5553 107.377 62.5047 110.622 62.508C111.86 62.4002 112.869 63.6004 112.886 64.7353C112.878 69.4773 112.899 74.2193 112.889 78.9612C112.94 80.1712 111.907 81.3796 110.622 81.3469C107.151 81.3567 103.68 81.3355 100.209 81.3551C100.182 81.6849 100.161 82.0148 100.1 82.3414C99.2758 85.9322 97.8831 89.3858 96.12 92.6336C95.5971 93.6379 94.9502 94.5752 94.4558 95.5941C96.6479 97.6761 98.7763 99.8201 100.962 101.909C101.54 102.454 102.229 103.075 102.187 103.933C102.266 104.671 101.949 105.397 101.384 105.885C100.556 106.657 99.7685 107.47 98.9841 108.285C96.6831 110.45 94.4507 112.683 92.1798 114.879C91.481 115.543 90.8223 116.381 89.805 116.569C88.9335 116.722 88.1174 116.233 87.5274 115.653C85.5649 113.702 83.5488 111.799 81.5963 109.838C81.293 109.551 80.9997 109.232 80.6108 109.058C79.6572 109.557 78.7656 110.166 77.8037 110.653C74.3378 112.483 70.6273 113.871 66.7911 114.753C66.5632 114.846 66.1123 114.866 66.1375 115.191C66.1056 118.244 66.1358 121.301 66.1324 124.356C66.29 125.359 65.5961 126.156 64.9559 126.845C80.9561 126.897 96.9579 126.82 112.958 126.884V126.959H52.973C52.6965 126.82 52.4434 126.598 52.125 126.572C51.8065 126.592 51.5585 126.819 51.2904 126.959H50.8764C50.2379 126.603 49.3932 126.443 48.7932 126.959H48.2318C47.9636 126.814 47.7139 126.624 47.4139 126.549C47.0368 126.494 46.7486 126.796 46.4435 126.959H45.9005C45.8184 126.851 45.6525 126.636 45.5704 126.53C44.6805 126.91 43.5894 126.185 42.8453 126.959H42.3878C42.6291 126.458 41.6939 126.458 41.9621 126.959H40.3934C40.0767 126.794 39.785 126.487 39.3979 126.538C39.0795 126.575 38.8415 126.809 38.5733 126.959H38.1309C38.1359 126.476 38.1309 125.991 38.1125 125.509C37.5209 125.578 37.5762 126.12 37.5711 126.564C37.0499 126.471 36.5589 126.621 36.1633 126.959H35.5315C35.7745 126.459 34.8293 126.459 35.1042 126.959H34.6902C34.4153 126.814 34.174 126.571 33.8539 126.535C33.4953 126.491 33.2489 126.796 32.9707 126.959H32.4914C32.4093 126.853 32.2484 126.641 32.1662 126.535C31.6149 126.541 31.0166 126.559 30.5942 126.959H30.13C30.378 126.45 29.4512 126.451 29.7127 126.959H28.1423C27.7267 126.616 27.2088 126.422 26.7044 126.714C26.6792 126.267 26.9356 125.494 26.22 125.529C26.1966 126.004 26.1899 126.482 26.2016 126.959H25.672C25.4055 126.783 25.1541 126.507 24.8039 126.536C24.4687 126.531 24.2324 126.802 23.9659 126.959H23.7983C23.5486 126.265 22.6888 126.618 22.2866 126.959H21.824C21.5894 126.812 21.3916 126.557 21.095 126.541C20.7112 126.486 20.4246 126.791 20.1163 126.959H19.4777C19.2397 126.811 19.0336 126.585 18.7453 126.539C18.3498 126.476 18.0532 126.788 17.7364 126.959H15.7806C15.8208 126.744 15.8577 126.528 15.8912 126.314C16.3823 126.321 16.9504 126.889 17.3526 126.481C17.0778 125.885 16.2951 125.53 15.6951 125.912C15.241 126.076 15.3281 126.58 15.2946 126.959H12.5461C12.4639 126.624 12.4388 126.262 12.241 125.97C11.9813 125.594 11.4751 125.576 11.0763 125.436C10.6422 125.334 10.3506 124.902 9.88467 124.905C9.5344 124.848 9.23944 125.052 8.96626 125.233C8.53889 125.537 7.95399 125.498 7.5283 125.805C7.2082 126.102 7.20317 126.569 7.08418 126.959H0V126.855C1.51169 126.848 3.02506 126.892 4.53508 126.842C4.78983 126.536 4.86859 126.138 5.01775 125.78C5.53729 124.347 6.81603 123.22 8.30929 122.8C9.14391 122.537 10.0322 122.622 10.8936 122.611C22.8195 122.612 34.7438 122.611 46.6681 122.611C46.7117 120.063 46.6514 117.514 46.7016 114.967C43.9816 114.271 41.28 113.489 38.6957 112.4C36.4533 111.391 34.2528 110.299 32.1679 109.007C29.7479 111.321 27.3814 113.688 24.9614 116.002C24.0799 116.845 22.5547 116.788 21.7067 115.927C18.2409 112.557 14.7818 109.178 11.3159 105.806C10.374 104.99 10.3372 103.347 11.2958 102.529C13.2868 100.606 15.2611 98.664 17.2487 96.7355C17.6308 96.3534 18.0599 96.0089 18.375 95.5696C18.2023 94.9393 17.6929 94.4609 17.4012 93.8812C15.9046 91.133 14.4667 88.3244 13.5634 85.3296C13.2349 84.007 12.66 82.7316 12.5829 81.36C9.11542 81.3371 5.6479 81.3682 2.18039 81.3437C1.07092 81.3649 0.0435743 80.4635 0 79.3727V63.8274C0.484346 63.313 0.938524 62.6647 1.68767 62.5145C2.39826 62.312 3.134 62.4851 3.85298 62.5129C6.14398 62.5619 8.43499 62.5194 10.726 62.5259C11.3628 62.5308 11.993 62.4378 12.6248 62.3822C13.1075 60.057 13.9153 57.8101 14.7751 55.5942C15.8192 53.0959 17.1415 50.72 18.6029 48.4323C16.3421 46.2213 14.0846 44.007 11.807 41.8108C11.2187 41.2687 10.5852 40.6122 10.6137 39.7631C10.5349 38.9875 11.0126 38.3065 11.5589 37.7954C14.894 34.5672 18.2074 31.3177 21.5324 28.0796C21.8726 27.7465 22.2916 27.5081 22.7123 27.286C22.8011 29.9738 22.7089 32.6648 22.7458 35.3526C22.7475 41.9953 22.7458 48.638 22.7492 55.2791C22.7441 55.6938 22.724 56.1086 22.6871 56.5233C21.3179 59.0299 20.5235 61.7911 19.8397 64.5377C18.5761 70.5828 18.7839 76.9658 20.7229 82.8574C22.5933 88.7114 26.0172 94.0902 30.5758 98.3178C31.6417 99.4119 32.9104 100.285 34.0433 101.308C34.6366 101.837 35.3354 102.225 36.0209 102.627C37.2862 103.447 38.6186 104.164 39.9811 104.82C41.1224 105.369 42.2504 105.965 43.4805 106.308C44.9218 106.709 46.3195 107.266 47.7977 107.539C48.6206 107.694 49.4451 107.851 50.2563 108.063C51.763 108.295 53.2696 108.635 54.8048 108.594C56.1103 108.597 57.4193 108.644 58.7215 108.54C60.2533 108.293 61.8085 108.231 63.337 107.957C65.3481 107.705 67.2771 107.06 69.1877 106.425C73.582 104.766 77.7802 102.477 81.2293 99.3221C82.7795 98.0549 84.1119 96.5624 85.4225 95.0667C87.1219 93.2705 88.3369 91.1118 89.5637 88.9988C90.3179 87.761 90.8039 86.3959 91.3821 85.0781C92.6877 81.5919 93.5105 77.9292 93.7418 74.2225C93.8457 71.5478 93.7569 68.8617 93.3362 66.2147C93.1737 65.1843 92.8552 64.1817 92.7329 63.1448C92.7011 63.2297 92.6709 63.3146 92.6407 63.4012C92.515 62.2157 92.0424 61.1053 91.6804 59.977C89.9508 55.1729 87.1772 50.7085 83.5136 47.0671C81.0315 44.528 78.2159 42.2729 75.0685 40.5583C73.1596 39.4414 71.1066 38.5841 69.0368 37.7971C64.9073 36.3013 60.4896 35.6008 56.0902 35.5877C56.0567 33.3833 56.0818 31.1805 56.0802 28.9761C56.1103 28.1057 55.5053 27.3464 54.7713 26.9137C53.9182 26.4173 53.0316 25.9829 52.1887 25.4718C51.7412 25.191 51.2417 24.9967 50.7138 24.9281C50.6786 27.3709 50.7071 29.8138 50.6987 32.2582C50.677 33.06 50.6066 33.9744 49.9731 34.5639C49.4887 35.0489 48.8049 35.3248 48.1077 35.302C46.2039 35.3199 44.3 35.3003 42.3962 35.3101C41.8649 35.2954 41.3018 35.3281 40.8124 35.0913C39.4951 34.4757 38.9404 32.7236 39.5689 31.4663C40.7437 31.0433 41.9235 30.6318 43.1202 30.2742C44.295 29.8627 45.5318 29.6554 46.7 29.2259C46.648 25.9307 46.6949 22.6355 46.6765 19.3419C46.6145 18.4797 47.0553 17.5897 47.848 17.1783ZM29.6909 125.695C29.3155 125.935 29.7479 126.459 30.0998 126.211C30.5657 126.074 30.0009 125.266 29.6909 125.695ZM35.0673 125.707C34.5075 126.126 35.7041 126.572 35.6304 125.994C35.7578 125.617 35.2868 125.414 35.0673 125.707ZM41.9302 125.702C41.5716 125.934 41.9906 126.461 42.3341 126.215C42.8218 126.09 42.2453 125.249 41.9302 125.702Z" fill="#0011A4"/>
<path d="M30.7686 36.6704C30.7418 35.7249 30.7418 34.7762 30.8105 33.8307C30.9111 33.8552 31.1122 33.9026 31.2128 33.9255C31.5764 34.3125 31.9351 34.7207 32.391 35.0081C32.9071 34.8546 33.3412 34.5264 33.8188 34.2896C34.0686 35.8833 33.854 37.4966 33.9345 39.0969C34.0535 40.2334 35.1043 40.9895 36.0981 41.4254C35.2015 42.1537 34.2093 42.7546 33.2909 43.4568C32.4261 44.0708 31.6753 44.8186 30.8793 45.5126C30.6295 44.6096 30.7753 43.6658 30.7552 42.7432C30.7234 41.5169 30.8994 40.2987 30.901 39.0724C30.8876 38.656 31.1323 38.2919 31.1826 37.8902C31.0536 37.4803 30.7569 37.1162 30.7686 36.6704Z" fill="#0011A4"/>
<path d="M8.12477 126.232C9.1538 126.161 10.1895 126.195 11.2202 126.21C11.6878 126.144 11.7599 126.67 11.961 126.959H7.63037C7.79629 126.716 7.93372 126.456 8.12477 126.232Z" fill="#0011A4"/>
</g>
<defs>
<clipPath id="clip0_520_80">
<rect width="113" height="127" fill="white"/>
</clipPath>
</defs>
</svg>
