<svg width="125" height="127" viewBox="0 0 125 127" fill="none" xmlns="http://www.w3.org/2000/svg">
<g clip-path="url(#clip0_523_8)">
<path d="M94.8716 0.583822C99.9744 -0.928889 105.809 2.30618 107.402 7.37328C109.345 12.5468 106.275 18.846 101.079 20.591C96.808 22.2972 91.5993 20.5652 89.0046 16.8043C87.2961 14.3563 86.564 11.1341 87.3925 8.22479C88.2306 4.55429 91.2493 1.51919 94.8716 0.583822ZM95.5139 5.40257C92.3572 6.52178 90.8511 10.6503 92.5916 13.5306C94.072 16.385 98.1215 17.3269 100.703 15.4303C102.694 14.124 103.606 11.5018 102.954 9.21821C102.213 6.07345 98.4875 4.19304 95.5139 5.40257Z" fill="#0011A4"/>
<path d="M96.4323 7.57969C98.9371 6.56691 101.696 9.36333 100.662 11.8469C99.9808 14.1885 96.5864 14.8239 95.0514 12.9919C93.4554 11.3695 94.194 8.18606 96.4323 7.57969Z" fill="#0011A4"/>
<path d="M78.1725 9.61495C80.2053 9.3666 82.1802 8.72152 84.2322 8.62476C85.0543 9.46013 84.6722 10.6761 84.8039 11.7179C84.9451 14.1015 85.87 16.356 87.2091 18.3106C87.8096 19.0267 87.1513 19.9072 86.387 20.091C76.6985 23.8938 67.0164 27.7159 57.3279 31.5122C56.5893 31.8476 55.5842 31.2928 55.7512 30.4155C56.0498 25.3904 54.5791 20.3233 51.7146 16.2044C51.1976 15.5852 51.5701 14.4756 52.4243 14.4498C60.992 12.7662 69.5951 11.2599 78.1725 9.61495Z" fill="#0011A4"/>
<path d="M32.2221 8.87631C36.2684 8.66989 40.366 9.74072 43.7925 11.9114C49.1104 15.1175 52.8162 20.9361 53.3397 27.1611C53.6897 30.8187 53.102 34.5763 51.4996 37.8888C48.9177 43.3365 43.8214 47.5295 37.9607 48.9164C33.6319 49.9259 28.9466 49.5292 24.9036 47.6359C19.8361 45.3491 15.822 40.8432 14.0879 35.5407C13.0892 32.412 12.7456 29.0318 13.3654 25.7871C14.2838 19.9362 17.98 14.624 23.0731 11.6534C25.8413 9.98907 29.0205 9.11499 32.2221 8.87631ZM32.2446 19.2879C29.3609 19.575 26.6537 21.207 25.0577 23.6357C22.5176 27.2804 22.9158 32.6894 25.9954 35.8955C27.9318 38.0404 30.8445 39.2821 33.7315 39.0628C38.9851 39.0402 43.497 34.0151 43.1534 28.7835C43.102 23.2455 37.7103 18.5557 32.2446 19.2879Z" fill="#0011A4"/>
<path d="M31.5732 21.7553C35.4107 20.7264 39.6336 23.4358 40.5905 27.2449C40.9309 29.1608 40.8796 31.2864 39.8102 32.9765C38.3812 35.5407 35.3754 37.0985 32.4627 36.7179C28.0793 36.4341 24.685 31.6218 25.9117 27.3804C26.5475 24.6324 28.8211 22.352 31.5732 21.7553Z" fill="#0011A4"/>
<path d="M93.5453 23.3003C94.1394 22.9003 94.9197 23.3358 95.578 23.3777C97.2222 23.8034 98.9082 23.5261 100.536 23.1842C101.249 22.9326 102.1 23.5067 101.969 24.3002C101.975 30.1801 101.978 36.06 101.969 41.9398C102.078 42.8526 100.957 43.2526 100.238 42.9268C98.3173 42.3817 96.3006 42.5365 94.3802 42.9913C93.5967 43.2526 92.9287 42.443 93.0443 41.6979C93.0283 36.0987 93.0604 30.5026 93.0347 24.9065C93.0283 24.3356 93.009 23.6583 93.5453 23.3003Z" fill="#0011A4"/>
<path d="M95.5072 45.1298C98.4006 44.6395 101.493 45.2394 103.821 47.0811C107.601 49.8485 108.991 55.3123 107.106 59.5828C105.783 62.7308 102.842 65.1369 99.486 65.7433C94.4314 66.856 88.8919 63.5016 87.5432 58.4765C86.5412 55.5349 87.145 52.1869 88.8341 49.6227C90.3499 47.3101 92.8129 45.6781 95.5072 45.1298ZM95.854 49.9969C92.6395 50.9097 90.8733 54.9124 92.4179 57.9023C93.6736 60.6601 97.3312 62.0631 100.016 60.5407C102.97 59.2086 104.056 55.1446 102.328 52.4417C101.037 50.271 98.2464 49.2615 95.854 49.9969Z" fill="#0011A4"/>
<path d="M26.1558 51.1C26.6247 50.6484 27.3183 51.0129 27.861 51.0935C31.1944 52.0128 34.7685 52.0934 38.1211 51.229C38.9336 51.1161 40.0608 50.442 40.626 51.3612C40.9214 54.4673 40.7769 57.5959 40.8026 60.7149C40.764 61.6244 40.8925 62.5663 40.6163 63.45C40.2727 63.8854 39.6818 63.8274 39.1905 63.8532C35.125 63.8467 31.0563 63.8596 26.9876 63.8435C26.2971 63.9371 25.5971 63.3855 25.6645 62.6566C25.6324 59.3151 25.6677 55.9768 25.6484 52.6353C25.6677 52.0902 25.5906 51.4064 26.1558 51.1Z" fill="#0011A4"/>
<path d="M96.798 52.1644C98.7184 51.6386 100.758 53.2836 100.88 55.2382C100.941 56.7122 99.9611 58.2539 98.5128 58.6442C97.4788 58.8506 96.2682 58.8216 95.4461 58.0733C94.1583 57.1121 93.8468 55.1769 94.6015 53.7932C95.0735 52.9739 95.886 52.3901 96.798 52.1644Z" fill="#0011A4"/>
<path d="M83.5966 58.4668C84.2228 58.0056 85.1765 58.4249 85.3018 59.1958C86.0853 61.5922 87.5112 63.7565 89.4508 65.3627C90.0866 65.7433 90.3756 66.7658 89.6531 67.2109C87.7488 68.6688 85.6358 69.8331 83.7411 71.3039C83.1919 71.6361 83.2658 72.3651 83.5548 72.8521C85.6229 76.8935 87.8516 80.8446 89.9678 84.857C90.321 85.4118 90.2857 86.2601 89.6692 86.6181C89.0751 86.8955 88.4424 86.6245 88.025 86.1698C83.3846 81.7961 78.6897 77.4838 74.0205 73.1391C72.5593 71.8845 72.4405 69.4686 73.8631 68.1366C77.129 64.937 80.2761 61.6019 83.5966 58.4668Z" fill="#0011A4"/>
<path d="M110.231 58.4345C110.742 58.141 111.41 58.2991 111.776 58.7539C114.942 61.918 118.109 65.0821 121.259 68.2591C122.498 69.4525 122.511 71.6458 121.272 72.8424C118.125 75.9291 114.807 78.832 111.538 81.78C110 83.3701 108.356 84.8506 106.731 86.3536C106.073 87.118 104.795 86.531 104.743 85.5827C104.843 85.1924 105.045 84.8409 105.225 84.4828C107.335 80.5704 109.457 76.6613 111.545 72.736C111.875 72.2392 111.744 71.5555 111.24 71.2297C109.377 69.8654 107.383 68.6816 105.511 67.3237C104.891 66.9818 104.814 66.0271 105.357 65.5853C106.728 64.3661 108.019 63.0114 108.831 61.3439C109.435 60.4504 109.445 59.157 110.231 58.4345Z" fill="#0011A4"/>
<path d="M10.5201 66.7754C11.4931 66.1432 12.7005 66.2368 13.8052 66.1561C17.4468 66.1561 21.0885 66.1303 24.7269 66.169C26.7596 66.3948 28.7924 66.0884 30.8283 66.1529C35.5361 66.1948 40.2503 66.0529 44.9549 66.2626C47.9574 66.1594 50.9664 66.0755 53.9658 66.1981C56.2972 66.1948 58.301 68.3849 58.2175 70.7007C58.2175 77.9127 58.2175 85.1279 58.2175 92.3431C58.2208 94.5945 56.2265 96.7168 53.9562 96.6845C40.1443 96.691 26.3293 96.6877 12.5175 96.6845C10.398 96.6781 8.41344 94.8009 8.39738 92.6463C8.346 90.1628 8.36527 87.6792 8.41023 85.1989C8.44234 84.7699 8.45197 84.3183 8.67998 83.941C9.31581 83.5055 9.71723 84.3506 10.2342 84.6118C9.84247 84.2216 9.42179 83.8636 9.00432 83.4991C9.59841 82.5089 10.2631 83.5862 10.8958 83.9313C10.4879 83.5571 10.0705 83.1895 9.64337 82.8314C9.24195 83.1024 8.94973 83.6055 8.4295 83.6249C8.31068 79.319 8.4038 75.0034 8.38133 70.6943C8.27214 69.1041 9.13919 67.5463 10.5201 66.7754ZM14.9163 70.5911C14.5021 70.8007 14.1874 71.2361 14.197 71.7135C14.1135 74.068 14.2709 76.429 14.0653 78.7803C14.3158 82.9508 14.0846 87.1341 14.2066 91.3078C14.2163 92.0754 15.0512 92.4399 15.7159 92.3754C21.9362 92.3883 28.1597 92.3818 34.3768 92.3722C35.1508 92.4722 35.9183 91.8271 35.8316 91.0239C35.8316 84.5989 35.8637 78.1707 35.8187 71.7457C35.8733 70.9426 35.0833 70.4137 34.3447 70.5298C27.8707 70.5685 21.3839 70.433 14.9163 70.5911ZM43.8116 70.5717C43.1437 70.6265 42.8418 71.4006 42.9125 71.9877C42.9221 74.1487 42.8932 76.3129 42.9253 78.4739C42.8194 79.1706 43.4809 79.5609 44.0011 79.8447C46.1527 80.0221 48.285 79.5609 50.4366 79.6673C51.1944 79.7996 51.9459 79.1964 51.9073 78.4094C51.9394 76.2807 51.917 74.1487 51.9202 72.0231C51.994 71.2942 51.4834 70.4524 50.6806 70.5362C48.391 70.533 46.0981 70.4685 43.8116 70.5717ZM43.2754 83.1475C42.5079 85.2634 43.0409 87.5566 42.9093 89.7499C42.9606 90.6111 42.617 92.0045 43.7378 92.2947C45.6357 92.4915 47.556 92.3173 49.4603 92.3851C50.3049 92.3722 51.5123 92.5592 51.8431 91.5303C52.0197 89.4306 51.8592 87.3147 51.9234 85.2085C51.9651 84.4764 51.9009 83.4668 51.0307 83.2572C48.4488 83.0185 45.8572 83.3023 43.2754 83.1475Z" fill="#0011A4"/>
<path d="M16.4933 72.9037C22.1644 72.9004 27.8324 72.894 33.5003 72.9069C33.4971 78.5965 33.5517 84.2861 33.4714 89.9757C30.3115 89.9434 27.1516 89.9854 23.9917 89.9531C23.7861 88.4469 23.1631 87.0535 22.3089 85.8117C24.377 83.6571 26.5318 81.5897 28.6063 79.4448C29.4188 78.5675 28.2145 76.9451 27.1869 77.6869C24.9197 79.7544 22.8581 82.0509 20.6326 84.1668C19.4059 83.2572 17.964 82.7056 16.4804 82.3896C16.4772 80.8317 16.4933 79.2706 16.4644 77.716C16.7951 77.4644 17.1323 77.2192 17.4631 76.9709C17.2319 77.0967 16.7726 77.3515 16.5414 77.4805C16.5125 75.9549 16.4451 74.4293 16.4933 72.9037Z" fill="#0011A4"/>
<path d="M45.2183 72.9101C46.6794 72.894 48.1373 72.894 49.5985 72.9069C49.6274 74.368 49.621 75.8323 49.6017 77.2934C48.1406 77.3031 46.6762 77.3096 45.2151 77.2934C45.2054 75.8323 45.2022 74.3712 45.2183 72.9101Z" fill="#0011A4"/>
<path d="M16.4964 84.8505C19.0269 85.2182 21.2395 87.376 21.5671 89.9434C19.8747 89.9821 18.1823 89.9628 16.4932 89.9531C16.4836 88.2533 16.4675 86.5503 16.4964 84.8505Z" fill="#0011A4"/>
<path d="M45.3276 85.5956C46.7438 85.7375 48.1696 85.6633 49.589 85.6053C49.6083 86.9858 49.6404 88.3694 49.6051 89.7531L49.4124 89.9531C48.0187 89.9983 46.625 89.9467 45.2345 89.966C45.0804 88.5017 45.4208 87.0535 45.3276 85.5956Z" fill="#0011A4"/>
<path d="M56.0082 99.252C57.5464 99.1778 59.2195 98.9971 60.61 99.8132C62.9286 101.048 64.3736 103.442 65.2471 105.851C65.4526 106.312 65.655 106.996 66.2715 106.999C67.8258 107.106 69.3865 106.938 70.9376 107.067C71.4289 107.138 71.8399 107.619 71.7757 108.131C71.7886 111.57 71.8014 115.011 71.7757 118.45C71.8142 119.172 70.9729 119.662 70.3274 119.459C66.3615 118.772 62.0936 118.324 58.2722 119.885C52.1033 121.991 45.9183 124.055 39.759 126.187C38.285 126.571 36.7147 126.232 35.4173 125.468C29.3865 122.604 23.3589 119.743 17.3569 116.827C16.2298 116.256 15.0512 115.763 14.0332 115.005C9.85213 111.892 5.68386 108.767 1.49953 105.654C0.626054 105.067 0.0287512 104.042 0.134724 102.968C-0.0643766 100.326 3.43595 98.8165 5.35631 100.491C10.0127 103.884 14.714 107.212 19.3833 110.589C19.8232 110.896 20.2857 111.241 20.8573 111.16C27.5047 111.138 34.1521 111.176 40.7995 111.144C41.6858 111.286 42.4629 110.067 41.8496 109.351C41.5509 108.87 41.0018 108.748 40.4783 108.757C37.0422 108.696 33.6029 108.796 30.1668 108.728C28.118 108.657 26.7436 106.067 27.6717 104.274C28.1887 103.039 29.5053 102.287 30.8155 102.294C35.427 102.271 40.0416 102.284 44.6562 102.29C45.1187 102.29 45.5939 102.277 46.0307 102.09C49.2548 100.839 52.5593 99.6616 56.0082 99.252Z" fill="#0011A4"/>
<path d="M74.6243 102.719C75.0578 102.442 75.6069 102.574 76.0951 102.532C79.422 102.555 82.7521 102.519 86.079 102.548C86.885 102.39 87.2768 103.284 87.203 103.958C87.1933 111.15 87.2287 118.343 87.1933 125.532C87.2736 126.184 86.7213 126.81 86.0597 126.768C82.736 126.813 79.4123 126.761 76.0886 126.794C75.4881 126.781 74.7816 126.842 74.3417 126.342C74.1265 125.9 74.1201 125.4 74.1201 124.923C74.1362 117.924 74.1137 110.925 74.1298 103.926C74.1811 103.513 74.1651 102.903 74.6243 102.719ZM79.1233 105.371C77.8549 105.8 76.8401 106.941 76.6153 108.273C76.079 110.518 77.9897 112.947 80.2987 112.87C82.4727 113.018 84.3867 110.925 84.2389 108.78C84.0848 106.383 81.4162 104.432 79.1233 105.371Z" fill="#0011A4"/>
<path d="M90.0418 102.719C90.4657 102.422 91.0244 102.581 91.5094 102.532C101.577 102.548 111.641 102.539 121.708 102.535C122.547 102.555 123.401 102.458 124.229 102.629C124.897 102.903 124.75 103.668 124.782 104.251C124.759 111.354 124.807 118.459 124.766 125.565C124.923 126.574 123.78 126.858 123.006 126.781C112.505 126.806 102.001 126.774 91.4997 126.79C90.9121 126.761 90.1767 126.861 89.7688 126.332C89.5184 125.903 89.5151 125.403 89.5151 124.926C89.528 117.927 89.5216 110.928 89.5216 103.929C89.4959 103.474 89.589 102.939 90.0418 102.719Z" fill="#0011A4"/>
<path d="M79.7942 107.619C80.7447 107.238 82.0132 107.954 81.8301 109.067C81.9939 110.283 80.369 110.934 79.4891 110.263C78.5161 109.651 78.728 107.986 79.7942 107.619Z" fill="#0011A4"/>
</g>
<defs>
<clipPath id="clip0_523_8">
<rect width="125" height="127" fill="white"/>
</clipPath>
</defs>
</svg>
