<svg width="113" height="127" viewBox="0 0 113 127" fill="none" xmlns="http://www.w3.org/2000/svg">
<g clip-path="url(#clip0_520_56)">
<path d="M52.3097 1.32562C56.2843 -0.256468 60.6113 0.0834353 64.7995 0.0957954C65.0995 1.07842 65.3346 2.07959 65.5016 3.09312C65.8697 5.39828 66.6027 7.64781 66.6739 9.99623C71.5361 9.96842 76.3335 10.948 81.0102 12.2025C82.7021 9.34115 84.2113 6.3809 85.7827 3.44847C86.788 3.51027 87.784 3.70185 88.7304 4.05412C91.7925 5.00893 94.6598 6.49833 97.3291 8.26582C96.893 11.6741 95.0712 14.7178 94.3907 18.0612C96.7445 19.838 99.2716 21.4077 101.477 23.3791C102.624 24.4143 103.735 25.4896 104.799 26.6113C101.82 29.6179 98.4921 32.2413 95.4609 35.1892C94.0505 34.6979 93.0731 33.5237 91.9441 32.6121C86.7292 28.3602 80.472 25.4464 73.9116 23.991C70.2247 23.3544 66.4574 22.7549 62.7148 23.2061C53.1294 23.8241 43.7729 27.7855 36.7269 34.3271C29.2386 41.3136 24.3454 51.0843 23.4577 61.2937C22.8051 66.76 23.5814 72.3251 25.1929 77.5689C26.5601 82.1916 28.8211 86.5392 31.744 90.3708C38.9941 100.324 50.9952 106.535 63.256 107.113C63.3303 110.425 62.4704 113.645 62.158 116.923C61.957 117.98 61.824 119.046 61.6074 120.103C57.8556 120.091 54.1563 119.266 50.5405 118.323C50.1384 118.271 49.5414 117.983 49.3744 118.536C47.9083 121.117 46.5783 123.774 45.106 126.351C44.9019 127.015 44.1688 126.845 43.6337 126.802C40.1757 125.696 36.7486 124.33 33.7514 122.248C33.2008 121.914 33.4637 121.144 33.5194 120.631C34.3174 117.829 35.5918 115.168 36.2815 112.338C35.4804 111.386 34.3267 110.855 33.3246 110.147C30.6058 108.234 28.0478 106.09 25.7528 103.683C25.3445 103.092 24.6455 103.479 24.1815 103.766C21.9854 105.064 19.8512 106.461 17.6613 107.771C17.1417 108.092 16.3251 108.268 15.8766 107.74C13.0187 105.086 10.7391 101.792 9.174 98.2288C11.2402 96.0441 13.6435 94.2303 15.8736 92.2218C16.1643 91.8788 16.7644 91.5142 16.421 91.0074C14.5404 86.8111 12.4248 82.5964 11.7443 77.9984C8.29557 77.9675 4.83444 78.1869 1.39187 77.9984C-0.0309302 74.1513 -0.0556749 69.9674 0.0927916 65.9195C0.624797 65.4158 1.41353 65.3726 2.08781 65.1686C4.71381 64.702 7.32435 64.1489 9.94726 63.67C10.1854 62.1837 10.2689 60.685 10.3277 59.1832C10.6587 57.3354 10.8412 55.4628 11.2927 53.6366C11.602 52.206 12.1712 50.8216 12.1134 49.3353C9.35958 47.7347 6.42737 46.3411 3.66836 44.6323C3.59104 42.5867 4.5406 40.7327 5.29531 38.8911C6.08713 36.9907 7.11712 35.2016 8.15329 33.4279C11.766 33.2641 14.8559 35.6064 18.3542 36.1069C19.9347 33.5206 21.7411 31.0733 23.7237 28.7805C24.9084 27.5105 26.1641 26.3116 27.3024 24.9983C25.8146 22.7704 24.4722 20.4498 23.0463 18.1848C22.7339 17.6101 22.2669 17.0569 22.2947 16.3679C22.502 15.8333 22.9164 15.41 23.3123 15.0083C25.629 12.8854 28.187 11.0128 30.98 9.56363C31.4997 9.31334 32.1461 9.24845 32.6936 9.43694C34.936 11.6618 36.7857 14.2666 39.0034 16.5038C40.9737 15.7282 42.811 14.6529 44.806 13.9298C47.2433 12.8792 49.8043 12.1809 52.3685 11.5073C52.4211 8.11441 52.3004 4.72156 52.3097 1.32562Z" fill="#0011A4"/>
<path d="M67.7502 32.5812C68.4306 32.0683 68.9905 31.4163 69.671 30.9064C70.2092 31.6048 70.5896 32.4978 71.3969 32.9428C72.1083 32.7543 72.73 32.3433 73.395 32.0374C73.7136 32.884 73.7754 33.8265 74.1837 34.6392C74.7436 35.2047 75.6034 34.9822 76.3087 35.0687C76.2592 35.971 75.7705 36.8022 75.7828 37.7014C76.2499 38.3936 76.9489 38.8941 77.4902 39.5276C76.8376 39.9942 76.1014 40.365 75.5478 40.9583C75.5385 41.7864 76.0334 42.5095 76.2932 43.2727C75.3838 43.6991 74.3848 43.8475 73.429 44.1225C73.4105 44.8795 73.4259 45.6551 73.1414 46.372C72.297 46.1495 71.5175 45.5933 70.6267 45.6026C69.971 46.1186 69.4545 46.7861 68.8699 47.3763C68.3131 46.6995 67.8028 45.9888 67.2677 45.2967C66.4511 45.618 65.6191 45.927 64.7406 46.029C64.7066 45.343 64.7406 44.6539 64.654 43.9711C64.0911 43.1367 62.9281 43.3685 62.093 43.0564C62.2786 42.2252 62.6312 41.4434 62.8137 40.6122C62.3095 39.9509 61.6352 39.4442 61.0166 38.8972C61.6352 38.3379 62.3404 37.8621 62.8817 37.2163C63.0023 36.3603 62.4147 35.6218 62.1827 34.8339C62.9869 34.667 63.8653 34.6577 64.6045 34.2838C65.1211 33.5855 65.1273 32.6616 65.418 31.8643C66.1882 32.0992 66.9058 32.7604 67.7502 32.5812ZM68.211 34.5094C66.2253 34.9235 64.7406 36.7095 64.4251 38.6686C64.1932 41.3538 66.5841 43.8196 69.2132 43.9741C71.2577 43.7548 73.2589 42.3951 73.8064 40.3465C74.9292 37.1359 71.4649 33.604 68.211 34.5094Z" fill="#0011A4"/>
<path d="M47.7196 36.3913C48.1897 36.1502 48.7094 36.0174 49.2135 35.8629C49.5971 36.4778 49.9002 37.1483 50.3394 37.7261C50.8838 37.8775 51.4653 37.8775 52.0251 37.8127C52.5138 37.5253 52.9159 37.0927 53.4356 36.8609C53.9119 36.8269 54.3913 36.8609 54.8707 36.8733C54.8676 37.6242 54.8491 38.375 54.8398 39.1259C55.3502 39.4226 55.8389 39.7594 56.3832 39.9942C57.1998 40.0993 58.0287 39.8799 58.8484 40.0035C59.2938 41.2704 58.0071 42.4786 58.6937 43.7022C59.0123 44.7034 60.2898 44.5953 61.0847 44.9815C61.0537 45.445 61.0073 45.9085 60.9455 46.372C60.398 46.8201 59.7856 47.1723 59.1794 47.5308C59.1732 48.1024 59.1361 48.6772 59.1824 49.2488C59.5227 49.7062 60.0547 49.9595 60.497 50.3056C60.3702 50.8031 60.231 51.3006 60.0918 51.795C59.4732 51.8197 58.8515 51.7827 58.2391 51.8754C57.639 52.2709 57.3081 52.9414 56.8781 53.4976C57.0513 54.1465 57.2524 54.7923 57.4163 55.4474C57.0018 55.6977 56.6059 55.9789 56.1605 56.1674C55.5234 56.0284 55.0068 55.5834 54.3758 55.4196C53.782 55.4752 53.219 55.741 52.7365 56.0809C52.5107 56.6773 52.4118 57.3107 52.2818 57.9318C51.6973 57.9503 51.1127 57.9689 50.5281 57.9874C50.2806 57.4529 50.0363 56.9152 49.8012 56.3744C49.1238 56.3775 48.4403 56.325 47.766 56.4053C47.3732 56.7082 47.0298 57.0697 46.6339 57.3694C46.1329 57.354 45.6472 57.2087 45.1678 57.0851C45.1833 56.4455 45.208 55.809 45.2328 55.1693C44.6451 54.746 44.076 54.2979 43.5254 53.8252C42.9006 54.0198 42.2789 54.2238 41.6417 54.3845C41.3479 53.9889 41.0572 53.5965 40.7726 53.1979C41.2551 52.3358 41.9077 51.2975 41.3108 50.3149C41.0572 49.4157 39.9962 49.493 39.2786 49.2457C39.2725 48.6556 39.2694 48.0654 39.2632 47.4783C39.6993 47.2527 40.1571 47.0611 40.5623 46.7768C40.7509 46.1743 40.8437 45.547 40.952 44.9259C40.4509 44.484 39.9406 44.0514 39.4271 43.6219C39.6251 43.1213 39.823 42.6207 40.0272 42.1232C40.6767 42.1078 41.3479 42.2252 41.9913 42.0862C42.4274 41.6628 42.814 41.1684 43.0831 40.6215C43.1388 39.9911 42.7583 39.4164 42.613 38.82C42.9099 38.5635 43.2161 38.3256 43.5347 38.1031C44.3327 37.9517 45.0039 38.4554 45.6813 38.7829C46.2164 38.5234 46.7607 38.2731 47.3113 38.0475C47.4103 37.4851 47.5062 36.9227 47.7196 36.3913ZM48.6599 40.5226C47.6392 40.8007 46.7113 41.3384 45.8545 41.9471C43.7976 43.4303 42.9408 46.2515 43.5625 48.671C44.1657 50.6208 45.5823 52.3172 47.4783 53.1268C51.0694 54.9036 55.7801 52.2122 56.4575 48.3558C57.2122 45.4512 55.4491 42.2098 52.7242 41.0479C51.4529 40.5442 50.0146 40.0931 48.6599 40.5226Z" fill="#0011A4"/>
<path d="M94.9755 44.1842C94.8889 43.5106 95.3219 42.6732 96.0983 42.7845C97.5303 42.7659 98.9717 42.6825 100.395 42.8463C101.592 43.9309 100.562 45.5253 100.017 46.6686C99.9522 48.3094 99.9677 49.9688 100.193 51.6034C100.413 54.7336 100.079 57.9009 100.546 61.0156C100.695 62.9438 100.493 64.8905 100.812 66.8094C101.072 70.2332 100.704 73.6971 101.118 77.1085C102.071 77.334 103.055 77.4144 104.013 77.1579C104.029 76.2618 104.05 75.3657 104.174 74.4788C104.49 70.879 104.035 67.2327 104.589 63.6514C104.666 60.1442 104.672 56.6309 104.712 53.1206C104.839 52.0978 104.054 51.3346 103.803 50.4045C103.914 49.8174 104.131 49.2612 104.335 48.7019C106.179 48.7637 108.17 48.2754 109.887 49.1406C110.122 50.4014 109.652 51.5231 108.999 52.5675C108.835 54.1156 108.941 55.6884 109.197 57.2211C109.343 59.9835 109.191 62.7584 109.361 65.5209C109.711 67.8229 109.42 70.159 109.652 72.4703C109.949 73.9906 109.878 75.548 109.865 77.0899C111.273 77.3371 112.822 77.6368 114.168 76.9787C114.267 75.1339 114.109 73.2861 114.22 71.4414C114.582 69.2907 116.679 67.8847 118.708 67.5417C120.741 67.653 122.81 68.9879 123.398 71.0057C123.877 73.2645 123.698 75.5789 123.725 77.8686C123.713 84.8026 123.747 91.7366 123.71 98.6676C123.763 99.1898 123.005 98.9642 122.686 99.0662C99.3305 99.0847 75.9718 99.0785 52.6161 99.0693C52.613 93.8286 52.6037 88.5879 52.6285 83.3441C54.2894 82.5098 55.9566 81.6817 57.5619 80.7423C57.5279 76.1814 57.5588 71.6206 57.5526 67.0566C57.5557 66.2068 57.5217 65.3509 57.664 64.5135C58.5888 64.2169 59.5569 64.1551 60.5219 64.0902C63.0428 63.6699 65.5513 63.1415 68.0845 62.7862C68.9072 62.5668 69.9434 62.6008 70.5713 61.9859C70.7136 59.1431 70.5496 56.291 70.6455 53.445C70.6424 52.8549 70.9579 52.0422 71.6539 52.0545C75.6903 51.9618 79.7298 52.0669 83.7663 52.0236C84.2704 52.036 84.7901 51.9989 85.2818 52.1411C85.9499 52.827 85.7736 53.8159 85.8077 54.6811C85.8262 55.7657 85.7211 56.8564 85.8726 57.9318C86.9892 59.1801 88.9255 59.965 89.1482 61.8159C89.1915 66.9917 89.1358 72.1706 89.1822 77.3464C91.1215 77.3557 93.0609 77.3309 95.0033 77.3557C95.0837 74.9516 94.9043 72.5352 95.2662 70.1528C95.3869 67.8847 95.1982 65.5981 95.5662 63.3486C95.6745 59.3285 95.5755 55.2991 95.7116 51.2789C95.8817 49.9193 95.956 48.5474 95.8879 47.1785C95.7982 46.1155 94.8796 45.2812 94.9755 44.1842ZM72.9498 55.7039C72.6529 57.6289 72.9251 59.6004 72.8137 61.544C73.4231 61.6676 74.0262 61.8221 74.6263 61.9859C74.6386 64.1427 74.5984 66.3026 74.6448 68.4626C76.4574 68.4687 78.273 68.5244 80.0824 68.41C80.1412 65.9133 79.9711 63.4042 80.1752 60.9136C80.899 59.5046 82.4795 58.8835 83.5095 57.7495C83.7199 56.6803 83.4508 55.6173 83.1724 54.5914C80.3608 54.5513 77.5492 54.5914 74.7376 54.5822C73.986 54.5451 73.0024 54.8077 72.9498 55.7039ZM60.3704 67.8044C60.3518 69.0558 60.3426 70.3073 60.3889 71.5588C61.1158 71.497 61.8334 71.3703 62.5479 71.2189C62.551 70.0756 62.5726 68.9199 62.2757 67.8044C61.6416 67.8075 61.0045 67.8075 60.3704 67.8044ZM68.7835 67.8168C68.7742 68.9106 68.7154 70.0076 68.7897 71.0984C69.3093 71.738 70.2001 71.4321 70.9115 71.5155C70.9425 70.2826 70.9455 69.0497 70.9113 67.8168C70.2063 67.8168 69.4918 67.8168 68.7835 67.8168ZM64.6821 67.8106C64.4996 68.4687 64.3883 69.1455 64.4161 69.8284C64.4594 70.4093 64.2553 71.1725 64.9296 71.4599C65.5853 71.5773 66.241 71.4135 66.8813 71.2838C66.8627 70.1219 66.9617 68.9384 66.6493 67.8013C65.9905 67.8075 65.3347 67.8106 64.6821 67.8106ZM74.617 71.4939C74.617 73.3603 74.6294 75.2266 74.6201 77.093C76.3584 77.4669 78.1647 77.4422 79.903 77.0961C79.8937 75.2143 79.9061 73.3324 79.8999 71.4475C78.1647 71.1509 76.3429 71.1231 74.617 71.4939ZM64.4501 73.4313C64.4254 74.7322 64.413 76.0362 64.4594 77.3402C65.2512 77.3464 66.0431 77.3464 66.8349 77.3464C66.8658 76.0455 66.8689 74.7446 66.8534 73.4437C66.0523 73.4406 65.2512 73.4375 64.4501 73.4313ZM60.3673 73.6445C60.358 74.8249 60.3518 76.0022 60.3673 77.1826C61.0911 77.195 61.8179 77.1795 62.5417 77.127C62.5139 75.9713 62.5232 74.8187 62.517 73.6662C61.7994 73.6569 61.0849 73.6507 60.3673 73.6445ZM68.7866 73.6353C68.7557 74.8033 68.7557 75.9713 68.7402 77.1394C69.4732 77.2043 70.2094 77.2042 70.9455 77.1641C70.9363 75.996 70.9301 74.8311 70.9332 73.6662C70.2156 73.6507 69.5011 73.6414 68.7866 73.6353ZM113.03 84.5647C113.02 87.8216 113.033 91.0815 113.027 94.3415C113.821 94.3508 114.613 94.3539 115.408 94.3632C115.427 91.0877 115.433 87.8154 115.414 84.5431C115.114 84.4102 114.821 84.2773 114.527 84.1444C114.026 84.2742 113.528 84.4225 113.03 84.5647ZM60.4013 84.2248C60.2776 87.5867 60.3704 90.9518 60.3642 94.3137C61.0942 94.3724 61.8241 94.3137 62.5386 94.1468C62.4891 90.8498 62.5757 87.5466 62.5015 84.2495C61.7994 84.2371 61.1004 84.231 60.4013 84.2248ZM64.4625 84.2557C64.4037 87.6207 64.4068 90.9888 64.4625 94.3539C65.2574 94.3539 66.0492 94.3508 66.8442 94.3446C66.8751 90.9796 66.8813 87.6115 66.8442 84.2464C66.0492 84.2464 65.2543 84.2464 64.4625 84.2557ZM68.7742 84.2464C68.7618 87.6238 68.7433 91.0043 68.7866 94.3848C69.5908 94.4002 70.3919 94.3168 71.1651 94.0851C71.1744 90.8096 71.1435 87.5311 71.1682 84.2557C70.3702 84.2464 69.5722 84.2433 68.7742 84.2464ZM80.8124 84.1692C80.4134 85.5164 80.5309 86.9193 80.8557 88.2665C81.5423 88.1337 82.4795 88.455 82.9002 87.7289C83.0487 86.5578 82.9497 85.3743 82.928 84.2001C82.2228 84.1908 81.5176 84.1815 80.8124 84.1692ZM84.8736 84.2001C84.8457 85.5411 84.7313 86.9038 85.0344 88.2233C85.6809 88.2202 86.3242 88.2202 86.9707 88.2233C87.3573 86.8915 87.2831 85.5041 86.9799 84.1661C86.2778 84.1784 85.5757 84.1877 84.8736 84.2001ZM117.329 84.2248C117.307 87.6022 117.289 90.9796 117.329 94.3601C118.13 94.357 118.931 94.3539 119.732 94.3508C119.769 90.9858 119.76 87.6207 119.735 84.2557C118.931 84.2464 118.13 84.2371 117.329 84.2248ZM89.1729 84.6049C89.1141 85.8285 89.0585 87.08 89.3461 88.282C90.0111 88.1615 90.8648 88.4458 91.3257 87.8061C91.3937 86.7339 91.403 85.6555 91.3411 84.5832C90.8555 83.9992 89.5781 83.888 89.1729 84.6049ZM108.922 84.4565C108.913 87.6856 108.897 90.9147 108.907 94.1468C109.655 94.1499 110.404 94.1499 111.152 94.1438C111.168 90.9301 111.152 87.7165 111.146 84.5029C110.419 84.2248 109.655 84.1846 108.922 84.4565ZM85.1519 90.4388C85.0127 91.7675 85.0932 93.1055 85.087 94.4404C85.7396 94.4373 86.3892 94.4373 87.0418 94.4373C87.0604 93.0839 87.0665 91.7274 87.017 90.377C86.3923 90.3894 85.7705 90.3894 85.1519 90.4388ZM89.1574 90.5779C89.1636 91.8695 89.142 93.1611 89.1915 94.4528C89.9029 94.4373 90.6174 94.4466 91.3288 94.4002C91.4154 93.1333 91.3566 91.8633 91.3411 90.5964C90.6236 90.3739 89.875 90.3677 89.1574 90.5779ZM80.7289 90.6304C80.7382 91.8973 80.7474 93.1611 80.7784 94.428C81.4217 94.4311 82.0651 94.4373 82.7115 94.4435C82.7239 93.1642 82.7208 91.888 82.7113 90.6088C82.0527 90.615 81.3908 90.6242 80.7289 90.6304ZM94.4064 91.613C94.5734 92.4999 93.9331 93.8162 94.8518 94.3601C98.4335 94.4651 102.018 94.3477 105.6 94.3941C105.619 93.464 105.625 92.5339 105.625 91.6068C101.885 91.6038 98.1459 91.5976 94.4064 91.613Z" fill="#0011A4"/>
<path d="M42.474 60.8364C42.9597 60.1721 43.4081 59.4799 43.8721 58.8001C44.4443 59.2945 44.9145 59.9125 45.5362 60.3482C46.3713 60.3544 47.0363 59.7024 47.7694 59.3872C48.1622 60.2246 48.3261 61.1918 48.9509 61.9025C49.4984 61.9365 50.0458 61.8963 50.5933 61.884C50.5778 62.6256 50.4974 63.3703 50.5686 64.115C50.9552 64.8164 51.7841 65.0729 52.412 65.5024C51.9914 66.1266 51.4346 66.6735 51.1129 67.3595C51.0263 68.1876 51.6666 68.8674 51.9233 69.6152C51.1139 69.8964 50.3892 70.0725 49.6685 70.4217C49.2447 71.1571 49.3344 72.0316 49.2695 72.8474C48.5581 72.696 47.825 72.2788 47.0858 72.4951C46.427 72.9617 46.0341 73.7126 45.4712 74.2811C44.9856 73.762 44.5619 73.1811 44.0082 72.733C43.1607 72.8288 42.4307 73.3294 41.6235 73.5704C41.3884 72.8103 41.3234 71.9513 40.7821 71.3271C40.08 71.2004 39.3624 71.2622 38.6541 71.2344C38.682 70.4588 38.7995 69.6894 39.0222 68.9478C38.3819 68.3977 37.7046 67.891 37.0488 67.3595C37.5344 66.6982 38.6201 66.2471 38.45 65.2923C38.3386 64.6248 37.9211 64.0532 37.6736 63.4351C38.4067 63.1478 39.1645 62.9346 39.9285 62.7553C39.9779 61.9179 40.0367 61.0775 40.2687 60.2648C41.0079 60.4347 41.7348 60.6572 42.474 60.8364ZM44.0175 62.1003C41.775 62.5267 40.0893 64.7608 40.2965 67.0227C40.5378 68.546 41.5214 69.9458 42.9194 70.6256C45.4465 71.7597 48.8117 70.1498 49.2262 67.3348C49.786 64.4641 46.9095 61.4668 44.0175 62.1003Z" fill="#0011A4"/>
<path d="M168.135 59.449C168.401 59.449 168.936 59.4459 169.205 59.4459C169.601 60.1783 169.957 61.1269 170.913 61.2412C171.568 61.0404 172.175 60.6603 172.877 60.6325C173.647 61.1825 173.137 62.1899 173.347 62.9716C174.117 63.7874 175.447 63.5433 176.211 64.39C175.889 65.0914 175.135 65.7063 175.215 66.5344C175.698 67.3935 176.817 67.823 176.824 68.9323C176.075 69.3124 175.166 69.6214 174.835 70.4742C175.036 71.2158 175.453 71.8956 175.537 72.6743C174.894 73.6137 173.48 72.5414 172.824 73.4777C172.15 74.0154 172.459 74.9548 172.342 75.6964C171.352 75.6995 170.511 75.0938 169.564 74.9702C168.732 75.4584 168.33 76.6141 167.223 76.611C166.886 75.9405 166.62 75.2081 166.066 74.6797C165.175 74.5438 164.411 75.1803 163.601 75.4399C162.967 74.4449 163.35 72.9988 162.289 72.2664C161.708 72.0841 161.071 72.183 160.471 72.1212C160.48 71.2004 160.925 70.3939 161.167 69.5287C161.123 68.4873 159.233 68.2587 159.673 67.0845C160.276 66.6055 161.015 66.2811 161.494 65.6569C161.532 64.7855 160.972 64.0284 160.743 63.2158C161.767 62.7739 163.183 63.1725 163.873 62.1095C164.055 61.6028 163.935 61.0311 163.981 60.5027C164.185 60.3884 164.591 60.1535 164.792 60.0361C165.457 60.4594 166.122 61.2443 167 60.9322C167.467 60.5151 167.78 59.9589 168.135 59.449ZM166.787 62.9933C164.739 63.7349 162.961 65.7094 163.072 67.9775C163.047 71.1386 166.437 73.9598 169.536 72.8875C171.896 72.2448 173.56 69.7851 173.291 67.3657C172.917 64.4054 169.7 62.1497 166.787 62.9933Z" fill="#0011A4"/>
<path d="M153.78 76.4503C154.275 76.0733 154.937 76.1259 155.516 76.2186C155.732 76.7037 155.899 77.2074 156.078 77.708C156.842 77.708 157.606 77.711 158.374 77.7234C158.754 77.0776 159.119 76.4225 159.484 75.7705C160.164 75.9992 160.947 76.1135 161.47 76.6543C161.572 77.2166 161.504 77.7883 161.504 78.3569C162.094 78.6659 162.67 79.0212 163.298 79.2622C163.932 79.1325 164.458 78.6813 165.101 78.5793C165.763 78.5701 166.097 79.2777 166.57 79.6361C166.31 80.2696 165.803 80.8474 165.812 81.5612C166.047 82.1947 166.453 82.7509 166.808 83.3225C167.479 83.2854 168.148 83.2669 168.822 83.2453C168.949 83.9405 169.029 84.6451 169.097 85.3496C168.658 85.6215 168.206 85.8718 167.798 86.187C167.681 87.0306 167.745 87.8834 167.73 88.7332C168.278 88.8784 168.819 89.0422 169.363 89.1998C169.332 89.9166 169.283 90.6366 169.119 91.3381C168.503 91.3535 167.888 91.3041 167.282 91.3999C166.771 91.9561 166.428 92.6544 166.153 93.3527C166.313 94.116 166.79 94.7649 167.093 95.4756C166.548 95.7692 166.097 96.3964 165.413 96.2945C164.866 96.2079 164.417 95.8433 163.932 95.6054C163.332 96.0565 162.722 96.4984 162.11 96.9279C162.141 97.5119 162.166 98.0959 162.203 98.68C161.578 98.9426 160.953 99.196 160.322 99.437C159.982 98.887 159.66 98.3308 159.345 97.7715C158.491 97.7869 157.637 97.7869 156.784 97.7808C156.589 98.3215 156.397 98.8653 156.208 99.4092C155.642 99.3814 155.076 99.3845 154.516 99.3041C153.833 98.7479 153.978 97.719 153.765 96.9372C153.208 96.69 152.679 96.3624 152.092 96.2048C151.408 96.2296 150.867 96.7456 150.26 97.0021C149.846 96.6931 149.432 96.3902 149.02 96.0874C149.104 95.318 149.435 94.6197 149.803 93.9522C149.333 93.3095 148.915 92.6297 148.535 91.9313C147.922 91.9715 147.31 92.0024 146.7 92.0426C146.428 91.5142 146.171 90.9827 145.927 90.4481C146.478 90.0124 147.062 89.62 147.65 89.2307C147.638 88.4705 147.628 87.7104 147.631 86.9533C147.065 86.6289 146.49 86.3229 145.921 86.0078C146.029 85.3836 146.159 84.7625 146.338 84.1568C146.942 84.1599 147.548 84.1599 148.157 84.163C148.51 83.4956 148.946 82.8683 149.221 82.1638C148.946 81.2306 148.371 80.3685 148.547 79.3488C149.305 79.2252 150.106 79.0676 150.826 79.4415C151.689 79.942 152.463 79.1263 153.205 78.774C153.31 77.9861 152.849 76.8613 153.78 76.4503ZM156.799 80.7578C152.63 81.0761 149.642 85.7142 150.891 89.6602C151.553 91.5914 152.908 93.4053 154.863 94.1623C157.427 95.3798 160.672 94.7618 162.664 92.7564C165.63 90.031 165.385 84.7254 162.19 82.2719C160.746 80.9154 158.717 80.5353 156.799 80.7578Z" fill="#0011A4"/>
<path d="M133.518 83.4369C134.3 83.715 134.981 84.2063 135.751 84.5091C136.669 84.3453 137.334 83.5697 138.17 83.1927C138.562 83.9653 138.804 84.8953 139.555 85.4207C140.257 85.433 140.916 85.1395 141.603 85.0282C141.717 85.2353 141.94 85.6524 142.051 85.8625C141.866 86.4125 141.464 87.1294 142.011 87.6115C142.426 88.3345 143.279 88.2357 143.997 88.2944C144.084 89.2894 143.388 90.0155 142.985 90.8529C143.394 91.6841 143.981 92.4288 144.21 93.3466C143.406 93.6092 142.645 93.98 141.977 94.4991C142.212 95.2191 142.463 95.936 142.695 96.6591C141.788 96.9743 140.827 96.8507 139.889 96.8661C139.531 97.6664 139.221 98.5069 138.649 99.1867C137.916 98.8375 137.316 97.9847 136.431 98.1052C135.68 98.4513 135.08 99.0693 134.282 99.335C133.923 98.6305 133.805 97.7128 133.091 97.2585C132.287 96.999 131.464 97.7437 130.666 97.4161C130.499 96.5695 130.762 95.6826 130.483 94.8576C129.787 94.3817 128.962 94.1592 128.219 93.773C128.593 93.0437 129.466 92.4535 129.398 91.5667C129.067 90.7788 128.433 90.1329 128.219 89.2832C128.962 88.9649 129.692 88.6126 130.378 88.1831C130.236 87.3581 130.041 86.5454 129.908 85.7204C130.709 85.7018 131.513 85.7606 132.321 85.7297C133.047 85.1889 133.19 84.2248 133.518 83.4369ZM134.978 86.5825C132.933 87.2345 131.192 89.2307 131.513 91.4678C131.417 94.4003 134.594 96.8815 137.406 95.9793C139.441 95.4323 140.969 93.5412 141.102 91.4431C141.145 88.452 137.928 85.6493 134.978 86.5825Z" fill="#0011A4"/>
<path d="M78.3995 105.274C82.4699 105.283 86.5404 105.246 90.6108 105.29C90.6449 106.584 90.6418 107.882 90.6139 109.18C86.5404 109.232 82.4637 109.217 78.3871 109.183C78.3747 107.879 78.384 106.575 78.3995 105.274Z" fill="#0011A4"/>
<path d="M94.4404 105.568C95.192 105.429 95.9406 105.249 96.7107 105.268C100.051 105.283 103.392 105.252 106.732 105.283C106.751 106.584 106.757 107.882 106.745 109.183C102.649 109.229 98.5542 109.211 94.4621 109.195C94.4466 107.984 94.4435 106.776 94.4404 105.568Z" fill="#0011A4"/>
<path d="M126.954 105.265C130.935 105.28 134.919 105.274 138.9 105.271C138.912 106.575 138.915 107.879 138.897 109.186C134.91 109.235 130.923 109.195 126.939 109.205C126.868 107.891 126.855 106.575 126.954 105.265Z" fill="#0011A4"/>
<path d="M110.771 105.484C114.715 105.422 118.662 105.447 122.609 105.475C122.615 106.637 122.615 107.799 122.59 108.96C118.646 109.022 114.703 109.013 110.759 108.97C110.744 107.808 110.75 106.646 110.771 105.484Z" fill="#0011A4"/>
<path d="M70.5525 111.717C74.4837 111.704 78.4119 111.72 82.3432 111.711C82.6772 112.842 82.671 114.031 82.3865 115.174C78.4336 115.199 74.4806 115.199 70.5246 115.178C70.5184 114.025 70.5184 112.869 70.5525 111.717Z" fill="#0011A4"/>
<path d="M86.689 115.431C86.3797 114.204 86.3272 112.925 86.686 111.704C90.5863 111.717 94.4897 111.72 98.3901 111.711C98.8386 112.91 98.8014 114.207 98.387 115.412C94.4897 115.409 90.5894 115.394 86.689 115.431Z" fill="#0011A4"/>
<path d="M102.754 111.72C106.673 111.707 110.595 111.723 114.514 111.707C114.879 112.925 114.826 114.207 114.499 115.428C110.586 115.397 106.67 115.412 102.757 115.409C102.723 114.179 102.723 112.95 102.754 111.72Z" fill="#0011A4"/>
<path d="M118.99 111.763C122.874 111.646 126.769 111.745 130.657 111.714C130.697 112.953 130.688 114.192 130.65 115.431C126.732 115.4 122.81 115.403 118.891 115.419C118.656 114.232 118.201 112.835 118.99 111.763Z" fill="#0011A4"/>
<path d="M134.894 111.961C138.847 111.862 142.8 111.911 146.756 111.927C146.756 113.011 146.747 114.096 146.737 115.181C142.794 115.199 138.847 115.208 134.9 115.165C134.9 114.096 134.897 113.027 134.894 111.961Z" fill="#0011A4"/>
<path d="M78.6348 117.931C82.5568 117.881 86.4788 117.906 90.4008 117.912C90.4441 119.154 90.4441 120.4 90.4379 121.642C86.4912 121.639 82.5445 121.667 78.5977 121.63C78.5946 120.397 78.5823 119.164 78.6348 117.931Z" fill="#0011A4"/>
<path d="M94.8638 117.931C98.5724 117.891 102.29 117.875 105.999 117.937C107.301 118.66 106.562 120.406 106.738 121.611C102.64 121.664 98.5383 121.676 94.44 121.605C94.5235 120.381 94.1524 119.022 94.8638 117.931Z" fill="#0011A4"/>
<path d="M110.772 118.129C111.539 117.921 112.331 117.875 113.122 117.894C116.021 117.925 118.916 117.894 121.814 117.903C122.299 117.832 122.664 118.249 122.825 118.663C122.884 119.64 122.835 120.622 122.831 121.602C118.804 121.688 114.777 121.639 110.75 121.63C110.759 120.461 110.756 119.297 110.772 118.129Z" fill="#0011A4"/>
<path d="M126.899 117.999C130.651 117.801 134.421 117.928 138.179 117.925C139.472 118.635 138.73 120.412 138.912 121.611C134.897 121.673 130.886 121.648 126.874 121.633C126.862 120.418 126.871 119.207 126.899 117.999Z" fill="#0011A4"/>
</g>
<defs>
<clipPath id="clip0_520_56">
<rect width="113" height="127" fill="white"/>
</clipPath>
</defs>
</svg>
