<svg width="113" height="127" viewBox="0 0 113 127" fill="none" xmlns="http://www.w3.org/2000/svg">
<g clip-path="url(#clip0_520_17)">
<path d="M55.778 6.0534C58.1865 4.14245 60.322 1.8521 63.0807 0.418884C63.7948 4.4586 62.9826 8.59667 63.5357 12.6434C64.46 13.8378 65.9443 14.2733 67.3656 14.5263C80.6336 17.0203 92.6273 24.9031 100.791 35.61C108.577 46.029 112.974 59.1106 112.309 72.1712C111.805 90.501 101.575 108.198 86.0598 117.88C73.604 125.973 57.8365 128.608 43.4062 125.207C23.1716 120.711 6.2488 103.983 1.47372 83.7494C-0.0736322 78.6347 -0.129645 73.225 0.185426 67.9418C0.885585 66.1573 2.76901 64.4641 4.82047 64.6819C8.11822 64.162 10.8138 67.6608 10.6528 70.745C10.3097 77.4474 12.2352 84.0515 15.0358 90.0724C20.7351 102.107 32.0916 111.142 44.9395 114.36C50.3098 116.032 56.002 115.498 61.5403 115.428C79.0162 113.432 94.6998 100.414 99.7129 83.4613C101.596 76.8502 102.507 69.7895 101.141 62.9888C98.8867 45.9728 85.8008 31.3455 69.6201 26.2309C67.7157 25.6829 65.0411 24.4464 63.4727 26.2309C63.1507 29.842 63.5708 33.4883 63.2277 37.1065C60.5881 35.7646 58.5296 33.6078 56.2331 31.7881C51.332 27.7976 46.4659 23.7719 41.5158 19.8376C41.5368 19.128 41.5368 18.4184 41.4948 17.7018C46.3049 13.8799 51.0169 9.93855 55.778 6.0534Z" fill="#0011A4"/>
<path d="M50.8279 38.2868C54.1467 37.6756 58.2916 36.6077 61.0502 39.1158C61.1903 41.1673 61.4843 43.3101 62.7656 44.9962C64.6981 47.4481 68.1709 48.7057 71.1745 47.7011C72.8409 47.0898 74.1712 45.8604 75.7256 45.0384C77.1539 44.7082 78.0571 46.0711 79.0023 46.8861C80.3256 48.3263 81.992 49.5699 82.8812 51.3544C83.2313 54.0171 79.7375 55.373 79.9685 58.0849C79.5414 60.7125 80.6827 63.3119 82.7272 64.9489C84.4355 66.5015 86.8511 66.5367 88.9516 67.1971C89.9668 67.8083 89.8198 69.0026 89.8898 70.0284C89.9528 72.3398 89.9668 74.6653 89.6727 76.9556C88.7905 77.89 87.3062 77.6722 86.1579 78.0516C82.6501 78.5504 79.4714 81.8243 79.8635 85.5198C79.4644 88.3511 81.5229 90.4799 83.0912 92.5454C81.6629 95.187 79.4154 97.2244 77.1819 99.1565C76.6848 99.5148 75.9286 100.238 75.3265 99.6482C72.7989 97.653 69.4522 95.4188 66.1754 97.0839C62.4646 98.2923 60.6162 102.325 60.9592 106.042C57.5705 106.92 53.9786 107.138 50.6109 106.035C50.3658 103.681 50.0998 101.117 48.5244 99.2267C46.2069 96.3392 41.6699 95.4961 38.5752 97.6249C37.2939 98.2853 36.1316 99.7607 34.5282 99.2197C32.2527 97.8637 30.4533 95.7842 28.962 93.6203C28.1008 91.8077 29.7462 90.3745 30.6354 88.9975C33.604 84.9718 30.3483 78.6207 25.5802 77.9954C24.3339 77.5809 22.4995 77.9462 21.9604 76.4076C21.5473 73.2953 21.6944 70.1408 22.0654 67.0285C24.698 66.4313 27.7787 66.3259 29.6622 64.0988C32.3788 61.7031 32.6378 57.0732 30.2433 54.3754C29.4661 53.3426 28.2268 52.1974 28.976 50.7853C30.5373 48.8533 32.3368 47.1179 34.1922 45.474C35.1374 44.5677 36.6007 44.9892 37.4969 45.748C39.7024 47.3638 42.6431 48.6425 45.3247 47.3919C49.1195 46.1906 50.898 42.0314 50.8279 38.2868ZM36.4817 67.0003C34.0451 75.2976 37.966 84.6135 45.1917 89.152C51.4371 93.1004 60.105 93.4236 66.2104 89.0326C63.4728 85.9765 60.7072 82.7447 57.4024 80.356C55.1549 81.0445 52.7814 81.2272 50.4498 80.9251C45.5697 79.8923 41.6769 75.6067 40.9137 70.6958C40.8227 68.4968 40.3676 65.8903 42.5241 64.5133C44.9606 66.642 47.1101 69.094 49.5256 71.2508C51.024 71.1103 52.5573 70.9979 53.9226 70.3024C55.351 69.2696 54.7978 67.3024 54.9659 65.7919C53.5585 62.5883 48.6014 61.2253 49.1196 57.1856C52.3053 57.017 55.7991 56.462 58.6487 58.2675C62.6396 60.312 65.1322 64.8646 64.7751 69.3328C64.7681 70.9909 64.292 72.663 64.6001 74.314C67.2887 77.0259 69.8722 79.8642 72.8479 82.2599C74.0592 80.2647 75.2845 78.1218 75.2635 75.705C75.4315 71.4616 75.8026 66.8809 73.4641 63.1152C69.5992 55.2817 60.1821 50.715 51.6891 52.7244C44.4425 54.0592 38.4841 59.9677 36.4817 67.0003Z" fill="#0011A4"/>
</g>
<defs>
<clipPath id="clip0_520_17">
<rect width="113" height="127" fill="white"/>
</clipPath>
</defs>
</svg>
