<svg width="113" height="99" viewBox="0 0 113 99" fill="none" xmlns="http://www.w3.org/2000/svg">
<g clip-path="url(#clip0_520_117)">
<path d="M48.0786 46.5015C48.9643 47.635 48.8942 49.2404 48.7709 50.6084C48.4766 50.6754 48.1851 50.7424 47.8936 50.8122C47.9244 49.3744 47.8879 47.9282 48.0786 46.5015Z" fill="#E5E5E5"/>
<path d="M33.1611 0H36.9873C37.0209 0.600254 37.049 1.20051 37.077 1.80076C38.3552 2.17208 39.6642 2.49036 40.8723 3.06548C42.5458 3.8835 43.9249 5.1901 45.1274 6.58604C49.1161 11.6086 48.3481 19.6548 43.3951 23.7589C43.1484 24.0548 42.5402 24.2419 42.6887 24.7109C44.023 25.7048 45.7328 25.9393 47.2128 26.6541C50.2962 28.0891 52.8218 30.4985 54.8848 33.1536C56.6143 35.5406 57.5589 38.4135 58.0438 41.2947C58.0915 41.6939 58.2569 42.0708 58.5736 42.3305C59.493 43.1876 60.4264 44.0558 61.0347 45.1698C60.1854 45.9208 59.2211 46.549 58.4643 47.3949C58.2176 48.6764 58.4895 50.0109 58.1784 51.2868C57.8532 52.6855 56.9731 54.034 55.5996 54.5924C53.9598 55.2848 52.1126 54.8576 50.5765 54.1038C49.6599 54.7515 48.6788 55.3657 47.9865 56.2647C47.7903 56.7421 47.7678 57.2642 47.7482 57.7723C47.7538 69.6015 47.7594 81.4307 47.7482 93.2599C47.8015 95.8173 45.859 98.1457 43.4119 98.7794C41.1919 99.3322 38.5206 98.531 37.3012 96.5236C36.6453 95.3119 36.2389 93.9523 36.1968 92.5731C36.138 83.8373 36.2585 75.0987 36.138 66.3657C35.2634 66.9102 33.8535 67.4099 33.974 68.6607C33.9796 76.2964 33.9684 83.935 33.9824 91.5736C33.9656 92.749 34.0889 93.9718 33.6685 95.097C33.2705 96.2975 32.4352 97.3416 31.37 98.0173C29.9376 98.8827 28.1577 98.933 26.5571 98.6259C24.4857 98.1457 22.9608 96.3114 22.5039 94.2985C22.3105 92.6652 22.5208 91.0124 22.3862 89.3736C21.0323 90.1386 19.9307 91.247 18.7114 92.1934C17.1277 93.4609 15.7486 95.0076 13.9827 96.0378C12.1551 93.9188 10.5097 91.6462 8.59799 89.5997C5.92668 86.6571 3.60855 83.4157 0.875576 80.5289C0.673756 80.2944 0.46633 80.0599 0.320572 79.7863C0.239283 79.3787 0.648528 79.1637 0.889591 78.918C4.33735 76.0843 7.86359 73.3482 11.188 70.3693C12.4802 71.4051 13.1698 72.9574 14.2994 74.1411C15.1936 75.1043 15.9756 76.1708 16.9371 77.0754C17.621 76.5812 18.3022 76.0787 19.0394 75.6683C19.0898 76.3579 19.1206 77.0503 19.1459 77.7426C19.3981 77.7426 19.6504 77.7454 19.9055 77.7482C20.0064 76.6036 19.5803 75.2579 20.4101 74.3058C20.6119 75.5817 20.1578 77.1675 21.4276 78.0163C20.7969 78.731 20.1662 79.4513 19.5243 80.1604C20.4072 81.3442 21.4332 82.4107 22.4283 83.4995C22.4507 82.4609 22.4058 81.4223 22.4395 80.3838C22.4142 79.482 23.1767 78.8008 23.2243 77.9129C23.2664 76.598 23.2523 75.2802 23.2411 73.9624C23.2748 73.0495 22.3442 72.4185 22.4311 71.4916C22.4451 64.6906 22.4311 57.8896 22.4367 51.0886C22.4619 49.2208 22.1928 47.3698 21.9685 45.5188C21.5341 47.2637 21.3603 49.0505 21.1893 50.8317C21.0239 52.6381 19.6672 54.2462 17.9406 54.7822C16.4017 55.1368 14.5909 54.9693 13.4389 53.7855C12.298 52.8475 11.8579 51.3622 11.8187 49.9355C11.6757 45.9515 11.5776 41.8419 12.8782 38.017C13.722 36.0739 14.532 34.0749 15.8831 32.4109C17.6715 29.9513 20.1466 28.036 22.9048 26.7629C24.4044 25.9589 26.1535 25.6518 27.5074 24.5741C26.7758 23.6723 25.9096 22.8962 25.1388 22.0307C23.5495 20.1657 22.8095 17.7424 22.5011 15.3525C22.1311 11.0754 24.1213 6.6698 27.6055 4.13198C29.1836 2.85888 31.185 2.33959 33.1023 1.79797C33.1219 1.20051 33.1415 0.600254 33.1611 0ZM26.9832 11.0558C26.9103 11.4411 26.4983 11.8822 26.7982 12.2536C27.2467 12.4127 27.7316 12.3652 28.1969 12.3848C32.8724 12.3596 37.5451 12.382 42.2206 12.3736C42.6971 12.3987 43.1484 12.2368 43.5941 12.0916C42.6214 9.14899 40.2585 6.44086 37.0938 5.86015C37.0686 6.42411 37.0546 6.99086 37.049 7.55761C35.7596 7.69442 34.4646 7.63579 33.1752 7.59949C33.1499 7.02995 33.1275 6.4632 33.1051 5.89366C30.3104 6.27056 28.0091 8.52081 26.9832 11.0558ZM26.588 16.3799C27.4485 19.2109 29.6153 21.6761 32.4968 22.55C37.105 24.2865 42.4897 20.9 43.5941 16.2766C38.557 16.2124 33.5171 16.2711 28.4772 16.2431C27.8438 16.2348 27.2075 16.2487 26.588 16.3799ZM30.9271 26.4447C30.2544 27.2348 29.6601 28.1673 28.6791 28.6112C27.4093 29.1584 26.047 29.4739 24.8221 30.1244C21.2145 31.967 18.0275 34.9906 16.7381 38.8965C15.5411 42.1713 15.628 45.7086 15.7037 49.1398C15.7065 49.7652 15.8046 50.3878 15.9784 50.9909C16.3568 50.9825 16.7352 50.9741 17.1137 50.9657C17.5173 49.2599 17.5341 47.4926 17.9181 45.784C18.5656 42.4896 19.7906 39.1784 22.1788 36.7327C23.1879 35.7584 24.1297 34.717 25.1584 33.765C25.6434 39.8764 25.9853 46.0018 26.3637 52.1244C32.2445 52.1272 38.1281 52.1662 44.0089 52.102C43.838 49.1482 44.3229 46.2279 44.379 43.2797C44.6985 41.3366 44.5079 39.3571 44.7602 37.4084C44.9003 36.2079 44.8835 34.999 44.9424 33.7929C45.929 34.3932 46.5289 35.4178 47.3866 36.1138C50.4784 38.8685 51.7538 42.9893 52.4489 46.8952C52.7629 48.2437 52.6508 49.6452 53.0152 50.9853C53.4524 50.9657 53.8925 50.9434 54.3298 50.9127C54.4812 48.816 54.8259 46.7025 54.512 44.6003C54.3887 42.0541 53.9626 39.4604 52.7685 37.1794C50.9297 33.5835 47.6137 30.8503 43.8352 29.4711C42.8793 29.1053 41.8618 28.8541 40.9985 28.2929C40.2613 27.8211 39.81 27.0505 39.2326 26.4195C38.4477 26.2213 37.6656 26.5871 36.8864 26.6513C35.2802 26.7825 33.6433 26.7853 32.0623 26.4307C31.6923 26.3972 31.2775 26.2604 30.9271 26.4447ZM48.079 46.5015C47.8884 47.9282 47.9248 49.3744 47.894 50.8122C48.1855 50.7424 48.477 50.6754 48.7713 50.6084C48.8947 49.2404 48.9647 47.635 48.079 46.5015ZM26.3441 56.0972C26.3385 67.5495 26.3441 79.0018 26.3413 90.4569C26.3581 91.5345 26.2768 92.6178 26.3946 93.6926C26.759 94.3292 27.3953 94.9685 28.1969 94.8708C29.3462 95.0076 30.1871 93.7513 30.0694 92.7071C30.0694 82.5586 30.0694 72.4074 30.0694 62.2589C30.1479 59.8774 32.3511 57.9398 34.6552 57.7165C35.6194 57.8198 36.6285 57.8812 37.5255 58.286C39.098 59.1934 40.1099 60.9914 40.1043 62.7977C40.1015 72.8596 40.0903 82.9244 40.1099 92.9863C40.037 93.634 40.4126 94.2119 40.9312 94.5693C42.0833 95.4376 44.1127 94.4409 43.9837 92.9723C44.0033 80.716 43.9473 68.4596 44.0146 56.2033C41.6628 55.7985 39.2578 56.1614 36.8864 55.9716C33.3714 56.1112 29.8535 55.9157 26.3441 56.0972ZM33.8339 62.5409C34.4814 62.4599 35.042 62.097 35.2046 61.4353C34.6215 61.6251 34.1815 62.0523 33.8339 62.5409ZM10.6022 76.0061C10.5013 76.0312 10.2994 76.0843 10.1985 76.1094C8.71571 77.1563 7.71222 78.7449 6.1341 79.6858C5.46698 80.166 6.27145 80.836 6.62183 81.2297C7.93086 82.4665 8.84746 84.0327 10.106 85.3114C11.5916 86.9084 12.8026 88.7426 14.3274 90.3061C14.4199 90.3256 14.6049 90.3675 14.6974 90.3871C16.183 89.2731 17.565 88.0195 19.045 86.8944C19.4654 86.6739 19.5383 86.068 19.1851 85.7525C16.6007 82.8267 14.0359 79.8784 11.6813 76.7627C11.3898 76.4584 11.1067 75.886 10.6022 76.0061Z" fill="#0011A4"/>
<path d="M155.083 3.82211C155.498 3.48987 155.859 4.07617 156.092 4.36094C157.667 6.65028 159.862 8.45942 161.325 10.8297C160.229 12.0665 158.934 13.1135 157.872 14.3754C157.757 19.6297 157.855 24.8952 157.824 30.1523C157.861 35.7472 157.748 41.345 157.88 46.9371C159.769 47.3615 161.661 48.0371 163.161 49.2962C164.975 50.9016 166.483 52.962 166.982 55.3658C167.898 58.4955 167.139 61.9546 165.426 64.6767C163.834 66.8934 161.496 68.6914 158.791 69.2889C155.621 70.1767 152.142 69.4815 149.412 67.7003C144.437 64.4785 142.783 57.1163 146.149 52.1858C147.767 49.3967 150.665 47.4899 153.824 46.9092C154.012 45.0526 153.866 43.182 153.911 41.3198C153.869 33.6561 153.992 25.9868 153.849 18.3259C152.77 19.0574 151.929 20.0653 150.987 20.9531C145.488 26.2688 140.201 31.8079 134.598 37.012C130.452 41.1691 126.124 45.1363 121.987 49.3018C117.782 53.484 113.533 57.6188 109.354 61.8206C108.9 62.3399 108.16 62.3064 107.535 62.3203C94.6377 62.3008 81.7408 62.3259 68.844 62.3036C67.7088 62.3175 66.5679 62.3427 65.4383 62.2198C65.2701 59.1133 65.4159 56.1028 65.3654 53.0457C65.399 51.0021 65.3037 48.9528 65.4131 46.912C65.6821 46.5909 66.125 46.5434 66.5118 46.4597C72.2245 45.5635 77.9315 44.5975 83.6525 43.7571C83.7338 43.3244 83.8067 42.8889 83.8123 42.4505C83.8123 37.8328 83.7843 33.215 83.8207 28.6C89.5333 28.614 95.2515 28.547 100.961 28.6307C103.549 32.3188 105.771 36.2917 108.608 39.8178C111.927 37.0845 115.456 34.6137 118.803 31.9113C123.119 28.5749 127.45 25.2498 131.784 21.9302C135.554 19.0713 139.223 16.0785 143.058 13.3033C147.013 10.0731 151.257 7.20307 155.083 3.82211ZM144.695 19.1495C142.962 20.8609 141.208 22.55 139.467 24.2531C135.868 27.4665 132.574 30.9955 128.998 34.2312C126.783 36.2972 124.698 38.4944 122.486 40.566C120.305 42.4868 118.284 44.5752 116.188 46.5881C114.436 48.0957 112.841 49.7736 111.159 51.3594C110.744 51.8005 110.203 52.183 110.012 52.7805C109.912 53.6376 109.973 54.5031 110.021 55.3602C110.792 54.9051 111.403 54.249 112.025 53.6153C114.178 51.4851 116.314 49.3325 118.522 47.2582C125.519 40.5437 132.297 33.6059 139.327 26.9249C143.408 22.9911 147.304 18.862 151.503 15.0538C152.865 13.6132 154.329 12.2703 155.713 10.8548C156.327 10.2239 155.285 9.69901 154.92 9.25789C151.719 12.7617 148.008 15.7518 144.695 19.1495ZM124.616 32.3802C120.751 35.4178 116.804 38.3521 112.953 41.4036C111.986 42.2328 110.778 42.8302 110.015 43.8604C109.951 44.832 109.752 45.8985 110.228 46.8003C115.975 41.3729 121.609 35.8282 127.377 30.4259C126.402 30.9983 125.485 31.6627 124.616 32.3802ZM87.7422 32.5003C87.6889 37.2939 87.787 42.0932 87.6973 46.884C87.061 47.395 86.1669 47.2637 85.41 47.4285C80.0562 48.347 74.6743 49.098 69.3037 49.9188C69.2392 52.6967 69.3177 55.4774 69.2588 58.2554C70.0493 58.3866 70.8482 58.4508 71.647 58.4313C83.0779 58.3838 94.5115 58.4871 105.94 58.3782C106.122 54.6538 105.979 50.9155 106.029 47.1828C105.996 45.8845 106.127 44.5779 105.959 43.2881C105.202 41.9145 104.224 40.6693 103.484 39.2873C103.313 38.2683 103.532 37.2241 103.372 36.2051C103.131 35.3173 102.099 35.5769 101.463 35.8087C101.474 35.9455 101.497 36.2191 101.508 36.3587C101.671 36.4285 101.996 36.5708 102.161 36.6434C101.707 37.3191 101.373 38.0673 101.502 38.8993C102.069 38.916 102.632 38.9272 103.201 38.9467C103.209 39.9937 103.235 41.1104 102.64 42.029C102.032 43.2323 100.81 43.8828 99.8149 44.7175C100.462 44.7901 101.113 44.8208 101.766 44.846C101.797 46.1274 101.797 47.4089 101.752 48.6904C97.8332 48.7406 93.9117 48.6988 89.993 48.7155C89.979 44.6142 89.9818 40.5158 89.9874 36.4173C91.3385 36.367 92.698 36.4983 94.049 36.3894C94.8984 35.7668 95.6776 34.9878 96.7316 34.7142C97.9621 34.2312 99.2459 34.7366 100.49 34.8594C99.9439 34.0526 99.4785 33.1536 98.7273 32.5142C95.0665 32.4305 91.403 32.4779 87.7422 32.5003ZM97.7631 38.4582C97.0007 38.8574 96.7232 39.9099 97.4295 40.5074C98.2284 41.0239 99.2992 40.5549 99.543 39.6475C99.4113 38.8462 98.604 38.0896 97.7631 38.4582ZM93.9369 42.8582C93.9061 43.4975 93.9117 44.1396 93.9397 44.7818C94.8703 44.8208 95.8066 44.846 96.7372 44.7343C95.8682 44.0196 94.8984 43.4361 93.9369 42.8582ZM154.416 50.801C152.854 51.1947 151.341 51.9625 150.245 53.1574C147.596 55.9856 147.671 60.8965 150.531 63.5488C153.151 66.3434 157.97 66.5026 160.812 63.9592C162.514 62.5158 163.618 60.3158 163.483 58.0655C163.54 53.5762 158.822 49.7764 154.416 50.801Z" fill="#0011A4"/>
<path d="M27.146 32.9777C28.0402 32.048 28.8082 31.0094 29.6043 29.996C31.2188 31.2384 32.9007 32.3886 34.5068 33.6422C34.7367 33.7985 35.0254 34.1112 35.3141 33.8683C37.1445 32.6873 38.7254 31.163 40.567 29.996C41.4836 30.9396 42.1844 32.0592 42.9468 33.1229C40.78 34.7673 38.5292 36.3 36.4157 38.017C35.9308 38.2851 35.4122 38.9384 34.8095 38.6452C33.579 37.9668 32.5391 37.0036 31.4291 36.1521C30.0359 35.0465 28.4831 34.1559 27.146 32.9777Z" fill="#0011A4"/>
<path d="M70.3828 63.063C70.7949 62.9988 71.2153 62.9876 71.633 62.9848C85.3792 62.9932 99.1253 62.9792 112.872 62.9904C115.661 63.2584 118.438 64.4282 120.294 66.5724C121.995 68.5323 123.251 71.0561 123.139 73.7C123.279 75.9894 122.464 78.2312 121.253 80.1437C119.562 82.6955 116.611 84.1193 113.696 84.7614C99.7756 84.8312 85.8501 84.7614 71.9301 84.795C67.0192 85.0462 62.2315 81.5089 61.0318 76.7543C60.432 74.0351 60.5862 71.0254 62.0437 68.5881C63.8265 65.6483 66.865 63.345 70.3828 63.063ZM70.6575 66.9576C68.331 67.2843 66.1726 68.7835 65.2252 70.95C64.659 72.3069 64.3535 73.8368 64.7375 75.2858C65.2112 78.0358 67.5826 80.2917 70.3099 80.7998C77.3792 81.213 84.4682 80.9701 91.5487 81.0315C93.7911 80.7523 96.028 81.1069 98.276 81.0371C100.056 81.1208 101.822 80.7774 103.602 80.9142C106.851 81.2213 110.105 80.9338 113.351 80.8026C115.669 80.4759 117.766 78.8901 118.671 76.7348C119.268 75.4812 119.29 74.0518 119.145 72.7005C118.789 70.2158 116.866 68.0884 114.5 67.2983C113.177 66.7427 111.725 66.8906 110.329 66.8795C97.9032 66.8739 85.4745 66.8767 73.0485 66.8767C72.2525 66.8823 71.4508 66.846 70.6575 66.9576Z" fill="#0011A4"/>
<path d="M69.7184 68.0799C72.8298 66.9157 76.3476 68.951 77.5193 71.9048C87.1449 71.9439 96.7734 71.9718 106.399 71.8881C106.96 70.735 107.557 69.4759 108.72 68.8142C110.141 68.0213 111.843 67.4937 113.468 67.918C116.384 68.415 118.733 71.299 118.399 74.2723C118.402 76.9721 116.252 79.4317 113.623 79.9678C112.185 80.0711 110.615 80.1939 109.328 79.4178C107.96 78.7086 107.007 77.4299 106.402 76.048C99.1113 75.9251 91.8288 76.048 84.5409 76.0061C82.1976 76.0228 79.8514 75.9642 77.508 76.0368C76.5606 78.3541 74.2509 80.2525 71.6413 80.0487C67.916 80.314 64.7037 76.4807 65.4773 72.8792C65.8754 70.6596 67.4479 68.6132 69.7184 68.0799ZM71.1479 71.7122C70.3434 72.0109 69.6343 72.6363 69.3456 73.4543C68.9924 74.9089 70.307 76.4528 71.8094 76.2992C72.6167 76.0787 73.4829 75.5873 73.7492 74.747C73.8809 73.8982 73.9314 72.7954 73.1465 72.2315C72.5579 71.8881 71.8487 71.4693 71.1479 71.7122ZM111.798 71.715C111.066 71.9858 110.399 72.533 110.13 73.2756C109.466 74.7414 111.052 76.4723 112.583 76.1317C114.407 76.1457 115.167 73.5185 113.872 72.4018C113.328 71.9132 112.546 71.4414 111.798 71.715Z" fill="#0011A4"/>
<path d="M21.3069 74.2556C21.206 73.633 21.6125 73.1835 22.0609 72.8234C22.3244 74.2249 22.9523 75.9838 21.7442 77.1256C21.021 76.3467 21.3798 75.2132 21.3069 74.2556Z" fill="#0011A4"/>
<path d="M51.2886 87.9246C51.8099 87.8771 52.3341 87.8464 52.8583 87.8436C89.7997 87.8743 126.741 87.8157 163.683 87.8743C163.677 89.2228 163.932 90.6271 163.509 91.9365C138.304 91.8528 113.096 91.9365 87.8908 91.8946C84.3534 91.5512 80.7935 91.8332 77.2476 91.6992C68.5946 91.7858 59.9416 91.716 51.2914 91.7467C51.283 90.4736 51.283 89.1977 51.2886 87.9246Z" fill="#0011A4"/>
</g>
<defs>
<clipPath id="clip0_520_117">
<rect width="113" height="99" fill="white"/>
</clipPath>
</defs>
</svg>
