<svg width="113" height="127" viewBox="0 0 113 127" fill="none" xmlns="http://www.w3.org/2000/svg">
<g clip-path="url(#clip0_520_22)">
<path d="M71.5068 4.55248C74.2186 3.21477 76.7375 1.51437 79.4117 0.103648C79.8069 -0.167191 80.2114 0.202564 80.5548 0.381553C84.4449 2.60714 88.4997 4.53599 92.3264 6.87698C98.084 9.98103 103.846 13.0733 109.59 16.2056C115.126 19.1095 120.559 22.1947 126.079 25.1292C131.157 27.8753 136.245 30.6166 141.315 33.3768L141.438 33.6736C102.329 33.7301 63.2184 33.6712 24.1076 33.7018C23.0304 33.6971 21.9508 33.7631 20.876 33.6382C21.3229 33.0942 21.9508 32.7645 22.5623 32.4395C23.7407 31.8248 24.8696 31.1206 26.0385 30.4894C27.692 29.6016 29.2349 28.5064 30.9424 27.7175C32.5159 27.1004 33.927 26.1607 35.397 25.3388C40.3432 22.621 45.1789 19.7053 50.1321 16.9969C51.8796 15.8947 53.8129 15.0893 55.4428 13.8034C56.8799 12.7577 58.5192 12.0465 60.0362 11.1327C61.5297 10.1671 63.1526 9.42523 64.6508 8.46434C66.7699 7.47518 68.6585 6.06446 70.7871 5.09651C71.0599 4.95756 71.2363 4.69614 71.5068 4.55248Z" fill="#0011A4"/>
<path d="M12.698 66.0518C12.6604 64.8177 13.5447 63.4023 14.9253 63.5436C23.0067 63.5318 31.0904 63.546 39.1718 63.5365C39.6069 63.4989 40.0185 63.5978 40.3407 63.9063C41.1592 67.764 41.98 71.6193 42.7162 75.4935C43.1748 77.8416 43.9533 80.1402 44.0874 82.54C44.3696 84.9799 45.1599 87.328 45.5315 89.7561C45.8043 91.5908 46.357 93.3924 46.3664 95.2601C46.3782 97.0711 46.2982 98.8869 46.4158 100.696C46.4417 101.807 47.2225 102.66 47.7988 103.541C48.3562 104.33 48.7913 105.208 49.4287 105.941C49.8426 106.487 50.6 106.367 51.1997 106.435C51.482 107.664 51.235 108.955 51.3032 110.208C52.3804 110.262 53.4623 110.26 54.5419 110.227C54.5254 95.6628 54.5395 81.0987 54.5325 66.5323C54.5278 65.7009 54.516 64.8695 54.5654 64.0405C55.9789 63.9722 57.3972 63.9722 58.813 64.0429C58.8601 81.2424 58.8225 98.4442 58.8295 115.644C64.5801 115.703 70.3353 115.677 76.0859 115.653C77.0173 115.658 77.9816 115.575 78.8636 115.95C78.793 116.367 78.8565 116.901 78.4379 117.16C77.4712 117.886 76.2882 118.267 75.1239 118.533C72.7837 118.894 70.4576 119.393 68.0845 119.457C66.6004 119.603 65.1093 119.671 63.6299 119.864C60.5935 119.902 57.5571 119.954 54.5231 119.878C54.4784 118.199 54.6195 116.513 54.4737 114.841C54.4149 114.746 54.2973 114.556 54.2408 114.461C53.2036 114.438 52.1664 114.443 51.1315 114.471C50.9175 114.697 50.8211 114.965 50.8375 115.279C50.8116 116.534 50.8799 117.792 50.8375 119.052C49.4993 119.179 48.074 119.313 46.7686 118.962C46.6581 118.131 46.8556 117.288 46.6698 116.463C46.4558 115.418 46.7686 114.289 46.27 113.307C45.381 111.47 43.6946 110.156 41.8883 109.294C40.4442 108.651 38.8425 108.489 37.2784 108.522C33.861 108.352 30.3096 110.206 28.7761 113.324C27.9011 115.161 28.3057 117.224 28.2069 119.179C26.1395 119.249 24.0745 119.11 22.0071 119.179C21.7531 117.686 21.9883 116.155 21.8284 114.652C20.9981 112.182 19.046 110.177 16.6705 109.148C14.0692 108.279 11.2092 108.423 8.62913 109.275C7.13328 109.984 5.67741 111.016 4.92243 112.535C4.69664 112.964 4.48496 113.397 4.26152 113.828C3.396 115.156 3.70881 116.779 3.58416 118.27C2.60339 118.373 1.61321 118.366 0.632437 118.253C0.474855 117.033 0.547767 115.801 0.550119 114.577C0.561879 109.786 0.540711 104.998 0.554823 100.208C0.554823 98.9717 0.484263 97.7329 0.627733 96.5012C2.64102 96.4023 4.6543 96.5671 6.66994 96.4776C7.15679 96.692 7.20854 97.5469 7.86474 97.4809C9.47348 97.4409 11.1152 97.6199 12.7004 97.3561C12.7121 86.9229 12.7098 76.4874 12.698 66.0518ZM15.2476 67.2294C15.2193 75.7102 15.2593 84.1933 15.2311 92.6741C15.2358 93.5031 15.1558 94.3392 15.2781 95.1658C15.4075 95.4932 15.8238 95.4061 16.099 95.4485C18.9237 95.472 21.7507 95.3543 24.5731 95.5215C26.2971 95.618 28.0187 95.2812 29.7427 95.5073C33.273 95.611 36.8057 95.4037 40.3383 95.439C41.559 95.4343 42.7844 95.5238 44.0004 95.3684C44.5131 94.5253 44.172 93.4984 43.958 92.6176C43.3371 90.6016 43.1066 88.4938 42.5986 86.4495C42.1235 84.6573 41.9236 82.8085 41.3756 81.0351C40.7076 77.3964 39.8609 73.7978 39.0071 70.2015C38.7837 69.276 38.913 68.1973 38.2474 67.4366C38.1886 67.1046 38.1534 66.756 37.9629 66.471C37.9676 66.3745 37.977 66.1766 37.9817 66.0801C31.3985 65.9529 24.8107 66.0777 18.2275 66.0212C17.4537 66.0165 16.6705 65.9388 15.9038 66.073C15.4404 66.2544 15.2217 66.7513 15.2476 67.2294Z" fill="#0011A4"/>
<path d="M81.6414 100.915C81.5779 100.215 82.3823 100.113 82.895 100.13C88.4645 100.05 94.0363 100.18 99.6057 100.105C105.798 100.133 111.994 100.116 118.186 100.109C122.34 100.192 126.496 100.043 130.647 100.135C130.727 100.213 130.887 100.371 130.967 100.448C131.054 101.329 131 102.219 130.953 103.105C130.264 103.154 129.572 103.157 128.881 103.161C128.827 104.494 128.831 105.832 128.864 107.168C129.549 107.29 130.456 106.911 130.948 107.526C130.976 108.562 131.169 109.669 130.774 110.658C128.034 110.691 125.292 110.658 122.549 110.677C122.472 110.02 122.385 109.365 122.314 108.71C121.578 108.522 120.816 108.604 120.068 108.592C117.01 108.597 113.953 108.599 110.898 108.59C110.161 108.602 109.397 108.512 108.698 108.795C108.611 109.428 108.6 110.095 108.313 110.679C106.217 110.587 104.096 110.827 102.021 110.54C101.885 109.897 101.873 109.242 101.828 108.59C97.3008 108.607 92.7733 108.562 88.2481 108.614C88.1132 109.242 88.3233 109.956 87.9094 110.495C85.9149 110.495 83.9205 110.509 81.926 110.486C81.4885 110.076 81.6485 109.454 81.6132 108.927C81.6414 106.256 81.6508 103.585 81.6414 100.915Z" fill="#0011A4"/>
<path d="M51.5409 15.8217C52.8368 15.1411 54.0458 14.2673 55.4428 13.8034C53.8129 15.0893 51.8796 15.8947 50.1321 16.9969C45.1788 19.7053 40.3432 22.621 35.397 25.3388C33.927 26.1607 32.5158 27.1004 30.9424 27.7174C31.5069 27.0509 32.3653 26.7801 33.0921 26.3397C39.2401 22.8282 45.4023 19.345 51.5409 15.8217Z" fill="#0011A4"/>
<path d="M20.4573 36.9378C60.9206 36.9542 101.384 36.9637 141.847 36.933C141.962 40.5152 141.854 44.1067 141.904 47.6912C141.885 68.8096 141.906 89.9257 141.892 111.044C141.875 115.175 141.955 119.308 141.856 123.437C138.862 123.489 135.861 123.529 132.87 123.427C132.792 100.147 132.87 76.8618 132.832 53.5791C132.816 51.1156 132.903 48.6451 132.816 46.184C132.456 45.7082 131.651 46.0615 131.124 45.9673C98.1969 45.9861 65.2694 45.9697 32.3418 45.9744C31.4575 46.0144 30.5332 45.826 29.6864 46.1581C29.6629 50.873 29.7499 55.5927 29.6512 60.3053C26.5842 60.383 23.5102 60.3712 20.4456 60.31C20.3703 53.3577 20.4362 46.403 20.4126 39.4483C20.4079 38.6099 20.3727 37.7715 20.4573 36.9378Z" fill="#0011A4"/>
<path d="M85.1102 58.4117C87.9514 58.3811 90.7925 58.3764 93.6337 58.4047C93.6807 59.7283 93.5373 61.0566 93.6596 62.3801C94.5228 62.4955 95.4024 62.5097 96.2656 62.3707C96.235 61.0613 96.1691 59.7495 96.2373 58.44C97.5145 58.3128 98.7963 58.4165 100.076 58.3953C101.588 58.4188 103.105 58.327 104.617 58.4494C104.756 62.1611 104.627 65.8798 104.66 69.5939C104.646 72.3729 104.714 75.1543 104.65 77.9334C98.1377 77.9263 91.6275 77.9334 85.1172 77.9287C84.8185 77.0667 84.9973 76.1364 84.9549 75.2462C84.8726 73.355 85.209 71.4827 85.1172 69.5939C85.209 67.2317 84.8515 64.8883 84.9597 62.5285C85.0373 61.1602 84.7738 59.7542 85.1102 58.4117Z" fill="#0011A4"/>
<path d="M106.847 58.4565C109.641 58.3223 112.447 58.3953 115.244 58.4447C115.469 59.8225 115.051 61.2662 115.481 62.6086C116.406 62.6204 117.342 62.6463 118.252 62.4343C118.019 61.2332 117.951 59.9921 118.115 58.7792C118.421 58.2469 119.087 58.4377 119.592 58.3835C121.817 58.4353 124.045 58.3081 126.267 58.4589C126.399 62.1658 126.284 65.8822 126.324 69.5939C126.298 72.2999 126.371 75.006 126.291 77.7096C119.886 77.7921 113.48 77.7497 107.075 77.7308C106.683 76.4685 106.887 75.1331 106.842 73.8331C106.683 68.7084 106.892 63.5813 106.847 58.4565Z" fill="#0011A4"/>
<path d="M15.2478 67.2293C15.2219 66.7513 15.4407 66.2543 15.904 66.073C16.6707 65.9387 17.4539 66.0165 18.2277 66.0212C24.8109 66.0777 31.3987 65.9529 37.9819 66.08C37.9772 66.1766 37.9678 66.3744 37.9631 66.471C31.6198 66.4733 25.2766 66.4733 18.9333 66.471C17.8655 66.4828 16.7789 66.3603 15.7299 66.6194C15.6429 67.0504 15.5535 67.4861 15.5512 67.9312C15.5677 76.5745 15.563 85.2178 15.5535 93.8611C15.5606 94.3038 15.6194 94.7419 15.6876 95.18C17.7103 95.2906 19.7377 95.1022 21.758 95.2883C22.4777 95.3613 23.1927 95.2341 23.8819 95.0292C23.2233 94.8455 22.5554 94.7066 21.885 94.5912C21.7251 92.3868 21.8709 90.1706 21.8239 87.9639C21.8686 86.6026 21.6804 85.2225 21.9133 83.8754C22.4824 83.0605 23.4373 82.0878 24.5239 82.5235C25.7587 82.931 27.0617 82.9145 28.3412 83.044C28.8069 84.808 28.5176 86.6591 28.8351 88.4302C29.6912 89.1555 30.8155 89.4499 31.8527 89.8268C33.1392 90.2978 34.5269 90.2813 35.8769 90.2318C36.9259 90.1918 37.9325 89.7632 38.7463 89.1084C38.8404 88.303 38.8286 87.4881 38.8639 86.6803C39.2214 86.6732 39.5789 86.6709 39.9364 86.6756C40.0469 89.4028 39.8611 92.1371 40.0375 94.8644C41.3734 94.9562 42.7305 95.0339 44.057 94.7937C43.9606 93.7056 43.596 92.6717 43.3703 91.6119C42.5565 87.3939 41.5263 83.2206 40.6349 79.0191C40.2751 76.9913 39.7717 74.9942 39.3578 72.9806C38.9533 71.1389 38.4217 69.3207 38.2477 67.4366C38.9133 68.1973 38.7839 69.2759 39.0074 70.2015C39.8611 73.7978 40.7078 77.3964 41.3758 81.0351C41.9238 82.8085 42.1237 84.6573 42.5988 86.4495C43.1068 88.4938 43.3373 90.6016 43.9582 92.6176C44.1723 93.4984 44.5133 94.5252 44.0006 95.3684C42.7846 95.5238 41.5592 95.4343 40.3386 95.439C36.8059 95.4037 33.2733 95.6109 29.743 95.5073C28.019 95.2812 26.2973 95.618 24.5733 95.5214C21.751 95.3542 18.9239 95.472 16.0992 95.4484C15.824 95.406 15.4077 95.4932 15.2784 95.1658C15.1561 94.3392 15.236 93.5031 15.2313 92.6741C15.2595 84.1933 15.2196 75.7101 15.2478 67.2293ZM29.1902 93.0015C29.122 93.635 29.122 94.2756 29.1738 94.9115C31.2459 95.0386 33.3227 94.9279 35.3971 94.9421C36.5072 94.9232 37.6291 95.0057 38.7345 94.8432C38.7298 94.2709 39.0426 93.5196 38.5205 93.1027C36.6107 94.0825 34.3975 94.146 32.3137 93.8517C31.2388 93.6915 30.251 93.2087 29.1902 93.0015Z" fill="#0011A4"/>
<path d="M26.5749 71.1647C27.9366 71.0658 29.416 71.4897 30.3521 72.5284C31.0271 73.249 31.7304 73.9885 32.1537 74.8929C32.6829 76.5815 32.5747 78.5952 31.4599 80.0318C30.5426 81.4001 28.9715 82.2126 27.3534 82.3681C25.166 82.4387 22.9693 81.2941 21.885 79.3653C21.2476 78.4279 21.3276 77.2527 21.3488 76.1741C21.4005 74.4996 22.5224 73.0441 23.896 72.1798C24.6486 71.5439 25.6011 71.2378 26.5749 71.1647Z" fill="#0011A4"/>
<path d="M71.4902 74.217C74.2161 74.2664 76.942 74.1816 79.6656 74.257C79.795 80.7336 79.7009 87.2173 79.6985 93.6962C73.4729 93.7833 67.2449 93.6915 61.0169 93.7433C60.6805 93.708 60.2148 93.8587 60.0479 93.4607L60.2689 93.463C65.9325 93.5525 71.5984 93.4654 77.2619 93.5125C77.984 93.5243 78.7037 93.4937 79.421 93.4207C79.5692 92.156 79.4916 90.8818 79.4986 89.6124C79.4986 86.002 79.5033 82.3893 79.4986 78.7789C79.4798 77.354 79.5786 75.9221 79.421 74.5019C78.1556 74.3677 76.8832 74.4384 75.6155 74.4336C74.2608 74.4454 72.9037 74.363 71.5537 74.5019C71.422 75.7878 71.5231 77.0832 71.4666 78.3714C71.4572 76.9866 71.3984 75.5994 71.4902 74.217Z" fill="#0011A4"/>
<path d="M85.1196 79.2664C86.5614 79.0215 88.0361 79.2075 89.4919 79.1557C90.8702 79.2004 92.2719 79.0497 93.6337 79.3205C93.7537 80.5758 93.335 81.9442 93.8501 83.1264C94.5863 83.4891 95.4518 83.3714 96.2327 83.2324C96.3056 81.9371 96.0774 80.6159 96.4232 79.3488C97.9214 78.9908 99.4878 79.224 101.017 79.1557C102.195 79.1792 103.38 79.0756 104.554 79.2334C104.754 80.4063 104.617 81.6003 104.65 82.7826C104.674 87.7331 104.653 92.6835 104.655 97.634C104.657 97.9873 104.601 98.3382 104.505 98.6797C98.0484 98.6773 91.5899 98.682 85.1314 98.6773C85.0773 92.2078 85.1102 85.7359 85.1196 79.2664Z" fill="#0011A4"/>
<path d="M106.828 79.403C108.098 79.2546 109.38 79.3535 110.657 79.3347C112.188 79.3511 113.722 79.2522 115.251 79.3606C115.385 80.67 115.222 81.9865 115.324 83.296C116.285 83.3878 117.365 83.588 118.259 83.1453C118.289 81.8829 118.195 80.6182 118.289 79.3582C120.952 79.3205 123.621 79.2923 126.281 79.3747C126.364 85.6958 126.324 92.0217 126.303 98.3429C125.969 98.7197 125.458 98.6632 125.007 98.6749C119.204 98.6584 113.4 98.6773 107.597 98.6655C107.247 98.715 106.744 98.5218 106.791 98.0979C106.755 96.6048 106.784 95.1116 106.795 93.6185C106.974 88.8823 106.657 84.1391 106.828 79.403Z" fill="#0011A4"/>
<path d="M44.0874 82.54C44.8918 82.9757 44.5437 84.0896 44.8024 84.8292C45.6303 88.2747 46.1313 91.7885 46.8086 95.26C46.8439 97.2289 46.7733 99.2001 46.8369 101.167C46.8533 101.737 47.2508 102.184 47.5401 102.643C48.2081 103.559 48.7561 104.556 49.424 105.472C49.8544 106.197 50.8517 105.945 51.4585 106.444L51.1998 106.435C50.6 106.367 49.8427 106.487 49.4287 105.94C48.7913 105.208 48.3562 104.33 47.7988 103.541C47.2226 102.66 46.4417 101.807 46.4159 100.696C46.2983 98.8869 46.3782 97.0711 46.3665 95.26C46.3571 93.3924 45.8043 91.5907 45.5315 89.7561C45.1599 87.3279 44.3696 84.9799 44.0874 82.54Z" fill="#0011A4"/>
<path d="M0.0891316 96.1785C0.733571 95.8865 1.44857 95.8111 2.14475 95.9383C3.72762 96.2468 5.34343 96.0961 6.94276 96.0655C6.87456 96.1691 6.73814 96.3763 6.66994 96.4776C4.6543 96.5671 2.64102 96.4022 0.627731 96.5012C0.484261 97.7329 0.554821 98.9717 0.554821 100.208C0.540709 104.998 0.561877 109.786 0.550117 114.577C0.547765 115.801 0.474854 117.033 0.632435 118.253C1.61321 118.366 2.60338 118.373 3.58415 118.27C3.70881 116.779 3.396 115.156 4.26152 113.828C3.86404 115.488 4.14863 117.196 3.93695 118.875C2.91855 118.92 1.89544 118.915 0.87704 118.872C0.45839 118.872 -0.0802104 118.583 0.0162203 118.095C0.0185722 111.032 0.025628 103.969 0.0115162 96.9062C0.0232761 96.6613 0.0491481 96.4187 0.0891316 96.1785Z" fill="#0011A4"/>
<path d="M11.1248 109.636C13.7895 109.108 16.7601 109.772 18.7099 111.734C22.0873 114.64 22.3507 120.41 19.2743 123.63C17.8843 125.403 15.7064 126.355 13.5261 126.684C12.289 126.875 11.1389 126.336 9.94878 126.129C9.93467 126.312 9.91115 126.677 9.89704 126.861C9.78885 126.524 9.6736 126.192 9.56071 125.862C9.01505 123.83 7.30517 122.144 5.26602 121.637C5.03788 121.56 4.81209 121.484 4.58395 121.411C4.73447 121.376 5.04023 121.305 5.19311 121.272C4.83796 120.168 4.36756 119.061 4.47575 117.874C4.591 116.284 4.85207 114.6 5.89399 113.331C7.03705 111.447 9.02446 110.187 11.1248 109.636ZM11.9338 114.099C10.8308 114.473 9.88763 115.373 9.53954 116.496C9.05974 118.133 9.8547 120.017 11.4094 120.745C13.6484 122.172 16.8777 119.996 16.6919 117.417C16.5413 116.275 16.0051 115.107 14.982 114.501C14.1165 113.854 12.9405 113.84 11.9338 114.099Z" fill="#0011A4"/>
<path d="M36.2104 109.586C38.4519 109.202 40.872 109.633 42.7019 111.03C44.1154 112.125 45.3267 113.621 45.71 115.403C46.1475 117.16 46.3474 119.084 45.6842 120.813C45.0985 122.563 43.812 123.964 42.4478 125.156C41.2037 126.041 39.6819 126.482 38.1861 126.689C35.2155 126.717 32.2474 125.194 30.5728 122.73C29.7025 121.119 29.0416 119.287 29.178 117.431C29.3427 116.188 29.7049 114.965 30.2435 113.833C31.49 111.638 33.7338 110.055 36.2104 109.586ZM37.3605 114.155C35.5613 114.374 33.9902 116.028 34.0772 117.876C34.0631 119.014 34.7616 120.045 35.6601 120.688C36.7326 121.567 38.3272 121.475 39.5079 120.872C40.5898 120.382 41.0837 119.183 41.3565 118.1C41.5964 115.95 39.522 113.866 37.3605 114.155Z" fill="#0011A4"/>
<path d="M60.2149 74.4242C63.0278 74.3536 65.8478 74.3559 68.6631 74.4266C68.7384 75.7525 68.6561 77.0832 68.6961 78.4115C69.618 78.4515 70.5471 78.4562 71.4667 78.3714C71.5231 77.0832 71.422 75.7878 71.5537 74.502C72.9037 74.363 74.2608 74.4454 75.6156 74.4337C76.8833 74.4384 78.1557 74.3677 79.421 74.502C79.5786 75.9221 79.4798 77.354 79.4987 78.7789C79.5034 82.3893 79.4987 86.002 79.4987 89.6124C79.4916 90.8818 79.5692 92.156 79.421 93.4207C78.7037 93.4937 77.984 93.5243 77.2619 93.5125C71.5984 93.4654 65.9325 93.5525 60.269 93.463C60.1867 92.9661 60.1702 92.4645 60.1772 91.9628C60.2149 86.1174 60.1443 80.2697 60.2149 74.4242Z" fill="#0011A4"/>
<path d="M71.4879 95.147C74.1597 95.1352 76.8315 95.1234 79.501 95.1517C79.8068 95.6886 79.6868 96.3245 79.7127 96.9133C79.6586 102.41 79.7174 107.907 79.708 113.406C79.7385 113.781 79.5645 114.113 79.4116 114.445C73.9927 114.537 68.5714 114.402 63.1501 114.475C62.1741 114.48 61.1956 114.511 60.2196 114.442C60.1373 108.442 60.2149 102.438 60.1819 96.4376C60.2172 95.9877 60.0479 95.406 60.5606 95.1705C62.5974 95.0857 64.6389 95.1729 66.6781 95.1352C67.3484 95.1587 68.0446 95.0504 68.6961 95.2624C68.816 96.553 68.4374 97.9448 68.9219 99.1695C69.7074 99.186 70.493 99.1931 71.2785 99.1601C71.6713 97.8577 71.3538 96.48 71.4879 95.147Z" fill="#0011A4"/>
<path d="M5.26611 121.637C7.30527 122.144 9.01515 123.83 9.56081 125.862C8.70704 125.302 7.81565 124.789 7.0489 124.108C6.27981 123.427 5.77884 122.513 5.26611 121.637Z" fill="#2D2D2D"/>
</g>
<defs>
<clipPath id="clip0_520_22">
<rect width="113" height="127" fill="white"/>
</clipPath>
</defs>
</svg>
