<?xml version="1.0" encoding="UTF-8"?>
<svg xmlns="http://www.w3.org/2000/svg" xmlns:xlink="http://www.w3.org/1999/xlink" width="30px" height="24px" viewBox="0 0 22 18" version="1.1">
<g id="surface1">
<path style=" stroke:none;fill-rule:nonzero;fill:rgb(100%,100%,100%);fill-opacity:1;" d="M 17.480469 6.730469 L 17.199219 7.238281 C 17.097656 7.425781 16.878906 7.503906 16.683594 7.429688 C 16.28125 7.273438 15.914062 7.050781 15.589844 6.773438 C 15.429688 6.636719 15.390625 6.402344 15.492188 6.21875 L 15.773438 5.714844 C 15.539062 5.433594 15.355469 5.105469 15.230469 4.75 L 14.667969 4.75 C 14.464844 4.75 14.285156 4.597656 14.25 4.382812 C 14.183594 3.960938 14.179688 3.515625 14.25 3.074219 C 14.285156 2.863281 14.464844 2.710938 14.667969 2.710938 L 15.230469 2.710938 C 15.355469 2.351562 15.539062 2.023438 15.773438 1.742188 L 15.492188 1.238281 C 15.390625 1.054688 15.429688 0.816406 15.589844 0.683594 C 15.914062 0.402344 16.285156 0.183594 16.683594 0.0273438 C 16.878906 -0.046875 17.097656 0.03125 17.199219 0.21875 L 17.480469 0.722656 C 17.835938 0.65625 18.203125 0.65625 18.5625 0.722656 L 18.839844 0.21875 C 18.945312 0.03125 19.160156 -0.046875 19.355469 0.0273438 C 19.761719 0.183594 20.125 0.402344 20.453125 0.683594 C 20.609375 0.816406 20.652344 1.054688 20.546875 1.238281 L 20.265625 1.742188 C 20.503906 2.023438 20.6875 2.351562 20.8125 2.710938 L 21.371094 2.710938 C 21.578125 2.710938 21.757812 2.859375 21.789062 3.074219 C 21.859375 3.496094 21.863281 3.941406 21.789062 4.378906 C 21.757812 4.59375 21.578125 4.75 21.371094 4.75 L 20.8125 4.75 C 20.6875 5.105469 20.503906 5.433594 20.265625 5.714844 L 20.546875 6.21875 C 20.652344 6.402344 20.613281 6.636719 20.453125 6.773438 C 20.125 7.050781 19.757812 7.273438 19.355469 7.429688 C 19.160156 7.503906 18.945312 7.425781 18.839844 7.238281 L 18.5625 6.730469 C 18.207031 6.800781 17.835938 6.800781 17.480469 6.730469 Z M 17.121094 4.660156 C 18.433594 5.703125 19.933594 4.152344 18.921875 2.796875 C 17.609375 1.75 16.109375 3.300781 17.121094 4.660156 Z M 13.1875 10.085938 L 14.335938 10.683594 C 14.679688 10.886719 14.828125 11.320312 14.695312 11.707031 C 14.390625 12.558594 13.792969 13.34375 13.238281 14.027344 C 12.988281 14.34375 12.550781 14.417969 12.207031 14.214844 L 11.210938 13.621094 C 10.667969 14.105469 10.03125 14.488281 9.339844 14.742188 L 9.339844 15.925781 C 9.339844 16.335938 9.054688 16.6875 8.664062 16.757812 C 7.824219 16.90625 6.945312 16.914062 6.074219 16.757812 C 5.683594 16.6875 5.394531 16.339844 5.394531 15.925781 L 5.394531 14.742188 C 4.699219 14.488281 4.066406 14.105469 3.519531 13.621094 L 2.527344 14.210938 C 2.1875 14.417969 1.746094 14.339844 1.492188 14.023438 C 0.941406 13.339844 0.355469 12.558594 0.0507812 11.707031 C -0.0859375 11.324219 0.0664062 10.890625 0.410156 10.683594 L 1.546875 10.085938 C 1.414062 9.351562 1.414062 8.59375 1.546875 7.851562 L 0.410156 7.257812 C 0.0664062 7.050781 -0.0898438 6.617188 0.0507812 6.230469 C 0.355469 5.378906 0.941406 4.597656 1.492188 3.910156 C 1.746094 3.597656 2.179688 3.519531 2.527344 3.722656 L 3.519531 4.316406 C 4.066406 3.835938 4.699219 3.449219 5.394531 3.199219 L 5.394531 2.011719 C 5.394531 1.605469 5.671875 1.25 6.0625 1.179688 C 6.902344 1.035156 7.785156 1.027344 8.65625 1.175781 C 9.050781 1.246094 9.339844 1.597656 9.339844 2.011719 L 9.339844 3.195312 C 10.03125 3.449219 10.667969 3.828125 11.210938 4.3125 L 12.207031 3.722656 C 12.546875 3.515625 12.988281 3.59375 13.238281 3.910156 C 13.792969 4.59375 14.375 5.375 14.679688 6.230469 C 14.8125 6.613281 14.679688 7.050781 14.335938 7.257812 L 13.1875 7.847656 C 13.316406 8.589844 13.316406 9.347656 13.1875 10.085938 Z M 9.171875 10.832031 C 11.191406 8.113281 8.191406 5.015625 5.5625 7.105469 C 3.542969 9.820312 6.542969 12.917969 9.171875 10.832031 Z M 17.480469 17.277344 L 17.199219 17.78125 C 17.097656 17.96875 16.878906 18.046875 16.683594 17.972656 C 16.28125 17.816406 15.914062 17.597656 15.589844 17.316406 C 15.429688 17.183594 15.390625 16.945312 15.492188 16.761719 L 15.773438 16.257812 C 15.539062 15.976562 15.355469 15.648438 15.230469 15.289062 L 14.667969 15.289062 C 14.464844 15.289062 14.285156 15.140625 14.25 14.925781 C 14.183594 14.503906 14.179688 14.058594 14.25 13.621094 C 14.285156 13.40625 14.464844 13.25 14.667969 13.25 L 15.230469 13.25 C 15.355469 12.894531 15.539062 12.566406 15.773438 12.285156 L 15.492188 11.78125 C 15.390625 11.597656 15.429688 11.363281 15.589844 11.226562 C 15.914062 10.949219 16.285156 10.726562 16.683594 10.570312 C 16.878906 10.496094 17.097656 10.574219 17.199219 10.761719 L 17.480469 11.269531 C 17.835938 11.199219 18.203125 11.199219 18.5625 11.269531 L 18.839844 10.761719 C 18.945312 10.574219 19.160156 10.496094 19.355469 10.570312 C 19.761719 10.726562 20.125 10.949219 20.453125 11.226562 C 20.609375 11.363281 20.652344 11.597656 20.546875 11.78125 L 20.265625 12.285156 C 20.503906 12.566406 20.6875 12.894531 20.8125 13.25 L 21.371094 13.25 C 21.578125 13.25 21.757812 13.402344 21.789062 13.617188 C 21.859375 14.039062 21.863281 14.484375 21.789062 14.925781 C 21.757812 15.136719 21.578125 15.289062 21.371094 15.289062 L 20.8125 15.289062 C 20.6875 15.648438 20.503906 15.976562 20.265625 16.257812 L 20.546875 16.761719 C 20.652344 16.945312 20.613281 17.183594 20.453125 17.316406 C 20.125 17.597656 19.757812 17.816406 19.355469 17.972656 C 19.160156 18.046875 18.945312 17.96875 18.839844 17.78125 L 18.5625 17.277344 C 18.207031 17.34375 17.835938 17.34375 17.480469 17.277344 Z M 17.121094 15.199219 C 18.433594 16.246094 19.933594 14.695312 18.921875 13.335938 C 17.609375 12.292969 16.109375 13.84375 17.121094 15.199219 Z M 17.121094 15.199219 "/>
</g>
</svg>
