<svg width="3334" height="351" viewBox="0 0 3334 351" fill="none" xmlns="http://www.w3.org/2000/svg">
<g clip-path="url(#clip0_119_2383)">
<path d="M262.147 35.4004C278.76 17.5871 300.427 2.37374 325.413 0.573744C343.6 -1.03959 361.52 6.28041 375.36 17.7471C391.227 30.2671 402.52 47.3471 413.107 64.3071C458.493 140.694 503.88 217.067 549.453 293.334C565.667 297.64 582.013 301.48 598.453 304.867C633.68 311.12 669.547 314.507 705.347 312.987C727.773 311.16 751.093 307.974 770.587 295.907C781.707 289.027 791.053 276.56 789.16 262.894C787.307 250.08 776.533 241.427 766.2 235.08C746.467 223.414 724.547 216.094 702.84 209.067C678.893 200.747 654.333 194.294 630.493 185.627C611.493 179.014 592.44 172.227 574.667 162.667C558.267 154.294 542.12 144 531.32 128.747C521.147 114.44 519.04 95.0137 525.293 78.6937C531.853 60.6004 547.213 47.4671 563.507 38.1871C577.627 30.7071 592.64 24.9204 608.093 20.8671C627.373 16.3204 646.84 12.2671 666.64 10.8937C701.6 6.73374 736.893 7.45374 772.013 8.50708C806.107 10.3871 840.093 14.3337 873.627 20.7737C873.52 34.1737 873.613 47.5737 873.573 60.9737C832.067 51.2271 789.52 43.4271 746.693 45.8404C725.933 47.2004 704.413 51.0271 686.893 62.9471C681.667 67.0004 676.387 71.8004 674.24 78.2671C672.627 84.6671 675.08 91.7071 679.827 96.1871C688.72 104.76 700.56 109.107 712.013 113.094C757.813 128.067 806.32 136.027 849.32 158.707C867.827 168.467 885.213 181.627 896.547 199.507C906.413 215.04 910.373 233.747 910.013 252C909.093 274.014 897.693 294.814 880.613 308.494C864.907 321.574 845.88 330.214 826.347 335.827C801.827 343.56 776.12 346.707 750.587 348.8C740.653 349.64 730.653 349.414 720.76 350.667H426.373C376.947 268.547 327.88 186.214 278.587 104.014C233.507 157.867 188.413 211.707 143.4 265.614C175.533 250.32 209.72 238.027 245.373 234.707C260.04 232.854 274.893 233.8 289.547 235.36C312.68 238.374 335 245.734 356.547 254.494C310.893 245.52 263.187 251.707 219.84 267.854C171.907 285.627 127.907 314.12 92.1467 350.667H0V349.507C87.4933 244.907 174.653 140 262.147 35.4004Z" fill="#900D35"/>
<path d="M1939.67 15.6408C1956.35 2.96079 1978.47 -2.87921 1999.04 2.24079C2021.83 8.22746 2040.61 23.9208 2055.73 41.4275C2071.24 59.6675 2084.37 79.7475 2098.29 99.1741C2143.79 162.934 2189.35 226.641 2234.95 290.321C2241.35 299.294 2247.51 308.441 2254.47 316.987C2254.49 230.454 2254.47 143.921 2254.49 57.3741C2255 48.3208 2259.91 40.1741 2265.52 33.3075C2274.33 23.6808 2287.11 18.1475 2300.01 17.0675C2308.65 16.5208 2317.4 15.0808 2326.01 16.9608C2340.07 19.4541 2353.19 25.7608 2364.87 33.8408C2456.89 88.1875 2548.99 142.401 2641.05 196.667C2641.05 136.681 2641.05 76.6808 2641.07 16.6941C2664.36 16.7475 2687.67 16.4541 2710.96 16.8408C2710.76 100.987 2710.69 185.161 2711.11 269.307C2710.93 283.147 2712.11 297.307 2708.13 310.761C2704.43 324.894 2695.49 338.374 2681.84 344.481C2672.23 349.361 2661.24 349.614 2650.71 350.041C2636.31 349.881 2622.23 345.174 2609.75 338.161C2586.04 323.427 2561.49 310.067 2537.41 295.934C2466.92 255.307 2396.45 214.614 2325.93 174.027C2325.36 232.907 2324.88 291.787 2324.25 350.667H2121.27C2061.97 268.614 2003.17 186.174 1943.97 104.041C1905.33 158.027 1866.64 211.974 1828.08 266.001C1851.39 254.081 1876.03 244.427 1901.64 238.841C1930.09 232.507 1959.77 232.721 1988.29 238.494C2005.72 242.627 2022.79 248.241 2039.55 254.574C2007.89 248.987 1975.15 249.361 1943.76 256.454C1883.15 269.934 1827.93 304.241 1786.99 350.667H1694.49C1707.69 331.041 1721.97 312.147 1735.61 292.814C1795.11 209.654 1854.51 126.414 1913.97 43.2275C1920.59 32.4141 1929.72 23.3875 1939.67 15.6408Z" fill="#900D35"/>
<path d="M1423.97 16.6671C1467.69 16.6804 1511.41 16.6404 1555.13 16.6804C1555.13 103.574 1555.13 190.467 1555.13 277.36C1555.23 282.96 1554.39 288.84 1556.63 294.147C1558.41 298.627 1563 301.827 1567.88 301.64C1611.92 301.694 1655.97 301.654 1700.01 301.654C1689.28 318 1678.68 334.427 1667.8 350.667H1456.4C1447.67 350.32 1438.65 347.32 1432.99 340.374C1425.01 330.667 1423.37 317.467 1423.91 305.334C1424.01 209.107 1423.87 112.894 1423.97 16.6671Z" fill="#900D35"/>
<path d="M929.64 16.6935C973.36 16.6402 1017.08 16.6802 1060.8 16.6669C1060.85 64.3335 1060.77 112 1060.84 159.667C1123.84 159.667 1186.85 159.654 1249.87 159.68C1249.92 112.014 1249.85 64.3335 1249.91 16.6669C1293.61 16.6802 1337.32 16.6269 1381.04 16.6935C1380.93 128.014 1381.21 239.347 1380.89 350.667H1250.03C1249.69 303.227 1250 255.774 1249.87 208.32C1186.85 208.347 1123.84 208.32 1060.83 208.334C1060.73 255.774 1060.95 303.227 1060.72 350.667H929.827C929.4 239.347 929.774 128.014 929.64 16.6935Z" fill="#900D35"/>
<path d="M2754.04 16.6801C2811.56 16.6535 2869.08 16.6801 2926.6 16.6668C2955.08 16.7201 2983.59 16.3601 3012.04 17.6668C3059.03 20.0535 3106.24 27.2935 3150.25 44.4401C3170.88 53.2268 3191.03 63.9468 3207.89 78.8935C3226.71 95.6001 3241.23 117.493 3247.44 142.027C3252.51 163.107 3253.6 185.4 3248.44 206.573C3243.69 227.613 3233.53 247.2 3220.13 264C3199.23 289.947 3170.39 308.107 3140.21 321.44C3118.48 330.56 3095.71 336.92 3072.65 341.667C3045.83 346.787 3018.55 348.947 2991.35 350.667H2754.15C2753.89 239.333 2754.09 128.013 2754.04 16.6801ZM2885.08 49.6668C2885.04 138.88 2885.07 228.107 2885.07 317.32C2906.92 317.347 2928.77 317.32 2950.64 317.347C2975.8 316.76 3001.32 314.587 3025.25 306.293C3044.72 299.773 3063.33 289.84 3078.28 275.613C3095.12 259.76 3106.31 238.413 3111.27 215.92C3114.91 199.307 3115.91 182.08 3113.97 165.173C3112.24 145.693 3106.36 126.307 3095.03 110.213C3085.6 95.7868 3071.87 84.7868 3057.24 75.9868C3031.97 61.7335 3003.23 54.8401 2974.57 51.8668C2944.85 48.4268 2914.92 50.0268 2885.08 49.6668Z" fill="#900D35"/>
<path d="M3260.01 284.014C3272.39 267.654 3297.61 263.387 3314.69 274.747C3325.89 281.6 3332.76 294.267 3333.33 307.307V310.254C3332.83 320.694 3328.29 330.8 3320.73 338.027C3310.17 347.8 3294.35 351.707 3280.56 347.32C3273.19 344.907 3266.08 340.894 3261.24 334.734C3249.31 320.827 3248.25 298.36 3260.01 284.014ZM3283.04 276.667C3277.27 278.627 3271.73 281.76 3267.81 286.507C3255.91 299.867 3257.43 322.747 3271 334.427C3276.49 338.987 3283.4 342.014 3290.6 342.347C3303.93 343.2 3317.52 335.027 3322.47 322.507C3329.12 307.467 3323.4 287.427 3308.6 279.56C3300.97 275.04 3291.48 274.107 3283.04 276.667Z" fill="#900D35"/>
<path d="M3277.17 285.667C3285.72 285.934 3294.41 284.934 3302.88 286.654C3311.71 288.814 3313.85 301.787 3307.64 307.72C3305.49 310.214 3302.12 310.774 3299.2 311.734C3303.55 318.507 3307.96 325.227 3312.32 332C3309.65 332 3307.04 331.987 3304.45 331.974C3300.4 325.294 3296.29 318.654 3292.21 312C3289.48 312 3286.8 312 3284.15 312.014C3284.13 318.667 3284.15 325.334 3284.15 332C3281.77 331.987 3279.44 331.987 3277.15 332C3277.15 316.547 3277.11 301.107 3277.17 285.667ZM3284.12 291.68C3284.11 296.44 3284.11 301.214 3284.12 305.987C3289.33 305.854 3294.73 306.614 3299.8 304.947C3305.29 303.44 3305.25 293.894 3299.63 292.56C3294.61 290.974 3289.27 291.88 3284.12 291.68Z" fill="#900D35"/>
</g>
<defs>
<clipPath id="clip0_119_2383">
<rect width="3333.33" height="350.667" fill="white"/>
</clipPath>
</defs>
</svg>
