<svg width="923" height="1040" viewBox="0 0 923 1040" fill="none" xmlns="http://www.w3.org/2000/svg">
<g clip-path="url(#clip0_119_1578)">
<path d="M919.147 0H923.001V1040H916.955C918.893 1034.1 919.678 1027.89 919.539 1021.71C919.147 681.142 919.932 340.571 919.147 0Z" fill="#01649D"/>
<path d="M210.813 95.4676C303.344 95.6521 395.875 95.7674 488.406 95.3984C488.729 258.063 488.452 420.75 488.544 583.414C487.552 611.179 491.267 639.473 502.135 665.208C507.65 678.698 516.096 690.735 524.772 702.357C540.394 724.218 564.322 738.446 588.482 749.146C617.972 759.799 650.669 763.627 681.359 755.879C706.095 752.328 728.478 739.53 747.699 724.034C764.937 707.869 781.712 690.182 790.827 667.998C798.488 650.334 802.641 631.195 804.718 612.101C804.741 609.149 807.856 607.627 810.44 607.72C816.786 607.166 823.155 607.65 829.523 607.696C830.216 685.5 829.385 763.328 829.939 841.155C819.44 842.031 808.917 842.261 798.395 842.054C714.564 842.008 630.709 842.054 546.878 842.031C531.902 841.893 516.88 842.63 501.951 841.178C500.082 812.63 493.251 783.989 480.468 758.277C464.269 727.7 440.548 700.697 410.989 682.457C394.283 673.555 377.992 663.017 359.278 658.82C311.628 645.399 258.994 650.657 215.405 674.247C193.138 687.046 171.24 701.873 155.387 722.419C145.165 736.67 134.181 750.806 128.389 767.571C118.79 790.746 109.814 815.374 112.122 840.901C103.515 842.031 94.7923 842.308 86.1392 841.339C86.3468 757.194 86.2315 673.025 86.1853 588.88C129.774 589.318 173.363 588.995 216.928 589.087C235.55 588.142 253.802 583.599 271.801 579.01C293.076 573.729 312.528 563.26 331.311 552.261C350.094 540.961 365.508 525.188 380.622 509.531C412.074 471.113 435.449 423.909 437.041 373.547C437.041 358.235 438.171 342.808 436.164 327.565C431.503 302.983 427.257 277.825 416.019 255.203C400.282 223.704 379.076 194.441 351.202 172.626C339.572 164.163 328.473 154.755 315.389 148.551C298.591 140.527 281.954 131.118 263.24 128.512C245.772 125.861 228.558 120.81 210.79 121.041C210.813 112.509 210.813 103.977 210.813 95.4676Z" fill="#01649D"/>
<path d="M33.7124 44.9896C315.966 44.8512 598.219 45.0357 880.473 44.9204C880.773 324.337 880.427 603.776 880.634 883.216C879.527 886.306 882.849 894.446 877.288 893.477C617.948 893.731 358.585 893.501 99.2223 893.593C78.0626 893.8 56.8797 893.108 35.7199 893.939C34.7969 891.195 34.1739 888.381 33.897 885.545C33.6893 605.367 34.0355 325.167 33.7124 44.9896ZM47.0959 59.5404C47.2574 62.7457 47.3728 65.951 47.419 69.1563C47.4882 339.303 47.3728 609.472 47.4882 879.618C320.558 880.057 593.627 879.48 866.697 879.895C867.158 794.92 866.766 709.921 866.905 624.922C866.697 436.223 867.274 247.501 866.605 58.8025C597.712 58.4566 328.819 58.8025 59.9256 58.618C55.6337 58.6641 51.3417 59.0331 47.0959 59.5404Z" fill="#1C1512"/>
<path d="M197.407 82.1851C298.89 81.5624 400.374 81.8853 501.858 82.0236C502.85 153.832 501.997 225.664 502.297 297.495C502.274 396.629 502.297 495.787 502.274 594.944C500.104 645.261 525.995 696.315 569.006 723.019C586.451 735.125 607.265 741.213 627.963 744.926C667.86 750.322 709.395 737.662 740.454 712.273C764.036 691.888 780.858 663.824 788.011 633.523C791.657 621.002 789.442 607.397 794.888 595.313C810.994 595.959 827.146 595.152 843.253 595.844C843.622 667.029 843.322 738.215 843.414 809.401C843.253 824.828 843.876 840.278 842.907 855.705C728.824 856.512 614.718 855.751 500.612 856.074C496.736 855.498 491.221 856.628 488.752 852.938C487.321 842.123 489.075 831.054 486.629 820.354C482.498 796.257 473.937 772.828 461.154 751.959C434.572 711.512 392.967 679.828 345.087 669.958C312.966 662.74 279.231 665.231 247.941 674.985C235.619 679.666 223.897 685.846 212.267 692.026C194.961 701.596 180.77 715.617 167.432 730.006C152.849 746.448 142.996 766.394 134.804 786.595C126.266 807.695 124.282 830.639 123.151 853.146C120.728 855.982 116.483 855.59 113.114 856.005C99.7071 856.259 86.3236 855.982 72.917 855.867C71.9017 790.446 72.7555 724.979 72.4786 659.512C72.6401 631.54 72.1555 603.569 72.7555 575.62C124.697 574.928 176.662 575.966 228.627 575.044C267.855 569.901 305.651 554.497 337.31 530.769C360.224 512.206 380.622 490.091 395.113 464.287C413.735 429.513 425.018 390.173 423.542 350.51C423.98 330.794 419.711 311.377 414.565 292.445C406.305 265.949 394.398 240.191 376.561 218.699C359.97 198.476 340.587 180.305 318.343 166.423C291.068 149.82 260.101 139.858 228.604 135.223C219.351 134.462 210.029 135.407 200.799 134.393C195.791 132.271 197.314 126.575 196.899 122.286C196.784 108.911 196.737 95.5367 197.407 82.1851ZM210.813 95.4675C210.813 103.977 210.813 112.509 210.79 121.041C228.558 120.81 245.772 125.86 263.24 128.512C281.953 131.118 298.59 140.527 315.389 148.551C328.473 154.754 339.572 164.163 351.202 172.626C379.076 194.44 400.282 223.703 416.019 255.203C427.257 277.825 431.503 302.983 436.164 327.565C438.171 342.808 437.041 358.235 437.041 373.547C435.448 423.909 412.073 471.113 380.622 509.531C365.508 525.188 350.094 540.961 331.311 552.26C312.528 563.26 293.076 573.729 271.8 579.01C253.802 583.599 235.55 588.142 216.928 589.087C173.362 588.995 129.774 589.318 86.1851 588.88C86.2313 673.025 86.3467 757.194 86.139 841.339C94.7921 842.308 103.514 842.031 112.121 840.901C109.814 815.374 118.79 790.746 128.389 767.57C134.181 750.806 145.165 736.67 155.387 722.419C171.24 701.873 193.138 687.045 215.405 674.247C258.994 650.657 311.628 645.399 359.278 658.82C377.992 663.017 394.283 673.555 410.989 682.457C440.548 700.697 464.269 727.7 480.468 758.277C493.251 783.989 500.081 812.629 501.951 841.178C516.88 842.63 531.902 841.892 546.878 842.031C630.709 842.054 714.564 842.008 798.395 842.054C808.917 842.261 819.439 842.031 829.939 841.154C829.385 763.327 830.215 685.5 829.523 607.696C823.154 607.65 816.786 607.166 810.44 607.719C807.856 607.627 804.741 609.149 804.718 612.101C802.641 631.194 798.487 650.334 790.826 667.998C781.712 690.182 764.936 707.869 747.699 724.033C728.478 739.53 706.095 752.328 681.359 755.879C650.669 763.627 617.972 759.799 588.482 749.146C564.322 738.446 540.393 724.218 524.772 702.357C516.095 690.735 507.65 678.698 502.135 665.208C491.267 639.473 487.552 611.178 488.544 583.414C488.452 420.75 488.729 258.063 488.405 95.3984C395.875 95.7673 303.344 95.652 210.813 95.4675Z" fill="#1C1512"/>
<path d="M150.979 921.495C155.548 919.305 160.509 919.189 165.355 920.434C165.101 940.658 166.209 960.951 164.755 981.128C159.771 994.964 144.195 996.901 131.481 995.425C120.428 996.947 109.768 988.392 107.529 977.9C106.722 958.875 107.345 939.851 107.091 920.827C111.867 920.734 116.644 920.665 121.443 920.688C121.351 937.43 121.236 954.171 121.42 970.913C120.913 985.717 147.103 988.323 150.864 974.717C151.602 957.007 151.349 939.205 150.979 921.495Z" fill="#1C1512"/>
<path d="M253.387 920.803C262.709 920.504 270.301 929.751 270.854 938.513C271.57 945.086 266.193 949.813 262.801 954.771C267.416 959.36 274.316 963.464 274.131 970.797C275.977 982.627 265.824 994.618 253.894 994.918C240.234 995.287 226.573 994.849 212.913 995.125C212.682 970.313 212.728 945.501 212.867 920.711C226.389 920.734 239.888 920.481 253.387 920.803ZM226.966 949.721C236.265 951.312 246.995 952.58 254.863 946.169C255.832 941.811 256.617 935.17 251.171 933.579C243.718 932.103 236.011 932.725 228.466 932.887C225.304 937.591 227.612 944.232 226.966 949.721ZM227.058 962.542C227.058 968.929 226.989 975.34 226.804 981.751C236.334 981.728 245.864 981.682 255.417 981.474C257.125 977.877 260.678 974.256 259.086 969.967C257.379 967.338 255.348 964.848 252.648 963.234C244.203 961.942 235.573 962.819 227.058 962.542Z" fill="#1C1512"/>
<path d="M286.915 921.357C291.645 918.912 296.814 919.12 301.613 921.288C300.829 945.869 301.498 970.497 301.244 995.079C296.56 995.102 291.876 995.125 287.191 995.148C287.03 970.543 287.584 945.939 286.915 921.357Z" fill="#1C1512"/>
<path d="M316.866 921.357C322.334 919.235 329.649 917.713 333.41 923.593C343.102 938.398 351.64 953.963 360.916 969.044C361.816 953.248 361.585 937.406 361.124 921.61C365.739 918.981 370.861 919.12 375.615 921.241C374.969 945.892 375.592 970.566 375.292 995.24C370.192 995.102 365.069 994.964 359.97 994.756C354.524 983.411 346.955 973.287 340.633 962.426C337.979 957.906 335.51 953.11 331.311 949.836C330.757 964.894 331.172 979.975 331.034 995.033C326.35 994.941 321.665 994.964 316.981 994.941C317.12 970.405 317.373 945.869 316.866 921.357Z" fill="#1C1512"/>
<path d="M413.296 920.965C418.788 920.711 424.28 920.688 429.795 920.734C439.532 945.454 450.447 969.805 458.961 995.01C453.516 995.056 448.093 995.01 442.671 994.964C441.055 989.452 439.255 984.01 437.225 978.66C427.026 978.268 416.827 978.43 406.65 978.522C404.458 984.079 402.243 989.637 399.982 995.194C395.159 995.079 390.36 995.01 385.583 994.918C386.644 989.937 388.052 985.048 390.083 980.413C398.32 960.789 405.52 940.773 413.296 920.965ZM413.319 965.239C419.319 965.216 425.341 965.193 431.364 965.101C428.872 955.969 425.364 947.184 421.557 938.536C417.45 946.953 414.058 955.831 413.319 965.239Z" fill="#1C1512"/>
<path d="M492.397 921.426C499.851 918.29 508.042 919.212 515.68 921.057C519.534 934.132 522.164 947.553 525.902 960.651C527.148 963.718 529.087 966.416 531.002 969.091C532.133 952.603 540.14 937.545 541.639 921.149C549.254 920.596 556.915 920.596 564.576 920.804C564.507 945.501 564.553 970.221 564.53 994.918C560.538 995.033 556.546 995.195 552.577 995.379C548.147 979.652 551.977 962.888 550.362 946.746C549.023 945.708 547.685 944.671 546.37 943.656C546.67 961.389 540.14 978.2 536.032 995.241C531.394 994.918 526.595 995.587 522.095 994.318C515.819 978.984 516.972 960.236 507.235 946.077C505.758 962.45 507.489 978.961 506.427 995.379C501.858 995.126 497.312 994.987 492.767 994.849C492.513 970.382 493.228 945.893 492.397 921.426Z" fill="#1C1512"/>
<path d="M601.103 923.548C604.749 916.63 613.264 920.135 619.171 921.242C627.339 946.308 638.923 970.129 647.761 994.964C641.623 995.149 635.185 995.771 629.578 992.773C628.747 987.931 627.293 983.227 625.84 978.568C615.433 978.361 605.026 978.223 594.619 978.776C592.842 984.287 590.696 989.66 588.758 995.125C584.143 995.079 579.505 995.056 574.913 995.033C575.282 985.348 580.174 976.839 583.451 967.938C589.497 953.203 594.55 938.052 601.103 923.548ZM608.995 938.352C606.503 947.392 602.695 956.016 600.365 965.101C606.964 965.194 613.564 965.217 620.163 965.101C617.071 955.947 613.541 946.93 608.995 938.352Z" fill="#1C1512"/>
<path d="M742.207 926.407C751.23 917.921 764.221 920.942 775.412 920.55C787.18 919.766 797.426 930.212 797.933 941.742C793.041 942.018 788.15 942.41 783.281 942.756C779.866 934.247 769.851 927.998 760.875 931.849C740.246 937.868 739.023 969.736 755.729 980.897C765.467 986.247 777.235 982.788 785.404 976.193C785.334 973.38 785.265 970.566 785.242 967.776C780.281 967.615 775.32 967.638 770.405 967.384C766.344 964.917 767.29 959.959 766.574 956.039C777.558 955.024 788.588 955.531 799.618 955.485C799.572 965.539 799.595 975.616 799.572 985.671C792.695 989.591 785.75 994.318 777.673 995.148C765.905 995.725 752.799 997.085 743.061 989.014C724.693 973.656 724.486 942.341 742.207 926.407Z" fill="#1C1512"/>
<path d="M834.738 921.541C839.722 917.344 846.483 920.134 852.09 921.287C860.259 946.169 873.088 969.459 879.642 994.871C874.773 994.987 869.904 995.056 865.035 995.217C862.774 989.775 860.489 984.356 858.943 978.683C848.537 978.314 838.13 978.245 827.746 978.707C826.038 984.264 823.939 989.683 821.77 995.079C816.762 995.056 811.778 995.033 806.794 994.918C809.286 983.918 814.709 973.933 818.493 963.395C824.077 949.513 828.946 935.331 834.738 921.541ZM833.492 965.124C840.045 965.263 846.598 965.216 853.152 964.963C850.452 956.408 847.729 947.622 842.329 940.312C838.868 948.383 835.453 956.523 833.492 965.124Z" fill="#1C1512"/>
<path d="M37.5892 920.734C51.2496 920.757 64.933 920.365 78.5704 920.942C96.2227 925.416 99.684 953.249 84.1314 962.634C74.4169 968.491 62.3948 966.854 51.5034 967.385C51.9187 976.632 51.5957 985.902 51.8726 995.149C47.1422 995.079 42.4118 995.056 37.6584 995.126C37.4507 970.313 37.5892 945.524 37.5892 920.734ZM51.7111 953.871C60.3642 953.987 69.2942 954.632 77.2551 950.597C77.4858 945.593 77.4628 940.589 77.232 935.585C69.5019 932.679 61.218 932.357 53.0494 932.887C50.165 939.251 52.4033 946.953 51.7111 953.871Z" fill="#1C1512"/>
<path d="M656.345 920.988C670.651 920.481 684.981 920.596 699.287 920.803C707.571 920.826 716.247 927.422 716.663 936.115C716.617 942.341 718.324 949.974 713.063 954.678C709.556 958.599 704.318 960.051 699.495 961.596C708.771 971.397 717.217 982.396 722.224 995.033C716.847 995.102 711.448 995.333 706.118 994.756C698.087 985.371 692.365 974.256 684.289 964.917C680.297 964.732 676.281 964.525 672.313 964.364C671.713 974.694 674.02 985.486 670.282 995.425C665.667 995.102 661.029 994.941 656.414 994.826C656.46 970.221 656.575 945.593 656.345 920.988ZM673.559 951.196C683.296 950.689 694.603 953.871 702.564 946.607C702.518 943.494 702.495 940.404 702.541 937.314C694.349 930.788 683.527 933.025 673.882 932.979C671.113 937.983 671.482 945.869 673.559 951.196Z" fill="#1C1512"/>
<path d="M47.0962 59.5406C51.342 59.0332 55.6339 58.6643 59.9259 58.6182C328.819 58.8026 597.712 58.4567 866.605 58.8026C867.274 247.502 866.697 436.224 866.905 624.922C866.766 709.921 867.159 794.92 866.697 879.895C593.628 879.48 320.558 880.057 47.4885 879.619C47.3731 609.472 47.4885 339.303 47.4192 69.1565C47.3731 65.9512 47.2577 62.7459 47.0962 59.5406ZM197.407 82.1853C196.738 95.537 196.784 108.912 196.899 122.286C197.314 126.576 195.792 132.271 200.799 134.393C210.029 135.408 219.351 134.462 228.604 135.223C260.102 139.858 291.068 149.82 318.343 166.423C340.587 180.305 359.97 198.476 376.561 218.7C394.398 240.192 406.305 265.949 414.566 292.445C419.711 311.377 423.98 330.794 423.542 350.51C425.019 390.173 413.735 429.513 395.113 464.287C380.622 490.091 360.224 512.206 337.31 530.769C305.652 554.498 267.855 569.902 228.627 575.044C176.662 575.966 124.697 574.929 72.7556 575.62C72.1556 603.569 72.6402 631.541 72.4787 659.512C72.7556 724.979 71.9018 790.446 72.9171 855.867C86.3237 855.982 99.7072 856.259 113.114 856.005C116.483 855.59 120.729 855.982 123.151 853.146C124.282 830.639 126.267 807.695 134.804 786.595C142.996 766.395 152.849 746.448 167.432 730.006C180.77 715.617 194.961 701.596 212.267 692.027C223.897 685.847 235.619 679.667 247.941 674.985C279.231 665.231 312.966 662.741 345.087 669.958C392.967 679.828 434.572 711.512 461.154 751.959C473.938 772.828 482.498 796.257 486.629 820.355C489.075 831.055 487.321 842.123 488.752 852.938C491.221 856.628 496.736 855.498 500.612 856.075C614.718 855.752 728.824 856.513 842.907 855.706C843.876 840.279 843.253 824.828 843.414 809.401C843.322 738.216 843.622 667.03 843.253 595.844C827.147 595.152 810.994 595.959 794.888 595.314C789.442 607.397 791.657 621.002 788.011 633.524C780.858 663.824 764.036 691.888 740.454 712.273C709.395 737.662 667.86 750.322 627.963 744.926C607.265 741.213 586.451 735.126 569.007 723.019C525.995 696.316 500.105 645.261 502.274 594.945C502.297 495.787 502.274 396.63 502.297 297.495C501.997 225.664 502.851 153.832 501.858 82.0239C400.374 81.8856 298.891 81.5627 197.407 82.1853Z" fill="#F3BE00"/>
</g>
<defs>
<clipPath id="clip0_119_1578">
<rect width="923" height="1040" fill="white"/>
</clipPath>
</defs>
</svg>
