<svg width="3456" height="463" viewBox="0 0 3456 463" fill="none" xmlns="http://www.w3.org/2000/svg">
<path d="M446.589 11.3894C451.804 6.22102 457.738 -0.143769 465.968 1.33975C614.257 1.53117 762.545 1.10041 910.882 1.57896C846.188 66.9493 780.92 131.745 716.178 197.02C705.268 207.979 692.827 217.837 685.315 231.619C684.405 229.514 682.539 225.255 681.582 223.149C681.247 226.403 680.96 229.705 680.673 233.007C606.313 306.082 533.341 380.689 459.365 454.147C453.766 460.176 445.105 457.832 437.88 458.406C292.701 457.879 147.523 459.028 2.34473 457.832C149.581 308.188 298.97 160.65 446.589 11.3894Z" fill="#FF0101"/>
<path d="M1074.24 4.30665C1089.7 4.01952 1105.11 3.92387 1120.61 4.06744C969.307 155.099 818.148 306.321 666.605 457.113C651.915 463.765 633.923 458.453 618.037 459.411C769.245 306.848 922.223 156.008 1074.24 4.30665Z" fill="#FF0101"/>
<path d="M1313.54 4.78516C1330.24 2.96666 1347.04 3.58876 1363.79 5.07228C1358.67 7.60861 1354.07 10.7671 1349.86 14.5477C1202.05 163.33 1052.57 310.485 904.996 459.554C889.397 460.08 873.797 460.176 858.294 458.932C996.965 320.822 1136.11 183.142 1274.5 44.7444C1287.8 31.7277 1301.53 19.0939 1313.54 4.78516Z" fill="#FF0101"/>
<path d="M1394.46 5.31172C1410.01 1.77043 1426.52 4.49821 1442.45 4.59392C1424.94 18.137 1410.92 35.5085 1394.75 50.535C1258.08 186.827 1121.47 323.167 984.858 459.506C969.69 459.937 954.473 459.985 939.305 459.028C1016.77 379.445 1096.45 302.063 1174.82 223.436C1248.04 150.696 1320.86 77.5732 1394.46 5.31172Z" fill="#FF0101"/>
<path d="M1535.04 4.21106C1542.7 3.15824 1550.4 4.16324 1558.11 4.54608C1515.52 44.266 1475.71 86.9049 1434.13 127.678C1324.21 237.984 1214.16 348.099 1104.58 458.741C1097.88 457.831 1091.18 456.97 1084.48 456.061C1215.98 323.31 1348.38 191.469 1479.44 58.2875C1498.63 40.916 1514.66 20.1947 1535.04 4.21106Z" fill="#FF0101"/>
<path d="M1600.31 4.30656C1608.73 4.11514 1617.2 4.16308 1625.67 4.40236C1624 5.93373 1620.6 9.04422 1618.92 10.5756C1470.44 160.841 1321.01 310.102 1171.43 459.267C1164.63 457.448 1157.93 455.678 1151.19 453.811C1153.48 452.519 1158.12 449.839 1160.47 448.547C1294.12 312.303 1429.82 178.021 1564.09 42.3037C1576.39 29.9092 1589.4 18.041 1600.31 4.30656Z" fill="#FF0101"/>
<path d="M1673.81 3.73242C1681.51 3.82813 1689.26 4.01953 1697.06 4.30666C1559.35 142.082 1422.12 280.384 1284.31 418.064C1270.57 431.654 1257.56 446.059 1242.82 458.597C1236.65 457.257 1230.47 456.013 1224.35 454.912C1374.79 305.173 1524.23 154.285 1673.81 3.73242Z" fill="#FF0101"/>
<path d="M1394.08 427.778C1534.42 286.127 1674.91 144.618 1815.59 3.34961C1823.39 3.73245 1831.19 4.11519 1839.04 4.59375C1689.31 152.084 1542.27 302.302 1393.21 450.414C1386.99 458.884 1374.07 461.755 1366.71 453.237C1376.8 445.867 1385.56 436.871 1394.08 427.778Z" fill="#FF0101"/>
<path d="M1885.74 3.68457C1894.45 3.87599 1903.16 4.54603 1911.87 5.69456C1908.61 7.41735 1905.36 9.18802 1902.15 10.9587C1774.58 140.455 1645.34 268.468 1517.05 397.39C1495.81 417.968 1476.04 440.077 1453.65 459.411C1447.19 457.353 1440.73 455.391 1434.27 453.477C1437.43 452.137 1440.59 450.797 1443.79 449.505C1589.59 299.478 1739.12 152.993 1885.74 3.68457Z" fill="#FF0101"/>
<path d="M1957.04 4.11523C1964.64 4.16309 1972.21 4.30678 1979.86 4.54606C1829.66 156.247 1678.36 306.848 1527.63 458.071C1521.45 457.879 1515.23 457.736 1509.11 457.592C1513.61 447.83 1521.6 440.604 1529.21 433.282C1671.66 290.051 1814.54 147.298 1957.04 4.11523Z" fill="#FF0101"/>
<path d="M2067.81 4.30675C2082.4 0.0476333 2097.67 1.57897 2112.69 1.43541C2170.78 2.05753 2229.78 -2.2972 2286.73 12.0115C2322.71 18.7591 2355.87 39.1455 2376.92 69.2943C2391.28 99.2517 2391.52 134.952 2379.7 165.771C2373.14 182.329 2358.84 194.101 2344.48 203.72C2384.44 215.54 2419.32 247.172 2429.03 288.519C2435.54 323.071 2433.58 360.924 2415.25 391.743C2401.04 412.704 2380.7 428.975 2357.59 439.168C2312.28 459.219 2261.84 458.31 2213.32 457.832C2164.85 456.635 2116.09 460.463 2067.81 455.63C2068 305.173 2068.05 154.764 2067.81 4.30675ZM2175.95 75.659C2176.24 112.412 2175.23 149.165 2176.57 185.918C2205.95 183.764 2238.01 190.225 2264.95 175.294C2300.46 152.993 2291.94 90.7334 2251.94 78.1474C2227.1 72.4527 2201.22 76.7597 2175.95 75.659ZM2173.51 262.486C2173.51 302.685 2173.94 342.931 2173.27 383.177C2198.83 389.255 2225.38 385.091 2251.41 386.288C2289.74 388.298 2324.62 351.832 2318.4 313.596C2312.8 284.739 2285.15 262.055 2255.86 262.151C2228.4 261.96 2200.98 261.816 2173.51 262.486Z" fill="#FF0101"/>
<path d="M2645.89 17.7542C2700.3 -0.813697 2761.55 -0.909359 2815.28 20.1948C2878.78 45.6538 2930.98 99.2996 2952.09 164.67C2970.51 226.93 2962.95 297.899 2926.39 352.263C2890.12 405.478 2833.03 445.916 2768.63 455.391C2736.62 461.612 2703.79 458.789 2671.87 453.285C2612.16 439.264 2560.33 399.879 2526.74 349.152C2493.2 296.607 2485.88 230.088 2501.77 170.365C2521.67 100.257 2578.09 43.0696 2645.89 17.7542ZM2690.44 97.8161C2650.01 110.258 2617.28 143.566 2604.45 183.716C2598.71 207.022 2596.65 231.285 2600.43 255.116C2609.86 314.792 2661.63 370.735 2724.84 369.012C2766.24 372.266 2804.42 348.913 2829.92 317.903C2874.66 261.05 2869.54 167.876 2810.54 122.749C2777.91 94.3705 2731.54 88.2929 2690.44 97.8161Z" fill="#FF0101"/>
<path d="M3222.15 10.9588C3291.92 -5.40773 3365.9 5.98185 3430.5 35.7957C3431.88 65.5138 3430.69 95.2318 3430.83 124.95C3377.96 96.0454 3314.41 86.5222 3255.94 101.836C3219.57 112.173 3184.59 135.765 3169.04 171.178C3150.67 217.694 3155.64 275.168 3188.13 314.313C3226.89 356.665 3286.94 371.07 3342.5 367.194C3382.26 363.078 3422.17 352.646 3455.47 329.771C3455.14 361.307 3455.71 392.844 3455.19 424.381C3367.57 468.312 3258.81 472.475 3170.62 427.874C3119.56 401.458 3076.64 355.708 3060.23 299.861C3044.44 244.684 3045.4 183.716 3068.41 130.645C3096.74 69.1029 3156.74 25.5546 3222.15 10.9588Z" fill="#FF0101"/>
<path d="M846.236 152.802C896.718 103.415 945.765 52.5927 996.726 3.68457C1011.61 3.92385 1026.49 4.0674 1041.42 4.11525C1034.96 11.15 1027.97 17.7062 1021.42 24.6452C972.753 70.3949 926.721 118.92 878.918 165.627C836.092 209.079 791.878 251.144 749.77 295.219C693.832 349.343 639.379 404.951 584.159 459.793C569.086 459.937 553.965 459.793 538.893 459.363C640.718 356.57 744.219 255.403 846.236 152.802Z" fill="#FF0101"/>
<path d="M1154.11 3.87626C1169.18 3.58913 1184.3 3.58921 1199.37 4.40275C1048.79 155.578 897.149 305.7 746.276 456.635C731.634 464.723 712.255 456.827 696.368 459.411C850.16 308.81 1001.41 155.578 1154.11 3.87626Z" fill="#FF0101"/>
<path d="M1233.3 4.78544C1247.75 3.34978 1262.34 3.44546 1276.84 4.30686C1270.91 14.0693 1262.82 22.1091 1254.59 29.9095C1142.19 142.13 1029.6 254.207 917.054 366.284C886.765 397.582 854.562 427.061 825.277 459.315C809.439 460.176 793.552 459.937 777.714 459.554C929.591 308.044 1082.62 157.54 1233.3 4.78544Z" fill="#FF0101"/>
<path d="M1472.79 276.699C1563.61 186.54 1652.32 94.2268 1743.81 4.73735C1749.03 4.45022 1759.56 3.7803 1764.77 3.44531C1759.61 10.9586 1753.96 18.0891 1747.45 24.406C1602.85 168.977 1458.91 314.265 1313.97 458.453C1307.42 457.975 1300.91 457.544 1294.45 457.113C1352.69 395.811 1413.65 337.188 1472.79 276.699Z" fill="#FF0101"/>
</svg>
