<svg width="1018" height="925" viewBox="0 0 1018 925" fill="none" xmlns="http://www.w3.org/2000/svg">
<g clip-path="url(#clip0_561_499)">
<path d="M744.683 29.7077C741.83 13.7941 757.332 -1.3165 772.802 1.15823C789.9 2.23989 801.293 23.4307 792.752 38.656C792.768 37.771 792.8 36.0174 792.817 35.1488C784.324 47.6863 774.237 58.9454 762.763 68.7296C755.834 56.2413 747.325 44.0643 744.683 29.7077ZM765.664 14.5643C757.091 17.3177 755.318 30.6746 762.892 35.6241C770.289 41.5077 782.648 35.0177 782.117 25.463C781.843 17.3341 773.076 11.6799 765.664 14.5643Z" fill="#5BE4C4"/>
<path d="M762.763 68.7298C774.237 58.9456 784.324 47.6864 792.817 35.1489C792.801 36.0175 792.768 37.7711 792.752 38.6561C788.031 50.8167 781.15 61.9612 774.43 73.0564C772.948 75.3017 771.401 77.5142 769.886 79.7267C768.371 77.5306 766.856 75.3345 765.422 73.0892C764.504 71.647 763.617 70.1884 762.763 68.7298Z" fill="#42D6B5"/>
<path d="M336.987 73.4168C353.053 68.074 371.246 68.5493 386.732 75.6949C414.32 87.7571 433.045 119.765 427.163 150.199C427.083 147.806 426.97 145.413 426.825 143.037C420.17 156.066 415.126 169.98 406.843 182.108C388.408 209.182 364.317 231.406 342.127 255.153C340.806 253.023 339.485 250.909 338.179 248.778C323.161 223.277 308.255 197.53 297.136 169.98C292.028 157.098 288.225 143.119 290.642 129.139C294.316 103.72 313.266 81.7424 336.987 73.4168ZM320.647 89.6091C312.944 95.9843 306.498 104.031 301.841 112.963C295.073 127.549 293.945 145.298 300.568 160.147C301.245 151.198 300.439 142.103 302.26 133.269C305.58 119.978 312.171 106.998 323.306 98.8032C337.776 86.8721 357.613 81.726 375.79 86.6591C386.072 88.2816 393.984 95.4927 402.814 100.426C395.869 89.9532 384.331 83.791 372.809 79.956C355.083 74.4493 335.794 79.5135 320.647 89.6091ZM351.474 104.933C344.174 106.522 337.793 111.21 333.087 116.978C326.625 125.255 325.675 136.809 328.043 146.806C332.862 163.72 352.602 174.077 368.926 168.177C384.283 163.687 394.564 146.265 390.858 130.401C389.182 121.24 383.348 113.078 375.404 108.456C368.281 104.048 359.499 103.638 351.474 104.933Z" fill="#F95641"/>
<path d="M662.483 75.0067C696.774 73.6628 731.098 73.1056 765.422 73.0892C766.856 75.3345 768.371 77.5306 769.886 79.7267C771.4 77.5142 772.947 75.3017 774.43 73.0564C855.631 73.0892 936.799 75.6622 1018 76.875V84.9383C1015.41 85.4136 1012.84 85.9381 1010.28 86.4789C1012.78 87.7081 1015.36 88.757 1018 89.6911V101.852C979.76 101.934 941.537 101.753 903.297 101.966C899.14 96.6728 893.903 92.4117 889.697 87.1509C889.213 84.545 886.667 83.6108 884.347 83.9878C877.337 82.5128 870.504 79.9561 863.269 79.8742C855.389 79.3825 847.751 81.6442 840.29 83.8895C837.196 83.8075 833.763 83.1028 831.024 84.9547L831.427 85.7414C831.83 86.4953 832.635 87.9867 833.038 88.7406C828.494 93.0017 823.934 97.312 820.227 102.393C773.35 102.13 726.473 102.343 679.596 102.278C667.849 102.638 655.973 101.278 644.338 103.327C644.628 106.473 644.451 110.439 648.27 111.259C710.971 138.448 773.415 166.326 836.342 192.99C840.548 199.743 844.834 206.462 848.83 213.362C852.795 220.229 857.226 226.817 861.803 233.307C867.056 226.227 871.826 218.819 876.37 211.247C890.905 219.18 906.488 229.439 911.435 246.451C915.834 259.382 909.969 273.738 899.881 282.064C885.587 295.011 866.621 300.452 848.138 303.566C813.379 310.384 777.83 311.121 742.539 311.302C729.068 312.219 715.612 310.957 702.157 311.22C654.264 310.105 606.421 307.418 558.657 303.714C463.759 296.879 368.104 288.734 273.206 300.026C247.761 303.615 221.011 310.859 202.077 329.559C188.766 342.047 183.174 361.763 186.284 379.709C188.363 391.361 192.779 402.539 198.612 412.765C214.082 439.283 234.177 462.669 255.222 484.729C279.233 509.017 304.951 531.486 330.944 553.562C359.08 576.474 386.474 600.369 415.48 622.166C426.132 637.146 434.479 653.698 444.358 669.219C453.124 683.084 461.584 697.162 471.091 710.535C477.827 700.685 484.241 690.606 490.638 680.543C604.68 766.47 722.912 846.464 841.95 925H480.97C458.425 907.185 436.574 888.502 414.352 870.261C364.349 828.387 314.507 786.252 266.534 741.969C243.7 721.548 222.22 699.669 200.111 678.462C154.781 633.147 111.787 585.34 72.5647 534.453C53.1629 508.46 32.6331 482.844 19.2903 452.918C10.0406 431.711 4.67451 407.603 9.96005 384.593C14.2626 363.517 26.7191 345.079 42.0278 330.591C72.0329 302.763 110.482 286.833 149.141 275.885C210.521 257.939 274.463 250.335 338.179 248.778C339.485 250.909 340.806 253.023 342.127 255.153C344.432 258.857 346.768 262.561 349.105 266.265C346.801 266.216 344.496 266.167 342.192 266.134C342.176 266.953 342.16 268.592 342.144 269.412C345.173 269.477 348.219 269.559 351.264 269.641C353.681 273.361 356.292 276.951 358.935 280.523C361.529 277.18 364.091 273.804 366.46 270.297C370.859 270.346 375.243 270.313 379.61 269.723C376.274 267.871 372.568 266.97 368.797 266.724C372.761 260.463 376.725 254.203 380.544 247.86C413.128 248.958 445.711 249.679 478.262 251.695C564.684 256.596 651.042 264.741 737.657 264.134C743.571 264.167 749.501 264.151 755.367 263.249C760.281 261.611 765.696 259.611 768.548 254.891C771.707 248.991 769.757 241.19 764.665 237.06C757.043 230.422 748.647 224.768 740.219 219.245C676.502 178.716 601.522 162.064 536.79 123.518C531.408 120.256 525.736 116.733 522.48 111.111C519.209 104.638 523.044 96.6728 528.765 93.1328C535.469 89.1995 543.268 88.0031 550.697 86.1839C587.486 78.7269 625.081 76.7111 662.483 75.0067ZM650.929 83.365C650.848 84.2009 650.719 85.8725 650.639 86.7083C655.28 86.692 659.921 86.7083 664.546 86.3642C661.967 81.3 655.409 84.1681 650.929 83.365ZM673.392 82.9881C673.36 83.8075 673.312 85.4628 673.28 86.2822C677.904 86.315 682.529 86.315 687.154 86.0528C684.85 80.6445 677.904 83.8075 673.392 82.9881ZM695.969 83.0372C695.92 83.8567 695.856 85.512 695.824 86.3314C700.126 86.315 704.429 86.315 708.747 86.315C708.699 85.4792 708.586 83.8075 708.538 82.9717C704.348 83.0045 700.158 83.0208 695.969 83.0372ZM718.545 83.0372C718.513 83.8567 718.448 85.4956 718.416 86.315C723.025 86.3314 727.65 86.3314 732.291 86.0692C730.051 80.5953 723.057 83.8075 718.545 83.0372ZM741.154 82.9881C741.105 83.8239 741.009 85.4792 740.96 86.315C745.553 86.2822 750.129 86.2822 754.722 86.0528C752.53 80.6609 745.617 83.7747 741.154 82.9881ZM762.489 86.0528C767.469 86.4134 772.464 86.397 777.459 85.9708C776.976 85.3153 776.025 83.9878 775.542 83.3322C771.239 83.2339 764.697 81.0214 762.489 86.0528ZM785.001 86.397C789.948 86.7903 794.911 86.8067 799.875 86.4461C799.407 85.7578 798.489 84.3647 798.022 83.6764C793.719 83.6272 787.322 81.4967 785.001 86.397ZM628.223 83.8567C628.272 84.6925 628.369 86.3806 628.417 87.2164C632.961 86.5117 639.375 88.6914 642.082 83.7747C637.457 83.5781 632.848 83.8239 628.223 83.8567ZM807.787 86.4297C812.589 85.9872 819.695 89.1503 822.58 83.8239C817.875 84.3156 810.236 80.792 807.787 86.4297ZM898.898 84.25C898.898 85.0695 898.914 86.7083 898.93 87.5278C903.217 87.5278 907.519 87.5114 911.822 87.5442C911.838 86.7247 911.886 85.0695 911.902 84.25C907.551 84.25 903.217 84.25 898.898 84.25ZM920.379 87.6589C925.02 87.9211 929.693 87.9539 934.35 87.9867C934.285 87.1345 934.173 85.43 934.108 84.5778C929.596 85.3808 922.747 82.3653 920.379 87.6589ZM942.955 87.577C947.902 88.0195 952.865 88.3964 957.829 88.1506C956.958 86.0036 955.444 84.9547 953.284 85.0039C949.723 84.9547 944.566 83.0536 942.955 87.577ZM966.595 85.0367C966.595 85.8561 966.611 87.5114 966.611 88.3472C970.833 88.3472 975.039 88.3636 979.261 88.3964C979.261 87.5606 979.261 85.8725 979.277 85.0367C975.039 85.0531 970.817 85.0531 966.595 85.0367ZM988.188 85.3481C990.831 90.8383 998.26 87.5114 1003.01 88.0358C1000.31 82.5128 992.99 85.8889 988.188 85.3481ZM605.438 85.9544C605.55 86.7739 605.776 88.3964 605.889 89.1995C610.482 88.2325 616.669 89.9042 619.554 85.1186C614.832 85.0203 610.127 85.5283 605.438 85.9544ZM583.893 97.0825C588.759 95.4108 593.32 92.9689 597.848 90.5106C592.659 87.9211 585.697 91.707 583.893 97.0825ZM579.945 104.162C580.895 109.8 584.344 115.143 590.113 116.487C587.825 111.669 584.94 106.441 579.945 104.162ZM596.623 118.88C598.38 124.059 604.294 124.632 608.435 127.009C608.822 126.271 609.579 124.796 609.966 124.059C605.583 122.141 601.264 120.06 596.623 118.88ZM617.475 128.172C619.054 133.81 625.951 134.351 630.496 136.399C628.852 130.647 622.197 129.975 617.475 128.172ZM637.264 139.644C641.711 142.185 646.401 144.364 651.364 145.692C649.495 140.595 642.163 137.039 637.264 139.644ZM660.243 146.79C659.856 147.528 659.115 149.003 658.728 149.74C663.111 151.739 667.494 153.837 672.248 154.771C670.443 149.674 664.304 149.265 660.243 146.79ZM678.855 156.312C680.853 161.376 686.848 162.015 691.038 164.408C691.36 163.638 692.005 162.097 692.343 161.327C687.976 159.311 683.625 157.131 678.855 156.312ZM699.739 165.457C701.593 171.029 708.312 171.75 713.034 173.586C711.471 167.735 704.445 167.325 699.739 165.457ZM721.349 174.602C721.462 175.569 721.72 177.519 721.849 178.486C725.748 180.076 729.616 181.731 733.644 182.927C732.097 177.404 725.7 176.798 721.349 174.602ZM742.443 183.944C742.121 184.714 741.46 186.271 741.138 187.058C745.505 189.008 749.839 191.089 754.513 192.204C752.595 187.09 746.633 186.32 742.443 183.944ZM761.361 193.744C763.794 199.185 770.272 199.89 775.332 201.07C772.432 196.071 766.437 195.023 761.361 193.744ZM782.374 203.168C784.131 208.707 791.253 209.33 796.104 210.412C792.962 205.938 787.547 203.791 782.374 203.168ZM802.824 212.133C804.532 217.279 810.575 217.721 814.684 220.016C815.103 219.262 815.941 217.737 816.376 216.984C811.944 215.132 807.497 213.247 802.824 212.133ZM824.997 221.458C824.626 222.163 823.869 223.588 823.482 224.309C827.704 226.686 831.668 229.734 836.503 230.734C834.182 226.014 829.284 223.851 824.997 221.458ZM840.999 236.88C843.174 241.174 844.189 246.254 847.799 249.63C848.25 244.517 846.236 239.83 843.883 235.47C843.158 235.831 841.708 236.536 840.999 236.88ZM834.489 267.429C835.165 267.871 836.519 268.756 837.196 269.199C840.564 265.659 844.061 262.037 845.398 257.153C840.499 258.923 837.937 263.807 834.489 267.429ZM295.444 267.691C300.036 270.493 307.578 271.198 311.397 266.74C306.079 265.872 300.633 266.249 295.444 267.691ZM318.794 266.412C320.937 271.903 328.076 268.609 332.62 269.428C332.62 268.609 332.604 266.97 332.604 266.15C327.995 266.134 323.386 266.101 318.794 266.412ZM274.092 269.363C278.024 271.968 285.034 271.067 288.563 267.609C284.083 267.576 277.025 265.282 274.092 269.363ZM387.409 267.822C387.393 268.641 387.361 270.264 387.345 271.067C392.114 271.28 396.917 271.198 401.638 270.297C397.706 266.757 392.195 267.871 387.409 267.822ZM252.692 270.526C252.628 271.411 252.499 273.181 252.418 274.066C257.108 273.312 261.781 272.46 266.357 271.165C262.441 267.658 257.22 270.182 252.692 270.526ZM408.809 269.084C412.032 274.394 419.138 272.149 424.198 272.083C420.444 267.478 413.901 269.51 408.809 269.084ZM430.773 273.001C436.075 273.656 441.473 274.066 446.791 273.329C442.537 269.608 434.85 268.478 430.773 273.001ZM453.365 272.198C457.571 276.557 463.985 275.246 469.351 274.935C465.048 270.772 458.732 271.755 453.365 272.198ZM229.181 277.967C233.935 276.59 241.638 278.294 243.555 272.476C238.737 273.64 231.324 272.247 229.181 277.967ZM475.748 274.279C480.406 277.246 485.997 277.082 491.283 276.852C487.899 271.755 480.76 273.181 475.748 274.279ZM814.136 278.327C819.293 277.278 825.722 277.131 828.784 271.985C823.837 273.247 816.183 272.542 814.136 278.327ZM498.389 275.492C502.241 279.13 507.784 278.491 512.618 278.753C512.667 278.016 512.763 276.524 512.812 275.771C508.058 274.787 503.159 274.623 498.389 275.492ZM520.837 277C524.575 280.884 530.312 280.064 535.195 280.409C535.211 279.655 535.259 278.18 535.275 277.426C530.522 276.492 525.623 276.426 520.837 277ZM207.185 283.408C211.794 282.293 219.706 283.326 221.221 277.491C216.386 278.786 209.86 278.229 207.185 283.408ZM543.365 278.606C547.458 282.851 553.726 281.589 558.964 281.507C555.483 276.459 548.505 278.573 543.365 278.606ZM791.366 278.884C793.042 280.228 794.815 281.884 797.168 281.195C800.535 280.671 805.144 281.326 806.449 277.213C801.373 277.262 796.313 277.786 791.366 278.884ZM565.828 280.081C569.792 284.555 576.222 282.851 581.459 282.982C577.946 277.885 570.969 279.917 565.828 280.081ZM768.983 283.228C773.753 283.785 778.571 283.473 783.309 282.654C783.132 281.916 782.777 280.474 782.6 279.737C777.959 280.114 772.335 279.163 768.983 283.228ZM588.485 281.589C592.449 285.866 599.927 285.26 604.551 282.408C599.314 280.9 593.819 280.589 588.485 281.589ZM746.31 284.85C751.177 284.604 758.702 287.423 761.297 281.703C756.269 282.015 750.065 280.458 746.31 284.85ZM611.11 284.194C616.073 285.522 621.52 286.358 626.435 284.358C622.31 280.802 615.429 281.179 611.11 284.194ZM633.557 283.621C637.65 288.013 644.016 285.948 649.237 285.997C645.353 281.146 638.762 283.211 633.557 283.621ZM679.919 283.326C679.935 284.162 679.983 285.817 680.015 286.653C684.141 286.636 688.266 286.636 692.407 286.669C692.424 285.833 692.456 284.162 692.456 283.326C688.266 283.359 684.092 283.359 679.919 283.326ZM723.863 283.703C725.49 284.998 727.134 286.669 729.438 286.292C732.806 285.915 737.995 287.144 738.817 282.539C733.822 282.654 728.81 282.851 723.863 283.703ZM185.64 290.586C190.571 289.308 197.516 289.472 200.062 284.162C195.083 285.227 187.912 284.965 185.64 290.586ZM655.973 286.063C661.113 286.833 666.334 286.882 671.475 286.063C667.704 281.818 659.921 282.146 655.973 286.063ZM701.125 286.063C706.314 286.227 712.841 288.718 716.772 284.014C711.6 283.686 705.122 281.425 701.125 286.063ZM165.094 299.616C170.202 297.978 175.794 296.306 179.13 291.701C173.941 292.553 166.802 293.651 165.094 299.616ZM145.45 310.81C150.22 308.761 156.634 307.057 158.181 301.304C153.379 303.304 147.062 305.107 145.45 310.81ZM128.401 325.593C132.72 323.397 136.007 319.742 139.681 316.677C139.198 316.022 138.215 314.694 137.715 314.039C134.106 317.398 129.304 320.283 128.401 325.593ZM115.026 343.555C119.99 341.375 121.585 335.41 124.179 331.034C118.781 332.329 115.316 338.212 115.026 343.555ZM107.372 365.303C112.899 363.14 111.594 355.404 113.125 350.553C107.662 353.175 108.339 360.206 107.372 365.303ZM104.842 388.313C109.612 385.199 107.92 378.365 108.951 373.465C103.166 375.694 105.18 383.429 104.842 388.313ZM105.358 395.918C105.873 401.064 105.116 407.554 109.789 410.995C109.193 405.98 110.675 398.654 105.358 395.918ZM110.128 418.501C111.787 423.32 111.803 430.498 117.379 432.53C115.848 427.564 115.639 420.681 110.128 418.501ZM118.523 439.61C119.828 444.871 122.262 449.788 125.533 454.049C127.144 448.608 123.728 441.577 118.523 439.61ZM129.884 460.719C130.496 465.619 133.961 470.733 138.521 472.88C137.297 468.111 134.815 463.735 131.592 460.096L129.884 460.719ZM141.76 480.91C144.532 484.876 146.885 489.99 151.896 491.366C150.059 486.778 147.239 482.68 144.048 478.993C143.468 479.468 142.324 480.435 141.76 480.91ZM155.635 496.955C156.827 502.38 160.534 507.772 166.012 509.312C164.047 504.15 160.63 499.397 155.635 496.955ZM169.799 514.721C171.765 519.85 175.504 524.488 180.709 526.439C178.775 521.358 175.117 516.343 169.799 514.721ZM186.123 531.027C184.866 537.042 191.796 539.943 195.164 543.68C196.968 537.599 189.491 534.748 186.123 531.027ZM201.787 547.416C201.932 553.251 207.846 557.233 212.938 558.643C210.44 553.808 206.218 550.301 201.787 547.416ZM217.74 563.477C219.4 568.886 224.202 572.442 228.988 574.851C227.715 569.263 222.671 565.559 217.74 563.477ZM234.322 578.736C236.32 584.029 241.09 588.258 246.649 589.175C243.942 584.373 239.607 580.342 234.322 578.736ZM251.919 593.207C253.433 598.222 258.703 604.892 264.423 602.565C260.637 598.976 256.656 595.452 251.919 593.207ZM269.467 607.924C271.32 612.759 276.348 618.839 282.02 617.217C278.395 613.431 274.398 609.793 269.467 607.924ZM286.71 624.805C290.384 627.869 294.074 630.951 298.248 633.327C297.652 627.984 292.527 625.641 289.111 622.314C288.305 623.133 287.499 623.953 286.71 624.805ZM306.144 636.752C305.709 637.408 304.855 638.752 304.42 639.407C308.094 642.472 311.623 645.897 316.199 647.536C314.894 642.374 309.818 639.981 306.144 636.752ZM322.887 650.716C321.63 657.009 329.51 659.533 333.748 662.122C332.41 656.583 326.883 654.026 322.887 650.716ZM339.178 665.744C341.112 671.218 346.382 674.512 351.49 676.462C349.572 671.021 344.432 667.399 339.178 665.744ZM356.647 680.281C358.612 685.673 363.769 689.164 368.99 690.836C366.976 685.46 361.835 681.969 356.647 680.281ZM374.163 694.785C376.064 700.063 381.318 702.668 385.459 705.897C386.345 699.653 378.723 696.818 374.163 694.785ZM392.147 708.716C392.92 714.239 398.302 716.648 402.025 719.959C402.492 719.27 403.411 717.926 403.878 717.254C400.091 714.222 396.385 711.043 392.147 708.716ZM409.099 725.564C412.403 728.563 415.819 731.447 419.187 734.381C419.928 733.545 420.685 732.742 421.427 731.939C418.172 729.153 414.884 726.416 411.613 723.663C410.985 724.138 409.728 725.088 409.099 725.564ZM426.084 739.347C429.774 743.165 433.722 746.984 438.734 748.901C436.897 743.886 431.869 738.036 426.084 739.347ZM445.179 752.114C444.825 758.325 451.899 760.816 456.314 763.406C454.993 757.801 449.369 755.211 445.179 752.114ZM461.487 767.519C464.275 772.305 468.835 775.845 473.863 777.91C472.171 772.419 467.063 768.224 461.487 767.519ZM479.1 781.859C481.808 786.645 486.255 790.316 491.315 792.283C489.768 786.743 484.386 783.089 479.1 781.859ZM496.713 796.233C498.937 800.723 503.143 803.526 506.817 806.689C507.365 806.049 508.445 804.755 508.976 804.116C505.19 801.051 501.58 797.396 496.713 796.233ZM514.617 810.179C515.922 815.883 521.481 819.619 526.912 820.554C523.802 816.047 519.499 812.507 514.617 810.179ZM532.359 824.503C533.003 828.06 535.291 830.813 538.176 832.796C539.497 833.648 543.381 836.828 543.494 833.402C540.609 829.518 536.516 826.765 532.359 824.503ZM549.794 839.155C551.229 844.711 556.337 847.907 561.075 850.332C559.93 844.613 554.452 841.581 549.794 839.155ZM567.263 853.774C568.632 859.362 573.998 862.345 578.672 864.787C577.544 859.018 572.032 856.019 567.263 853.774ZM584.07 868.803C586.825 873.555 591.321 876.931 596.22 879.16C594.931 873.457 589.436 869.819 584.07 868.803ZM604.165 882.667C603.617 883.356 602.553 884.716 602.005 885.388C605.76 888.502 609.418 892.075 614.349 893.14C612.012 888.682 607.823 885.88 604.165 882.667ZM619.651 897.09C620.972 902.809 626.564 906.251 631.833 907.628C629.271 902.662 624.678 899.138 619.651 897.09ZM637.07 911.545C638.762 916.986 643.935 920.919 649.333 921.968C646.642 917.101 642.114 913.577 637.07 911.545Z" fill="#262626"/>
<path d="M320.647 89.6091C335.795 79.5135 355.084 74.4494 372.81 79.956C384.331 83.791 395.869 89.9533 402.815 100.426C393.984 95.4927 386.072 88.2816 375.791 86.6591C357.614 81.726 337.777 86.8722 323.306 98.8033C312.171 106.998 305.58 119.978 302.26 133.269C300.439 142.103 301.245 151.199 300.568 160.147C293.945 145.299 295.073 127.549 301.841 112.963C306.499 104.031 312.944 95.9844 320.647 89.6091Z" fill="#ED3523"/>
<path d="M840.29 83.8894C847.751 81.6441 855.389 79.3825 863.269 79.8741C870.504 79.9561 877.337 82.5127 884.347 83.9877C884.105 86.7083 887.473 88.6094 889.697 87.1508C893.902 92.4116 899.14 96.6727 903.297 101.966C904.409 103.654 905.457 105.375 906.44 107.162C907.954 110.882 909.211 114.7 910.275 118.585C910.79 120.732 911.258 122.879 911.661 125.058C911.644 125.894 911.612 127.549 911.612 128.369C906.101 141.89 901.363 156.148 892.017 167.555C882.767 178.847 873.131 189.827 863.527 200.824C859.305 205.757 854.213 209.822 848.83 213.362C844.834 206.462 840.547 199.742 836.342 192.99C827.237 173.553 815.409 154.804 811.88 133.236C811.912 131.04 812.009 128.844 812.17 126.664C812.412 124.075 812.814 121.518 813.362 118.978C814.216 115.454 815.312 111.996 816.666 108.637C817.729 106.49 818.938 104.408 820.227 102.392C823.933 97.3119 828.494 93.0016 833.038 88.7405C832.635 87.9866 831.829 86.4952 831.427 85.7413C834.504 87.2819 837.711 85.6594 840.29 83.8894ZM850.522 87.4622C827.672 92.2969 809.817 118.929 818.89 142.054C820.582 131.581 820.856 120.273 826.915 111.177C834.569 99.4752 848.121 92.2641 861.738 91.0513C872.196 89.8877 881.559 95.4272 891.018 98.9836C881.188 87.5277 864.703 83.8075 850.522 87.4622ZM855.018 105.424C848.25 107.129 843.641 112.799 840.419 118.732C840.08 120.83 839.758 122.928 839.452 125.026C839.162 126.468 838.598 129.369 838.324 130.811C839.903 141.07 847.235 150.822 857.822 152.247C869.747 154.542 882.59 145.889 884.653 133.646C885.104 131.188 885.523 128.729 885.99 126.287C885.088 123.665 884.137 121.076 882.977 118.585C878.578 107.735 865.976 101.786 855.018 105.424Z" fill="#CB82DE"/>
<path d="M650.929 83.3651C655.409 84.1681 661.967 81.3001 664.545 86.3642C659.921 86.7084 655.28 86.692 650.639 86.7084C650.719 85.8726 650.848 84.2009 650.929 83.3651Z" fill="#FAF9FA"/>
<path d="M628.223 83.8567C632.848 83.8239 637.457 83.5781 642.082 83.7747C639.375 88.6914 632.961 86.5117 628.417 87.2164C628.368 86.3806 628.272 84.6925 628.223 83.8567Z" fill="#FAF9FA"/>
<path d="M583.893 97.0825C585.697 91.707 592.659 87.9212 597.848 90.5106C593.32 92.9689 588.759 95.4109 583.893 97.0825Z" fill="#FAF9FA"/>
<path d="M761.361 193.744C766.437 195.022 772.432 196.071 775.332 201.07C770.272 199.89 763.794 199.185 761.361 193.744Z" fill="#FAF9FA"/>
<path d="M475.749 274.279C480.76 273.181 487.899 271.755 491.283 276.852C485.997 277.082 480.406 277.246 475.749 274.279Z" fill="#FAF9FA"/>
<path d="M105.358 395.917C110.675 398.654 109.193 405.98 109.789 410.995C105.116 407.554 105.873 401.064 105.358 395.917Z" fill="#FAF9FA"/>
<path d="M201.787 547.417C206.218 550.301 210.44 553.808 212.938 558.643C207.846 557.233 201.932 553.251 201.787 547.417Z" fill="#FAF9FA"/>
<path d="M479.1 781.859C484.386 783.089 489.768 786.743 491.315 792.283C486.255 790.316 481.808 786.645 479.1 781.859Z" fill="#FAF9FA"/>
<path d="M514.616 810.179C519.499 812.507 523.802 816.047 526.912 820.554C521.481 819.619 515.922 815.883 514.616 810.179Z" fill="#FAF9FA"/>
<path d="M673.392 82.988C677.904 83.8074 684.85 80.6444 687.154 86.0527C682.529 86.3149 677.904 86.3149 673.279 86.2822C673.312 85.4627 673.36 83.8074 673.392 82.988Z" fill="#F2F2F2"/>
<path d="M695.969 83.0372C700.159 83.0208 704.348 83.0045 708.538 82.9717C708.586 83.8075 708.699 85.4792 708.748 86.315C704.429 86.315 700.126 86.315 695.824 86.3314C695.856 85.512 695.92 83.8567 695.969 83.0372Z" fill="#F2F2F2"/>
<path d="M807.787 86.4297C810.236 80.7919 817.875 84.3155 822.58 83.8238C819.695 89.1502 812.589 85.9872 807.787 86.4297Z" fill="#F2F2F2"/>
<path d="M942.955 87.5768C944.566 83.0535 949.723 84.9546 953.284 85.0038C955.444 84.9546 956.958 86.0035 957.828 88.1505C952.865 88.3963 947.902 88.0193 942.955 87.5768Z" fill="#F2F2F2"/>
<path d="M988.188 85.3481C992.99 85.8889 1000.31 82.5128 1003.01 88.0359C998.26 87.5114 990.831 90.8384 988.188 85.3481Z" fill="#F2F2F2"/>
<path d="M605.438 85.9544C610.127 85.5283 614.832 85.0202 619.554 85.1186C616.669 89.9041 610.481 88.2325 605.889 89.1994C605.776 88.3963 605.55 86.7738 605.438 85.9544Z" fill="#F2F2F2"/>
<path d="M906.439 107.161C916.914 106.604 927.292 108.882 937.766 108.194C948.369 107.325 959.021 107.014 969.656 107.211C985.771 107.604 1002.01 105.949 1018 108.735V118.585C982.097 118.617 946.178 118.666 910.275 118.585C909.211 114.7 907.954 110.882 906.439 107.161Z" fill="#F2F2F2"/>
<path d="M522.851 145.299C514.971 135.432 513.827 122.075 514.536 109.849C520.659 116.126 527.154 122.026 534.308 127.058C534.937 126.173 536.178 124.403 536.79 123.518C601.522 162.064 676.502 178.715 740.219 219.245C748.647 224.768 757.042 230.422 764.665 237.06C769.757 241.19 771.707 248.991 768.548 254.891C765.696 259.611 760.281 261.611 755.367 263.249C740.042 258.021 728.52 245.877 713.711 239.649C700.722 233.831 688.379 226.538 675.052 221.507C657.358 214.46 640.567 205.233 622.326 199.644C602.795 190.581 583.022 182.026 563.508 172.881C549.343 164.818 533.245 158.59 522.851 145.299ZM532.584 141.3C541.64 153.608 556.595 158.541 569.663 165.064C580.911 170.521 591.402 177.667 603.359 181.551C615.96 185.632 627.321 192.777 639.923 196.858C648.157 199.579 656.085 203.135 663.965 206.757C674.698 211.755 686.09 215.23 696.323 221.343C711.809 229.472 727.956 236.519 742.346 246.68C747.857 250.794 753.707 254.563 760.346 256.514C753.433 247.893 744.022 241.977 734.917 236.093C681.53 202.61 620.714 184.845 564.684 156.853C553.678 152.264 544.187 144.364 532.584 141.3Z" fill="#F2F2F2"/>
<path d="M596.623 118.88C601.264 120.06 605.583 122.141 609.966 124.059C609.579 124.796 608.822 126.271 608.435 127.009C604.294 124.632 598.38 124.059 596.623 118.88Z" fill="#F2F2F2"/>
<path d="M824.997 221.458C829.284 223.851 834.182 226.014 836.503 230.734C831.669 229.734 827.704 226.686 823.482 224.309C823.869 223.588 824.627 222.162 824.997 221.458Z" fill="#F2F2F2"/>
<path d="M366.46 270.297C367.056 269.412 368.217 267.625 368.797 266.724C372.568 266.97 376.274 267.871 379.61 269.723C375.243 270.313 370.859 270.346 366.46 270.297Z" fill="#F2F2F2"/>
<path d="M387.409 267.822C392.195 267.871 397.706 266.757 401.638 270.297C396.916 271.198 392.114 271.28 387.344 271.067C387.361 270.264 387.393 268.641 387.409 267.822Z" fill="#F2F2F2"/>
<path d="M408.809 269.084C413.901 269.51 420.444 267.478 424.198 272.083C419.138 272.149 412.032 274.394 408.809 269.084Z" fill="#F2F2F2"/>
<path d="M430.773 273.001C434.85 268.477 442.537 269.608 446.791 273.328C441.473 274.066 436.075 273.656 430.773 273.001Z" fill="#F2F2F2"/>
<path d="M229.181 277.967C231.324 272.247 238.737 273.64 243.555 272.476C241.638 278.294 233.935 276.59 229.181 277.967Z" fill="#F2F2F2"/>
<path d="M814.136 278.327C816.183 272.542 823.837 273.247 828.784 271.985C825.722 277.131 819.293 277.278 814.136 278.327Z" fill="#F2F2F2"/>
<path d="M901.944 289.013C907.535 284.506 910.484 277.671 914.948 272.148C913.804 283.571 909.243 294.831 900.525 302.419C882.155 319.25 856.807 323.839 833.183 327.428C791.93 333.312 750.161 333.508 708.586 333.066C668.268 332.148 627.949 330.411 587.728 327.297C524.914 322.79 462.132 317.349 399.156 315.972C370.763 314.694 342.353 316.021 313.991 317.562C292.93 319.053 271.675 320.315 251.081 325.363C228.504 331.329 205.38 342.326 192.811 363.336C190.861 354.994 195.067 346.849 199.804 340.343C206.54 331.034 216.982 325.871 226.345 319.84C237.319 312.629 250.549 311.203 262.747 307.139C273.335 303.681 284.583 306.008 295.411 304.271C316.537 300.731 338.05 301.37 359.386 301.534C367.846 301.435 376.242 300.272 384.702 300.141C394.403 299.96 403.991 301.862 413.692 301.829C421.443 301.829 429.161 300.681 436.929 301.173C455.444 303.107 474.056 304.451 492.669 305.172C513.247 304.058 533.503 308.548 553.968 309.663C569.486 311.547 585.149 311.383 600.7 312.924C614.703 314.022 628.852 312.285 642.775 314.694C661.339 318.037 680.257 315.382 698.901 317.972C737.463 318.381 776.186 318.988 814.539 314.284C827.511 311.646 840.95 312.285 853.778 308.745C870.649 304.844 888.649 301.14 901.944 289.013Z" fill="#F2F2F2"/>
<path d="M498.389 275.492C503.159 274.623 508.058 274.787 512.812 275.77C512.763 276.524 512.667 278.016 512.618 278.753C507.784 278.491 502.241 279.13 498.389 275.492Z" fill="#F2F2F2"/>
<path d="M207.185 283.408C209.86 278.229 216.386 278.786 221.221 277.491C219.706 283.326 211.794 282.293 207.185 283.408Z" fill="#F2F2F2"/>
<path d="M543.365 278.606C548.505 278.573 555.483 276.459 558.964 281.507C553.726 281.588 547.458 282.85 543.365 278.606Z" fill="#F2F2F2"/>
<path d="M565.828 280.081C570.969 279.917 577.946 277.885 581.459 282.982C576.222 282.85 569.792 284.555 565.828 280.081Z" fill="#F2F2F2"/>
<path d="M633.557 283.621C638.762 283.211 645.353 281.146 649.237 285.997C644.016 285.948 637.65 288.013 633.557 283.621Z" fill="#F2F2F2"/>
<path d="M165.094 299.616C166.802 293.651 173.941 292.553 179.13 291.7C175.794 296.306 170.202 297.977 165.094 299.616Z" fill="#F2F2F2"/>
<path d="M128.401 325.593C129.304 320.283 134.106 317.398 137.716 314.039C138.215 314.694 139.198 316.022 139.681 316.677C136.007 319.742 132.72 323.397 128.401 325.593Z" fill="#F2F2F2"/>
<path d="M115.026 343.555C115.316 338.212 118.781 332.328 124.179 331.034C121.585 335.41 119.99 341.375 115.026 343.555Z" fill="#F2F2F2"/>
<path d="M15.0361 492.94C3.07913 468.766 -2.81876 440.758 2.78907 413.945C7.07552 427.351 8.78365 441.626 15.6323 454.114C16.5347 453.819 18.3718 453.213 19.2903 452.918C32.6331 482.844 53.1629 508.46 72.5647 534.453C111.787 585.34 154.781 633.147 200.111 678.462C222.22 699.669 243.7 721.548 266.534 741.969C314.507 786.252 364.349 828.387 414.352 870.261C436.574 888.502 458.425 907.185 480.969 925H437.412C411.581 902.826 385.862 880.471 359.902 858.461C338.308 838.86 316.119 819.98 294.59 800.313C279.635 785.989 264.101 772.337 249.147 758.03C234.209 743.755 220.27 728.432 205.009 714.485C192.231 702.898 180.918 689.803 168.897 677.446C137.603 640.915 104.552 605.81 76.2871 566.706C66.3928 553.284 55.4511 540.681 46.3465 526.652C39.0788 515.393 30.6026 504.838 25.0754 492.497C22.7549 487.417 19.5642 482.811 15.9546 478.583C17.7433 493.399 26.9285 505.461 34.0511 517.982C50.1334 542.762 66.9407 567.149 86.0041 589.667C94.013 599.074 100.668 609.563 108.742 618.921C120.247 632.376 132.833 644.881 143.452 659.107C150.768 669.022 160.034 677.151 168.462 686.034C196.92 718.254 227.86 748.131 259.992 776.517C270.515 787.169 281.601 797.216 293.059 806.82C307.095 820.406 321.098 834.074 336.052 846.645C346.672 855.446 356.228 865.557 367.347 873.768C377.853 881.553 386.345 891.698 396.739 899.63C407.326 907.546 416.769 916.887 427.196 925H418.075C400.397 909.84 383.074 894.238 364.913 879.685C352.344 871.392 342.595 859.674 331.041 850.119C320.905 840.696 310.656 831.419 299.859 822.766C278.105 801.756 255.738 781.401 234.289 760.062C221.462 749.114 210.118 736.561 198.145 724.679C175.52 701.21 153.556 677.102 131.834 652.764C125.468 645.602 118.668 638.817 113.125 630.951C108.21 624.002 102.699 617.528 96.8169 611.415C87.1321 601.385 80.5897 588.782 71.066 578.588C63.9112 570.918 59.0285 561.462 52.196 553.546C48.1029 548.744 44.5739 543.483 41.3671 538.058C36.7745 530.306 30.941 523.39 26.7513 515.393C22.7871 507.936 18.8391 500.479 15.0361 492.94Z" fill="#F2F2F2"/>
<path d="M129.884 460.719L131.592 460.096C134.815 463.735 137.296 468.11 138.521 472.88C133.961 470.733 130.496 465.619 129.884 460.719Z" fill="#F2F2F2"/>
<path d="M286.71 624.805C287.499 623.952 288.305 623.133 289.111 622.313C292.527 625.64 297.651 627.984 298.248 633.327C294.074 630.95 290.384 627.869 286.71 624.805Z" fill="#F2F2F2"/>
<path d="M306.144 636.752C309.818 639.981 314.894 642.374 316.199 647.536C311.623 645.897 308.094 642.472 304.419 639.407C304.855 638.752 305.709 637.408 306.144 636.752Z" fill="#F2F2F2"/>
<path d="M392.146 708.716C396.385 711.043 400.091 714.222 403.878 717.254C403.41 717.926 402.492 719.27 402.025 719.959C398.302 716.648 392.92 714.239 392.146 708.716Z" fill="#F2F2F2"/>
<path d="M549.794 839.155C554.452 841.581 559.93 844.613 561.075 850.332C556.337 847.907 551.229 844.711 549.794 839.155Z" fill="#F2F2F2"/>
<path d="M619.651 897.09C624.678 899.138 629.271 902.662 631.833 907.628C626.564 906.251 620.972 902.809 619.651 897.09Z" fill="#F2F2F2"/>
<path d="M718.545 83.0371C723.057 83.8074 730.051 80.5952 732.291 86.069C727.65 86.3313 723.025 86.3313 718.416 86.3149C718.448 85.4954 718.513 83.8565 718.545 83.0371Z" fill="#F1F1F1"/>
<path d="M657.616 108.882C671.233 105.932 685.156 107.506 698.934 107.211C723.637 107.26 748.357 107.014 773.06 107.211C787.595 107.456 802.244 105.981 816.666 108.636C815.312 111.996 814.217 115.454 813.363 118.978C786.5 119.551 759.637 119.093 732.774 119.24C715 119.043 697.226 119.633 679.467 118.978C671.958 116.126 664.626 112.832 657.616 108.882Z" fill="#F1F1F1"/>
<path d="M699.74 165.457C704.445 167.325 711.471 167.735 713.034 173.586C708.312 171.75 701.593 171.029 699.74 165.457Z" fill="#F1F1F1"/>
<path d="M782.375 203.168C787.547 203.791 792.962 205.937 796.104 210.412C791.254 209.33 784.131 208.707 782.375 203.168Z" fill="#F1F1F1"/>
<path d="M453.365 272.198C458.732 271.755 465.048 270.772 469.351 274.935C463.985 275.246 457.571 276.557 453.365 272.198Z" fill="#F1F1F1"/>
<path d="M520.837 277C525.623 276.426 530.522 276.492 535.275 277.426C535.259 278.18 535.211 279.655 535.195 280.409C530.312 280.064 524.575 280.884 520.837 277Z" fill="#F1F1F1"/>
<path d="M791.366 278.884C796.313 277.786 801.373 277.262 806.449 277.213C805.144 281.326 800.535 280.671 797.167 281.195C794.815 281.884 793.042 280.228 791.366 278.884Z" fill="#F1F1F1"/>
<path d="M588.485 281.588C593.819 280.589 599.314 280.9 604.551 282.408C599.927 285.26 592.45 285.866 588.485 281.588Z" fill="#F1F1F1"/>
<path d="M746.31 284.85C750.065 280.458 756.269 282.015 761.297 281.703C758.702 287.423 751.177 284.604 746.31 284.85Z" fill="#F1F1F1"/>
<path d="M723.863 283.703C728.81 282.85 733.822 282.654 738.817 282.539C737.995 287.144 732.806 285.915 729.438 286.292C727.134 286.669 725.49 284.997 723.863 283.703Z" fill="#F1F1F1"/>
<path d="M185.64 290.586C187.912 284.965 195.083 285.227 200.062 284.162C197.516 289.472 190.571 289.308 185.64 290.586Z" fill="#F1F1F1"/>
<path d="M118.523 439.61C123.728 441.577 127.144 448.608 125.533 454.049C122.262 449.788 119.828 444.871 118.523 439.61Z" fill="#F1F1F1"/>
<path d="M269.467 607.924C274.398 609.792 278.395 613.431 282.02 617.217C276.348 618.839 271.32 612.759 269.467 607.924Z" fill="#F1F1F1"/>
<path d="M339.178 665.744C344.432 667.399 349.572 671.021 351.49 676.462C346.382 674.512 341.112 671.218 339.178 665.744Z" fill="#F1F1F1"/>
<path d="M409.099 725.564C409.728 725.088 410.985 724.138 411.613 723.663C414.884 726.416 418.172 729.153 421.427 731.939C420.685 732.742 419.928 733.545 419.187 734.381C415.819 731.447 412.403 728.563 409.099 725.564Z" fill="#F1F1F1"/>
<path d="M637.07 911.545C642.114 913.577 646.642 917.101 649.333 921.968C643.935 920.919 638.762 916.986 637.07 911.545Z" fill="#F1F1F1"/>
<path d="M741.154 82.9879C745.618 83.7745 752.531 80.6607 754.722 86.0526C750.13 86.2821 745.553 86.282 740.96 86.3148C741.009 85.479 741.106 83.8237 741.154 82.9879Z" fill="#F0F0F0"/>
<path d="M762.489 86.0527C764.697 81.0213 771.239 83.2338 775.542 83.3322C776.025 83.9877 776.976 85.3152 777.46 85.9708C772.464 86.3969 767.469 86.4133 762.489 86.0527Z" fill="#F0F0F0"/>
<path d="M920.379 87.6587C922.747 82.3651 929.596 85.3806 934.108 84.5776C934.173 85.4298 934.286 87.1342 934.35 87.9865C929.693 87.9537 925.02 87.9209 920.379 87.6587Z" fill="#F0F0F0"/>
<path d="M966.595 85.0366C970.817 85.053 975.039 85.053 979.277 85.0366C979.261 85.8725 979.261 87.5605 979.261 88.3963C975.039 88.3636 970.833 88.3472 966.611 88.3472C966.611 87.5114 966.595 85.8561 966.595 85.0366Z" fill="#F0F0F0"/>
<path d="M1010.28 86.4788C1012.84 85.938 1015.41 85.4135 1018 84.9382V89.691C1015.36 88.7569 1012.78 87.708 1010.28 86.4788Z" fill="#F0F0F0"/>
<path d="M660.243 146.79C664.304 149.265 670.444 149.674 672.248 154.771C667.495 153.837 663.111 151.739 658.728 149.74C659.115 149.003 659.856 147.528 660.243 146.79Z" fill="#F0F0F0"/>
<path d="M678.855 156.312C683.625 157.131 687.976 159.311 692.343 161.327C692.005 162.097 691.36 163.638 691.038 164.408C686.848 162.015 680.854 161.376 678.855 156.312Z" fill="#F0F0F0"/>
<path d="M721.349 174.602C725.7 176.798 732.097 177.404 733.644 182.927C729.616 181.731 725.748 180.076 721.849 178.486C721.72 177.519 721.462 175.569 721.349 174.602Z" fill="#F0F0F0"/>
<path d="M742.443 183.944C746.633 186.32 752.595 187.09 754.513 192.204C749.839 191.089 745.505 189.008 741.138 187.058C741.46 186.271 742.121 184.714 742.443 183.944Z" fill="#F0F0F0"/>
<path d="M802.824 212.132C807.497 213.247 811.945 215.131 816.376 216.983C815.941 217.737 815.103 219.261 814.684 220.015C810.575 217.721 804.532 217.278 802.824 212.132Z" fill="#F0F0F0"/>
<path d="M834.489 267.429C837.937 263.807 840.499 258.923 845.398 257.153C844.061 262.037 840.564 265.659 837.196 269.199C836.519 268.756 835.166 267.871 834.489 267.429Z" fill="#F0F0F0"/>
<path d="M295.444 267.691C300.633 266.249 306.079 265.872 311.397 266.74C307.578 271.198 300.036 270.493 295.444 267.691Z" fill="#F0F0F0"/>
<path d="M252.692 270.526C257.221 270.182 262.442 267.658 266.357 271.165C261.781 272.46 257.108 273.312 252.418 274.066C252.499 273.181 252.628 271.411 252.692 270.526Z" fill="#F0F0F0"/>
<path d="M768.983 283.227C772.335 279.163 777.959 280.114 782.6 279.737C782.777 280.474 783.132 281.916 783.309 282.654C778.571 283.473 773.753 283.785 768.983 283.227Z" fill="#F0F0F0"/>
<path d="M611.11 284.194C615.429 281.179 622.31 280.802 626.435 284.358C621.52 286.358 616.073 285.522 611.11 284.194Z" fill="#F0F0F0"/>
<path d="M107.372 365.303C108.339 360.206 107.662 353.175 113.125 350.553C111.594 355.404 112.899 363.14 107.372 365.303Z" fill="#F0F0F0"/>
<path d="M110.128 418.501C115.639 420.681 115.848 427.565 117.379 432.53C111.804 430.498 111.787 423.32 110.128 418.501Z" fill="#F0F0F0"/>
<path d="M141.76 480.91C142.324 480.435 143.468 479.468 144.049 478.993C147.239 482.68 150.059 486.777 151.896 491.366C146.885 489.99 144.532 484.876 141.76 480.91Z" fill="#F0F0F0"/>
<path d="M169.8 514.72C175.117 516.343 178.775 521.358 180.709 526.439C175.504 524.488 171.766 519.85 169.8 514.72Z" fill="#F0F0F0"/>
<path d="M217.74 563.478C222.671 565.559 227.715 569.263 228.988 574.851C224.202 572.442 219.4 568.886 217.74 563.478Z" fill="#F0F0F0"/>
<path d="M322.887 650.715C326.883 654.026 332.411 656.582 333.748 662.122C329.51 659.532 321.63 657.009 322.887 650.715Z" fill="#F0F0F0"/>
<path d="M426.084 739.347C431.869 738.035 436.897 743.886 438.734 748.901C433.722 746.984 429.774 743.165 426.084 739.347Z" fill="#F0F0F0"/>
<path d="M461.487 767.519C467.063 768.224 472.171 772.419 473.863 777.91C468.835 775.845 464.275 772.305 461.487 767.519Z" fill="#F0F0F0"/>
<path d="M496.713 796.232C501.58 797.396 505.19 801.051 508.976 804.115C508.445 804.755 507.365 806.049 506.817 806.689C503.143 803.525 498.937 800.723 496.713 796.232Z" fill="#F0F0F0"/>
<path d="M584.07 868.802C589.436 869.819 594.931 873.457 596.22 879.16C591.322 876.931 586.826 873.555 584.07 868.802Z" fill="#F0F0F0"/>
<path d="M785.001 86.397C787.321 81.4967 793.719 83.6273 798.021 83.6764C798.489 84.3648 799.407 85.7578 799.875 86.4462C794.911 86.8067 789.948 86.7903 785.001 86.397Z" fill="#F2F0F2"/>
<path d="M855.018 105.424C865.976 101.786 878.578 107.735 882.977 118.585C868.796 118.372 854.599 118.716 840.419 118.732C843.642 112.799 848.25 107.129 855.018 105.424Z" fill="#F2F0F2"/>
<path d="M840.999 236.88C841.708 236.536 843.158 235.831 843.883 235.47C846.236 239.83 848.25 244.517 847.799 249.63C844.189 246.254 843.174 241.174 840.999 236.88Z" fill="#F2F0F2"/>
<path d="M831.024 84.9547C833.763 83.1028 837.196 83.8075 840.29 83.8894C837.711 85.6594 834.505 87.2819 831.427 85.7414L831.024 84.9547Z" fill="#EFDCF4"/>
<path d="M884.347 83.9877C886.667 83.6108 889.213 84.5449 889.697 87.1508C887.473 88.6094 884.105 86.7083 884.347 83.9877Z" fill="#F5D7F5"/>
<path d="M898.898 84.25C903.217 84.25 907.552 84.25 911.902 84.25C911.886 85.0694 911.838 86.7247 911.822 87.5442C907.519 87.5114 903.217 87.5278 898.93 87.5278C898.914 86.7083 898.898 85.0694 898.898 84.25Z" fill="#EDEEEE"/>
<path d="M850.523 87.4623C864.703 83.8076 881.188 87.5278 891.018 98.9837C881.559 95.4273 872.197 89.8878 861.738 91.0514C848.122 92.2642 834.569 99.4753 826.915 111.177C820.856 120.273 820.582 131.581 818.89 142.054C809.817 118.929 827.672 92.297 850.523 87.4623Z" fill="#B95FCE"/>
<path d="M903.297 101.966C941.537 101.753 979.76 101.934 1018 101.852V108.735C1002.01 105.949 985.771 107.604 969.657 107.211C959.021 107.014 948.37 107.325 937.766 108.194C927.292 108.882 916.914 106.604 906.44 107.162C905.457 105.375 904.409 103.654 903.297 101.966Z" fill="#FCFCFC"/>
<path d="M617.475 128.172C622.197 129.975 628.852 130.647 630.496 136.399C625.951 134.351 619.054 133.81 617.475 128.172Z" fill="#FCFCFC"/>
<path d="M579.945 104.163C584.94 106.441 587.825 111.669 590.113 116.487C584.344 115.143 580.896 109.8 579.945 104.163Z" fill="#EDEDED"/>
<path d="M637.264 139.645C642.163 137.039 649.495 140.595 651.364 145.692C646.401 144.365 641.712 142.185 637.264 139.645Z" fill="#EDEDED"/>
<path d="M679.919 283.326C684.093 283.359 688.266 283.359 692.456 283.326C692.456 284.162 692.424 285.833 692.408 286.669C688.266 286.636 684.141 286.636 680.016 286.653C679.983 285.817 679.935 284.162 679.919 283.326Z" fill="#EDEDED"/>
<path d="M145.45 310.81C147.062 305.107 153.379 303.304 158.181 301.305C156.634 307.057 150.22 308.762 145.45 310.81Z" fill="#EDEDED"/>
<path d="M104.842 388.313C105.181 383.429 103.166 375.694 108.951 373.465C107.92 378.365 109.612 385.199 104.842 388.313Z" fill="#EDEDED"/>
<path d="M155.635 496.955C160.63 499.397 164.047 504.15 166.013 509.312C160.534 507.772 156.827 502.38 155.635 496.955Z" fill="#EDEDED"/>
<path d="M186.123 531.028C189.491 534.748 196.968 537.6 195.164 543.68C191.796 539.943 184.867 537.042 186.123 531.028Z" fill="#EDEDED"/>
<path d="M234.322 578.736C239.607 580.342 243.942 584.373 246.649 589.175C241.09 588.258 236.32 584.029 234.322 578.736Z" fill="#EDEDED"/>
<path d="M251.919 593.207C256.656 595.452 260.637 598.976 264.424 602.565C258.703 604.892 253.433 598.222 251.919 593.207Z" fill="#EDEDED"/>
<path d="M356.647 680.281C361.836 681.969 366.976 685.46 368.99 690.836C363.769 689.164 358.613 685.673 356.647 680.281Z" fill="#EDEDED"/>
<path d="M374.163 694.785C378.723 696.818 386.346 699.653 385.459 705.897C381.318 702.668 376.065 700.063 374.163 694.785Z" fill="#EDEDED"/>
<path d="M445.179 752.114C449.369 755.211 454.993 757.801 456.314 763.406C451.899 760.816 444.825 758.325 445.179 752.114Z" fill="#EDEDED"/>
<path d="M532.359 824.503C536.516 826.765 540.609 829.518 543.494 833.403C543.381 836.828 539.497 833.648 538.176 832.796C535.291 830.813 533.003 828.06 532.359 824.503Z" fill="#EDEDED"/>
<path d="M567.263 853.774C572.033 856.019 577.544 859.018 578.672 864.787C573.999 862.345 568.632 859.363 567.263 853.774Z" fill="#EDEDED"/>
<path d="M604.165 882.667C607.823 885.88 612.012 888.682 614.349 893.14C609.418 892.075 605.76 888.502 602.005 885.388C602.553 884.716 603.617 883.356 604.165 882.667Z" fill="#EDEDED"/>
<path d="M679.468 118.978C697.226 119.634 715 119.044 732.774 119.24C759.637 119.093 786.5 119.552 813.363 118.978C812.815 121.518 812.412 124.075 812.17 126.664C798.65 125.107 785.033 125.976 771.449 125.845C754.271 125.763 737.077 125.992 719.899 125.714C712.583 125.55 705.315 126.353 698.064 127.172C691.698 124.845 685.607 121.846 679.468 118.978Z" fill="#BCB9BC"/>
<path d="M840.419 118.732C854.599 118.716 868.796 118.372 882.977 118.585C884.137 121.076 885.088 123.665 885.99 126.288C870.488 125.386 854.954 125.73 839.452 125.026C839.758 122.928 840.08 120.83 840.419 118.732Z" fill="#BFBDC0"/>
<path d="M910.275 118.585C946.178 118.667 982.097 118.617 1018 118.585V125.222C982.548 124.911 947.096 125.157 911.661 125.058C911.258 122.879 910.791 120.732 910.275 118.585Z" fill="#BFBBBF"/>
<path d="M698.063 127.172C705.315 126.353 712.583 125.55 719.899 125.714C737.077 125.992 754.271 125.763 771.449 125.845C785.033 125.976 798.65 125.107 812.17 126.664C812.009 128.844 811.912 131.04 811.88 133.236C781.73 133.63 751.564 133.236 721.413 133.335C713.163 133.646 705.412 130.63 698.063 127.172Z" fill="#E1E1E1"/>
<path d="M839.452 125.026C854.954 125.73 870.488 125.386 885.99 126.288C885.523 128.73 885.104 131.188 884.653 133.646C884.427 133.007 883.992 131.745 883.767 131.106C868.619 132.106 853.391 133.433 838.324 130.811C838.598 129.369 839.162 126.468 839.452 125.026Z" fill="#DFE1DD"/>
<path d="M911.661 125.058C947.096 125.157 982.548 124.911 1018 125.222V131.892C995.972 132.368 973.943 132.253 951.931 132.105C938.459 131.827 924.762 133.826 911.548 130.254L911.612 128.369C911.612 127.549 911.645 125.894 911.661 125.058Z" fill="#DEDBDE"/>
<path d="M892.017 167.555C901.364 156.148 906.101 141.89 911.612 128.369L911.548 130.254C911.419 138.006 909.292 145.528 906.44 152.674C898.318 173.143 887.409 192.286 876.37 211.247C871.826 218.819 867.056 226.227 861.803 233.307C857.226 226.817 852.795 220.229 848.831 213.362C854.213 209.822 859.305 205.757 863.527 200.824C873.131 189.827 882.768 178.847 892.017 167.555Z" fill="#B75BCE"/>
<path d="M532.584 141.3C544.187 144.365 553.678 152.264 564.684 156.853C620.714 184.845 681.53 202.611 734.917 236.093C744.022 241.977 753.433 247.893 760.346 256.514C753.707 254.563 747.857 250.794 742.346 246.68C727.956 236.519 711.809 229.472 696.323 221.343C686.091 215.23 674.698 211.756 663.965 206.757C656.085 203.135 648.157 199.579 639.923 196.858C627.321 192.777 615.96 185.632 603.359 181.551C591.402 177.667 580.912 170.521 569.664 165.064C556.595 158.541 541.641 153.608 532.584 141.3Z" fill="#CACACA"/>
<path d="M406.843 182.108C415.126 169.98 420.17 156.066 426.825 143.037C426.97 145.413 427.083 147.806 427.163 150.199C425.262 160.049 421.411 169.341 417.575 178.535C407.133 202.627 393.839 225.309 380.544 247.86C376.725 254.203 372.761 260.463 368.797 266.724C368.217 267.625 367.056 269.412 366.46 270.297C364.091 273.804 361.529 277.18 358.935 280.523C356.292 276.951 353.682 273.361 351.264 269.641C350.733 268.789 349.653 267.101 349.105 266.265C346.768 262.561 344.432 258.857 342.127 255.153C364.317 231.406 388.408 209.182 406.843 182.108Z" fill="#EE3520"/>
<path d="M914.835 267.035C916.237 263.036 917.832 259.119 919.557 255.268C928.307 264.577 929.66 278.278 927.179 290.389C920.443 310.335 903.168 324.921 883.863 331.558C870.424 337.671 855.647 338.884 841.45 342.26C816.65 345.604 791.608 346.734 766.631 348.013C742.974 347.833 719.318 348.636 695.679 347.734C676.39 346.194 657.02 346.341 637.699 345.145C579.123 341.867 520.74 335.229 462.083 332.968C444.809 331.165 427.405 332.263 410.082 330.837C387.651 329.034 365.252 332.361 342.804 331.46C317.456 332.247 292.156 334.607 267.066 338.278C243.652 342.85 219.432 353.536 206.347 374.825C200.513 384.363 204.365 396.131 200.385 406.21C197.774 400.982 193.987 395.737 193.794 389.723C198.193 377.775 202.866 365.221 212.599 356.617C225.539 343.866 243.072 338.016 259.992 333.033C271.079 329.854 282.665 329.542 294.026 328.117C333.184 323.102 372.729 323.905 412.112 324.019C427.727 323.577 443.294 325.314 458.909 325.757C471.301 326.101 483.548 328.297 495.924 328.838C515.664 330.673 535.565 329.87 555.225 332.542C566.118 333.804 577.092 333.787 587.97 335.016C607.694 337.589 627.643 336.688 647.432 338.655C671.604 339.179 695.662 342.342 719.866 342.047C744.006 341.719 768.242 342.981 792.252 340.048C809.801 338.179 827.527 337.852 844.915 334.607C862.995 331.214 881.833 327.936 897.415 317.333C906.44 311.105 916.124 303.533 918.396 291.979C920.572 284.031 920.862 275.131 915.593 268.33L914.835 267.035Z" fill="#E5E5E5"/>
<path d="M318.794 266.413C323.386 266.101 327.995 266.134 332.604 266.15C332.604 266.97 332.62 268.609 332.62 269.428C328.076 268.609 320.937 271.903 318.794 266.413Z" fill="#E5E5E5"/>
<path d="M342.192 266.134C344.496 266.167 346.801 266.216 349.105 266.265C349.653 267.101 350.733 268.789 351.264 269.641C348.219 269.559 345.173 269.477 342.144 269.412C342.16 268.592 342.176 266.953 342.192 266.134Z" fill="#F8E5DA"/>
<path d="M274.092 269.363C277.025 265.282 284.083 267.576 288.563 267.609C285.034 271.067 278.024 271.968 274.092 269.363Z" fill="#E2E2E2"/>
<path d="M915.593 268.33C920.862 275.131 920.572 284.031 918.397 291.979C911.065 299.469 905.843 309.319 896.465 314.514C872.051 329.788 842.723 331.837 814.958 335.033C792.253 337.934 769.354 335.803 746.6 337.573C738.463 338.147 730.309 338.065 722.187 337.573C696.726 336.164 671.201 336.868 645.74 335.475C622.761 334.869 599.991 331.46 577.012 330.739C565.023 330.116 553.082 328.756 541.077 328.346C526.622 327.871 512.377 325.232 497.954 324.364C482.758 323.216 467.498 323.462 452.286 322.315C438.46 321.266 424.569 322.086 410.743 321.184C395.611 320.25 380.448 319.676 365.3 320.463C334.393 322.676 303.098 320.988 272.577 327.297C255.641 329.854 239.027 335.066 224.089 343.653C209.699 352.946 198.886 367.237 192.118 383.036C190.104 376.595 189.604 369.466 192.811 363.336C205.38 342.326 228.504 331.329 251.081 325.363C271.675 320.316 292.93 319.054 313.992 317.562C342.353 316.022 370.763 314.694 399.157 315.973C462.132 317.349 524.914 322.79 587.728 327.297C627.95 330.411 668.268 332.148 708.586 333.066C750.162 333.509 791.93 333.312 833.183 327.428C856.807 323.839 882.155 319.25 900.526 302.419C909.244 294.831 913.804 283.572 914.948 272.149C915.109 271.198 915.432 269.281 915.593 268.33Z" fill="#B8B8B8"/>
<path d="M655.973 286.063C659.921 282.146 667.704 281.818 671.475 286.063C666.334 286.882 661.113 286.833 655.973 286.063Z" fill="#ECECEC"/>
<path d="M701.125 286.063C705.122 281.425 711.6 283.686 716.772 284.014C712.84 288.718 706.314 286.227 701.125 286.063Z" fill="#ECECEC"/>
<path d="M896.465 314.514C905.843 309.319 911.064 299.469 918.397 291.979C916.124 303.533 906.44 311.105 897.415 317.333C881.833 327.936 862.995 331.214 844.915 334.607C827.527 337.852 809.801 338.18 792.252 340.048C768.242 342.981 744.006 341.72 719.866 342.047C695.662 342.342 671.604 339.179 647.432 338.655C627.643 336.688 607.694 337.59 587.97 335.016C577.092 333.787 566.118 333.804 555.225 332.542C535.565 329.87 515.664 330.673 495.924 328.838C483.548 328.297 471.301 326.101 458.909 325.757C443.294 325.314 427.727 323.577 412.112 324.02C372.729 323.905 333.184 323.102 294.026 328.117C282.665 329.543 271.079 329.854 259.992 333.033C243.072 338.016 225.539 343.866 212.599 356.617C202.866 365.221 198.193 377.775 193.794 389.723C193.262 387.51 191.699 385.363 192.118 383.036C198.886 367.237 209.699 352.946 224.089 343.653C239.027 335.066 255.641 329.854 272.577 327.297C303.098 320.988 334.392 322.676 365.3 320.463C380.448 319.676 395.611 320.25 410.743 321.184C424.569 322.086 438.46 321.266 452.286 322.315C467.498 323.462 482.758 323.216 497.954 324.364C512.377 325.232 526.622 327.871 541.076 328.346C553.082 328.756 565.023 330.116 577.012 330.739C599.991 331.46 622.761 334.869 645.74 335.475C671.201 336.868 696.726 336.164 722.187 337.573C730.309 338.065 738.462 338.147 746.6 337.573C769.354 335.803 792.253 337.934 814.958 335.033C842.723 331.837 872.051 329.788 896.465 314.514Z" fill="#CDCDCD"/>
<path d="M408.954 387.363C451.625 356.83 516.518 363.123 551.438 403.047C557.9 410.176 564.297 417.518 568.922 426.073C577.366 441.249 581.782 458.507 582.91 475.863C583.796 484.287 582.926 492.809 580.686 500.954C579.816 497.299 578.768 493.694 577.737 490.088C568.407 514.458 557.497 538.353 543.123 560.134C533.438 574.048 522.754 587.291 510.733 599.205C493.2 617.971 475.942 636.998 457.458 654.797C452.737 659.254 448.418 664.122 444.357 669.219C434.479 653.698 426.132 637.146 415.48 622.166C403.266 597.009 388.634 573.082 377.869 547.203C370.714 530.077 363.592 512.705 360.337 494.317C358.564 481.418 359.225 468.143 362.238 455.475C368.201 427.696 386.007 403.243 408.954 387.363ZM451.142 384.38C438.621 387.559 425.552 390.542 415.013 398.573C395.321 411.995 379.287 432.088 374.243 456.032C369.764 475.518 366.847 498.168 377.966 515.95C379.545 499.086 376.644 481.795 380.979 465.226C383.622 457.097 388.182 449.804 391.744 442.085C399.559 425.614 414.191 413.781 429.709 405.243C456.185 390.657 488.946 391.148 516.405 402.686C523.286 405.833 529.442 410.356 536.113 413.929C532.858 409.078 529.071 404.473 524.043 401.408C515.197 395.836 506.527 389.313 496.165 386.986C481.501 383.56 466.031 380.594 451.142 384.38ZM459.473 424.647C436.365 429.367 418.107 451.918 418.8 475.977C418.043 496.136 429.871 516.032 447.758 524.734C458.087 530.012 470.108 530.323 481.372 528.864C495.36 526.668 507.365 517.376 515.374 505.822C524.108 492.153 524.978 474.535 520.466 459.212C515.954 447.084 507.591 435.972 496.262 429.761C485.127 423.402 471.833 422.73 459.473 424.647Z" fill="#FFC542"/>
<path d="M451.142 384.38C466.031 380.594 481.501 383.56 496.165 386.986C506.527 389.313 515.197 395.836 524.043 401.408C529.071 404.473 532.858 409.078 536.113 413.929C529.442 410.356 523.286 405.833 516.405 402.686C488.946 391.148 456.185 390.657 429.709 405.243C414.191 413.781 399.559 425.614 391.744 442.085C388.182 449.804 383.622 457.097 380.979 465.226C376.645 481.795 379.545 499.086 377.966 515.95C366.847 498.168 369.764 475.518 374.243 456.032C379.287 432.088 395.321 411.995 415.013 398.573C425.552 390.542 438.621 387.559 451.142 384.38Z" fill="#F3B41F"/>
<path d="M15.9546 478.583C19.5642 482.811 22.7549 487.417 25.0754 492.497C30.6026 504.838 39.0788 515.392 46.3465 526.652C55.4511 540.681 66.3928 553.284 76.2871 566.706C104.552 605.81 137.603 640.915 168.897 677.446C180.918 689.803 192.231 702.898 205.009 714.485C220.27 728.432 234.209 743.755 249.147 758.03C264.101 772.337 279.635 785.989 294.59 800.313C316.119 819.98 338.308 838.86 359.902 858.461C385.862 880.471 411.581 902.826 437.412 925H427.196C416.769 916.887 407.326 907.546 396.739 899.63C386.345 891.698 377.853 881.553 367.346 873.768C356.228 865.557 346.672 855.446 336.052 846.645C321.098 834.074 307.095 820.406 293.059 806.82C281.601 797.216 270.515 787.169 259.992 776.517C227.86 748.131 196.92 718.254 168.462 686.034C160.034 677.151 150.768 669.022 143.452 659.107C132.833 644.881 120.247 632.376 108.742 618.921C100.668 609.563 94.013 599.074 86.0041 589.667C66.9407 567.149 50.1334 542.762 34.0511 517.982C26.9285 505.461 17.7433 493.399 15.9546 478.583Z" fill="#DDDDDD"/>
<path d="M543.123 560.134C557.497 538.353 568.407 514.458 577.737 490.088C578.768 493.694 579.816 497.299 580.686 500.954C569.76 542.533 548.65 580.276 528.652 617.872C515.809 638.653 503.788 659.943 490.638 680.543C484.241 690.606 477.827 700.685 471.091 710.535C461.584 697.162 453.124 683.084 444.357 669.219C448.418 664.122 452.737 659.254 457.458 654.796C475.942 636.998 493.2 617.971 510.733 599.205C522.754 587.291 533.438 574.048 543.123 560.134Z" fill="#F4B41C"/>
</g>
<defs>
<clipPath id="clip0_561_499">
<rect width="1018" height="925" fill="white"/>
</clipPath>
</defs>
</svg>
