<svg width="1582" height="818" viewBox="0 0 1582 818" fill="none" xmlns="http://www.w3.org/2000/svg">
<g clip-path="url(#clip0_119_1554)">
<path d="M267.946 179.621C293.8 167.69 321.847 160.798 350.187 158.719C399.048 158.629 447.932 158.109 496.703 160.843C497.517 193.857 495.934 226.893 497.607 259.885C497.449 263.003 497.223 266.121 496.906 269.217C475.888 270.686 454.893 267.138 433.92 269.285C415.004 270.234 395.432 267.025 377.149 273.42C335.836 285.374 300.512 316.512 284.037 356.305C271.336 388.053 268.488 424.298 279.178 457.018C290.003 493.579 317.146 524.379 350.662 541.982C369.691 550.478 390.347 556.692 411.365 556.105C430.96 557.099 450.599 557.167 470.216 556.963C501.607 558.952 533.021 556.556 564.435 556.647C563.961 527.271 564.232 497.873 564.277 468.497C491.957 468.52 419.614 468.701 347.294 468.429C347.317 431.552 346.481 394.606 347.701 357.751C420.654 357.66 493.629 358.271 566.582 357.434C566.808 291.226 566.175 224.995 566.876 158.787C636.326 158.584 705.776 158.697 775.225 158.764C811.724 162.945 845.602 183.146 868.541 211.573C887.254 237.31 906.125 262.913 925.289 288.311C939.437 307.88 953.562 327.607 969.45 345.797C979.394 357.389 999.802 356.372 1008.32 343.696C1012.19 335.154 1013.72 325.664 1014.58 316.376C1014.9 264.336 1014.2 212.273 1014.9 160.233C1144.42 159.872 1273.94 160.233 1403.44 160.052C1408.79 160.03 1414.13 160.188 1419.48 160.391C1419.62 197.066 1420 233.785 1419.28 270.46C1330.53 270.731 1241.76 270.256 1153.01 270.686C1152.96 299.677 1152.98 328.669 1152.98 357.66C1255.95 358.022 1358.94 357.706 1461.93 357.819C1462.04 394.674 1461.88 431.529 1461.99 468.384C1358.44 468.836 1254.89 468.294 1151.33 468.655C1151.45 481.016 1150.52 493.512 1152.78 505.759C1157.23 526.525 1172.78 545.032 1193.19 551.608C1206.16 556.466 1220.24 556.692 1233.94 556.895C1309.87 558.726 1385.9 557.167 1461.88 557.867C1462.06 594.044 1461.93 630.199 1461.95 666.354C1343.73 666.67 1225.51 666.354 1107.29 666.512C1082.22 667.28 1057.54 658.806 1037.45 643.983C1013.7 627.465 992.976 606.789 975.959 583.401C947.483 544.942 918.871 506.595 889.717 468.633C827.477 468.452 765.236 468.61 702.996 468.542C702.092 534.073 702.77 599.648 702.679 665.201C589.747 665.631 476.792 665.201 363.86 665.405C350.752 665.292 337.441 664.862 324.83 660.976C290.613 655.281 257.821 642.062 228.825 623.126C191.422 597.411 160.618 562.047 141.092 521.057C132.459 501.443 125.611 480.971 121.43 459.956C119.509 443.031 117.452 426.083 117.882 409.023C116.887 311.993 178.201 217.086 267.946 179.621ZM703.968 267.816C703.809 297.598 704.058 327.403 703.832 357.209C738.365 358.497 772.988 357.683 807.566 357.593C790.073 333.369 770.434 310.75 753.303 286.232C747.947 278.888 741.371 271.138 731.946 269.375C722.816 266.867 713.301 267.839 703.968 267.816Z" fill="#0000B2"/>
<g clip-path="url(#clip1_119_1554)">
<path d="M859.106 444H861.333V1045.33H857.84C858.96 1041.92 859.413 1038.33 859.333 1034.76C859.107 837.84 859.56 640.92 859.106 444Z" fill="#01649D"/>
<path d="M449.813 499.2C503.28 499.307 556.747 499.373 610.213 499.16C610.4 593.213 610.24 687.28 610.293 781.333C609.72 797.387 611.867 813.747 618.147 828.627C621.333 836.427 626.213 843.387 631.227 850.107C640.253 862.747 654.08 870.974 668.04 877.16C685.08 883.32 703.973 885.534 721.707 881.054C736 879 748.933 871.6 760.04 862.64C770 853.294 779.693 843.067 784.96 830.24C789.387 820.027 791.787 808.96 792.987 797.92C793 796.214 794.8 795.334 796.293 795.387C799.96 795.067 803.64 795.347 807.32 795.374C807.72 840.36 807.24 885.36 807.56 930.36C801.493 930.867 795.413 931 789.333 930.88C740.893 930.854 692.44 930.88 644 930.867C635.347 930.787 626.667 931.214 618.04 930.374C616.96 913.867 613.013 897.307 605.627 882.44C596.267 864.76 582.56 849.147 565.48 838.6C555.827 833.454 546.413 827.36 535.6 824.934C508.067 817.174 477.653 820.214 452.467 833.854C439.6 841.254 426.947 849.827 417.787 861.707C411.88 869.947 405.533 878.12 402.187 887.813C396.64 901.214 391.453 915.454 392.787 930.214C387.813 930.867 382.773 931.027 377.773 930.467C377.893 881.814 377.827 833.147 377.8 784.493C402.987 784.747 428.173 784.56 453.347 784.614C464.107 784.067 474.653 781.44 485.053 778.787C497.347 775.733 508.587 769.68 519.44 763.32C530.293 756.787 539.2 747.667 547.933 738.614C566.107 716.4 579.613 689.107 580.533 659.987C580.533 651.134 581.187 642.214 580.027 633.4C577.333 619.187 574.88 604.64 568.387 591.56C559.293 573.347 547.04 556.427 530.933 543.813C524.213 538.92 517.8 533.48 510.24 529.893C500.533 525.253 490.92 519.813 480.107 518.307C470.013 516.773 460.067 513.853 449.8 513.987C449.813 509.053 449.813 504.12 449.813 499.2Z" fill="#01649D"/>
<path d="M347.48 470.013C510.574 469.933 673.667 470.04 836.76 469.973C836.934 631.533 836.734 793.106 836.854 954.68C836.214 956.466 838.134 961.173 834.921 960.613C685.067 960.76 535.2 960.626 385.334 960.68C373.107 960.8 360.867 960.4 348.64 960.88C348.107 959.293 347.747 957.666 347.587 956.026C347.467 794.026 347.667 632.013 347.48 470.013ZM355.214 478.426C355.307 480.28 355.374 482.133 355.4 483.986C355.44 640.186 355.374 796.4 355.44 952.6C513.227 952.853 671.014 952.52 828.801 952.76C829.067 903.626 828.841 854.48 828.921 805.333C828.801 696.226 829.134 587.106 828.747 478C673.374 477.8 518 478 362.627 477.893C360.147 477.92 357.667 478.133 355.214 478.426Z" fill="#1C1512"/>
<path d="M442.067 491.52C500.707 491.16 559.347 491.346 617.987 491.426C618.56 532.946 618.067 574.48 618.24 616.013C618.227 673.333 618.24 730.666 618.227 788C616.973 817.093 631.933 846.613 656.787 862.053C666.867 869.053 678.893 872.573 690.853 874.72C713.907 877.84 737.907 870.52 755.853 855.84C769.48 844.053 779.2 827.826 783.333 810.306C785.44 803.066 784.16 795.2 787.307 788.213C796.613 788.586 805.947 788.12 815.253 788.52C815.467 829.68 815.293 870.84 815.347 912C815.253 920.92 815.613 929.853 815.053 938.773C749.133 939.24 683.2 938.8 617.267 938.986C615.027 938.653 611.84 939.306 610.413 937.173C609.587 930.92 610.6 924.52 609.187 918.333C606.8 904.4 601.853 890.853 594.467 878.786C579.107 855.4 555.067 837.08 527.4 831.373C508.84 827.2 489.347 828.64 471.267 834.28C464.147 836.986 457.373 840.56 450.653 844.133C440.653 849.666 432.453 857.773 424.747 866.093C416.32 875.6 410.627 887.133 405.893 898.813C400.96 911.013 399.813 924.28 399.16 937.293C397.76 938.933 395.307 938.706 393.36 938.946C385.613 939.093 377.88 938.933 370.133 938.866C369.547 901.04 370.04 863.186 369.88 825.333C369.973 809.16 369.693 792.986 370.04 776.826C400.053 776.426 430.08 777.026 460.107 776.493C482.773 773.52 504.613 764.613 522.907 750.893C536.147 740.16 547.933 727.373 556.307 712.453C567.067 692.346 573.587 669.6 572.733 646.666C572.987 635.266 570.52 624.04 567.547 613.093C562.773 597.773 555.893 582.88 545.587 570.453C536 558.76 524.8 548.253 511.947 540.226C496.187 530.626 478.293 524.866 460.093 522.186C454.747 521.746 449.36 522.293 444.027 521.706C441.133 520.48 442.013 517.186 441.773 514.706C441.707 506.973 441.68 499.24 442.067 491.52ZM449.813 499.2C449.813 504.12 449.813 509.053 449.8 513.986C460.067 513.853 470.013 516.773 480.107 518.306C490.92 519.813 500.533 525.253 510.24 529.893C517.8 533.48 524.213 538.92 530.933 543.813C547.04 556.426 559.293 573.346 568.387 591.56C574.88 604.64 577.333 619.186 580.027 633.4C581.187 642.213 580.533 651.133 580.533 659.986C579.613 689.106 566.107 716.4 547.933 738.613C539.2 747.666 530.293 756.786 519.44 763.32C508.587 769.68 497.347 775.733 485.053 778.786C474.653 781.44 464.107 784.066 453.347 784.613C428.173 784.56 402.987 784.746 377.8 784.493C377.827 833.146 377.893 881.813 377.773 930.466C382.773 931.026 387.813 930.866 392.787 930.213C391.453 915.453 396.64 901.213 402.187 887.813C405.533 878.12 411.88 869.946 417.787 861.706C426.947 849.826 439.6 841.253 452.467 833.853C477.653 820.213 508.067 817.173 535.6 824.933C546.413 827.36 555.827 833.453 565.48 838.6C582.56 849.146 596.267 864.76 605.627 882.44C613.013 897.306 616.96 913.866 618.04 930.373C626.667 931.213 635.347 930.786 644 930.866C692.44 930.88 740.893 930.853 789.333 930.88C795.413 931 801.493 930.866 807.56 930.36C807.24 885.36 807.72 840.36 807.32 795.373C803.64 795.346 799.96 795.066 796.293 795.386C794.8 795.333 793 796.213 792.987 797.92C791.787 808.96 789.387 820.026 784.96 830.24C779.693 843.066 770 853.293 760.04 862.64C748.933 871.6 736 879 721.707 881.053C703.973 885.533 685.08 883.32 668.04 877.16C654.08 870.973 640.253 862.746 631.227 850.106C626.213 843.386 621.333 836.426 618.147 828.626C611.867 813.746 609.72 797.386 610.293 781.333C610.24 687.28 610.4 593.213 610.213 499.16C556.747 499.373 503.28 499.306 449.813 499.2Z" fill="#1C1512"/>
<path d="M355.213 478.427C357.666 478.134 360.146 477.92 362.626 477.894C518 478 673.373 477.8 828.746 478C829.133 587.107 828.8 696.227 828.92 805.334C828.84 854.48 829.066 903.627 828.8 952.76C671.013 952.52 513.226 952.854 355.44 952.6C355.373 796.4 355.44 640.187 355.4 483.987C355.373 482.134 355.306 480.28 355.213 478.427ZM442.066 491.52C441.68 499.24 441.706 506.974 441.773 514.707C442.013 517.187 441.133 520.48 444.026 521.707C449.36 522.294 454.746 521.747 460.093 522.187C478.293 524.867 496.186 530.627 511.946 540.227C524.8 548.254 536 558.76 545.586 570.454C555.893 582.88 562.773 597.774 567.546 613.094C570.52 624.04 572.986 635.267 572.733 646.667C573.586 669.6 567.066 692.347 556.306 712.454C547.933 727.374 536.146 740.16 522.906 750.894C504.613 764.614 482.773 773.52 460.106 776.494C430.08 777.027 400.053 776.427 370.04 776.827C369.693 792.987 369.973 809.16 369.88 825.334C370.04 863.187 369.546 901.04 370.133 938.867C377.88 938.934 385.613 939.094 393.36 938.947C395.306 938.707 397.76 938.934 399.16 937.294C399.813 924.28 400.96 911.014 405.893 898.814C410.626 887.134 416.32 875.6 424.746 866.094C432.453 857.774 440.653 849.667 450.653 844.134C457.373 840.56 464.146 836.987 471.266 834.28C489.346 828.64 508.84 827.2 527.4 831.374C555.066 837.08 579.106 855.4 594.466 878.787C601.853 890.854 606.8 904.4 609.186 918.334C610.6 924.52 609.586 930.92 610.413 937.174C611.84 939.307 615.026 938.654 617.266 938.987C683.2 938.8 749.133 939.24 815.053 938.774C815.613 929.854 815.253 920.92 815.346 912C815.293 870.84 815.466 829.68 815.253 788.52C805.946 788.12 796.613 788.587 787.306 788.214C784.16 795.2 785.44 803.067 783.333 810.307C779.2 827.827 769.48 844.054 755.853 855.84C737.906 870.52 713.906 877.84 690.853 874.72C678.893 872.574 666.866 869.054 656.786 862.054C631.933 846.614 616.973 817.094 618.226 788C618.24 730.667 618.226 673.334 618.24 616.014C618.066 574.48 618.56 532.947 617.986 491.427C559.346 491.347 500.706 491.16 442.066 491.52Z" fill="#F3BE00"/>
</g>
</g>
<defs>
<clipPath id="clip0_119_1554">
<rect width="1582" height="818" fill="white"/>
</clipPath>
<clipPath id="clip1_119_1554">
<rect width="533.333" height="601.333" fill="white" transform="translate(328 444)"/>
</clipPath>
</defs>
</svg>
