<svg width="3757" height="429" viewBox="0 0 3757 429" fill="none" xmlns="http://www.w3.org/2000/svg">
<path d="M1310.31 56.0409C1351.21 15.5371 1413.05 -1.15909 1469.17 10.049C1497.7 13.9912 1526.76 26.3587 1543.77 50.6301C1560.55 73.2009 1560.62 102.574 1563.33 129.319C1533.34 129.551 1503.26 129.551 1473.27 129.396C1464.84 110.149 1457.96 81.7036 1431.6 82.0128C1397.13 75.6744 1371.92 107.907 1361.64 136.817C1353.76 163.871 1343.94 194.248 1354.99 221.766C1363.5 246.656 1397.74 256.782 1419.62 243.41C1439.64 234.752 1448.76 213.573 1459.51 196.181C1490.74 195.176 1522.05 195.331 1553.2 197.572C1535.81 246.888 1501.64 293.189 1450.85 311.199C1404.47 327.123 1349.97 327.123 1306.29 303.238C1270.19 283.218 1250.86 241.477 1252.18 201.051C1253.26 148.179 1272.12 93.6074 1310.31 56.0409Z" fill="#231F20"/>
<path d="M2532.88 12.7541C2576.25 1.93247 2626.5 1.23682 2664.69 27.5179C2689.42 43.8276 2694.3 74.8239 2699.94 101.569C2671.95 102.342 2643.74 104.815 2615.91 101.569C2599.29 93.9163 2586.61 78.3796 2568.37 74.6693C2555.77 76.6017 2544.09 81.7806 2532.26 85.8774C2535.59 94.1482 2539.76 102.032 2544.79 109.376C2582.28 128.159 2627.43 128.932 2661.67 154.44C2688.57 174.228 2687.18 212.49 2678.22 241.168C2661.83 285.382 2616.84 311.74 2572 318.929C2523.3 326.968 2465.63 324.417 2429.45 286.232C2411.98 270.077 2411.44 244.955 2409.43 223.003C2436.41 222.462 2463.54 220.529 2490.44 223.312C2510.7 228.8 2521.13 256.241 2545.1 252.53C2563.57 255.313 2577.49 242.172 2591.33 232.201C2560.17 190.151 2497.48 204.065 2460.14 170.209C2434.47 149.261 2434.32 111.695 2443.98 82.7855C2456.89 44.5234 2494.85 20.5611 2532.88 12.7541Z" fill="#231F20"/>
<path d="M372.144 13.6046C404.844 12.9089 437.467 12.9863 470.166 13.4501C465.992 47.229 460.039 80.7759 454.087 114.323C484.081 114.478 513.998 114.478 543.992 114.478C551.8 81.3943 559.067 48.2338 563.009 14.4549C596.405 12.7543 629.8 12.4452 663.273 13.682C644.333 113.705 629.182 214.423 610.474 314.523C577.697 314.832 544.92 314.832 512.143 314.6C515.931 274.715 525.594 235.912 532.474 196.567C501.475 196.335 470.476 196.335 439.476 196.413C433.369 235.602 423.938 274.328 420.46 313.905C386.832 315.064 353.205 315.141 319.577 314.446C336.584 214.114 355.524 114.091 372.144 13.6046Z" fill="#231F20"/>
<path d="M712.903 13.6044C789.125 12.986 865.347 12.3677 941.647 13.5271C938.168 38.0304 934.457 62.379 930.438 86.8049C887.07 86.573 843.624 86.8822 800.257 86.8049C798.711 100.177 796.778 113.473 794.845 126.845C834.812 127.541 874.778 127.386 914.745 127.463C911.884 150.034 908.792 172.605 905.932 195.176C864.188 196.799 822.366 195.949 780.621 197.108C778.534 212.568 776.447 228.104 774.437 243.641C823.68 243.796 872.846 242.946 922.011 244.337C919.383 267.835 915.672 291.102 911.421 314.368C827.932 314.987 744.52 314.832 661.031 314.523C676.028 213.804 695.818 113.936 712.903 13.6044Z" fill="#231F20"/>
<path d="M990.348 13.2954C1052.58 14.6094 1115.12 9.58503 1177.12 16.6191C1204.33 21.4888 1239.66 28.0591 1250.01 57.8186C1261.84 101.646 1238.73 147.638 1202.09 171.987C1210.43 183.89 1220.48 195.099 1225.2 209.089C1227.98 244.492 1217.55 279.507 1220.48 315.064C1188.09 314.446 1155.7 314.832 1123.31 314.446C1124.47 285.15 1131.66 256.086 1129.19 226.713C1113.88 201.978 1080.18 213.109 1056.06 210.481C1049.18 244.878 1043.22 279.584 1038.59 314.446C1005.11 314.755 971.718 314.909 938.322 314.291C956.025 213.959 972.723 113.55 990.348 13.2954ZM1076.93 86.805C1074.3 106.361 1071.75 125.918 1069.59 145.474C1090.61 144.778 1112.1 145.551 1132.82 140.449C1153.85 135.502 1165.91 106.98 1148.75 90.9792C1125.48 83.9451 1100.74 87.2688 1076.93 86.805Z" fill="#231F20"/>
<path d="M1607.32 14.7642C1640.63 12.6772 1674.11 12.5226 1707.43 13.7593C1698.15 73.8193 1686.09 133.416 1676.43 193.398C1675.42 209.167 1670.09 229.96 1685.32 240.936C1713.15 262.193 1756.75 241.091 1762.47 207.93C1775.84 143.619 1785.12 78.5345 1798.18 14.1458C1830.8 12.9091 1863.5 12.5226 1896.13 13.7593C1889.48 70.6501 1877.5 126.691 1868.06 183.118C1858.86 233.129 1834.82 286.464 1785.04 307.257C1736.26 326.659 1680.14 326.813 1630.04 312.281C1590.08 300.068 1570.91 255.623 1575 216.51C1580.57 148.566 1599.12 82.3993 1607.32 14.7642Z" fill="#231F20"/>
<path d="M1939.18 14.5321C1972.66 12.8316 2006.13 12.4451 2039.53 13.6818C2026.62 90.2062 2012 166.421 1999.64 243.1C2036.97 243.719 2074.23 243.564 2111.57 243.409C2107.86 267.062 2103.46 290.561 2099.67 314.214C2029.17 315.141 1958.74 314.832 1888.24 314.446C1902.62 214.036 1925.11 114.941 1939.18 14.5321Z" fill="#231F20"/>
<path d="M2180.45 13.6817C2254.74 12.9087 2329.03 12.4449 2403.32 13.4498C2401.08 37.2574 2397.75 60.9103 2394.43 84.5633C2351.29 88.3508 2308 85.6454 2264.87 88.0416C2264.17 101.182 2263.32 114.323 2262.39 127.463C2302.67 127.231 2342.95 127.154 2383.3 128.314C2379.67 151.194 2374.95 173.842 2370.16 196.412C2329.57 195.949 2288.99 195.794 2248.48 197.417C2246.32 212.799 2244.07 228.182 2241.83 243.641C2291.15 243.796 2340.39 243.255 2389.72 244.105C2387.09 267.603 2384.07 291.024 2380.52 314.368C2296.64 314.832 2212.77 314.987 2128.89 314.291C2144.66 213.882 2164.37 114.091 2180.45 13.6817Z" fill="#231F20"/>
<path d="M68.4918 14.8413C161.489 12.9089 254.564 14.1457 347.561 14.1457C330.245 114.091 312.078 214.037 297.236 314.368C203.62 315.064 110.082 314.987 16.4658 314.446C33.009 214.423 52.7216 114.941 68.4918 14.8413Z" fill="#DF493A"/>
<path d="M9.19885 408.362C176.718 403.647 344.546 408.98 512.219 405.657C1323.84 405.579 2135.54 405.657 2947.23 405.579C3216.25 406.275 3485.35 403.879 3754.37 406.816C3750.04 421.966 3735.28 427.686 3720.74 426.682C2481.55 427.3 1242.28 427.918 3.0918 426.913C4.56058 422.276 7.65276 413 9.19885 408.362Z" fill="#DF493A"/>
</svg>
