<svg width="2775" height="618" viewBox="0 0 2775 618" fill="none" xmlns="http://www.w3.org/2000/svg">
<path d="M32.8804 6.06379L39.0211 0.466797L45.8615 2.177C42.9077 4.89775 36.9224 10.417 33.9686 13.1377L32.8804 6.06379Z" fill="#9FCE64"/>
<path d="M10.3384 44.9313C-5.44101 47.8853 1.16613 20.4445 13.9918 27.5185C13.1367 31.8717 11.2712 40.5781 10.3384 44.9313Z" fill="#9FCE64"/>
<path d="M2620.63 104.011C2638.35 87.453 2661.82 103.078 2675.35 116.993C2709.71 151.663 2742.66 193.174 2749.43 242.925C2753.39 260.104 2736.21 274.641 2719.89 272.542C2692.68 269.277 2665.71 260.959 2638.12 266.712C2603.91 254.041 2571.03 278.139 2536.21 272.775C2534.81 243.702 2528.75 211.286 2546.94 185.867C2567.85 155.705 2592.64 127.798 2620.63 104.011ZM2596.37 232.897C2600.03 231.031 2607.26 227.3 2610.83 225.434C2618.68 199.315 2613.79 171.485 2612.62 144.822C2569.79 153.062 2592.8 204.134 2596.37 232.897ZM2625.91 150.108C2624.28 176.538 2624.51 203.046 2625.45 229.476C2638.27 224.89 2650.01 214.629 2663.85 214.396C2677.76 226.211 2687.71 241.914 2698.82 256.295C2705.74 251.242 2712.82 246.501 2720.28 242.147C2697.58 215.562 2664.08 190.375 2671.62 150.808C2656.38 150.497 2641.15 150.264 2625.91 150.108Z" fill="#9FCE64"/>
<path d="M2524.78 299.75C2569.71 293.686 2615.96 285.757 2660.74 297.107C2665.24 324.081 2676.28 349.19 2686.39 374.454C2653.97 375.231 2621.64 376.397 2589.3 375.542C2600.18 350.589 2612.93 325.636 2618.29 298.817C2587.12 297.184 2554.94 318.329 2524.78 299.75Z" fill="#9FCE64"/>
<path d="M45.8613 2.17624C74.4663 -2.48791 103.382 2.95359 132.065 2.48718C266.851 2.40944 401.636 2.48717 536.344 2.40944C564.716 0.232835 587.336 28.9174 585.237 55.9694C585.393 211.674 585.237 367.379 585.315 523.084C587.725 550.136 564.949 578.821 536.733 576.722C375.985 576.566 215.16 576.877 54.4117 576.644C27.2835 577.344 4.27513 549.748 8.16169 523.162C9.63858 363.803 5.6743 204.134 10.3382 44.931C11.2709 40.5777 13.1365 31.8713 13.9915 27.5181L14.3802 19.0449C19.2772 17.5679 29.0714 14.614 33.9684 13.137C36.9222 10.4162 42.9075 4.897 45.8613 2.17624ZM102.45 112.25C57.3655 157.648 35.9894 221.003 31.0146 283.813C59.0756 285.212 87.0588 285.135 115.12 284.824C120.639 197.06 178.626 114.505 263.12 86.5974C368.29 45.0087 495.536 109.219 534.634 212.996C545.905 237.249 541.863 266.478 558.731 288.4C564.561 172.262 473.926 62.1106 362.071 36.1468C270.66 11.9709 165.645 41.1219 102.45 112.25ZM223.399 116.603C164.401 150.652 130.821 217.427 127.479 284.28C154.996 285.135 182.59 285.057 210.107 284.357C215.704 246.189 226.12 206.544 254.103 178.403C285.04 142.334 333.777 124.455 380.727 127.253C434.05 129.43 482.943 162.856 508.983 208.643C522.664 233.363 525.073 262.28 536.111 288.011C542.874 241.836 520.954 197.138 494.292 160.991C431.952 81.0004 308.281 62.9657 223.399 116.603ZM262.342 186.799C237.391 212.918 224.876 248.443 223.321 284.124C246.952 284.668 270.582 284.746 294.29 284.591C300.197 249.532 313.956 211.83 347.225 194.184C398.294 161.068 476.491 184.545 497.945 242.302C505.097 257.15 502.842 277.672 518.933 286.845C518.622 228.232 480.767 171.874 426.044 150.729C371.088 128.264 302.452 142.8 262.342 186.799ZM30.8592 294.074C35.2121 359.217 58.9201 424.748 106.103 471.079C152.353 521.685 220.057 548.582 287.605 553.09C353.521 553.868 420.37 531.013 470.273 487.481C525.229 439.518 559.12 368.701 561.141 295.629C532.769 296.251 504.319 296.329 475.87 296.095C472.605 397.929 389.51 490.902 287.527 501.785C180.492 519.275 70.1911 440.296 49.2814 334.575C44.773 320.038 50.9138 297.495 30.8592 294.074ZM54.6449 292.053C51.7688 381.372 120.483 466.415 206.842 486.626C273.147 503.65 348.157 486.782 398.527 439.751C439.569 402.982 460.09 349.811 466.542 296.173C438.87 295.629 411.12 296.018 383.37 296.251L381.815 304.413L369.456 302.625L370.855 296.251C346.447 296.095 322.118 296.251 297.71 296.251C295.067 328.745 282.319 361.705 255.191 381.527C214.305 415.342 149.166 409.357 113.954 369.945C92.2667 349.034 89.8571 317.551 77.5756 291.509C70.813 321.515 89.2352 347.945 90.9453 376.785C70.1911 352.299 72.834 317.551 54.6449 292.053Z" fill="#F32736"/>
<path d="M674.472 58.6129C693.983 58.7684 713.493 58.7684 732.926 58.5352C732.771 76.8808 733.004 95.2265 733.704 113.572C713.727 113.494 693.827 113.494 673.851 113.494C674.472 95.2265 674.628 76.8808 674.472 58.6129Z" fill="#414143"/>
<path d="M1175.06 58.8457C1195.04 59.2344 1215.09 59.2344 1235.07 59.0012C1236.86 164.489 1236.31 269.976 1235.69 375.464C1217.11 375.386 1198.61 375.308 1180.11 375.075C1180.11 365.047 1180.19 354.942 1180.27 344.836C1153.92 370.411 1116.61 390.389 1079.37 376.319C1022.86 357.429 1005.14 288.944 1012.76 235.617C1015.79 188.043 1053.96 141.479 1103.86 141.479C1130.52 138.758 1153.14 154.616 1174.52 167.909C1174.98 131.606 1174.91 95.2261 1175.06 58.8457ZM1105.88 189.597C1071.68 204.989 1070.12 248.677 1074.09 280.859C1075.95 307.678 1096.86 336.751 1126.32 334.108C1153.14 333.331 1171.41 307.212 1173.51 282.414C1175.68 254.04 1177.94 220.692 1156.64 198.382C1144.2 183.923 1122.67 184.778 1105.88 189.597Z" fill="#414143"/>
<path d="M1500.99 59.002C1520.58 59.3129 1540.24 59.3129 1559.91 59.1574C1560.14 95.8488 1559.99 132.54 1561 169.154C1582.76 156.249 1605.3 139.381 1632.12 141.48C1664.22 141.635 1700.37 160.525 1704.95 195.273C1714.13 254.585 1708.3 314.986 1708.76 374.765C1688.71 374.998 1668.58 375.309 1648.52 375.542C1646.34 321.438 1650.78 267.101 1646.11 213.23C1637.64 171.33 1570.63 183.146 1564.42 221.081C1556.56 271.92 1562.16 323.693 1560.53 374.843C1540.55 375.076 1520.58 375.231 1500.6 375.231C1499.43 269.899 1498.97 164.412 1500.99 59.002Z" fill="#414143"/>
<path d="M1797.61 59.157C1817.35 59.3125 1837.1 59.2348 1856.92 58.9238C1858.47 114.039 1856.37 169.153 1858.47 224.19C1882.88 199.703 1906.43 174.206 1927.96 147.076C1952.06 146.765 1976.23 146.921 2000.33 147.776C1977.79 176.149 1949.88 199.781 1927.73 228.388C1947.32 280.393 1983.54 324.78 2007.48 374.998C1986.34 375.309 1965.27 375.386 1944.21 375.464C1925.01 341.027 1906.12 306.357 1886.14 272.309C1877.13 281.248 1867.72 289.955 1859.79 299.905C1855.44 324.625 1857.77 349.889 1856.84 374.842C1836.94 375.076 1817.04 375.231 1797.14 375.153C1797.06 269.821 1796.05 164.489 1797.61 59.157Z" fill="#414143"/>
<path d="M2024.35 59.0791C2044.25 59.0791 2064.07 59.0014 2083.97 58.6904C2084.05 77.1138 2084.2 95.5372 2084.59 114.038C2064.46 113.416 2044.33 113.106 2024.27 113.028C2024.51 95.0708 2024.51 77.0361 2024.35 59.0791Z" fill="#414143"/>
<path d="M2357.2 98.2584C2377.02 88.075 2396.45 77.0365 2415.57 65.6094C2415.57 92.5837 2415.88 119.48 2416.58 146.455C2429.41 146.532 2442.31 146.455 2455.21 146.299C2455.53 162.08 2455.76 177.938 2455.91 193.718C2442.62 193.796 2429.41 193.874 2416.27 194.029C2416.27 239.116 2414.48 284.28 2417.98 329.367C2431.04 329.834 2444.1 330.067 2457.24 330.3C2458.17 345.225 2459.26 360.073 2460.34 374.92C2434.07 378.885 2405.23 387.125 2380.36 373.366C2360.77 364.193 2355.95 340.639 2355.56 321.127C2354.24 278.917 2356.11 236.706 2355.1 194.495C2345.54 194.029 2335.97 193.485 2326.49 193.018C2326.41 178.404 2326.34 163.79 2326.18 149.175C2335.43 148.087 2344.6 147.077 2353.93 146.144C2354.86 130.208 2355.87 114.194 2357.2 98.2584Z" fill="#414143"/>
<path d="M831.645 175.061C853.798 157.26 879.139 138.681 909.298 141.79C943.656 140.78 979.256 164.645 981.822 200.947C987.574 258.627 982.521 316.774 985.086 374.609C964.643 375.076 944.2 375.387 923.834 375.698C923.212 333.876 923.756 292.054 923.679 250.232C923.29 231.498 922.513 210.975 910.853 195.273C884.891 175.217 841.983 193.252 838.33 226.056C829.391 275.263 835.843 325.713 833.588 375.387C814.078 375.387 794.567 375.387 775.057 375.387C774.435 299.283 774.513 223.18 774.979 147.076C793.557 147.31 812.057 147.31 830.635 147.154C830.868 154.073 831.412 168.065 831.645 175.061Z" fill="#414143"/>
<path d="M1331.46 144.044C1373.27 138.525 1430.41 137.048 1454.27 179.103C1472.23 243.002 1449.37 311.643 1470.67 375.309C1452.33 375.309 1433.98 375.309 1415.72 375.231C1412.3 367.768 1408.95 360.306 1405.69 352.843C1373.9 379.195 1325.39 394.043 1288.55 369.09C1250.46 347.246 1247.89 285.057 1285.83 261.736C1321.35 240.437 1364.65 240.592 1403.05 226.989C1400.25 216.028 1398.54 204.601 1393.72 194.262C1365.81 177.549 1332 189.831 1313.34 214.318C1297.02 211.208 1280.62 208.021 1264.37 204.445C1274.79 174.439 1298.03 147.387 1331.46 144.044ZM1322.52 292.52C1306.81 319.727 1340.39 348.801 1366.9 336.674C1400.95 330.999 1402.35 292.909 1401.96 265.701C1375.45 273.475 1344.05 273.008 1322.52 292.52Z" fill="#414143"/>
<path d="M2151.83 155.705C2180.12 138.837 2214.56 140.391 2246.27 142.646C2272.39 146.299 2303.56 160.136 2308.77 188.976C2319.57 250.699 2301.85 315.142 2322.68 375.542C2304.88 375.465 2287.08 375.62 2269.28 376.087C2264.85 369.246 2260.34 362.327 2255.99 355.487C2222.49 379.352 2173.75 394.51 2137.53 367.38C2100.06 344.293 2101.23 281.56 2139.78 260.027C2175.54 240.515 2217.9 240.36 2255.68 225.979C2252.34 208.566 2245.96 184.157 2222.88 187.655C2199.17 182.058 2180.59 196.517 2167.06 214.163C2149.5 210.976 2131.93 207.711 2114.36 204.601C2124.31 186.722 2133.41 166.433 2151.83 155.705ZM2170.72 299.983C2163.96 330.922 2203.44 349.268 2227.46 333.254C2254.82 322.76 2253.19 290.344 2253.81 266.246C2226.06 274.875 2186.34 270.832 2170.72 299.983Z" fill="#414143"/>
<path d="M674.473 147.231C693.906 147.231 713.416 147.231 732.927 147.231C734.015 223.335 733.626 299.516 733.16 375.619C713.572 375.697 693.983 375.619 674.395 375.542C673.851 299.438 673.695 223.335 674.473 147.231Z" fill="#414143"/>
<path d="M2024.97 146.843C2044.64 147.076 2064.38 147.076 2084.13 147.154C2084.98 223.335 2084.75 299.594 2084.28 375.775C2064.62 375.93 2044.87 376.008 2025.21 375.93C2024.04 299.594 2024.35 223.257 2024.97 146.843Z" fill="#414143"/>
<path d="M326.548 398.474C352.666 373.21 364.092 337.685 369.456 302.626L381.815 304.414C375.208 343.437 359.118 382.227 328.88 408.813C262.42 473.023 135.796 460.274 90.9453 376.786C117.84 393.888 138.284 420.784 169.143 431.512C222.078 452.967 286.361 438.586 326.548 398.474Z" fill="#414143"/>
<path d="M875.33 450.79C880.382 451.723 890.487 453.511 895.617 454.444C899.737 495.877 896.472 537.699 896.395 579.287C891.42 578.355 881.393 576.567 876.34 575.634C871.987 534.201 874.863 492.379 875.33 450.79Z" fill="#414143"/>
<path d="M1306.35 451.878C1312.02 451.878 1323.45 451.801 1329.2 451.801C1329.51 493.156 1329.36 534.589 1329.2 576.023C1302.62 568.871 1266.86 591.026 1248.44 564.051C1234.84 541.663 1236.39 507.071 1258.23 490.358C1272.46 479.397 1290.41 488.103 1305.88 490.902C1306.04 477.842 1306.19 464.86 1306.35 451.878ZM1265.15 545.161C1267.48 564.362 1288.63 560.398 1302.07 558.843C1307.05 538.709 1305.57 517.954 1295.08 499.842C1270.98 500.308 1257.46 522.774 1265.15 545.161Z" fill="#414143"/>
<path d="M2186.34 453.744C2192.25 453.433 2203.99 452.967 2209.89 452.733C2210.75 493.545 2210.52 534.356 2209.97 575.245C2188.75 573.613 2167.84 577.733 2146.78 577.344C2115.14 561.408 2113.43 508.392 2142.89 488.803C2156.57 479.941 2172.58 488.725 2186.96 490.591C2186.81 478.309 2186.58 466.026 2186.34 453.744ZM2155.02 501.552C2141.65 521.918 2138.3 567.86 2174.14 561.175C2194.12 548.038 2185.18 522.074 2180.43 503.417C2171.88 502.718 2163.41 502.096 2155.02 501.552Z" fill="#414143"/>
<path d="M2412.54 497.509C2410.21 480.641 2424.43 467.814 2433.06 455.065C2439.9 469.213 2448.37 482.506 2454.36 497.043C2437.1 515.078 2439.43 539.875 2442.23 562.807C2453.5 558.998 2464.7 554.878 2475.89 550.758C2489.57 559.465 2505.51 562.574 2521.52 563.585C2518.18 531.402 2466.25 546.716 2463.14 514.767C2457.86 493.778 2485.37 482.739 2502.55 484.216C2520.2 483.594 2533.18 496.032 2543.28 509.014C2522.22 510.647 2501 497.12 2480.87 507.382C2499.29 519.819 2520.9 525.572 2541.34 533.656C2540.64 549.67 2543.98 571.203 2523.77 576.256C2494.39 584.418 2463.69 565.839 2433.99 578.821C2430.96 577.499 2424.98 574.856 2422.02 573.457C2416.97 548.426 2416.66 522.696 2412.54 497.509Z" fill="#414143"/>
<path d="M674.706 486.782C695.227 488.415 715.67 485.849 736.113 486.005C770.16 500.231 771.481 554.568 742.954 575.09C728.107 584.185 711.084 574.546 695.771 571.903C696.082 585.895 696.16 599.888 696.004 613.88C690.952 612.948 680.924 611.004 675.872 609.994C672.529 569.027 674.473 527.827 674.706 486.782ZM700.435 506.683C699.347 521.452 693.206 537.388 700.202 551.614C706.964 563.197 722.977 564.829 733.004 556.511C740.466 542.674 740.933 525.262 734.015 511.191C725.076 501.319 711.706 506.216 700.435 506.683Z" fill="#414143"/>
<path d="M774.979 485.538C780.731 485.694 792.158 486.005 797.832 486.16C797.366 512.046 797.754 537.932 800.242 563.663C810.658 561.253 825.582 564.129 831.023 552.08C834.521 530.158 833.044 507.848 833.277 485.771C839.03 485.694 850.611 485.694 856.364 485.616C856.985 515.466 857.141 545.395 856.286 575.245C831.723 570.814 804.517 585.429 782.13 572.602C767.595 546.405 776.301 514.3 774.979 485.538Z" fill="#414143"/>
<path d="M915.051 486.471C935.649 488.725 956.17 486.004 976.769 486.315C1010.19 500.696 1012.53 554.179 983.765 574.468C968.685 583.718 951.584 575.012 936.116 572.058C936.504 585.973 936.66 599.965 936.66 613.957C931.607 612.947 921.658 610.926 916.683 609.915C912.719 568.871 914.584 527.593 915.051 486.471ZM940.469 505.749C939.147 524.017 930.908 548.582 949.796 560.864C958.502 560.631 967.13 560.087 975.759 559.154C976.38 543.684 982.288 526.427 974.126 512.046C966.82 500.385 951.429 506.682 940.469 505.749Z" fill="#414143"/>
<path d="M1053.33 507.459C1064.92 477.298 1101.84 482.273 1125.78 492.456C1128.73 520.286 1128.58 548.271 1131.3 576.178C1110.47 573.69 1089.95 578.121 1069.27 579.52C1052.32 576.333 1045.64 555.966 1051 541.041C1063.98 525.572 1085.9 525.183 1103.94 519.975C1103.08 515.155 1101.45 505.438 1100.67 500.618C1084.97 503.417 1068.8 517.565 1053.33 507.459ZM1071.83 547.104C1068.34 566.461 1088.86 561.408 1101.14 563.584C1102.3 555.966 1104.71 540.652 1105.88 533.034C1094.53 537.543 1081.55 539.253 1071.83 547.104Z" fill="#414143"/>
<path d="M1144.51 485.538C1170.24 498.753 1202.81 472.323 1223.1 496.654C1232.74 522.074 1226.83 550.525 1228 577.111C1222.24 577.189 1210.89 577.422 1205.14 577.5C1204.75 554.878 1206.39 531.946 1202.42 509.636C1195.04 496.577 1178.71 502.485 1171.49 512.357C1166.2 533.346 1168.45 555.267 1167.75 576.722C1161.85 576.645 1150.03 576.567 1144.12 576.489C1144.98 546.172 1144.59 515.855 1144.51 485.538Z" fill="#414143"/>
<path d="M1384.55 485.694C1404.29 491.446 1424.42 488.492 1444.24 485.228C1480.93 497.898 1482.1 557.056 1451.01 576.723C1436.63 582.397 1421.47 574.08 1407.32 571.437C1407.63 584.729 1407.87 598.1 1407.94 611.471C1402.04 611.471 1390.22 611.548 1384.31 611.548C1385.32 569.649 1384.24 527.671 1384.55 485.694ZM1423.57 498.598C1406.78 516.089 1405.38 539.176 1415.48 560.554C1425.2 560.554 1434.92 560.476 1444.63 560.398C1447.04 548.505 1451.86 536.611 1450.38 524.406C1449.14 509.87 1433.44 505.983 1423.57 498.598Z" fill="#414143"/>
<path d="M1483.73 514.145C1487.23 480.563 1531.3 477.065 1553.92 493.856C1561.93 520.519 1558.04 548.971 1561.07 576.412C1540.94 574.624 1520.89 576.8 1500.83 577.422C1479.77 578.199 1471.22 546.328 1487.93 534.745C1505.03 525.65 1524.23 521.841 1542.42 515.311C1526.56 493.778 1503.47 509.326 1483.73 514.145ZM1499.59 544.307C1502.08 549.981 1506.97 561.331 1509.38 567.006C1526.25 562.575 1538.38 552.391 1540.55 534.279C1526.87 537.855 1513.35 541.353 1499.59 544.307Z" fill="#414143"/>
<path d="M1576.08 487.093C1596.52 488.803 1616.96 486.082 1637.48 486.393C1671.06 501.552 1673.32 553.557 1644.63 575.012C1629.32 583.33 1612.61 575.168 1597.22 571.825C1597.76 585.118 1598.07 598.333 1598.46 611.626C1592.71 611.703 1581.21 611.937 1575.45 612.014C1575.45 570.348 1574.91 528.682 1576.08 487.093ZM1602.35 506.294C1597.06 526.583 1599.4 546.872 1609.42 565.217C1618.83 560.475 1632.35 560.709 1638.26 550.914C1642.07 537.932 1642.15 523.085 1635.77 510.88C1626.76 501.396 1613.54 505.672 1602.35 506.294Z" fill="#414143"/>
<path d="M1689.95 575.245C1652.1 553.324 1668.81 477.376 1716.69 484.605C1743.43 487.015 1752.06 514.611 1754.39 537.232C1733.25 537.854 1712.18 538.01 1691.12 538.709C1694.62 546.949 1698.35 555.112 1702.39 563.196C1717.86 559.309 1733.25 555.112 1748.79 551.225C1747.47 556.666 1744.75 567.627 1743.43 573.069C1726.1 576.489 1706.82 584.885 1689.95 575.245ZM1691.2 524.328C1705.89 524.484 1720.58 524.173 1735.35 523.473C1727.73 515.933 1723.45 501.785 1710.86 501.94C1698.11 501.552 1696.56 516.088 1691.2 524.328Z" fill="#414143"/>
<path d="M1765.66 487.171C1783.7 488.182 1801.73 487.249 1819.76 485.461C1819.53 490.203 1819.14 499.687 1818.91 504.429C1809.27 506.372 1799.71 508.393 1790.15 510.492C1788.28 532.647 1787.66 554.957 1786.96 577.189C1781.44 577.112 1770.4 577.034 1764.88 577.034C1765.58 547.106 1765.74 517.099 1765.66 487.171Z" fill="#414143"/>
<path d="M1866.87 486.005C1891.43 496.888 1919.96 475.899 1941.41 493.39C1961 516.944 1960.69 559.543 1932.86 576.8C1918.56 583.019 1903.4 574.157 1889.25 571.514C1888.79 585.429 1888.24 599.422 1887.54 613.414C1882.41 613.414 1872.08 613.336 1866.95 613.336C1865.78 570.892 1865.93 528.449 1866.87 486.005ZM1905.73 498.598C1887.62 515.855 1886.3 539.176 1897.1 560.865C1906.82 560.631 1916.54 560.32 1926.33 560.009C1929.05 545.317 1937.06 528.993 1928.2 514.845C1922.37 507.382 1913.27 503.806 1905.73 498.598Z" fill="#414143"/>
<path d="M1967.14 486.86C1984.94 488.026 2002.74 487.249 2020.54 485.461C2020.62 490.203 2020.85 499.842 2021.01 504.662C2011.29 506.527 2001.58 508.471 1991.94 510.414C1990.15 532.724 1989.6 555.035 1988.91 577.345C1983.23 577.189 1971.88 576.878 1966.21 576.723C1966.05 546.795 1966.05 516.788 1967.14 486.86Z" fill="#414143"/>
<path d="M2055.05 486.549C2086.15 475.355 2121.05 505.361 2115.53 537.932C2113.9 570.27 2075.11 589.549 2047.2 574.779C2008.49 559.543 2015.64 495.877 2055.05 486.549ZM2052.49 553.479C2060.42 565.606 2075.42 558.61 2087 558.61C2090.11 540.42 2099.13 511.191 2074.41 504.273C2047.36 498.287 2036.4 536.222 2052.49 553.479Z" fill="#414143"/>
<path d="M2350.43 486.627C2373.67 477.92 2400.49 491.524 2406.63 515.778C2387.59 514.689 2368.16 499.064 2349.58 509.015C2342.5 525.339 2340.41 557.211 2363.26 560.864C2378.57 555.345 2393.26 548.193 2409.12 544.073C2401.5 563.352 2387.12 583.874 2363.26 579.521C2314.44 581.153 2307.91 500.697 2350.43 486.627Z" fill="#414143"/>
<path d="M2227.54 488.725C2232.83 487.793 2243.4 485.927 2248.68 484.994C2248.76 511.735 2249.46 538.554 2252.8 565.14C2262.44 563.041 2271.92 560.476 2281.33 557.522C2288.95 535.445 2285.6 511.58 2285.99 488.648C2291.75 488.57 2303.17 488.492 2308.92 488.492C2309.16 517.565 2309.24 546.716 2308.85 575.79C2284.36 570.193 2257.62 584.651 2235.16 572.913C2220.47 547.882 2226.92 516.399 2227.54 488.725Z" fill="#414143"/>
<path d="M2507.53 209.498C2530.46 146.532 2580.91 98.1804 2635.94 62.2664L2642.08 62.0332C2694.63 97.0921 2743.67 143.811 2766.53 203.979C2777.33 234.296 2779.82 275.34 2752.07 297.417C2724.63 317.24 2690.51 300.371 2660.74 297.106C2615.96 285.757 2569.71 293.686 2524.78 299.749C2496.8 278.916 2498.12 239.582 2507.53 209.498ZM2620.63 104.011C2592.64 127.798 2567.85 155.705 2546.94 185.866C2528.75 211.286 2534.81 243.702 2536.21 272.775C2571.03 278.139 2603.91 254.041 2638.12 266.712C2665.71 260.959 2692.68 269.277 2719.89 272.542C2736.21 274.641 2753.39 260.104 2749.43 242.925C2742.66 193.174 2709.71 151.663 2675.35 116.992C2661.82 103.078 2638.35 87.4528 2620.63 104.011Z" fill="#CFD03C"/>
<path d="M2596.37 232.897C2592.8 204.135 2569.79 153.062 2612.62 144.822C2613.79 171.486 2618.68 199.315 2610.83 225.434C2607.26 227.3 2600.03 231.031 2596.37 232.897Z" fill="#CFD03C"/>
<path d="M2625.91 150.108C2641.15 150.264 2656.38 150.497 2671.62 150.808C2664.08 190.376 2697.58 215.562 2720.28 242.148C2712.82 246.501 2705.74 251.243 2698.82 256.296C2687.71 241.914 2677.76 226.212 2663.84 214.396C2650.01 214.629 2638.27 224.89 2625.45 229.477C2624.51 203.047 2624.28 176.539 2625.91 150.108Z" fill="#CFD03C"/>
</svg>
