<svg width="1031" height="1031" viewBox="0 0 1031 1031" fill="none" xmlns="http://www.w3.org/2000/svg">
<path d="M446.657 92.7432C465.74 103.372 483.005 119.484 489.969 140.685C497.073 162.139 492.537 185.505 484.205 205.919C469.527 197.371 455.683 186.386 446.967 171.568C439.037 158.455 436.113 142.7 437.566 127.525C438.625 115.519 442.187 103.887 446.657 92.7432Z" fill="#74BC1F"/>
<path d="M556.384 114.91C564.482 105.959 574.267 98.648 584.736 92.6963C591.653 109.98 596.096 128.95 593.003 147.583C590.866 161.22 584.277 173.939 574.951 184.052C566.956 192.806 557.349 199.967 547.123 205.909C540.497 189.76 536.036 172.149 538.191 154.603C539.822 139.869 546.374 125.82 556.384 114.91Z" fill="#74BC1F"/>
<path d="M343.961 143.309C361.656 146.299 379.371 152.597 392.896 164.754C404.63 175.129 412.241 189.629 415.456 204.86C417.658 215.395 418.474 226.22 417.977 236.971C397.516 233.147 376.615 225.236 362.762 209.012C347.204 191.147 342.817 166.338 343.961 143.309Z" fill="#74BC1F"/>
<path d="M652.52 154.762C663.29 148.82 675.268 145.352 687.359 143.318C687.921 160.93 685.925 179.178 677.836 195.065C671.584 207.531 661.368 217.841 649.23 224.627C638.143 230.822 625.864 234.609 613.427 236.943C612.611 219.331 614.767 201.129 622.781 185.224C629.238 172.308 639.886 161.68 652.52 154.762Z" fill="#74BC1F"/>
<path d="M266.101 242.322C281.519 237.43 297.93 234.787 314.051 237.327C330.294 239.773 345.019 248.799 355.957 260.871C363.886 269.616 370.128 279.766 375.283 290.358C357.382 296.141 337.708 298.99 319.347 293.582C302.354 288.905 288.239 276.973 278.041 262.905C273.43 256.447 269.381 249.549 266.101 242.322Z" fill="#74BC1F"/>
<path d="M684.884 251.883C697.031 241.957 712.599 236.324 728.299 236.418C740.896 235.977 753.343 238.63 765.302 242.388C757.87 257.638 747.906 272.091 734.26 282.41C722.872 291.052 708.766 295.907 694.501 296.403C681.473 296.853 668.454 294.444 656.147 290.255C663.243 275.868 672.109 261.884 684.884 251.883Z" fill="#74BC1F"/>
<path d="M424.266 245.284C426.131 247.627 426.581 250.702 427.696 253.42C442.59 296.281 454.034 341.373 451.84 387.103C451.737 392.68 450.716 398.603 446.985 402.99C443.311 407.311 437.641 409.204 432.186 409.972C432.214 415.174 432.186 420.367 432.205 425.569C456.18 432.729 479.706 441.409 502.847 450.922C502.837 441.605 502.847 432.298 502.847 422.982C492.518 420.601 484.42 412.831 479.003 404.039C470.305 390.14 468.271 372.903 470.792 356.923C472.892 344.082 478.974 331.616 488.825 322.965C495.977 316.676 506.155 313.508 515.519 315.983C525.369 318.345 533.139 325.824 538.341 334.241C546.73 347.316 549.064 363.493 547.302 378.733C545.755 392.417 539.7 405.802 529.465 415.165C525.351 418.942 520.299 421.604 514.9 423.01C514.938 433.854 514.909 444.708 514.909 455.561C534.883 447.032 555.222 439.347 575.917 432.72C644.89 409.644 718.204 401.181 790.73 403.749C779.689 448.073 763.305 491.928 735.918 528.884C728.598 539.185 719.179 547.686 710.022 556.299C678.754 584.952 642.707 609.162 602.423 623.08C561.539 636.061 517.937 640.645 475.291 635.64C462.375 634.112 449.46 632.172 436.816 629.06C415.287 621.899 394.076 613.492 374.225 602.451C362.753 596.227 352.311 588.335 342.311 580.003C314.399 557.246 289.57 530.337 271.134 499.295C253.382 469.63 242.013 436.15 238.273 401.771C264.47 400.665 290.751 400.9 316.873 403.215C350.662 406.158 384.057 412.644 416.843 421.238C416.852 417.489 416.843 413.731 416.871 409.972C411.032 409.166 404.874 406.992 401.312 402.024C398.753 398.51 397.647 394.161 397.366 389.887C395.651 368.001 397.591 345.938 401.678 324.418C406.43 297.35 414.434 270.919 424.266 245.284ZM271.481 425.409C276.833 444.38 283.834 462.9 292.617 480.558C307.304 510.27 327.502 537.582 353.117 558.755C367.027 545.821 382.154 534.292 397.497 523.129C425.325 502.95 454.793 485.085 485.292 469.236C462.582 459.02 439.112 450.397 415.006 444.08C419.448 453.124 424.125 462.066 428.559 471.12C432.036 478.346 425.981 487.663 418.061 487.766C413.056 488.235 408.163 485.132 406.13 480.615C398.875 465.974 391.443 451.419 384.179 436.788C368.386 433.507 352.443 430.939 336.397 429.28C348.881 454.24 361.609 479.077 374.15 504.009C377.824 511.048 372.472 520.542 364.618 521.208C359.603 521.958 354.336 519.193 352.19 514.591C337.54 485.282 322.684 456.067 308.053 426.74C295.878 425.962 283.684 425.344 271.481 425.409ZM713.752 426.768C663.495 445.251 615.441 469.817 571.23 500.054C543.206 518.64 517.103 539.944 492.021 562.289C476.659 576.46 461.597 590.997 447.557 606.472C476.997 613.454 507.449 617.082 537.704 614.804C552.569 597.483 567.884 580.509 584.221 564.547C633.437 516.156 690.639 474.654 755.311 449.591C757.429 442.393 759.688 435.241 761.562 427.977C749.246 426.796 736.884 426.14 724.512 426.347C720.931 426.515 717.257 425.878 713.752 426.768ZM553.909 460.191C518.227 474.016 484.026 491.496 451.456 511.545C433.91 522.155 417.058 533.861 400.262 545.605C389.268 553.422 378.499 561.576 368.47 570.612C386.119 582.805 405.417 592.591 425.662 599.639C427.715 600.229 429.58 601.729 431.82 601.401C430.218 600.145 428.156 599.986 426.234 599.63C439.375 585.599 452.843 571.877 466.959 558.821C492.565 534.47 520.299 512.473 548.848 491.693C578.335 470.558 609.227 451.4 641.244 434.36C611.355 439.956 582.14 448.916 553.909 460.191ZM643.082 540.01C616.36 561.389 591.653 585.233 568.756 610.652C601.326 604.044 632.312 590.397 659.652 571.568C673.29 562.71 685.306 551.669 696.965 540.403C702.551 534.77 708.344 529.268 713.105 522.904C718.045 516.531 723.087 510.242 727.989 503.84C733.2 496.436 737.859 488.628 741.936 480.53C705.888 494.561 673.29 516.09 643.082 540.01Z" fill="#74BC1F"/>
<path d="M472.301 252.492C502.04 247.272 533.392 247.131 562.223 256.991C577.922 262.333 592.422 270.966 604.962 281.791C617.494 292.889 627.241 306.948 633.783 322.319C643.456 344.982 646.259 370.054 645.331 394.498C642.791 399.007 637.148 402.878 631.778 401.134C628.413 400.028 625.873 397.432 623.614 394.826C625.62 375.472 623.848 355.508 616.838 337.259C612.142 324.418 604.053 313.087 594.868 303.077C580.546 287.743 561.267 277.264 540.656 273.365C520.533 269.625 499.744 270.891 479.743 274.827C477.324 275.24 474.953 276.027 472.507 276.111C469.001 273.759 465.73 270.432 464.831 266.176C463.94 261.752 466.03 257.394 468.645 253.954C469.433 252.726 471.035 252.801 472.301 252.492Z" fill="#74BC1F"/>
<path d="M284.49 333.322C301.146 330.126 318.748 333.238 333.594 341.336C342.348 345.938 350.418 351.759 357.935 358.17C346.332 368.498 332.985 377.271 317.96 381.629C303.245 386.044 287.133 384.901 272.868 379.371C260.215 374.591 248.883 366.877 238.62 358.151C251.723 346.575 267.038 336.547 284.49 333.322Z" fill="#74BC1F"/>
<path d="M709.928 336.021C725.946 330.37 743.97 330.857 759.791 336.977C771.994 341.879 782.951 349.443 792.736 358.16C780.908 368.151 767.608 376.802 752.686 381.31C739.64 385.341 725.374 385.369 712.337 381.329C697.706 376.905 684.678 368.329 673.431 358.141C684.275 348.862 696.366 340.745 709.928 336.021Z" fill="#74BC1F"/>
<path d="M650.13 940.581C650.626 938.96 652.295 938.285 653.616 937.488C654.019 939.607 654.525 942.409 652.398 943.815C650.167 944.911 649.567 942.147 650.13 940.581Z" fill="#74BC1F"/>
<path d="M643.878 952.25C637.992 949.279 639.604 940.928 644.487 937.816C646.587 940.6 648.48 943.984 647.918 947.602C647.636 949.851 645.49 950.994 643.878 952.25Z" fill="#74BC1F"/>
<path d="M655.679 943.646C657.197 940.403 660.834 939.044 664.161 938.632C664.274 941.987 664.255 945.886 661.752 948.473C660.309 950.16 657.919 949.842 655.96 950.095C655.135 948.051 654.573 945.689 655.679 943.646Z" fill="#74BC1F"/>
<path d="M633.737 942.793C636.07 943.656 639.201 945.933 637.392 948.726C633.99 949.767 632.743 945.352 633.737 942.793Z" fill="#74BC1F"/>
<path d="M665.633 948.614C666.739 945.427 670.094 945.352 672.84 946.299C671.922 947.761 670.966 949.598 669.101 949.945C667.742 950.254 666.711 949.204 665.633 948.614Z" fill="#74BC1F"/>
<path d="M650.823 946.186C653.26 947.714 654.863 952.194 651.432 953.553C648.143 952.41 649.267 948.314 650.823 946.186Z" fill="#74BC1F"/>
<path d="M628.938 948.801C632.293 949.457 635.499 951.351 637.261 954.35C638.292 956.374 638.02 959.233 636.323 960.826C633.08 961.351 629.931 958.98 629.031 955.934C628.216 953.619 628.703 951.154 628.938 948.801Z" fill="#74BC1F"/>
<path d="M658.95 956.046C656.766 953.713 659.878 951.098 662.249 950.713C662.54 952.935 662.033 956.562 658.95 956.046Z" fill="#74BC1F"/>
<path d="M669.71 952.841C672.1 951.304 675.015 951.679 677.714 951.763C677.33 955.39 675.352 959.055 672.006 960.705C670.047 961.445 668.088 960.545 666.261 959.899C666.167 957.152 667.198 954.219 669.71 952.841Z" fill="#74BC1F"/>
<path d="M640.458 953.122C643.466 953.722 645.744 956.946 643.597 959.702C640.533 958.943 639.473 955.962 640.458 953.122Z" fill="#74BC1F"/>
<path d="M623.914 961.679C626.135 960.02 629.313 959.421 631.394 961.679C629.95 965.1 625.864 963.957 623.914 961.679Z" fill="#74BC1F"/>
<path d="M676.289 962.335C678.586 961.885 680.085 963.947 681.238 965.597C679.073 966.178 675.633 967.434 674.518 964.622C673.693 963.376 675.024 962.176 676.289 962.335Z" fill="#74BC1F"/>
<path d="M626.688 969.121C628.797 966.319 631.712 963.282 635.499 963.46C637.42 963.441 638.742 965.035 640.148 966.131C639.332 967.753 638.648 969.684 636.895 970.546C633.568 972.392 629.622 971.108 626.688 969.121Z" fill="#74BC1F"/>
<path d="M664.348 964.51C666.579 963.695 669.128 963.038 671.378 964.21C674.246 965.466 675.633 968.437 676.879 971.118C673.833 972.289 670.3 972.364 667.301 971.033C664.845 969.843 664.329 966.956 664.348 964.51Z" fill="#74BC1F"/>
<path d="M642.257 967.472C643.231 966.872 645.621 966.403 645.509 968.268C645.818 970.958 642.725 972.102 640.598 972.467C640.86 970.743 640.851 968.728 642.257 967.472Z" fill="#74BC1F"/>
<path d="M660.665 971.033C660.356 968.831 663.374 969.093 664.152 970.49C665.417 971.83 665.22 973.742 665.079 975.448C663.196 974.585 660.271 973.63 660.665 971.033Z" fill="#74BC1F"/>
<path d="M13.8252 717.136C30.9773 717.136 48.12 717.117 65.2627 717.145C65.244 780.486 65.2533 843.817 65.2627 907.149C48.12 907.177 30.9773 907.158 13.8252 907.158C13.8252 843.817 13.8252 780.476 13.8252 717.136Z" fill="#046241"/>
<path d="M221.909 717.136C236.746 717.136 251.583 717.126 266.42 717.136C266.42 740.708 266.439 764.28 266.402 787.853C272.737 778.143 281.773 769.37 293.386 766.68C307.529 763.465 323.435 766.549 334.522 776.165C342.396 782.979 346.585 793.064 348.404 803.121C350.062 811.809 349.819 820.704 349.491 829.505C349.472 855.393 349.491 881.271 349.481 907.158C334.644 907.149 319.798 907.177 304.961 907.149C304.98 883.455 304.961 859.751 304.961 836.057C305.055 828.915 305.43 821.192 301.399 814.931C297.772 808.913 290.293 806.073 283.497 807.573C273.403 808.857 267.376 819.12 266.439 828.465C266.392 854.69 266.439 880.924 266.42 907.158C251.574 907.158 236.737 907.158 221.9 907.158C221.9 843.817 221.89 780.476 221.909 717.136Z" fill="#046241"/>
<path d="M535.398 726.883C550.198 726.808 564.988 726.893 579.788 726.836C579.778 740.305 579.956 753.783 579.703 767.261C586.686 767.561 593.678 767.308 600.67 767.392C600.679 778.48 600.67 789.568 600.67 800.656C593.678 800.75 586.686 800.497 579.703 800.797C580.003 818.174 579.685 835.56 579.853 852.947C580.266 859.751 582.262 868.074 589.217 871.008C594.69 872.62 600.548 871.411 606.181 871.786C606.181 883.577 606.172 895.367 606.181 907.149C594.381 907.168 582.581 907.149 570.771 907.168C561.239 907.149 551.248 903.906 544.893 896.511C537.835 888.469 535.792 877.381 535.436 867.006C535.389 844.895 535.436 822.776 535.417 800.665C521.63 800.665 507.843 800.665 494.065 800.665C494.055 836.16 494.065 871.664 494.055 907.158C479.218 907.168 464.381 907.149 449.554 907.168C449.516 900.119 449.554 893.08 449.525 886.051C442.102 895.311 432.495 903.447 420.761 906.409C407.957 909.652 394.442 906.165 382.979 900.194C373.231 894.008 367.917 882.817 365.958 871.758C364.224 863.697 364.805 855.44 364.721 847.267C364.721 820.686 364.712 794.095 364.721 767.514C380.177 767.598 395.632 767.317 411.079 767.655C410.872 792.642 411.069 817.63 410.985 842.618C410.713 849.994 411.866 858.355 417.714 863.519C422.954 868.393 431.108 868.505 437.378 865.712C443.302 862.975 446.798 856.939 448.569 850.903C449.9 847.023 449.497 842.871 449.544 838.85C449.544 815.034 449.535 791.218 449.544 767.392C478.169 767.383 506.793 767.392 535.408 767.392C535.417 753.886 535.436 740.38 535.398 726.883Z" fill="#046241"/>
<path d="M901.666 735.778C904.713 730.088 911.433 727.567 917.609 727.567C927.17 727.539 936.73 727.567 946.29 727.567C946.065 732.357 947.012 737.362 945.268 741.964C943.366 748.131 938.539 754.27 931.65 754.682C920.909 754.823 910.167 754.692 899.436 754.739C899.717 748.412 898.292 741.533 901.666 735.778Z" fill="#046241"/>
<path d="M77.3254 767.392C92.1249 767.392 106.924 767.383 121.724 767.402C121.752 774.478 121.677 781.554 121.771 788.631C128.913 779.849 137.789 771.685 148.971 768.648C161.727 765.115 175.392 768.001 187.08 773.681C195.281 778.368 200.745 786.812 203.407 795.717C206.716 806.308 206.903 817.546 206.566 828.54C206.528 854.746 206.575 880.952 206.547 907.158C191.167 907.158 175.777 907.158 160.396 907.158C160.387 883.436 160.396 859.714 160.396 835.991C160.424 829.805 160.818 823.338 158.175 817.574C155.653 811.472 149.289 806.805 142.55 807.301C137.189 807.208 131.659 809.213 128.154 813.384C123.552 818.848 121.527 826.169 121.705 833.245C121.846 857.876 121.883 882.517 121.958 907.158C107.084 907.168 92.2093 907.158 77.3254 907.168C77.316 860.576 77.316 813.984 77.3254 767.392Z" fill="#046241"/>
<path d="M634.684 778.124C643.344 771.216 654.479 768.067 665.398 767.373C681.444 767.083 697.94 766.83 713.321 772.069C722.413 775.022 731.176 780.551 735.881 789.128C739.424 795.398 740.568 802.727 740.343 809.86C740.315 833.592 740.333 857.324 740.324 881.055C740.324 890.222 742.77 899.407 747.719 907.168C731.279 907.149 714.83 907.168 698.39 907.158C698.39 902.5 698.381 897.832 698.39 893.184C689.749 901.985 678.548 908.386 666.317 910.42C655.548 912.107 644.197 911.17 634.197 906.643C625.93 903.081 618.647 896.689 615.104 888.3C610.896 878.6 611.111 867.634 612.817 857.38C614.832 846.826 623.099 838.681 632.369 833.939C647.468 826.244 664.545 823.9 681.229 822.448C686.196 821.791 691.961 820.198 694.444 815.399C697.303 808.557 693.301 799.681 685.99 797.769C680.188 796.523 673.478 796.045 668.304 799.484C664.096 802.306 662.362 807.376 661.462 812.138C646.775 812.156 632.078 812.147 617.391 812.147C618.975 799.288 624.271 786.316 634.684 778.124ZM664.864 850.528C660.075 852.262 655.004 855.112 653.092 860.135C651.386 865.834 651.93 872.704 656.129 877.231C659.09 880.774 663.852 881.899 668.22 882.489C676.739 883.445 684.641 877.765 688.802 870.689C693.16 863.406 693.516 854.549 692.589 846.32C683.235 846.592 673.768 847.501 664.864 850.528Z" fill="#046241"/>
<path d="M756.032 767.392C770.869 767.392 785.706 767.392 800.543 767.392C800.543 774.506 800.553 781.61 800.534 788.724C807.414 780.139 815.971 772.219 826.731 769.004C839.928 764.993 854.221 768.011 866.331 773.962C873.754 778.33 878.9 785.875 881.636 793.936C885.348 805.052 885.629 816.946 885.273 828.558C885.245 854.755 885.254 880.943 885.264 907.139C869.874 907.186 854.484 907.158 839.094 907.158C839.103 880.98 839.084 854.802 839.103 828.624C839.084 821.576 836.713 813.74 830.424 809.841C825.616 806.533 819.28 806.739 813.946 808.51C805.549 811.631 801.059 820.91 800.562 829.411C800.515 855.327 800.572 881.243 800.543 907.158C785.706 907.158 770.869 907.158 756.032 907.158C756.023 860.576 756.023 813.984 756.032 767.392Z" fill="#046241"/>
<path d="M899.548 767.401C914.422 767.383 929.306 767.392 944.181 767.392C944.19 813.984 944.19 860.576 944.181 907.167C929.306 907.158 914.422 907.167 899.548 907.158C899.548 860.576 899.548 813.984 899.548 767.401Z" fill="#046241"/>
<path d="M694.763 944.19C700.602 944.218 706.451 944.134 712.3 944.199C717.033 944.359 722.253 945.802 725.197 949.786C727.418 952.785 727.474 956.684 727.155 960.246C732.376 954.228 741.852 953.3 748.553 957.274C753.455 960.358 754.749 966.535 754.824 971.943C748.141 971.99 741.449 971.887 734.766 972.008C735.338 974.192 735.6 977.604 738.553 977.745C740.858 978.494 742.555 976.892 743.708 975.129C747.297 975.092 750.897 975.111 754.496 975.139C751.412 985.543 736.894 987.745 729.189 981.259C725.131 977.585 723.95 971.652 724.784 966.413C720.098 971.765 712.393 971.502 705.898 971.352C705.879 975.532 705.879 979.713 705.879 983.902C702.168 983.893 698.456 983.893 694.754 983.902C694.754 970.659 694.754 957.424 694.763 944.19ZM705.907 952.822C705.879 956.028 705.87 959.243 705.889 962.458C708.269 962.439 710.678 962.636 713.049 962.27C716.977 961.202 717.042 954.528 713.19 953.31C710.828 952.597 708.326 952.888 705.907 952.822ZM734.888 966.432C737.972 966.45 741.065 966.45 744.158 966.432C743.942 963.592 741.571 961.024 738.562 961.651C736.106 961.792 735.478 964.529 734.888 966.432Z" fill="#046241"/>
<path d="M779.942 944.181C783.485 944.181 787.037 944.181 790.59 944.19C790.571 948.764 790.637 953.347 790.533 957.93C795.595 952.766 805.858 954.322 807.826 961.708C809.073 969.009 808.107 976.526 808.379 983.912C804.827 983.893 801.284 983.893 797.741 983.902C797.732 978.982 797.722 974.061 797.769 969.14C797.694 967.294 797.929 965.091 796.401 963.742C794.301 962.382 791.021 963.704 790.833 966.338C790.252 972.158 790.74 978.035 790.599 983.893C787.037 983.893 783.485 983.902 779.933 983.902C779.933 970.659 779.914 957.415 779.942 944.181Z" fill="#046241"/>
<path d="M928.613 947.32C931.471 946.102 934.714 946.796 937.751 946.664C937.582 948.829 937.47 951.847 935.024 952.719C932.352 953 929.662 952.822 926.991 952.906C927.001 950.976 926.607 948.436 928.613 947.32Z" fill="#046241"/>
<path d="M846.807 947.724C850.397 947.695 853.996 947.695 857.595 947.705C857.577 950.367 857.595 953.038 857.67 955.718C859.517 955.681 861.363 955.662 863.228 955.653C863.219 958.193 863.219 960.733 863.219 963.292C861.335 963.273 859.47 963.273 857.614 963.282C857.764 967.003 857.155 970.827 858.027 974.492C858.748 976.61 861.288 976.104 863.013 976.132C863.004 978.757 862.994 981.39 862.9 984.034C857.933 984.427 851.006 985.496 848.138 980.275C845.889 974.886 847.36 968.831 846.939 963.16C844.464 963.151 842.009 963.16 839.562 963.179C839.553 970.087 839.562 976.985 839.562 983.902C836.272 983.893 832.992 983.893 829.721 983.902C829.73 983.181 829.749 981.737 829.758 981.025C826.45 984.502 821.079 985.899 816.627 983.893C812.803 982.215 811.107 977.847 811.116 973.902C811.041 967.819 811.088 961.726 811.125 955.653C814.621 955.662 818.127 955.662 821.632 955.672C821.717 961.342 821.482 967.031 821.717 972.702C821.81 974.398 822.72 976.732 824.81 976.545C827.528 977.079 828.652 973.883 828.802 971.737C829.055 966.385 828.812 961.023 828.906 955.672C834.885 955.653 840.865 955.69 846.845 955.643C846.817 952.991 846.817 950.357 846.807 947.724Z" fill="#046241"/>
<path d="M476.641 948.857C477.953 948.838 479.284 948.829 480.615 948.829C479.668 952.803 478.787 956.796 477.812 960.779C480.905 958.82 484.505 956.833 488.291 957.893C491.253 958.549 493.071 961.538 493.221 964.435C493.765 971.249 490.653 978.897 484.233 981.952C481.168 983.414 477.653 982.918 474.56 981.821C472.695 981.39 470.802 982.365 468.937 982.393C471.42 971.192 474.092 960.039 476.641 948.857ZM476.8 965.428C475.722 969.59 474.907 973.817 473.848 977.988C477.194 979.618 481.637 980.331 484.701 977.716C488.394 974.567 489.585 969.196 488.891 964.557C488.366 961.332 484.43 960.592 481.833 961.698C479.978 962.541 477.241 963.085 476.8 965.428Z" fill="#046241"/>
<path d="M594.212 950.245C597.146 948.183 600.895 948.661 604.26 948.942C603.998 950.113 603.735 951.294 603.482 952.485C601.204 952.138 598.693 951.416 596.565 952.672C594.559 953.825 594.184 956.309 593.378 958.277C595.825 958.277 598.29 958.277 600.755 958.258C600.558 959.289 600.37 960.33 600.192 961.389C597.765 961.426 595.346 961.426 592.928 961.417C591.326 968.315 589.76 975.214 588.251 982.14C586.902 982.177 585.561 982.234 584.23 982.299C585.693 975.317 587.352 968.371 588.926 961.417C588.214 961.417 586.799 961.426 586.096 961.436C586.377 960.367 586.658 959.308 586.949 958.268C587.595 958.268 588.889 958.268 589.545 958.268C590.388 955.268 591.429 951.997 594.212 950.245Z" fill="#046241"/>
<path d="M661.068 959.064C663.168 957.106 664.424 954.481 666.186 952.25C664.986 959.477 658.247 963.835 655.792 970.509C654.611 973.292 654.648 976.357 654.657 979.338C652.483 978.532 650.327 977.641 648.218 976.695C648.603 974.127 649.231 971.615 650.234 969.224C648.031 966.609 645.791 963.882 645.088 960.442C647.262 962.617 649.296 964.96 651.639 966.984C654.648 964.173 658.06 961.858 661.068 959.064Z" fill="#046241"/>
<path d="M766.54 959.261C769.267 955.878 773.522 954.875 777.693 955.409C777.703 958.483 777.703 961.567 777.684 964.66C774.3 964.416 769.801 964.06 768.217 967.847C766.521 972.974 767.758 978.569 767.393 983.893C763.831 983.893 760.279 983.902 756.726 983.893C756.773 974.464 756.642 965.044 756.801 955.615C760.054 955.672 763.316 955.672 766.577 955.672C766.568 956.571 766.549 958.371 766.54 959.261Z" fill="#046241"/>
<path d="M864.41 963.217C865.656 959.439 868.656 956.075 872.714 955.39C877.616 954.631 883.08 954.462 887.514 957.049C890.522 959.102 891.413 963.01 891.656 966.441C891.844 972.271 891.356 978.129 892.256 983.921C889.088 983.893 885.92 983.883 882.762 983.912C882.64 982.749 882.537 981.606 882.434 980.481C878.909 984.746 872.527 986.077 867.625 983.527C862.282 980.94 861.701 972.111 866.931 969.103C871.383 966.628 876.613 966.384 881.59 965.953C881.271 964.173 881.29 961.464 878.994 961.126C877.035 960.442 875.563 961.876 874.42 963.235C871.074 963.32 867.737 963.292 864.41 963.217ZM874.148 973.358C872.78 975.56 874.626 978.616 877.297 978.213C880.662 977.979 881.571 974.164 881.487 971.39C879.022 971.689 876.004 971.399 874.148 973.358Z" fill="#046241"/>
<path d="M904.778 958.558C909.455 953.45 919.924 953.394 922.389 960.714C924.461 968.231 923.017 976.188 923.448 983.893C919.887 983.902 916.335 983.902 912.792 983.893C912.604 977.735 913.138 971.539 912.529 965.419C911.779 962.017 906.521 962.635 906.034 965.906C905.144 971.839 905.875 977.903 905.64 983.893C902.116 983.902 898.601 983.902 895.096 983.893C895.096 974.482 895.087 965.072 895.096 955.671C898.339 955.662 901.582 955.662 904.834 955.671C904.815 956.393 904.787 957.836 904.778 958.558Z" fill="#046241"/>
<path d="M651.911 956.515C656.129 954.968 657.047 962.907 653.083 963.291C649.783 963.235 649.24 957.94 651.911 956.515Z" fill="#046241"/>
<path d="M927.198 983.902C927.273 974.445 927.029 964.998 927.329 955.55C930.75 955.7 934.18 955.681 937.62 955.662C937.592 965.091 937.695 974.52 937.564 983.949C934.105 983.874 930.656 983.893 927.198 983.902Z" fill="#046241"/>
<path d="M365.602 960.967C368.836 958.811 372.8 956.571 376.784 958.118C378.405 958.54 379.155 960.124 380.027 961.417C383.738 958.793 388.64 956.299 393.158 958.408C395.979 959.889 396.176 963.535 395.501 966.3C394.357 971.614 393.027 976.891 391.836 982.196C390.496 982.187 389.165 982.196 387.843 982.206C389.006 976.966 390.44 971.783 391.424 966.516C391.724 964.791 391.864 962.232 389.83 961.529C386.353 960.423 383.138 962.589 380.289 964.294C379.136 970.284 377.571 976.188 376.306 982.149C374.965 982.168 373.625 982.206 372.294 982.253C373.475 976.291 375.406 970.471 376.053 964.426C376.221 961.445 372.547 960.733 370.335 961.52C368.404 962.242 366.136 962.926 364.871 964.622C363.212 970.405 362.125 976.338 360.7 982.187C359.36 982.187 358.019 982.187 356.688 982.215C358.591 974.229 360.372 966.225 362.293 958.258C363.278 958.268 365.246 958.268 366.239 958.277C366.08 958.952 365.761 960.292 365.602 960.967Z" fill="#046241"/>
<path d="M400.581 975.832C399.382 968.653 403.562 960.648 410.591 958.287C414.35 957.143 419.336 957.19 421.914 960.63C423.976 963.573 423.095 967.331 422.513 970.602C416.524 970.565 410.535 970.584 404.555 970.593C404.34 973.517 404.565 977.191 407.62 978.625C412.044 980.631 416.984 978.71 420.939 976.479C420.658 977.847 420.405 979.244 420.18 980.641C415.606 982.665 410.226 983.668 405.446 981.784C402.934 980.809 400.994 978.504 400.581 975.832ZM405.127 967.631C409.86 967.706 414.603 967.669 419.345 967.669C419.139 965.879 419.599 963.779 418.296 962.336C416.684 960.367 413.731 960.574 411.51 961.089C408.323 961.904 406.336 964.763 405.127 967.631Z" fill="#046241"/>
<path d="M434.782 960.92C437.866 959.008 441.39 956.843 445.177 957.865C447.182 958.127 448.251 959.927 449.347 961.408C452.862 958.802 457.474 956.515 461.888 958.183C464.709 959.271 465.45 962.71 464.859 965.4C463.772 971.043 462.244 976.591 461.045 982.206C459.704 982.196 458.364 982.196 457.042 982.206C458.205 977.088 459.536 972.008 460.576 966.872C460.895 965.063 461.185 962.588 459.236 961.595C455.815 960.461 452.319 962.317 449.647 964.332C448.091 970.227 446.92 976.245 445.467 982.178C444.483 982.196 442.524 982.252 441.54 982.271C442.599 976.901 444.108 971.624 445.092 966.244C445.448 964.51 445.336 962.101 443.302 961.539C439.881 960.461 436.694 962.635 433.939 964.369C432.73 970.321 431.192 976.207 429.937 982.159C428.587 982.168 427.247 982.196 425.906 982.234C427.781 974.229 429.552 966.197 431.53 958.221C432.514 958.24 434.473 958.286 435.448 958.305C435.279 958.961 434.951 960.273 434.782 960.92Z" fill="#046241"/>
<path d="M497.308 972.008C497.758 965.232 502.932 958.53 509.914 957.743C513.176 957.321 517.15 957.93 518.978 960.995C520.796 963.863 519.831 967.387 519.456 970.527C513.42 970.658 507.384 970.527 501.348 970.611C501.226 973.451 501.385 977.004 504.272 978.503C508.705 980.772 513.804 978.7 517.815 976.46C517.487 977.904 517.187 979.375 516.888 980.847C511.826 982.702 505.772 983.986 500.87 981.025C497.795 979.188 496.896 975.335 497.308 972.008ZM501.966 967.631C506.709 967.706 511.451 967.669 516.194 967.669C516.231 965.241 516.203 961.857 513.335 961.079C508.415 959.486 503.485 962.991 501.966 967.631Z" fill="#046241"/>
<path d="M567.407 958.324C570.931 957.153 575.308 957.312 578.12 959.992C579.873 961.605 580.519 964.051 580.566 966.366C580.669 971.343 578.879 976.563 575.036 979.872C571.709 982.853 566.667 983.696 562.533 982.093C559.628 980.941 557.894 977.848 557.791 974.811C557.275 968.109 560.734 960.592 567.407 958.324ZM569.225 961.108C565.148 962.092 562.777 966.188 562.168 970.087C561.708 972.824 561.437 976.17 563.592 978.307C566.601 980.734 571.353 979.516 573.546 976.545C576.105 973.171 576.986 968.578 576.114 964.473C575.411 961.511 571.906 960.377 569.225 961.108Z" fill="#046241"/>
<path d="M528.182 958.277C529.184 958.277 531.2 958.277 532.202 958.277C531.987 959.167 531.546 960.929 531.331 961.82C534.733 959.42 538.735 957.715 542.99 958.389C542.691 959.702 542.4 961.023 542.128 962.363C538.117 961.604 533.421 962.401 530.637 965.513C529.091 971.005 528.069 976.647 526.719 982.205C525.36 982.187 524.02 982.187 522.68 982.205C524.535 974.229 526.335 966.253 528.182 958.277Z" fill="#046241"/>
<path d="M625.762 978.785C631.01 975.982 637.478 973.873 643.223 976.507C647.516 978.906 651.977 981.343 656.982 981.746C659.475 982.205 662.503 981.465 664.462 983.462C662.85 985.786 659.522 985.908 656.992 986.433C652.155 987.173 647.656 984.999 642.961 984.511C652.53 991.175 667.733 988.898 674.116 978.831C674.894 977.144 676.806 976.947 678.436 976.807C675.896 984.839 669.064 990.894 661.416 994.006C647.975 999.142 631.282 992.159 625.762 978.785Z" fill="#046241"/>
<path d="M987.998 728.27C997.877 728.261 1007.77 728.251 1017.65 728.27C1017.63 747.943 1017.64 767.626 1017.65 787.3C1011.9 787.3 1006.14 787.328 1000.4 787.281C1000.45 773.39 1000.41 759.5 1000.42 745.6C996.284 745.6 992.15 745.591 988.017 745.61C987.989 739.827 988.007 734.044 987.998 728.27Z" fill="#949598"/>
</svg>
