<svg width="1479" height="1120" viewBox="0 0 1479 1120" fill="none" xmlns="http://www.w3.org/2000/svg">
<path d="M598.181 13.9724C655.567 7.68858 713.322 4.25095 771.003 6.39485C766.529 7.61465 762.018 8.83445 757.544 10.0173C741.496 10.4978 724.599 7.68858 709.365 14.0463C702.525 17.0774 702.821 27.3902 706.851 32.4543C716.28 35.0417 726.189 34.5981 735.876 34.8939C724.192 35.3005 712.582 37.1486 701.268 40.1057C583.059 45.3546 464.554 64.6127 353.481 106.456C351.077 97.2146 362.651 97.5104 368.16 94.0727C381.064 89.9328 387.276 76.8107 396.335 67.8285C383.874 67.6067 371.894 73.5209 359.434 70.6008C435.824 40.7711 516.984 24.2113 598.181 13.9724Z" fill="#D9A61A"/>
<path d="M771.003 6.39464C795.813 5.80322 820.697 8.39068 845.36 10.6824C836.707 13.6395 827.759 15.7095 818.664 16.7814C818.405 22.6956 818.183 28.6098 818.072 34.524C825.911 36.0026 834.23 37.2963 839.85 43.654C821.659 42.2864 803.356 42.3603 785.164 40.66C776.808 36.4831 768.082 33.1564 759.06 30.8276C758.505 23.8785 758.025 16.9293 757.544 10.0171C762.018 8.83424 766.529 7.61444 771.003 6.39464Z" fill="#B68417"/>
<path d="M709.366 14.0461C724.599 7.68833 741.497 10.4976 757.544 10.017C758.025 16.9293 758.505 23.8784 759.06 30.8276C768.082 33.1563 776.808 36.4831 785.164 40.66C757.211 39.2184 729.221 40.2534 701.268 40.1055C712.582 37.1484 724.193 35.3002 735.877 34.8936C726.189 34.5979 716.28 35.0415 706.851 32.454C702.821 27.39 702.525 17.0771 709.366 14.0461Z" fill="#C0931A"/>
<path d="M845.359 10.6826C876.344 12.0872 907.514 16.9295 938.204 21.9565C938.093 23.546 937.871 26.6879 937.76 28.2773C945.229 31.0127 956.58 29.7928 960.98 37.1486C962.496 50.4925 947.041 52.4516 937.834 56.111C905.333 50.6404 872.573 47.2028 839.85 43.6542C834.23 37.2965 825.91 36.0027 818.072 34.5242C818.183 28.61 818.405 22.6958 818.663 16.7816C827.759 15.7097 836.707 13.6397 845.359 10.6826Z" fill="#A97211"/>
<path d="M938.204 21.9565C957.837 24.8397 977.212 29.2014 996.698 32.9348L996.772 33.748C996.92 35.1526 997.253 37.8879 997.4 39.2556C1004.72 41.7321 1012.19 43.6912 1019.66 45.6503C1020.58 51.9341 1021.51 58.181 1022.32 64.4648C1019.03 66.7196 1015.74 68.9744 1012.45 71.2292C987.713 65.5737 962.903 60.177 937.834 56.111C947.041 52.4516 962.496 50.4925 960.98 37.1486C956.58 29.7928 945.229 31.0126 937.76 28.2773C937.871 26.6879 938.093 23.546 938.204 21.9565Z" fill="#B37F13"/>
<path d="M997.401 39.2556C997.253 37.888 996.92 35.1527 996.772 33.748C1070.94 49.6424 1144.04 73.7058 1211.41 108.821C1202.94 109.376 1194.55 108.008 1186.6 105.273C1195.81 115.179 1203.43 126.675 1213.93 135.324C1218.84 139.686 1225.31 143.382 1226.02 150.664C1158.61 115.179 1086.51 88.8979 1012.45 71.2292C1015.74 68.9745 1019.03 66.7197 1022.32 64.4649C1021.51 58.1811 1020.58 51.9342 1019.66 45.6504C1012.19 43.6913 1004.72 41.7322 997.401 39.2556Z" fill="#C18A17"/>
<path d="M353.481 106.456C464.554 64.6127 583.059 45.3546 701.268 40.1058C729.221 40.2537 757.211 39.2187 785.164 40.6603C803.356 42.3606 821.659 42.2867 839.85 43.6543C872.573 47.2028 905.333 50.6405 937.834 56.1111C962.903 60.1771 987.713 65.5738 1012.45 71.2292C1086.51 88.8979 1158.61 115.179 1226.02 150.664C1300.78 192.396 1371.96 247.176 1414.33 323.1C1440.95 370.598 1453.3 426.746 1445.02 480.861C1437.07 537.046 1408.56 588.647 1371.14 630.638C1333.28 673.737 1286.29 707.707 1236.96 736.465C1148.78 785.442 1051.61 816.861 952.624 834.899C923.969 839.889 895.165 843.549 866.398 847.504C842.291 848.834 818.257 851.459 794.075 852.309C771.816 852.938 749.557 853.344 727.261 853.233C719.571 852.938 711.88 852.938 704.226 853.122C575.405 848.687 446.399 825.473 326.785 776.607C291.77 761.194 257.161 744.745 224.549 724.599C190.717 703.234 158.216 679.467 129.782 651.227C74.9854 597.888 33.3516 525.402 34.165 447.15C33.0927 369.97 73.2845 298.002 127.083 244.922C153.964 217.569 184.801 194.503 216.822 173.545C231.759 164.156 247.326 155.876 262.486 146.931C292.14 131.961 322.422 118.247 353.481 106.456ZM745.083 204.853C721.9 271.757 723.49 344.724 735.655 413.735C730.885 421.608 722.824 428.188 721.087 437.466C711.843 425.12 707.776 409.965 704.485 395.142C696.498 352.782 698.495 309.091 703.745 266.545C695.463 279.704 690.989 294.749 686.589 309.497C670.801 367.53 673.315 429.407 687.365 487.477C684.222 491.063 681.08 494.648 677.974 498.234C676.162 492.985 674.387 487.773 672.612 482.524L671.836 482.413C652.979 416.581 644.696 348.42 637.079 280.555C633.049 287.097 632.531 294.97 631.163 302.363C623.583 351.858 627.281 402.202 632.864 451.697C629.315 461.085 619.738 467.295 613.563 475.205C605.244 455.836 596.777 436.541 588.272 417.246C590.861 407.599 593.449 397.988 595.557 388.23C590.676 391.15 585.869 394.255 581.099 397.323C576.071 388.415 575.923 375.477 567.234 369.268C567.825 383.092 571.264 396.584 572.854 410.334C570.192 419.316 562.464 426.007 557.805 434.102C551.704 442.456 546.01 451.105 539.724 459.311C533.771 451.105 528.41 442.53 523.344 433.769C531.664 390.263 538.393 346.387 543.126 302.363C532.736 309.46 526.08 320.475 520.053 331.232C504.228 361.062 494.282 393.516 485.112 425.859C483.892 431.477 481.304 437.096 482.191 442.973L481.415 440.238C479.159 449.035 477.495 458.017 475.277 466.852C477.162 422.717 482.709 378.398 477.643 334.189C477.089 317.444 473.798 300.626 469.398 284.436C466.994 277.782 466.144 269.724 460.117 265.215C456.863 319.958 453.868 374.997 443.293 428.89C440.224 440.349 439.041 453.656 430.019 462.268C428.651 397.323 428.651 331.638 415.562 267.765C412.863 261.26 413.529 250.577 405.69 248.064C405.283 296.116 400.846 344.021 396.446 391.852C395.67 402.72 392.157 413.624 393.858 424.528C390.826 421.312 385.871 418.614 386.759 413.365C386.759 369.341 383.653 323.506 363.686 283.475C357.29 272.423 350.19 259.929 337.915 254.68C347.713 294.416 354.073 336.629 346.974 377.178C344.496 366.532 342.869 355.665 340.355 345.019C336.362 325.687 329.965 306.799 321.35 289.019C312.513 272.201 300.385 253.793 280.492 249.616C292.214 274.825 298.61 302.289 301.346 329.901C284.819 299.443 264.482 269.318 233.46 251.945C243.111 269.466 245.551 289.5 248.065 308.98C223.44 296.93 196.3 290.868 169.567 285.545C201.329 304.655 234.68 323.174 259.713 351.118C229.245 350.564 198.778 350.453 168.31 350.934C181.436 358.031 195.968 361.727 209.981 366.68C238.082 375.662 266.627 385.79 296.577 385.088C306.153 388.415 314.288 394.662 320.056 402.978C312.92 402.054 305.857 400.871 298.795 399.541C247.844 389.856 195.894 382.796 143.907 385.642C185.023 416.655 239.524 414.326 287.666 425.637C300.237 427.892 312.661 431.219 325.417 432.475L331.444 433.695C309.74 436.357 287.887 433.695 266.183 435.839C238.933 438.316 211.571 440.681 184.801 446.374C190.532 448.887 196.67 450.366 202.882 451.253C238.267 456.539 273.948 459.829 309.555 463.044C339.32 465.78 369.306 466.852 398.886 471.029C402.621 478.532 407.058 485.666 411.421 492.8C404.433 491.1 397.37 489.658 390.271 488.512L389.938 487.625C373.3 484.557 356.587 482.081 339.763 480.602C289.071 476.351 232.018 481.341 191.9 515.903C225.03 510.284 258.307 504.296 292.029 503.889C303.565 503.076 315.286 504.924 326.674 503.298C345.716 505.368 364.832 506.699 383.616 510.543C400.328 513.722 417.374 517.196 432.756 524.7C439.078 530.947 443.848 538.561 449.283 545.584C442.628 543.773 436.009 541.629 429.169 540.742C408.685 535.161 387.498 532.167 366.348 530.466C320.721 526.548 273.726 529.209 230.28 544.586C225.88 546.287 220.815 547.691 218.227 551.979C250.839 548.061 283.82 549.613 316.506 551.425C343.683 555.232 373.078 558.411 395.411 575.932C374.298 575.118 353.148 574.268 332.073 575.821C288.368 579.369 245.033 591.308 206.653 612.71C250.802 608.201 294.987 602.878 339.468 603.432C366.09 602.989 392.823 605.502 419.223 606.648C442.295 609.495 465.22 613.08 488.107 616.998C491.62 622.173 494.911 627.459 498.201 632.745C495.946 632.782 491.435 632.819 489.179 632.856C445.438 628.272 401.179 628.605 357.29 631.266C327.488 632.856 297.612 637.476 268.993 646.2C256.163 650.635 242.63 654.923 232.277 664.09C273.615 658.656 315.249 656.106 356.883 655.182C400.033 655.44 443.072 659.469 485.778 665.199C498.645 668.747 516.652 667.897 521.422 683.57C534.917 679.43 548.561 675.807 562.316 672.555C560.578 663.129 556.4 654.442 552.444 645.793C555.069 642.688 557.731 639.583 560.393 636.515C565.755 628.05 570.635 619.29 574.74 610.123C575.627 610.567 577.439 611.38 578.326 611.823C582.208 618.957 586.202 626.091 590.269 633.188C596.148 643.686 602.36 654.036 608.128 664.644C607.241 667.638 605.466 673.627 604.578 676.621C616.595 677.397 628.575 678.617 640.555 679.984C643.809 670.152 646.989 660.246 649.355 650.155C650.058 649.009 651.5 646.643 652.202 645.497C665.698 642.762 678.491 637.624 691.396 632.967C705.927 627.274 720.347 621.323 734.693 615.261C750.482 608.755 766.27 602.176 781.615 594.672C777.252 622.802 775.033 651.522 777.363 680.058C788.714 676.325 799.917 672.148 811.343 668.673C811.749 640.285 805.648 612.267 803.356 584.064C811.675 577.003 824.432 575.451 834.119 569.759C836.079 569.315 839.998 568.354 841.921 567.873C833.38 607.683 824.838 647.493 817.148 687.451C833.934 686.268 850.647 684.531 867.397 682.867C885.477 680.835 904.039 682.128 921.824 678.321C951.367 678.469 980.873 677.027 1010.42 676.805C1059.48 678.062 1108.99 678.949 1157.21 689.41C1141.23 672.85 1118.31 666.012 1096.9 659.691C1064.81 651.485 1031.79 646.052 998.695 644.573C991.965 643.649 985.236 642.873 978.544 641.986C992.742 623.282 1019.81 629.344 1040.22 628.383C1076.56 632.042 1112.36 639.398 1148.18 645.978L1148.74 646.939C1176.99 653.038 1204.79 660.763 1232.82 667.823C1210.89 648.454 1183.13 636.848 1155.43 628.457C1114.94 615.815 1072.83 608.829 1030.57 605.872C1040.33 595.596 1055.71 596.372 1068.73 594.857C1106.48 593.97 1143.93 600.217 1181.24 605.318L1181.54 606.279C1210.64 610.567 1239.18 617.737 1267.98 623.393C1246.8 598.442 1214.41 588.019 1183.94 579.48C1168.11 576.079 1152.18 573.27 1136.24 570.572C1163.97 557.671 1195.62 560.555 1225.39 560.776C1260.96 566.543 1297.05 572.124 1331.77 582.659C1305.14 550.648 1262.29 538.192 1222.39 533.386C1232.82 527.287 1245.36 527.361 1257.11 526.844C1298.19 526.918 1338.46 536.602 1378.28 545.769C1372.14 531.871 1358.42 523.961 1345.11 518.194C1323.37 508.916 1300.37 502.928 1277.12 499.047C1282.26 485.777 1295.97 478.643 1307.47 471.546C1326.33 460.013 1348.29 455.06 1367.63 444.858C1333.76 433.843 1298.75 446.263 1266.65 457.241C1271.79 440.164 1284.84 427.818 1297.82 416.47C1263.88 414.511 1237.85 439.794 1215.59 461.899C1211.89 442.566 1226.57 427.818 1234.34 411.85C1224.28 414.068 1214.96 418.54 1206.9 424.898L1206.72 425.489C1191.52 436.283 1179.35 450.477 1166.08 463.377C1171.48 426.931 1195.59 397.397 1216.55 368.454C1200.91 371.818 1187.42 381.022 1175.62 391.483C1155.25 409.558 1137.79 430.664 1121.97 452.768C1116.9 459.902 1112.73 467.85 1106.03 473.653C1114.8 437.613 1140.53 409.299 1162.46 380.541C1150.03 383.462 1138.42 388.858 1127.52 395.364C1084.7 422.163 1053.12 464.005 1030.05 508.288C1023.54 476.943 1042.58 448.185 1062.55 426.007C1041.66 427.522 1025.54 442.493 1012.34 457.352C982.389 492.209 960.648 533.128 940.274 574.046C933.804 588.019 926.261 601.621 922.009 616.518C920.197 617.959 918.459 619.401 916.758 620.916C923.562 593.083 932.805 565.803 941.458 538.672C957.985 500.636 976.362 463.229 1000.36 429.26C973.663 443.343 953.77 467.332 935.763 490.989L935.837 491.506C910.768 523.739 892.17 560.518 874.866 597.37C868.876 609.088 866.14 622.543 857.487 632.782C859.447 627.792 860.482 622.654 860.519 617.331L861.407 617.627C869.763 576.227 882.15 535.752 894.536 495.388C902.782 490.915 911.138 486.479 918.792 480.935C912.026 481.822 905.296 483.042 898.641 484.446C904.446 468.182 910.325 451.918 916.13 435.617C937.169 424.935 957.653 413.033 977.065 399.541C971.666 400.095 966.268 400.798 961.091 402.461C921.121 414.4 880.56 424.306 839.961 433.843C829.312 435.691 818.849 438.316 808.2 440.238L807.793 440.977C791.598 442.382 775.847 447.963 759.541 446.817L762.425 442.936C765.531 439.351 767.083 432.475 773 432.66C786.126 430.849 799.363 429.518 812.452 427.042C823.914 424.787 835.265 422.015 846.617 419.242C890.21 406.083 934.58 389.117 969.3 358.992C926.039 374.258 881.632 385.901 837.003 396.251C825.911 398.801 814.781 401.241 803.726 403.755C798.327 404.79 792.929 405.825 787.531 406.823C791.894 401.241 796.368 395.734 801.027 390.374C811.49 389.191 821.88 387.232 832.307 385.495C882.261 371.744 931.031 352.93 977.212 329.569C930.735 339.66 883.37 346.054 835.746 346.978C841.366 340.066 849.168 334.411 853.161 326.501C874.903 323.95 896.681 321.695 918.237 317.74L918.866 316.816C954.695 310.273 991.041 299.48 1020.77 277.782C996.365 282.292 971.962 286.617 947.189 288.724C928.479 289.093 909.807 287.984 891.135 287.023C895.867 281.664 900.711 276.341 906.257 271.794C923.488 270.02 940.755 268.357 957.801 265.141C977.286 262.073 997.327 257.12 1012.26 243.406C1027.72 237.085 1044.25 233.796 1060.96 233.352C1059.56 230.838 1057.45 229.249 1054.6 228.621C1033.41 222.152 1010.79 221.967 988.933 224.702C976.806 224.776 964.937 228.362 953.253 231.43L952.254 230.284C956.248 227.253 960.315 224.259 964.382 221.265C980.984 206.516 998.473 190.252 1007.09 169.627C987.861 175.245 970.52 185.632 953.511 196.019C942.456 202.968 931.4 210.102 921.306 218.456C928.886 198.643 931.4 177.5 930.846 156.394C902.264 176.132 884.405 209.51 880.634 243.776C880.708 254.976 870.244 261.407 864.032 269.318C852.755 239.155 865.215 207.219 873.719 177.98C862.96 188.7 853.901 201.785 848.022 215.683C834.933 240.079 829.017 268.837 833.232 296.301C828.055 302.807 822.657 309.128 817.111 315.337L817.961 319.034C808.976 311.53 810.492 298.889 809.161 288.428C808.754 246.215 815.188 204.335 820.106 162.493C778.472 214.87 770.966 286.358 783.759 350.268C776.586 356.737 771.594 366.273 762.018 369.489L763.164 366.126C744.122 298.371 752.441 226.44 768.119 158.907C758.025 172.842 751.11 188.811 745.083 204.853ZM747.154 627.163L747.339 627.976C737.356 640.101 737.393 656.291 737.91 671.113C742.68 681.648 755.695 675.844 764.606 676.399C764.791 671.483 765.013 666.567 765.235 661.65C765.013 651.079 764.828 640.285 761.094 630.268C762.425 621.951 751.332 623.726 747.154 627.163ZM709.624 646.237L710.105 647.271C708.774 650.081 706.112 655.699 704.781 658.508C704.596 666.16 706.186 673.59 710.66 679.947C715.355 679.171 720.014 678.284 724.673 677.323C723.86 664.534 721.567 651.929 719.016 639.398C715.097 640.433 712.324 643.39 709.624 646.237Z" fill="#00513E"/>
<path d="M850.314 463.599C868.876 457.389 886.957 449.664 904.187 440.312C892.244 458.609 881.854 477.978 869.172 495.721C857.34 501.93 843.696 503.594 831.087 507.734C812.563 513.02 793.817 517.455 775.07 521.854C762.721 524.552 750.334 527.029 737.873 529.173C727.594 530.762 717.13 530.54 706.814 529.727C712.398 519.599 718.609 509.804 724.415 499.787C743.198 494.242 762.351 489.954 781.245 484.668C789.343 482.451 797.44 480.196 805.538 477.867C820.55 473.468 835.45 468.589 850.314 463.599Z" fill="#00513E"/>
<path d="M565.607 482.635C569.859 470.844 573.446 458.868 577.217 446.965C582.763 466.926 587.126 487.33 595.076 506.588C591.194 512.206 587.311 517.788 583.392 523.369C580.952 526.807 578.511 530.245 576.071 533.682C571.042 523.148 565.015 513.056 560.689 502.226C560.172 495.425 563.832 489.067 565.607 482.635Z" fill="#00513E"/>
<path d="M626.172 505.59C629.943 497.236 634.122 489.067 638.595 481.046C642.108 497.31 648.32 512.761 655.049 527.916C656.861 532.167 658.71 536.418 660.411 540.705C656.343 544.956 652.35 549.207 648.246 553.347C639.372 538.155 632.901 521.817 626.172 505.59Z" fill="#00513E"/>
<path d="M840.294 518.083C849.353 514.387 858.338 510.616 867.36 506.846C861.851 519.414 856.415 531.982 851.202 544.697C849.316 548.837 847.43 552.977 845.545 557.117C838.26 559.335 830.939 561.516 823.692 563.807C818.294 565.471 812.859 567.208 807.497 568.982C806.24 556.821 806.61 544.475 806.684 532.24C817.813 527.324 829.017 522.63 840.294 518.083Z" fill="#00513E"/>
<path d="M544.309 534.939C549.227 544.217 555.365 553.495 556.844 564.029C554.551 569.426 551.334 574.342 548.229 579.295C542.793 587.797 536.47 595.744 529.371 602.952C524.786 604.837 519.906 605.392 515.173 603.654C517.206 583.879 526.524 566.062 536.138 549.059C538.837 544.328 541.536 539.633 544.309 534.939Z" fill="#00513E"/>
<path d="M783.463 540.927C788.566 538.598 793.595 536.196 798.623 533.682C793.706 547.1 789.158 560.629 784.684 574.231C781.06 575.34 777.473 576.486 773.887 577.595C761.389 581.365 748.818 584.766 736.32 588.425C720.754 593.083 705.076 597.297 689.51 601.917C682.707 603.95 675.977 606.168 669.137 607.942C676.384 594.783 680.266 579.665 688.881 567.43C705.224 562.366 722.233 559.778 738.724 555.158C753.883 551.203 768.895 546.73 783.463 540.927Z" fill="#00513E"/>
<path d="M604.578 550.279C607.721 552.792 610.827 555.491 612.306 559.409C618.888 573.64 626.098 587.612 633.012 601.732C630.165 607.462 627.355 613.228 624.545 619.031C614.377 603.1 604.8 586.762 595.926 570.091C598.921 563.549 601.842 556.969 604.578 550.279Z" fill="#00513E"/>
<path d="M359.434 70.6006C371.894 73.5208 383.874 67.6066 396.335 67.8284C387.276 76.8105 381.064 89.9327 368.16 94.0726C362.651 97.5102 351.077 97.2145 353.481 106.455C322.422 118.247 292.139 131.96 262.485 146.931C267.218 136.914 277.756 133.069 286.186 127.044C293.544 122.054 295.541 112.887 298.647 105.125C291.844 104.829 285.04 104.533 278.237 104.57C304.452 91.5591 331.481 78.9175 359.434 70.6006Z" fill="#D09D21"/>
<path d="M225.843 132.182C243.074 122.572 260.082 112.222 278.237 104.571C285.04 104.534 291.844 104.829 298.647 105.125C295.541 112.887 293.544 122.054 286.186 127.044C277.756 133.07 267.218 136.914 262.485 146.931C247.326 155.876 231.759 164.156 216.821 173.545C220.704 160.275 238.045 145.526 225.843 132.182Z" fill="#C59021"/>
<path d="M1186.6 105.272C1194.55 108.008 1202.94 109.375 1211.41 108.821C1258.96 131.073 1303.37 160.718 1343.56 194.614C1399.47 242.74 1446.79 304.211 1466.1 376.364C1482.18 436.8 1476.82 502.669 1450.97 559.63C1435.55 595.041 1413.18 627.015 1387.71 655.921C1384.38 654.775 1381.09 653.592 1377.84 652.446C1375.47 645.201 1373.29 637.919 1371.14 630.638C1408.56 588.647 1437.07 537.045 1445.02 480.861C1453.3 426.746 1440.95 370.598 1414.33 323.1C1371.96 247.176 1300.78 192.396 1226.02 150.664C1225.31 143.382 1218.84 139.686 1213.93 135.324C1203.43 126.674 1195.81 115.179 1186.6 105.272Z" fill="#BD8B25"/>
<path d="M93.4727 238.933C130.337 195.464 177.221 161.457 225.843 132.182C238.045 145.526 220.704 160.275 216.821 173.545C184.801 194.503 153.964 217.568 127.083 244.921C126.233 238.638 125.382 232.354 124.532 226.033C122.165 225.885 117.395 225.626 115.029 225.479C108.521 230.949 101.459 235.865 93.4727 238.933Z" fill="#BF861F"/>
<path d="M117.839 680.391C125.974 672.776 127.083 661.392 129.782 651.227C158.216 679.467 190.717 703.235 224.549 724.6C228.173 736.539 233.941 747.628 239.783 758.606C235.346 759.567 230.872 760.491 226.435 761.489C187.537 738.387 150.451 711.847 117.839 680.391Z" fill="#BF861F"/>
<path d="M745.083 204.853C751.11 188.81 758.025 172.842 768.119 158.907C752.441 226.439 744.122 298.371 763.164 366.125L762.018 369.489C759.726 375.366 758.727 381.613 758.838 387.897C759.023 406.268 757.211 425.045 762.425 442.936L759.541 446.817C759.097 447.187 758.21 447.889 757.803 448.259C761.907 449.552 766.048 450.846 770.189 452.14C765.383 460.235 763.608 469.328 765.863 478.606C770.966 480.602 776.105 482.635 781.245 484.668C762.351 489.954 743.198 494.241 724.414 499.786C717.204 479.641 721.124 458.276 721.087 437.465C722.824 428.187 730.885 421.608 735.655 413.734C723.49 344.723 721.9 271.757 745.083 204.853Z" fill="#C29841"/>
<path d="M880.633 243.776C884.405 209.51 902.264 176.132 930.845 156.394C931.4 177.5 928.886 198.643 921.306 218.456C919.79 231.726 921.676 245.143 920.012 258.413C916.943 264.106 910.879 267.432 906.257 271.794C900.711 276.341 895.867 281.664 891.134 287.023C909.807 287.984 928.479 289.093 947.188 288.724C937.649 290.609 928.035 292.087 918.348 292.79C921.528 295.229 924.745 297.632 927.74 300.404C927.851 306.836 921.971 311.53 918.866 316.816L918.237 317.74C896.681 321.695 874.902 323.95 853.161 326.5C846.653 289.833 854.64 252.351 848.021 215.683C853.901 201.785 862.959 188.7 873.719 177.98C865.215 207.219 852.754 239.155 864.032 269.318C870.243 261.407 880.707 254.976 880.633 243.776Z" fill="#A9701B"/>
<path d="M783.759 350.268C770.966 286.358 778.472 214.87 820.105 162.492C815.188 204.335 808.754 246.215 809.161 288.427C810.492 298.888 808.976 311.53 817.961 319.033C823.063 337.848 817.998 357.439 820.882 376.438C824.21 379.987 828.388 382.611 832.307 385.494C821.88 387.231 811.49 389.191 801.026 390.373C796.367 395.733 791.894 401.241 787.53 406.822C792.929 405.824 798.327 404.789 803.725 403.754C806.646 411.48 809.568 419.242 812.452 427.041C799.362 429.518 786.125 430.849 772.999 432.66C767.083 432.475 765.53 439.35 762.424 442.936C757.211 425.045 759.023 406.268 758.838 387.897C758.727 381.613 759.725 375.366 762.018 369.489C771.594 366.273 776.586 356.736 783.759 350.268Z" fill="#B78732"/>
<path d="M953.511 196.019C970.52 185.632 987.861 175.245 1007.09 169.626C998.473 190.252 980.984 206.516 964.382 221.265C965.084 216.423 965.787 211.58 966.489 206.738C962.163 203.153 957.837 199.567 953.511 196.019Z" fill="#B58119"/>
<path d="M921.306 218.456C931.4 210.102 942.456 202.968 953.511 196.019C957.837 199.567 962.164 203.153 966.49 206.738C965.787 211.58 965.085 216.423 964.382 221.265C960.315 224.259 956.248 227.253 952.254 230.284L953.253 231.43C960.019 238.453 966.157 246.622 964.826 256.972C960.167 258.007 955.508 259.079 950.886 260.114C952.624 261.37 956.063 263.884 957.8 265.141C940.755 268.357 923.488 270.02 906.257 271.794C910.879 267.432 916.943 264.106 920.012 258.413C921.676 245.143 919.79 231.725 921.306 218.456Z" fill="#AF7921"/>
<path d="M848.021 215.683C854.64 252.351 846.653 289.832 853.161 326.5C849.168 334.411 841.366 340.066 835.746 346.978C883.37 346.054 930.735 339.659 977.212 329.568C931.03 352.929 882.26 371.744 832.307 385.494C828.388 382.611 824.21 379.987 820.882 376.438C817.998 357.439 823.063 337.848 817.961 319.034L817.11 315.337C822.657 309.127 828.055 302.807 833.231 296.301C829.016 268.837 834.932 240.079 848.021 215.683Z" fill="#AD7621"/>
<path d="M93.4728 238.933C101.459 235.865 108.522 230.949 115.029 225.479C117.396 225.626 122.165 225.885 124.532 226.033C125.382 232.354 126.233 238.638 127.083 244.921C73.2844 298.001 33.0926 369.97 34.1649 447.15C33.3514 525.402 74.9853 597.888 129.782 651.226C127.083 661.391 125.974 672.776 117.839 680.391C62.044 627.496 17.8959 558.337 8.28238 480.861C-4.10425 392.48 33.1666 302.548 93.4728 238.933Z" fill="#BF8017"/>
<path d="M953.253 231.43C964.937 228.362 976.806 224.776 988.933 224.702C997.438 227.105 1005.87 229.655 1014.41 232.021C1013.67 235.828 1012.93 239.599 1012.26 243.406C997.327 257.119 977.286 262.072 957.801 265.14C956.063 263.884 952.624 261.37 950.886 260.113C955.508 259.078 960.167 258.006 964.826 256.971C966.157 246.622 960.019 238.453 953.253 231.43Z" fill="#B78323"/>
<path d="M988.934 224.703C1010.79 221.967 1033.41 222.152 1054.6 228.621C1057.45 229.249 1059.56 230.839 1060.96 233.352C1044.25 233.796 1027.72 237.085 1012.26 243.406C1012.93 239.599 1013.67 235.829 1014.41 232.021C1005.87 229.656 997.438 227.105 988.934 224.703Z" fill="#C89010"/>
<path d="M405.69 248.063C413.529 250.577 412.863 261.26 415.562 267.765C428.651 331.638 428.651 397.323 430.019 462.268C439.041 453.656 440.224 440.349 443.293 428.89C453.868 374.997 456.863 319.958 460.117 265.215C466.144 269.724 466.994 277.782 469.398 284.436C473.798 300.626 477.089 317.444 477.643 334.189C465.959 360.544 464.517 389.745 462.853 418.096C462.594 455.282 466.699 492.985 481.156 527.583C492.026 553.088 500.9 579.739 515.173 603.654C519.906 605.392 524.786 604.837 529.371 602.952C535.99 616.813 543.422 633.558 560.393 636.515C557.731 639.583 555.069 642.688 552.444 645.793C556.4 654.442 560.578 663.129 562.316 672.555C548.561 675.807 534.917 679.43 521.422 683.57C516.652 667.897 498.645 668.747 485.778 665.199C492.396 663.055 499.015 660.837 505.67 658.804C495.724 650.228 484.779 643.021 473.428 636.441C478.641 635.184 483.892 633.854 489.179 632.856C491.435 632.819 495.946 632.782 498.201 632.745C494.91 627.459 491.62 622.173 488.107 616.998C465.22 613.08 442.295 609.494 419.223 606.648C428.171 603.359 437.488 601.362 446.954 600.438C436.675 582.363 436.453 559.889 423.142 543.588C424.658 542.849 427.653 541.444 429.169 540.742C436.009 541.629 442.628 543.773 449.283 545.584C443.848 538.561 439.078 530.947 432.756 524.7C417.374 517.196 400.328 513.722 383.616 510.543C389.569 507.918 395.485 505.257 401.438 502.595C398.184 499.417 395.004 496.164 391.972 492.837C391.528 491.765 390.678 489.584 390.271 488.512C397.37 489.658 404.433 491.1 411.421 492.8C407.058 485.666 402.621 478.532 398.886 471.028C404.026 455.873 404.876 437.428 393.858 424.528C392.157 413.624 395.67 402.72 396.446 391.852C400.846 344.021 405.283 296.116 405.69 248.063Z" fill="#E5B41C"/>
<path d="M280.492 249.616C300.385 253.793 312.513 272.201 321.35 289.019C308.408 312.898 307.114 340.842 305.709 367.382C305.783 374.553 300.496 379.728 296.576 385.088C266.627 385.79 238.082 375.662 209.981 366.68C195.967 361.727 181.436 358.03 168.31 350.933C198.777 350.453 229.245 350.564 259.712 351.118C234.68 323.173 201.329 304.655 169.567 285.544C196.3 290.867 223.44 296.929 248.065 308.979C245.551 289.5 243.11 269.465 233.46 251.944C264.482 269.317 284.818 299.443 301.346 329.901C298.61 302.289 292.213 274.825 280.492 249.616Z" fill="#BF861E"/>
<path d="M337.915 254.68C350.19 259.929 357.289 272.422 363.686 283.474C383.653 323.506 386.758 369.341 386.758 413.365C385.871 418.614 390.826 421.312 393.858 424.528C404.876 437.428 404.026 455.873 398.886 471.028C369.306 466.851 339.32 465.779 309.555 463.044C315.508 460.457 321.239 457.426 326.933 454.395C324.751 449.7 322.459 445.08 320.277 440.422C327.192 440.127 334.143 439.757 341.057 439.202C338.136 436.874 335.4 433.88 331.444 433.695L325.417 432.475C329.114 429.851 332.812 427.226 336.509 424.602C339.689 398.173 331.851 370.598 340.355 345.019C342.869 355.664 344.496 366.532 346.973 377.177C354.073 336.628 347.713 294.416 337.915 254.68Z" fill="#D29C1D"/>
<path d="M686.589 309.497C690.989 294.749 695.463 279.704 703.745 266.545C698.495 309.091 696.498 352.782 704.485 395.142C707.776 409.965 711.843 425.12 721.087 437.466C721.124 458.276 717.204 479.641 724.414 499.786C718.609 509.804 712.398 519.599 706.814 529.727C717.13 530.54 727.594 530.762 737.873 529.172C735.507 534.163 733.03 539.116 730.626 544.106C733.288 547.802 736.062 551.462 738.724 555.158C722.233 559.778 705.224 562.366 688.881 567.43C680.266 579.665 676.384 594.783 669.137 607.942C663.997 606.316 658.969 604.32 653.903 602.435C654.717 585.394 648.431 566.543 658.414 551.129C660.078 547.876 660.743 544.402 660.411 540.705C658.71 536.417 656.861 532.167 655.049 527.916C662.851 506.883 657.305 484.114 659.19 462.268C661.224 468.663 663.221 475.132 665.772 481.378C667.288 481.637 670.32 482.155 671.836 482.413L672.612 482.524C674.387 487.773 676.162 492.985 677.974 498.234C681.08 494.648 684.223 491.063 687.365 487.477C673.315 429.407 670.801 367.53 686.589 309.497Z" fill="#CEA957"/>
<path d="M947.189 288.723C971.962 286.617 996.365 282.292 1020.77 277.782C991.041 299.48 954.695 310.273 918.866 316.816C921.972 311.53 927.851 306.836 927.74 300.404C924.745 297.632 921.528 295.229 918.348 292.789C928.036 292.087 937.649 290.609 947.189 288.723Z" fill="#B27C23"/>
<path d="M631.163 302.363C632.531 294.971 633.049 287.097 637.079 280.555C644.696 348.42 652.978 416.581 671.836 482.413C670.32 482.155 667.288 481.637 665.772 481.378C663.22 475.132 661.224 468.663 659.19 462.268C657.304 484.114 662.851 506.883 655.049 527.916C648.32 512.761 642.108 497.31 638.595 481.046C634.121 489.067 629.943 497.236 626.171 505.59C632.901 521.817 639.372 538.155 648.246 553.347C652.35 549.207 656.343 544.956 660.41 540.705C660.743 544.402 660.078 547.876 658.414 551.129C648.43 566.543 654.716 585.394 653.903 602.435C646.914 602.619 639.926 602.767 633.012 601.732C626.098 587.612 618.887 573.64 612.306 559.409C610.827 555.491 607.721 552.792 604.578 550.279C595.741 542.849 590.38 532.388 583.391 523.369C587.311 517.788 591.193 512.206 595.075 506.588C587.126 487.33 582.763 466.926 577.217 446.965C573.445 458.868 569.859 470.844 565.606 482.635C560.06 466.963 561.391 450.144 557.805 434.102C562.464 426.007 570.191 419.316 572.853 410.334C571.264 396.584 567.825 383.092 567.233 369.268C575.922 375.477 576.07 388.415 581.099 397.323C585.869 394.255 590.675 391.15 595.556 388.23C593.449 397.988 590.86 407.599 588.272 417.246C596.776 436.541 605.244 455.837 613.563 475.206C619.738 467.295 629.314 461.085 632.864 451.697C627.281 402.202 623.583 351.858 631.163 302.363Z" fill="#DCBF68"/>
<path d="M305.709 367.382C307.114 340.842 308.409 312.898 321.35 289.019C329.965 306.799 336.362 325.687 340.355 345.019C331.851 370.598 339.689 398.173 336.51 424.602C332.812 427.226 329.115 429.851 325.417 432.475C312.661 431.218 300.237 427.892 287.666 425.637C291.141 423.567 294.617 421.497 298.092 419.39C298.351 412.773 298.573 406.157 298.795 399.54C305.857 400.871 312.919 402.054 320.056 402.978C314.288 394.661 306.153 388.414 296.576 385.088C300.496 379.728 305.783 374.553 305.709 367.382Z" fill="#C78E1F"/>
<path d="M520.053 331.232C526.08 320.475 532.736 309.46 543.126 302.363C538.393 346.387 531.663 390.263 523.344 433.769C528.41 442.53 533.771 451.105 539.724 459.311C546.01 451.105 551.704 442.456 557.805 434.102C561.391 450.144 560.06 466.963 565.607 482.635C563.832 489.067 560.171 495.425 560.689 502.226C565.015 513.056 571.042 523.147 576.07 533.682C578.511 530.244 580.951 526.807 583.392 523.369C590.38 532.388 595.741 542.849 604.578 550.279C601.842 556.969 598.921 563.549 595.926 570.091C604.8 586.762 614.377 603.1 624.545 619.031C631.681 626.978 639.002 634.852 644.881 643.834C627.096 645.091 611.64 635.111 596.85 626.72C595.187 628.309 591.896 631.562 590.269 633.188C586.202 626.091 582.208 618.957 578.326 611.823C577.439 611.38 575.627 610.567 574.739 610.123C560.578 605.687 554.181 591.604 548.228 579.295C551.334 574.342 554.551 569.426 556.843 564.029C555.364 553.495 549.227 544.217 544.309 534.939C541.536 539.633 538.837 544.328 536.137 549.059C528.558 534.643 525.082 517.455 512.547 506.181C517.687 496.497 524.416 487.514 528.077 477.128C526.672 466.445 522.937 456.243 520.016 445.93C512.547 468.885 506.336 492.172 499.088 515.163C488.07 492.431 487.7 467.074 482.191 442.973C481.304 437.096 483.892 431.477 485.112 425.859C494.282 393.516 504.228 361.062 520.053 331.232Z" fill="#E5BE48"/>
<path d="M462.853 418.097C464.517 389.745 465.959 360.544 477.643 334.189C482.709 378.398 477.162 422.717 475.277 466.852C477.495 458.017 479.159 449.035 481.415 440.238L482.191 442.973C487.7 467.073 488.07 492.431 499.089 515.163C496.537 523.369 494.208 531.649 492.248 540.003C499.495 529.062 505.966 517.603 512.548 506.181C525.082 517.455 528.558 534.643 536.138 549.059C526.524 566.062 517.206 583.879 515.173 603.654C500.9 579.739 492.026 553.088 481.156 527.583C466.699 492.985 462.594 455.282 462.853 418.097Z" fill="#E6BB31"/>
<path d="M837.003 396.251C881.632 385.901 926.039 374.257 969.299 358.991C934.58 389.117 890.21 406.083 846.616 419.242C842.993 411.775 839.776 404.087 837.003 396.251Z" fill="#A9711B"/>
<path d="M874.865 597.37C892.169 560.517 910.768 523.738 935.837 491.506C938.906 507.068 938.499 523.073 941.457 538.672C932.805 565.803 923.561 593.082 916.758 620.916C918.459 619.4 920.197 617.959 922.008 616.517C929.773 611.49 933.914 602.988 938.425 595.226C939.313 607.424 940.052 619.659 939.608 631.931C939.46 645.275 936.946 660.023 945.709 671.408C937.464 672.665 929.366 674.698 921.823 678.32C904.038 682.128 885.477 680.834 867.396 682.867C863.218 679.281 857.635 676.953 854.751 672.074C852.421 659.062 852.421 645.164 857.487 632.781C866.139 622.542 868.875 609.087 874.865 597.37Z" fill="#A9711B"/>
<path d="M1175.62 391.482C1187.42 381.022 1200.91 371.818 1216.55 368.454C1195.59 397.397 1171.48 426.931 1166.08 463.377C1179.35 450.477 1191.52 436.282 1206.72 425.489C1204.46 432.956 1200.58 439.794 1198.17 447.187C1194.96 483.005 1194.33 520.079 1181.09 553.975C1195.96 555.047 1212 552.829 1225.39 560.776C1195.62 560.554 1163.97 557.671 1136.24 570.572C1152.18 573.27 1168.11 576.079 1183.94 579.48C1178.13 583.952 1167.89 585.875 1167.67 594.635C1171.22 597.666 1175.92 598.886 1179.98 601.104C1180.32 602.176 1180.94 604.245 1181.24 605.317C1143.93 600.216 1106.48 593.97 1068.73 594.857C1055.71 596.372 1040.33 595.596 1030.57 605.872C1072.83 608.829 1114.94 615.815 1155.43 628.457C1148.7 630.157 1142.08 632.19 1135.47 634.186C1140.23 637.476 1146.08 640.1 1148.18 645.978C1112.36 639.398 1076.56 632.042 1040.22 628.383C1029.94 625.758 1019.44 624.28 1008.86 623.873C1009.6 613.449 1006.13 603.58 1001.06 594.635C1016.55 568.243 1026.35 538.635 1030.05 508.288C1053.12 464.005 1084.7 422.162 1127.52 395.364C1138.42 388.858 1150.03 383.461 1162.46 380.541C1140.53 409.299 1114.8 437.613 1106.03 473.653C1112.73 467.849 1116.9 459.902 1121.97 452.768C1137.79 430.664 1155.25 409.558 1175.62 391.482Z" fill="#C79217"/>
<path d="M143.907 385.642C195.894 382.796 247.843 389.856 298.795 399.541C298.573 406.157 298.351 412.774 298.092 419.39C294.617 421.497 291.141 423.567 287.666 425.637C239.524 414.326 185.023 416.655 143.907 385.642Z" fill="#BF841B"/>
<path d="M803.726 403.755C814.781 401.241 825.911 398.801 837.003 396.251C839.776 404.087 842.993 411.776 846.617 419.242C835.265 422.015 823.914 424.787 812.452 427.042C809.568 419.242 806.647 411.48 803.726 403.755Z" fill="#B07C27"/>
<path d="M961.091 402.461C966.267 400.797 971.666 400.095 977.064 399.541C957.652 413.032 937.168 424.935 916.129 435.617C910.324 451.918 904.445 468.182 898.64 484.446C905.296 483.042 912.025 481.822 918.792 480.935C911.138 486.479 902.781 490.915 894.536 495.387C882.149 535.752 869.763 576.227 861.406 617.626L860.519 617.331C859.299 616.887 856.785 616 855.527 615.593C854.455 617.774 852.237 622.173 851.127 624.354C850.425 605.022 849.611 585.579 852.089 566.321C853.124 559.113 852.828 551.794 851.201 544.697C856.415 531.981 861.85 519.414 867.359 506.846C858.337 510.616 849.353 514.387 840.294 518.083C837.225 514.646 834.156 511.171 831.087 507.733C843.695 503.593 857.339 501.93 869.171 495.72C881.854 477.978 892.244 458.609 904.186 440.312C886.956 449.663 868.875 457.389 850.314 463.599C843.695 456.058 840.626 446.743 843.104 436.874C842.327 436.135 840.737 434.582 839.961 433.843C880.559 424.306 921.121 414.4 961.091 402.461Z" fill="#A8701A"/>
<path d="M1206.9 424.898C1214.96 418.54 1224.28 414.067 1234.34 411.85C1226.57 427.818 1211.89 442.566 1215.59 461.898C1237.85 439.794 1263.88 414.511 1297.82 416.47C1284.84 427.818 1271.79 440.164 1266.65 457.241C1298.75 446.263 1333.76 433.843 1367.63 444.858C1348.29 455.06 1326.33 460.013 1307.47 471.546C1295.97 478.643 1282.26 485.777 1277.12 499.047C1300.37 502.928 1323.37 508.916 1345.11 518.194C1358.42 523.961 1372.14 531.871 1378.28 545.769C1338.46 536.602 1298.19 526.918 1257.11 526.844C1245.35 527.361 1232.82 527.287 1222.39 533.386C1262.29 538.192 1305.14 550.648 1331.77 582.659C1297.05 572.124 1260.96 566.543 1225.39 560.776C1212 552.829 1195.96 555.047 1181.09 553.975C1194.33 520.079 1194.96 483.005 1198.17 447.187C1200.58 439.794 1204.46 432.956 1206.72 425.489L1206.9 424.898Z" fill="#BB8623"/>
<path d="M1012.34 457.352C1025.54 442.493 1041.66 427.522 1062.55 426.007C1042.58 448.185 1023.54 476.943 1030.05 508.288C1026.35 538.635 1016.55 568.243 1001.06 594.635C987.602 607.979 976.362 623.356 969.596 641.173C962.94 651.855 958.54 666.936 945.71 671.409C936.947 660.024 939.461 645.276 939.609 631.932C940.053 619.66 939.313 607.425 938.426 595.227C933.915 602.989 929.774 611.491 922.009 616.518C926.261 601.621 933.804 588.019 940.274 574.046C960.648 533.128 982.389 492.209 1012.34 457.352Z" fill="#B68227"/>
<path d="M331.444 433.695C335.4 433.88 338.137 436.874 341.058 439.203C334.143 439.757 327.192 440.127 320.278 440.423C322.459 445.08 324.752 449.701 326.933 454.395C321.239 457.426 315.508 460.457 309.555 463.044C273.948 459.829 238.267 456.539 202.882 451.253C196.67 450.366 190.532 448.887 184.801 446.374C211.571 440.681 238.933 438.316 266.183 435.839C287.888 433.695 309.74 436.357 331.444 433.695Z" fill="#C3861D"/>
<path d="M935.763 490.989C953.77 467.332 973.663 443.342 1000.36 429.259C976.362 463.229 957.985 500.636 941.457 538.672C938.499 523.073 938.906 507.068 935.837 491.506L935.763 490.989Z" fill="#B17C24"/>
<path d="M808.199 440.237C818.848 438.315 829.312 435.691 839.961 433.843C840.737 434.582 842.327 436.135 843.104 436.874C840.626 446.743 843.695 456.058 850.314 463.599C835.45 468.589 820.549 473.468 805.537 477.867C803.06 473.874 800.287 470.03 798.586 465.669C797.033 456.354 803.762 448.739 807.793 440.977L808.199 440.237Z" fill="#B27E29"/>
<path d="M757.803 448.259C758.209 447.889 759.097 447.187 759.541 446.817C775.847 447.963 791.598 442.382 807.793 440.977C803.763 448.739 797.033 456.354 798.586 465.669C800.287 470.031 803.06 473.875 805.537 477.867C797.44 480.196 789.342 482.45 781.245 484.668C776.105 482.635 770.966 480.602 765.863 478.606C763.608 469.328 765.383 460.235 770.189 452.14C766.048 450.846 761.907 449.553 757.803 448.259Z" fill="#B98934"/>
<path d="M520.016 445.93C522.937 456.243 526.672 466.445 528.077 477.128C524.416 487.514 517.687 496.497 512.547 506.181C505.966 517.603 499.495 529.062 492.248 540.003C494.208 531.649 496.537 523.369 499.088 515.163C506.335 492.172 512.547 468.885 520.016 445.93Z" fill="#004F3E"/>
<path d="M191.9 515.902C232.018 481.341 289.071 476.351 339.763 480.602C339.209 482.339 338.1 485.851 337.545 487.588C343.091 488.475 348.6 489.362 354.147 490.25C353.999 491.765 353.74 494.833 353.592 496.349C344.348 497.457 335.326 499.823 326.674 503.298C315.286 504.924 303.565 503.076 292.029 503.889C258.307 504.296 225.03 510.284 191.9 515.902Z" fill="#C3871E"/>
<path d="M339.763 480.602C356.587 482.081 373.3 484.557 389.939 487.625L390.271 488.512C390.678 489.584 391.528 491.765 391.972 492.837C395.004 496.164 398.184 499.417 401.438 502.595C395.485 505.257 389.569 507.918 383.616 510.543C364.833 506.698 345.716 505.368 326.674 503.298C335.326 499.823 344.348 497.457 353.592 496.349C353.74 494.833 353.999 491.765 354.147 490.25C348.6 489.362 343.091 488.475 337.545 487.588C338.1 485.851 339.209 482.339 339.763 480.602Z" fill="#D59F1D"/>
<path d="M775.07 521.854C793.816 517.455 812.563 513.019 831.087 507.733C834.156 511.171 837.225 514.646 840.294 518.083C829.016 522.63 817.813 527.324 806.684 532.24C806.61 544.475 806.24 556.821 807.497 568.982C812.858 567.208 818.294 565.471 823.692 563.807C826.317 565.286 831.531 568.28 834.119 569.758C824.432 575.451 811.675 577.003 803.356 584.063C805.648 612.267 811.749 640.285 811.342 668.673C799.917 672.148 788.714 676.325 777.362 680.058C775.033 651.522 777.251 622.801 781.614 594.672C779.544 588.721 776.771 583.102 773.887 577.595C777.473 576.486 781.06 575.34 784.683 574.231C789.157 560.628 793.705 547.1 798.623 533.682C793.594 536.195 788.566 538.598 783.463 540.927C779.951 534.902 777.214 528.47 775.07 521.854Z" fill="#B78731"/>
<path d="M737.873 529.172C750.334 527.028 762.72 524.552 775.07 521.854C777.214 528.47 779.951 534.902 783.463 540.927C768.895 546.73 753.883 551.203 738.723 555.158C736.061 551.461 733.288 547.802 730.626 544.106C733.029 539.116 735.507 534.162 737.873 529.172Z" fill="#C1933E"/>
<path d="M736.32 588.425C748.818 584.766 761.389 581.365 773.887 577.595C776.771 583.102 779.544 588.721 781.615 594.672C766.27 602.176 750.482 608.755 734.693 615.261C733.214 606.242 733.991 597.186 736.32 588.425Z" fill="#C1933E"/>
<path d="M230.28 544.586C273.726 529.209 320.721 526.548 366.348 530.466C350.227 531.353 334.18 533.202 318.059 533.793C327.783 535.863 342.204 532.203 346.752 543.736C336.842 546.878 326.748 549.539 316.506 551.425C283.82 549.613 250.839 548.061 218.227 551.979C220.815 547.691 225.88 546.287 230.28 544.586Z" fill="#C6881E"/>
<path d="M318.059 533.793C334.18 533.201 350.227 531.353 366.348 530.466C387.498 532.166 408.685 535.16 429.169 540.742C427.653 541.444 424.658 542.849 423.142 543.588C436.453 559.889 436.675 582.363 446.954 600.438C437.488 601.362 428.17 603.358 419.222 606.648C392.822 605.502 366.089 602.989 339.467 603.432C343.609 599.255 347.75 595.115 351.928 591.012C348.748 582.363 339.985 578.851 332.072 575.82C353.148 574.268 374.298 575.118 395.411 575.931C373.078 558.41 343.682 555.231 316.506 551.424C326.748 549.539 336.842 546.878 346.751 543.736C342.203 532.203 327.783 535.863 318.059 533.793Z" fill="#D6A11E"/>
<path d="M851.201 544.697C852.828 551.794 853.124 559.113 852.089 566.321C849.611 585.579 850.425 605.022 851.127 624.354C852.237 622.173 854.455 617.774 855.528 615.594C856.785 616 859.299 616.887 860.519 617.331C860.482 622.654 859.447 627.792 857.487 632.782C852.422 645.165 852.422 659.063 854.751 672.074C857.635 676.953 863.218 679.282 867.396 682.868C850.647 684.531 833.934 686.268 817.147 687.451C824.838 647.493 833.379 607.683 841.921 567.874C839.998 568.354 836.079 569.315 834.119 569.759C831.531 568.28 826.317 565.286 823.692 563.807C830.939 561.516 838.26 559.335 845.544 557.117C847.43 552.977 849.316 548.837 851.201 544.697Z" fill="#AD7622"/>
<path d="M206.653 612.71C245.033 591.308 288.368 579.369 332.073 575.82C339.985 578.851 348.748 582.363 351.928 591.012C347.75 595.115 343.609 599.255 339.468 603.432C294.987 602.878 250.801 608.2 206.653 612.71Z" fill="#C1871F"/>
<path d="M529.371 602.952C536.47 595.744 542.793 587.797 548.228 579.295C554.181 591.604 560.578 605.687 574.739 610.123C570.635 619.29 565.754 628.05 560.393 636.515C543.422 633.558 535.99 616.813 529.371 602.952Z" fill="#E3B835"/>
<path d="M1183.94 579.48C1214.41 588.019 1246.8 598.442 1267.98 623.393C1239.18 617.737 1210.64 610.566 1181.54 606.279L1181.24 605.318C1180.94 604.246 1180.32 602.176 1179.98 601.104C1175.92 598.886 1171.22 597.666 1167.67 594.635C1167.89 585.875 1178.13 583.953 1183.94 579.48Z" fill="#BA8320"/>
<path d="M689.51 601.917C705.076 597.297 720.754 593.083 736.32 588.425C733.991 597.186 733.214 606.242 734.693 615.261C720.347 621.323 705.927 627.274 691.396 632.967C680.747 624.613 685.627 612.415 689.51 601.917Z" fill="#CAA350"/>
<path d="M969.595 641.172C976.362 623.356 987.602 607.979 1001.06 594.635C1006.13 603.58 1009.6 613.449 1008.86 623.873C1019.44 624.28 1029.94 625.758 1040.22 628.383C1019.81 629.344 992.742 623.282 978.543 641.985C985.236 642.872 991.965 643.649 998.695 644.573C995.774 645.608 989.858 647.678 986.937 648.713C994.258 650.006 1001.58 651.189 1008.97 652.335C1009.23 656.401 1009.34 660.467 1009.34 664.533C1006.31 668.969 1000.03 669.08 995.478 671.334C1000.43 673.183 1005.39 675.105 1010.42 676.805C980.873 677.027 951.367 678.468 921.824 678.321C929.367 674.698 937.464 672.665 945.71 671.408C958.54 666.936 962.94 651.855 969.595 641.172Z" fill="#B88318"/>
<path d="M633.012 601.732C639.926 602.767 646.915 602.619 653.903 602.434C658.969 604.319 663.997 606.315 669.137 607.942C675.977 606.168 682.707 603.95 689.51 601.917C685.628 612.414 680.747 624.613 691.396 632.966C678.491 637.624 665.698 642.762 652.202 645.497C651.5 646.643 650.058 649.009 649.355 650.154C648.246 648.565 645.99 645.423 644.881 643.834C639.002 634.851 631.681 626.978 624.545 619.031C627.355 613.228 630.165 607.461 633.012 601.732Z" fill="#D5B54F"/>
<path d="M596.851 626.72C611.641 635.11 627.096 645.091 644.881 643.834C645.99 645.423 648.246 648.565 649.355 650.155C646.989 660.246 643.809 670.152 640.555 679.984C628.575 678.617 616.595 677.397 604.578 676.621C605.466 673.627 607.241 667.639 608.128 664.644C602.36 654.036 596.148 643.686 590.269 633.188C591.896 631.562 595.187 628.309 596.851 626.72Z" fill="#DCB33A"/>
<path d="M747.154 627.163C751.332 623.725 762.425 621.951 761.093 630.268C757.063 642.872 757.47 656.179 758.69 669.19C760.872 666.677 763.053 664.163 765.235 661.65C765.013 666.566 764.791 671.482 764.606 676.398C755.695 675.844 742.68 681.647 737.91 671.113C740.905 670.632 746.932 669.634 749.927 669.117C750.001 667.638 750.149 664.718 750.223 663.239C750.777 654.738 751.147 646.199 749.742 637.771C749.151 635.332 747.93 630.453 747.339 627.976L747.154 627.163Z" fill="#B07E20"/>
<path d="M357.29 631.266C401.179 628.605 445.438 628.272 489.179 632.855C483.892 633.853 478.641 635.184 473.428 636.441C484.779 643.02 495.724 650.228 505.67 658.804C499.015 660.837 492.396 663.055 485.778 665.199C443.072 659.469 400.033 655.44 356.883 655.182C366.755 652.742 376.48 649.933 386.315 647.345C381.286 635.776 367.901 634.482 357.29 631.266Z" fill="#D9A51F"/>
<path d="M761.093 630.268C764.828 640.285 765.013 651.079 765.235 661.65C763.053 664.164 760.872 666.677 758.69 669.191C757.47 656.18 757.063 642.873 761.093 630.268Z" fill="#D9A51F"/>
<path d="M1155.43 628.457C1183.13 636.848 1210.89 648.454 1232.82 667.823C1204.79 660.763 1176.99 653.038 1148.74 646.939L1148.18 645.978C1146.08 640.101 1140.24 637.476 1135.47 634.186C1142.08 632.19 1148.7 630.157 1155.43 628.457Z" fill="#BB831E"/>
<path d="M268.993 646.199C297.612 637.476 327.487 632.856 357.289 631.266C367.901 634.482 381.286 635.776 386.315 647.345C376.479 649.933 366.755 652.742 356.883 655.182C315.249 656.106 273.615 658.656 232.277 664.09C242.63 654.923 256.163 650.635 268.993 646.199Z" fill="#C38920"/>
<path d="M709.624 646.236C712.323 643.39 715.096 640.433 719.016 639.398C721.567 651.929 723.86 664.533 724.673 677.323C720.014 678.284 715.355 679.171 710.659 679.947C706.185 673.589 704.596 666.16 704.78 658.508C706.925 663.572 709.513 668.451 713.285 672.48C714.209 663.905 715.281 654.775 710.105 647.271L709.624 646.236Z" fill="#C38920"/>
<path d="M737.91 671.113C737.392 656.29 737.355 640.1 747.339 627.976C747.93 630.453 749.15 635.332 749.742 637.771C745.379 642.429 741.681 647.678 740.868 654.183C744.048 657.14 747.154 660.134 750.223 663.239C750.149 664.718 750.001 667.638 749.927 669.117C746.932 669.634 740.905 670.632 737.91 671.113Z" fill="#D8A925"/>
<path d="M1236.96 736.465C1286.29 707.707 1333.28 673.737 1371.14 630.638C1373.29 637.92 1375.47 645.201 1377.84 652.446C1381.09 653.592 1384.38 654.775 1387.71 655.921C1339.2 709.001 1279.33 751.028 1215.18 782.965C1209.23 782.632 1203.28 781.967 1197.36 781.302C1202.39 769.51 1209.38 757.571 1221.43 751.879C1227.53 747.702 1237.41 745.743 1236.96 736.465Z" fill="#BA8521"/>
<path d="M740.868 654.183C741.682 647.678 745.379 642.429 749.742 637.771C751.147 646.199 750.777 654.738 750.223 663.239C747.154 660.135 744.048 657.14 740.868 654.183Z" fill="#E3C56A"/>
<path d="M986.937 648.713C989.858 647.678 995.774 645.608 998.695 644.573C1031.79 646.051 1064.81 651.485 1096.9 659.691C1118.31 666.012 1141.23 672.85 1157.21 689.41C1108.99 678.949 1059.48 678.062 1010.42 676.805C1005.39 675.105 1000.43 673.183 995.478 671.334C1000.03 669.08 1006.31 668.969 1009.34 664.533C1009.34 660.467 1009.23 656.401 1008.97 652.335C1001.58 651.189 994.258 650.006 986.937 648.713Z" fill="#C38D15"/>
<path d="M704.78 658.508C706.111 655.699 708.774 650.081 710.105 647.271C715.281 654.775 714.209 663.905 713.285 672.481C709.513 668.452 706.925 663.572 704.78 658.508Z" fill="#E1C054"/>
<path d="M239.783 758.606C233.941 747.627 228.173 736.538 224.549 724.599C257.161 744.744 291.77 761.193 326.785 776.607C328.967 784.332 336.362 788.029 342.056 792.834C349.969 798.97 355.774 807.213 362.022 814.938C354.849 814.532 347.713 814.864 340.614 815.752C300.866 801.927 263.04 782.299 226.435 761.489C230.872 760.491 235.346 759.567 239.783 758.606Z" fill="#CB9521"/>
<path d="M952.624 834.899C1051.61 816.861 1148.78 785.442 1236.96 736.465C1237.41 745.743 1227.53 747.702 1221.43 751.879C1209.38 757.571 1202.39 769.51 1197.36 781.302C1203.28 781.967 1209.23 782.633 1215.18 782.965C1132.91 824.956 1043.58 853.159 952.55 868.24C960.278 859.221 972.923 858.741 983.498 855.118C979.32 840.998 965.75 836.71 952.624 834.899Z" fill="#C08917"/>
<path d="M342.056 792.834C336.362 788.029 328.967 784.333 326.785 776.607C446.399 825.473 575.405 848.687 704.226 853.122C692.69 857.151 680.488 858.26 668.397 858.593C668.138 864.988 667.769 871.419 667.325 877.814C680.303 879.514 693.392 880.586 706.481 881.252C700.011 882.915 693.577 884.578 687.07 885.983C569.008 881.326 450.504 859.85 340.614 815.752C347.713 814.865 354.849 814.532 362.022 814.939C355.774 807.213 349.969 798.97 342.056 792.834Z" fill="#D9A71B"/>
<path d="M866.398 847.504C895.165 843.548 923.969 839.889 952.624 834.899C965.75 836.71 979.32 840.998 983.498 855.118C972.923 858.741 960.278 859.221 952.55 868.24L951.478 869.238C924.819 873.637 898.012 878.405 871.131 880.179C861.259 876.89 850.943 875.374 840.59 875.005C842.032 868.979 843.511 862.991 845.101 857.003C852.459 854.416 859.558 851.237 866.398 847.504Z" fill="#AA7211"/>
<path d="M794.075 852.309C818.257 851.459 842.291 848.834 866.399 847.503C859.558 851.237 852.459 854.416 845.101 857.003C843.511 862.991 842.032 868.979 840.59 875.004C850.943 875.374 861.259 876.89 871.131 880.179C856.452 881.732 841.662 884.541 826.946 884.134C814.412 878.923 800.768 878.886 787.42 878.664C788.307 873.193 787.827 866.651 792.633 862.88C799.326 857.114 808.902 857.484 817.111 855.488C809.457 854.379 801.766 853.196 794.075 852.309Z" fill="#B17B15"/>
<path d="M704.226 853.122C711.88 852.937 719.57 852.937 727.261 853.233C733.658 854.97 739.944 857.04 746.266 859.036C742.125 860.293 737.984 861.587 733.843 862.844C733.473 867.871 733.103 872.898 732.77 877.925C746.488 880.623 760.058 883.95 773.813 886.537C745.009 889.236 715.947 887.388 687.069 885.983C693.577 884.578 700.011 882.915 706.481 881.252C693.392 880.586 680.303 879.514 667.325 877.814C667.768 871.419 668.138 864.988 668.397 858.593C680.488 858.26 692.69 857.151 704.226 853.122Z" fill="#C69C1A"/>
<path d="M727.261 853.233C749.557 853.344 771.816 852.937 794.075 852.309C801.766 853.196 809.457 854.379 817.11 855.488C808.902 857.484 799.325 857.114 792.633 862.881C787.826 866.651 788.307 873.194 787.42 878.664C800.768 878.886 814.411 878.923 826.946 884.135C809.346 886.057 791.524 886.574 773.813 886.537C760.058 883.95 746.488 880.623 732.77 877.925C733.103 872.898 733.473 867.871 733.843 862.844C737.984 861.587 742.125 860.293 746.266 859.036C739.944 857.04 733.658 854.97 727.261 853.233Z" fill="#BA8A19"/>
<path d="M157.218 999.276C162.505 999.276 167.83 999.239 173.117 999.276C186.539 1031.55 198.926 1064.3 212.533 1096.49C217.487 1109.21 239.265 1111.39 247.03 1101.41C247.437 1072.02 247.622 1042.52 246.919 1013.17C243.185 1008.07 235.605 1008.41 230.133 1006.19L231.796 1000.94C254.277 1000.46 276.795 1000.75 299.276 1000.79C311.773 1001.49 327.229 1003.6 334.032 1015.61C336.621 1022.05 336.769 1029.7 333.884 1036.06C328.227 1046.4 315.656 1048.77 305.783 1053.32C316.247 1055.42 327.747 1057.57 335.29 1065.85C346.826 1076.75 343.831 1098.45 329.891 1105.99C318.503 1112.27 305.081 1113.42 292.288 1113.72C250.95 1113.6 209.611 1113.72 168.273 1113.64C166.166 1103.81 179.292 1107.21 184.764 1104.25C182.657 1094.31 178.257 1085.11 173.931 1076.01C160.841 1076.35 147.752 1075.94 134.663 1076.49C131.446 1084.96 128.747 1093.61 126.566 1102.4C132.925 1106.4 143.648 1104.44 146.015 1113.24C129.709 1114.01 113.366 1113.64 97.0596 1113.57C95.7655 1105.44 105.046 1107.28 109.409 1104.25C114.697 1101.55 117.174 1095.94 119.393 1090.8C131.964 1060.27 144.536 1029.73 157.218 999.276ZM276.019 1007.93C275.945 1021.9 275.945 1035.83 275.982 1049.81C282.046 1049.14 288.553 1049.88 294.284 1047.44C306.745 1041.27 309 1022.53 299.609 1012.8C292.99 1007.37 284.042 1007.93 276.019 1007.93ZM138.509 1067.62C149.342 1067.66 160.213 1067.62 171.047 1067.44C165.352 1054.61 160.472 1041.49 155.258 1028.48C147.937 1040.71 144.388 1054.68 138.509 1067.62ZM275.945 1057.97C275.982 1072.65 275.871 1087.29 276.13 1101.96C282.083 1104.96 288.886 1108.28 295.578 1105.55C311.293 1101.44 313.881 1080.49 307.115 1068.1C300.644 1057.35 286.963 1057.53 275.945 1057.97Z" fill="black"/>
<path d="M403.841 999.35C409.128 999.276 414.453 999.276 419.777 999.276C432.792 1030.95 445.105 1062.96 458.305 1094.61C460.154 1100.3 465.256 1103.59 469.583 1107.28C470.766 1108.8 473.058 1111.79 474.241 1113.27C454.201 1113.9 434.16 1113.9 414.157 1113.27C414.601 1103.22 427.246 1108.47 432.09 1102.26C428.171 1093.72 424.584 1085.07 421.145 1076.38C407.908 1076.09 394.671 1076.01 381.434 1076.49C378.846 1083.66 375.666 1090.72 374.335 1098.3C370.896 1109.65 397.407 1102.74 389.421 1113.53C374.076 1113.97 358.731 1113.72 343.424 1113.38C344.496 1103.18 359.101 1107.4 362.503 1097.93C377.256 1065.52 389.754 1032.06 403.841 999.35ZM400.772 1028.15C395.67 1041.27 390.53 1054.43 385.132 1067.44C395.928 1067.66 406.725 1067.66 417.559 1067.47C411.791 1054.43 407.649 1040.68 400.772 1028.15Z" fill="black"/>
<path d="M900.637 999.35C905.851 999.24 911.101 999.166 916.352 999.092C930.661 1031.99 942.567 1065.92 957.246 1098.64C959.76 1107.62 975.364 1103.33 974.292 1113.61C953.438 1113.68 932.547 1113.68 911.693 1113.64C909.548 1103.81 922.674 1107.25 928.073 1104.36C926.261 1094.35 921.676 1085.18 917.535 1076.01C904.409 1076.31 891.32 1075.98 878.231 1076.49C875.014 1084.92 872.241 1093.53 870.022 1102.29C875.975 1106.58 887.77 1104.18 889.027 1113.42C861.444 1113.94 833.824 1113.61 806.24 1113.61C793.003 1095.27 781.319 1074.39 763.423 1060.53C763.09 1074.42 763.386 1088.36 763.275 1102.29C768.193 1106.21 780.358 1104.73 778.546 1113.68C758.21 1113.61 737.873 1113.83 717.537 1113.53C716.021 1101.96 733.769 1110.65 734.472 1100.59C735.137 1072.72 734.841 1044.74 734.62 1016.83C735.877 1005.38 715.688 1012.14 717.981 1000.72C739.278 1000.9 760.613 1000.27 781.911 1001.16C779.655 1009.63 769.598 1007.78 763.386 1011.36C763.349 1026.37 762.979 1041.45 763.571 1056.5C779.766 1042.93 798.18 1028.77 806.462 1008.92C801.138 1007.48 793.743 1008.37 792.67 1001.09C809.864 1000.42 827.057 1000.72 844.25 1000.87L843.4 1006.19C818.997 1008.81 804.613 1029.99 788.196 1045.56C805.353 1064.07 818.368 1086.47 837.521 1103.07C846.099 1111.39 858.449 1103.26 861.629 1093.76C874.681 1062.3 887.622 1030.81 900.637 999.35ZM897.864 1027.74C892.577 1041.05 887.474 1054.43 882.002 1067.66C892.799 1067.62 903.632 1067.59 914.429 1067.51C908.513 1054.43 904.335 1040.57 897.864 1027.74Z" fill="black"/>
<path d="M1033.67 1014.28C1043.62 995.321 1074.09 991.218 1088.21 1007.52C1098.68 1022.34 1086.14 1040.01 1072.39 1047.03C1079.78 1057.86 1088.36 1068.51 1097.42 1077.6C1104.15 1072.43 1107.36 1061.3 1108.14 1052.39C1102.85 1049.69 1092.98 1050.32 1094.2 1041.78C1109.66 1041.71 1125.15 1041.49 1140.6 1042.04C1138.68 1051.65 1126.33 1047.44 1121.45 1054.24C1114.43 1064 1109.07 1074.79 1102.52 1084.85C1112.43 1096.64 1124.63 1107.28 1140.86 1107.76L1142.05 1113.57C1126.22 1113.68 1110.36 1113.86 1094.53 1113.42C1091.17 1109.58 1087.77 1105.77 1084.37 1102C1071.46 1115.05 1051.53 1119.48 1034.23 1113.68C1019.99 1108.17 1011.3 1090.76 1017.74 1076.42C1022.1 1064.63 1033.38 1057.68 1044.28 1052.65C1036 1041.9 1028.05 1028.14 1033.67 1014.28ZM1056.41 1012.77C1053.9 1024.23 1062.99 1033.62 1068.43 1042.71C1076.16 1035.5 1083.11 1024.23 1078.52 1013.47C1076.23 1003.12 1059.74 1003.08 1056.41 1012.77ZM1047.95 1096.31C1056.82 1104.84 1070.39 1103.51 1080.37 1097.78C1070.09 1083.66 1059 1069.99 1046.8 1057.46C1039.7 1068.92 1036.26 1086.55 1047.95 1096.31Z" fill="black"/>
<path d="M1210.16 1010.07C1220.36 1002.01 1233.26 998.426 1246.06 997.428C1261.74 995.58 1275.82 1008.15 1291.06 1000.68C1291.17 1014.69 1291.5 1028.7 1291.43 1042.71C1289.65 1042.23 1286.1 1041.23 1284.29 1040.75C1279.59 1029.25 1275.34 1016.46 1264.4 1009.33C1251.9 1001.97 1233.01 1005.34 1226.65 1019.31C1216.85 1039.86 1216.48 1064.78 1224.58 1085.96C1229.9 1101.44 1248.79 1109.8 1263.99 1104.11C1275.9 1100.78 1283.48 1090.28 1290.28 1080.71C1291.76 1082.19 1294.68 1085.11 1296.16 1086.58C1281.96 1116.97 1241.14 1125.17 1213.78 1108.02C1179.76 1088.06 1179.17 1033.14 1210.16 1010.07Z" fill="black"/>
<path d="M1347.33 999.942C1368.85 993.843 1393.96 999.277 1409.97 1015.21C1433.19 1038.42 1431.12 1081.19 1406.31 1102.52C1378.1 1126.91 1327.37 1119.67 1310.25 1085.44C1293.05 1053.58 1311.02 1007.89 1347.33 999.942ZM1354.8 1007.48C1341.08 1014.58 1337.31 1031.58 1336.28 1045.7C1335.46 1063.56 1334.95 1083.18 1345.34 1098.67C1353.54 1111.83 1375.54 1112.27 1384.31 1099.52C1392.96 1087.21 1393.96 1071.5 1394.59 1056.98C1393.74 1041.82 1393.03 1024.82 1382.53 1012.77C1375.91 1004.71 1363.93 1004.3 1354.8 1007.48Z" fill="black"/>
<path d="M36.7532 1001.05C57.4592 1000.42 78.1283 1000.75 98.8343 1000.83C99.4258 1009.85 88.1854 1007.74 82.861 1011.14C81.9736 1036.31 83.5636 1061.52 82.0476 1086.66C76.2795 1115.19 36.5314 1125.84 14.7901 1108.69C4.43707 1100.08 2.69924 1080.23 16.1951 1073.83C26.4002 1069.58 36.3835 1076.53 38.9347 1086.58C36.2356 1094.64 29.617 1100.19 25.5868 1107.43C32.7229 1108.5 41.7079 1110.24 47.1802 1104.14C55.9063 1095.83 54.0205 1082.89 54.3163 1072.02C53.8726 1052.54 54.9819 1032.99 53.8357 1013.54C50.1012 1006.52 36.6793 1010.99 36.7532 1001.05Z" fill="black"/>
<path d="M476.867 1001.2C494.171 1000.2 511.512 1000.98 528.817 1000.68C543.274 1000.68 558.729 999.868 571.893 1006.82C583.651 1012.77 586.498 1030.14 577.772 1039.83C571.634 1046.96 561.983 1048.96 553.738 1052.62C562.538 1056.79 573.409 1056.79 580.471 1064.33C592.525 1074.2 591.748 1094.86 579.251 1103.96C567.973 1112.05 553.405 1113.27 539.983 1113.68C519.832 1113.61 499.68 1113.83 479.529 1113.49C482.265 1111.28 484.964 1109.02 487.627 1106.77C489.216 1105.18 492.359 1101.96 493.949 1100.37C494.689 1072.5 494.319 1044.56 494.134 1016.65C494.948 1005.63 476.571 1012.1 476.867 1001.2ZM522.716 1007.82C522.568 1022.19 522.457 1036.61 522.864 1050.99C529.667 1049.88 536.951 1049.84 543.126 1046.37C553.368 1039.09 555.217 1022.67 546.824 1013.32C540.427 1007.08 530.887 1008.04 522.716 1007.82ZM522.568 1057.9C522.901 1072.21 522.013 1086.55 523.012 1100.82C527.67 1106.69 536.544 1107.95 543.274 1105.25C561.946 1098.78 562.464 1067.51 544.346 1059.97C537.432 1057.24 529.815 1058.16 522.568 1057.9Z" fill="black"/>
<path d="M600.437 1006.3C600.696 1004.89 601.177 1002.09 601.435 1000.64C634.454 1000.68 667.51 1000.98 700.528 1000.5C701.083 1010.51 701.083 1020.53 700.824 1030.58C690.36 1028.07 689.362 1013.99 679.453 1010.18C668.767 1006.04 656.861 1008.59 645.694 1007.96C645.694 1022.49 645.731 1037.02 645.657 1051.54C654.79 1050.91 666.363 1053.76 672.834 1045.33C675.57 1040.56 677.419 1035.32 679.637 1030.33L684.074 1034.06C683.335 1048.22 683.52 1062.41 683.964 1076.57L680.007 1081.15C675.977 1073.68 674.794 1063.04 665.883 1059.49C659.19 1058.53 652.424 1058.75 645.694 1058.71C646.175 1072.98 644.548 1087.43 646.804 1101.63C655.899 1109.69 669.432 1105.92 680.451 1105.51C696.054 1103.59 695.426 1081.45 708.737 1077.53C708.367 1089.54 707.628 1101.55 707.036 1113.6C671.725 1113.75 636.414 1113.6 601.14 1113.68L600.585 1107.8C607.166 1106.47 617.261 1107.28 617.704 1098.12C618.074 1070.87 618.185 1043.56 617.63 1016.32C616.447 1008.04 606.427 1008.85 600.437 1006.3Z" fill="black"/>
<path d="M1450.27 1087.07C1460.29 1079.64 1475.86 1089.62 1474.12 1101.74C1473.64 1113.46 1458.04 1120.11 1449.09 1112.72C1440.21 1106.8 1440.84 1092.13 1450.27 1087.07Z" fill="black"/>
<path opacity="0.69" d="M469.583 1107.28C475.055 1104.7 481.932 1105.1 487.626 1106.77C484.964 1109.02 482.265 1111.28 479.529 1113.49L476.719 1114.34L474.241 1113.27C473.058 1111.79 470.766 1108.8 469.583 1107.28Z" fill="#121212"/>
</svg>
