<svg width="484" height="395" viewBox="0 0 484 395" fill="none" xmlns="http://www.w3.org/2000/svg">
<path d="M276.089 59.3826C296.853 44.9876 320.545 33.0051 346.418 27.8091C334.528 36.3983 320.067 41.9655 309.162 51.7212C284.365 71.5507 275.999 102.09 272.833 130.456C270.114 165.105 273.699 200.337 264.736 234.482C254.578 278.674 221.923 318.465 177.706 340.681C156.673 351.497 131.427 354.254 107.765 350.092C74.8407 343.014 47.2647 322.84 27.9644 298.689C9.97874 275.546 5.76615 244.741 16.462 218.337C26.2316 192.304 48.161 171.573 72.4805 155.402C63.8462 168.71 54.8234 182.866 55.1222 198.693C52.1047 232.281 78.157 263.139 110.812 277.799C122.583 282.253 135.968 286.68 148.725 282.915C171.91 278.144 189.447 261.389 199.605 243.018C207.971 228.384 210.241 211.948 213.199 195.989C216.993 172.528 220.758 148.934 229.213 126.374C238.056 101.083 252.009 75.9514 276.089 59.3826Z" fill="#062E81"/>
<path d="M328.851 72.2136C333.333 60.9998 339.995 50.1042 350.691 42.6018C351.079 44.0864 351.916 47.0555 352.304 48.5401C351.109 61.5565 344.955 74.0693 345.731 87.3508C346.448 117.731 357.204 146.945 361.895 176.902C367.242 201.636 366.824 226.847 366.525 251.925C366.346 286.468 356.308 323.105 327.656 347.971C364.434 353.379 403.393 353.803 438.827 342.272C448.387 339.329 456.125 333.47 463.983 328.062C461.533 341.794 457.649 356.454 445.758 366.343C429.296 381.241 405.006 385.642 382.48 387.657C350.452 387.683 321.501 372.917 289.892 370.505C276.358 369.444 263.153 373.262 249.648 373.05C265.423 363.453 282.035 353.75 292.461 339.064C314.988 308.365 323.055 271.463 327.148 235.569C327.656 204.79 329.21 173.8 324.788 143.208C324.639 119.587 319.948 95.0387 328.851 72.2136Z" fill="#062E81"/>
<path d="M292.312 84.6201C303.426 63.5446 322.428 45.8624 345.492 34.8342C338.979 46.7903 329.18 57.2617 324.758 70.1191C316.96 89.2594 317.259 109.937 317.797 130.005C319.44 161.791 319.141 193.63 318.783 225.442C315.496 266.055 305.996 308.471 276.985 341.211C246.481 372.811 198.769 389.751 152.251 388.558C128.14 389.194 104.06 380.525 86.5822 365.892C77.44 358.39 70.8074 348.979 62.7706 340.628C88.6138 354.97 120.522 362.313 150.757 356.507C183.173 351.683 211.377 334.053 232.021 311.917C254.399 288.96 268.471 260.17 274.207 230.372C277.493 215.58 277.015 200.416 278.629 185.464C280.78 151.744 276.388 116.326 292.312 84.6201Z" fill="#237E48"/>
<path d="M350.691 42.6016C349.675 39.4204 356.845 35.0992 357.951 39.3939C357.323 42.2835 356.517 48.9905 352.304 48.5398C351.916 47.0553 351.079 44.0861 350.691 42.6016Z" fill="#237E48"/>
<path d="M87.7773 157.39C110.603 137.004 148.905 133.531 176.69 147.873C192.256 153.97 201.965 166.881 209.136 180.003C194.735 171.335 179.11 162.454 161.035 162.374C120.791 160.784 87.4486 202.484 104.06 235.542C111.708 255.849 133.13 267.115 151.743 278.7C120.91 283.446 91.1832 265.366 76.5736 242.222C60.7091 215.712 62.1133 178.757 87.7773 157.39Z" fill="#237E48"/>
</svg>
