<svg width="235" height="58" viewBox="0 0 235 58" fill="none" xmlns="http://www.w3.org/2000/svg">
<path d="M184.411 33.9203C184.839 33.9592 185.272 34.0059 185.705 34.0565C185.689 34.438 185.681 34.8195 185.673 35.2048C185.26 35.2243 184.851 35.2477 184.446 35.2671C184.43 34.8195 184.422 34.3679 184.411 33.9203Z" fill="#FEFEFD"/>
<path d="M44.2915 4.14174C44.8604 4.07167 45.4294 4.01328 46.0023 3.96268C42.9352 5.43019 39.837 7.31422 38.1066 10.3466C35.6904 14.4883 35.4449 19.4358 35.4215 24.1109C35.441 28.7236 35.1253 33.3986 33.6093 37.7934C31.4425 43.317 27.2842 48.1672 21.8671 50.7052C18.4415 52.126 14.3962 52.0015 11.0797 50.3393C6.9058 48.249 3.33599 44.6172 1.84337 40.1446C1.01716 36.9915 1.36011 33.6361 2.64618 30.6544C4.22065 27.3884 6.82396 24.757 9.69618 22.6005C7.66575 25.2709 6.66028 28.7353 7.38126 32.0557C8.21915 35.8627 11.0446 39.0468 14.4702 40.7985C15.9979 41.4486 17.7244 42.0792 19.3807 41.542C23.3363 40.5922 25.9825 36.8592 26.988 33.1028C28.1337 28.1825 28.2896 23.0443 30.0044 18.2525C30.2538 17.2832 30.928 16.2945 30.5773 15.2668C30.7059 15.3135 30.967 15.4031 31.0956 15.4498C32.179 12.6627 34.0146 10.1558 36.4347 8.3808C38.7808 6.51234 41.5323 5.27449 44.2915 4.14174Z" fill="#0C3083"/>
<path d="M42.3701 12.0866C43.1418 9.17489 44.8448 6.62134 47.1442 4.68671C45.9166 7.77355 44.7474 11.0278 45.1605 14.4105C45.8269 20.008 47.5183 25.4616 47.795 31.1137C47.795 35.088 48.1068 39.1247 47.0818 43.0134C47.3702 43.5 47.4988 44.0644 46.8129 44.2629C46.053 46.6102 44.9228 48.9068 43.0677 50.5846C43.0327 50.7169 42.9664 50.9816 42.9313 51.114C43.5627 51.2152 44.1901 51.328 44.8098 51.4721C48.0678 51.62 51.3687 51.7757 54.5761 51.0711C56.7897 50.5184 59.0696 49.7671 60.5466 47.9142C60.2777 50.0279 59.7555 52.2856 58.1459 53.8076C55.983 55.9836 52.8224 56.657 49.8761 56.9295C45.6905 56.949 41.9259 54.7341 37.7948 54.411C35.5968 54.2397 33.43 54.7808 31.3606 55.4659C31.3567 55.4036 31.345 55.2868 31.3372 55.2246C34.0458 53.9517 36.6296 52.1883 38.2508 49.6192C41.1036 45.1621 42.1168 39.8409 42.6585 34.656C42.8027 31.4056 42.7365 28.1553 42.7092 24.905C42.7092 24.0019 42.6196 23.0988 42.3974 22.2229C42.3234 18.8442 42.0311 15.4615 42.3701 12.0866Z" fill="#0C3083"/>
<path d="M120.672 18.6145C121.421 18.6067 122.169 18.6028 122.921 18.595C122.964 18.8013 123.046 19.214 123.085 19.4203C124.075 22.0711 124.905 24.7843 125.774 27.478C125.953 27.4429 126.304 27.3768 126.479 27.3456C126.553 27.6726 126.697 28.3344 126.768 28.6652C125.326 28.7081 123.884 28.7042 122.442 28.7392C122.434 28.4161 122.418 27.7699 122.407 27.4468C122.566 27.4352 122.882 27.4118 123.042 27.4001C122.979 27.0148 122.921 26.6294 122.866 26.244C121.756 26.2323 120.645 26.244 119.538 26.2829C119.503 26.6644 119.472 27.0459 119.441 27.4274C119.636 27.4313 120.029 27.443 120.228 27.4468C120.24 27.7621 120.267 28.3889 120.279 28.7042C119.008 28.7197 117.738 28.7119 116.467 28.6964C116.51 28.3772 116.596 27.7388 116.639 27.4157C116.841 27.4313 117.247 27.4585 117.449 27.4741C117.796 26.5048 118.147 25.5317 118.529 24.578C118.661 24.1887 118.802 23.7995 118.95 23.418C119.542 21.822 120.119 20.2221 120.672 18.6145ZM120.096 25.0762C120.863 25.0723 121.635 25.0723 122.407 25.0646C122.044 23.78 121.631 22.5071 121.214 21.242C120.797 22.5071 120.419 23.7839 120.096 25.0762Z" fill="#0C3083"/>
<path d="M132.605 19.175C134.036 18.2369 135.836 18.5717 137.45 18.6223C137.586 19.5954 137.68 20.5764 137.742 21.5573C137.22 21.6235 136.698 21.6897 136.179 21.7558C136.016 21.1797 135.848 20.6036 135.696 20.0236C135.1 20.0275 134.507 20.0353 133.915 20.0392C133.759 20.6387 133.599 21.2342 133.455 21.8337C134.913 22.5655 136.799 22.8497 137.73 24.3211C138.221 25.7574 137.8 27.622 136.355 28.3421C134.718 29.1401 132.824 28.9455 131.089 28.6224C131.047 27.6025 130.934 26.5905 130.801 25.5823C131.331 25.555 131.861 25.5122 132.395 25.5239C132.687 26.1272 132.718 26.8668 133.21 27.3651C133.958 27.4858 134.69 27.2756 135.408 27.0848C135.408 26.6917 135.415 25.9131 135.419 25.52C134.063 24.8466 132.411 24.4962 131.499 23.1766C130.52 21.8843 131.23 19.8835 132.605 19.175Z" fill="#0C3083"/>
<path d="M142.921 18.6028C143.623 18.5989 144.324 18.5911 145.03 18.5872C145.934 21.5184 146.838 24.4768 148.034 27.3028C148.21 27.3768 148.561 27.5208 148.736 27.5948C148.728 27.9723 148.724 28.3499 148.724 28.7314C147.278 28.6964 145.836 28.6964 144.394 28.7236C144.402 28.4083 144.422 27.7777 144.43 27.4624C144.62 27.4507 144.995 27.4235 145.182 27.4079C145.166 27.1237 145.143 26.5515 145.127 26.2674C144.032 26.2401 142.933 26.1739 141.846 26.3141C141.764 26.606 141.6 27.186 141.522 27.478C141.756 27.4663 142.232 27.4429 142.465 27.4313C142.469 27.8556 142.469 28.2799 142.477 28.708C141.183 28.7314 139.893 28.7275 138.607 28.6497C138.646 28.276 138.685 27.8984 138.724 27.5247C138.95 27.4935 139.406 27.439 139.636 27.4079C139.878 26.7267 140.104 26.0377 140.361 25.3604C140.723 24.3055 141.105 23.2584 141.526 22.2268C141.978 21.0123 142.454 19.8095 142.921 18.6028ZM143.264 21.7909C142.91 22.8769 142.551 23.9629 142.263 25.0723C143.007 25.0762 143.755 25.0801 144.507 25.0879C144.297 24.0641 144.028 23.056 143.825 22.0322C143.685 21.9738 143.405 21.8492 143.264 21.7909Z" fill="#0C3083"/>
<path d="M170.361 19.5254C170.318 18.848 170.962 18.6962 171.445 18.6573C172.692 18.5756 173.943 18.634 175.194 18.6378C175.182 19.0933 175.17 19.5526 175.167 20.008C174.894 20.008 174.348 20.0003 174.075 19.9964C174.087 22.4565 174.099 24.9205 174.071 27.3807C174.348 27.3962 174.898 27.4274 175.174 27.4429C175.178 27.7582 175.19 28.3966 175.194 28.7158C173.639 28.7197 172.084 28.7236 170.533 28.6886C170.533 28.2682 170.533 27.8478 170.537 27.4274C170.802 27.4235 171.332 27.4157 171.597 27.4118C171.601 24.9828 171.589 22.5577 171.616 20.1326C171.195 19.9302 170.774 19.7278 170.361 19.5254Z" fill="#0C3083"/>
<path d="M188.674 18.6339C190.167 18.6339 191.663 18.6339 193.16 18.6145C193.14 19.0699 193.121 19.5293 193.105 19.9847C192.832 19.9925 192.283 20.0119 192.01 20.0236C192.088 22.3436 191.691 24.7259 192.408 26.9836C193.32 27.1938 194.489 27.6726 195.186 26.7617C195.486 26.0611 195.557 25.2903 195.744 24.5546C195.627 23.0715 196.028 21.4756 195.506 20.0664C195.28 20.0275 194.836 19.9497 194.613 19.9107C194.575 19.4864 194.543 19.0582 194.516 18.6301C195.814 18.7274 197.112 18.7546 198.413 18.7468C198.335 19.1945 198.257 19.6421 198.187 20.0898L197.646 19.9224C197.404 22.5772 197.907 25.3954 196.57 27.8439C194.614 29.471 190.903 29.4165 189.746 26.8785C189.251 24.6286 189.571 22.2813 189.496 19.9925C189.313 20.008 188.939 20.0431 188.756 20.0586C188.725 19.5837 188.698 19.1088 188.674 18.6339Z" fill="#0C3083"/>
<path d="M64.2762 18.7741C66.291 18.7858 68.3332 18.5717 70.3246 18.8948C72.5967 19.4709 73.1462 22.7913 71.3652 24.1965C70.3987 25.2008 68.9567 25.1697 67.6706 25.1813C67.6628 25.9326 67.6511 26.6878 67.6356 27.4429C68.1305 27.4585 68.6254 27.478 69.1204 27.4935C69.1243 27.7894 69.1321 28.3811 69.136 28.6769C67.5615 28.7275 65.987 28.7158 64.4126 28.7197C64.4243 28.2837 64.436 27.8478 64.4477 27.4118C64.6386 27.4274 65.0205 27.4507 65.2115 27.4663C65.1375 25.049 65.2232 22.6356 65.1725 20.2182C64.5256 19.9925 64.4048 19.3619 64.2762 18.7741ZM67.6434 20.1637C67.6745 21.4561 67.6745 22.7484 67.6667 24.0369C68.6917 24.1264 69.4633 23.5931 69.9271 22.7056C69.9271 22.3514 69.9271 21.6429 69.9232 21.2848C69.5023 20.553 68.9021 19.9691 68.1929 19.5176C68.0526 19.6811 67.7798 20.0042 67.6434 20.1637Z" fill="#0C3083"/>
<path d="M73.4775 18.7858C76.49 18.6378 79.5025 18.7001 82.515 18.739C82.5111 19.2684 82.5072 19.7978 82.5033 20.3233C82.6047 20.7749 82.706 21.2225 82.8034 21.6741C82.1682 21.6935 81.5368 21.713 80.9016 21.7325C80.8548 21.1719 80.8042 20.6114 80.7613 20.0509C80.3833 20.0431 79.6311 20.0236 79.2531 20.0158C79.2609 22.476 79.2336 24.94 79.2492 27.4001C79.5337 27.4079 80.1066 27.4235 80.3911 27.4313C80.3833 27.8594 80.3794 28.2876 80.3755 28.7158C78.8088 28.708 77.2422 28.7003 75.6794 28.7197C75.6755 28.2837 75.6755 27.8517 75.6755 27.4157C75.9327 27.4157 76.451 27.4118 76.7082 27.4079C76.7004 24.94 76.8992 22.4721 76.6732 20.008C76.2484 20.0158 75.8236 20.0236 75.3988 20.0314C75.2702 20.6036 75.1338 21.1719 75.0052 21.7403C74.4868 21.7364 73.9685 21.7325 73.4502 21.7286C73.458 20.7476 73.4697 19.7667 73.4775 18.7858Z" fill="#0C3083"/>
<path d="M87.4567 18.7858C90.0171 18.8792 92.749 18.2642 95.1692 19.3502C95.3874 20.117 95.9603 20.9695 95.5199 21.7558C95.2588 22.4448 94.5651 22.7601 93.9611 23.0754C94.8652 23.7644 96.2916 24.3133 96.2058 25.6757C96.4124 27.3807 94.721 28.5485 93.1894 28.673C91.2876 28.7781 89.378 28.7197 87.4723 28.673C87.5853 28.3499 87.8074 27.6999 87.9204 27.3768C88.1036 27.4118 88.4699 27.478 88.6531 27.513C88.657 25.0451 88.6531 22.5772 88.6804 20.1093C87.8308 20.191 87.6749 19.4164 87.4567 18.7858ZM91.0771 19.6811C91.0849 20.7282 91.0265 21.7792 91.1239 22.8224C91.5838 23.3246 92.2814 22.7251 92.8426 22.7056C93.0024 22.2697 93.1738 21.8376 93.357 21.4094C93.1699 21.0046 92.9946 20.5997 92.8309 20.1871C92.6282 20.0664 92.2268 19.829 92.0242 19.7083C91.7085 19.7005 91.3928 19.6927 91.0771 19.6811ZM91.0927 24.107C91.0655 25.2514 91.046 26.3958 91.0421 27.5403C92.219 27.7544 93.2635 27.2872 93.7662 26.1856C93.5791 25.6952 93.396 25.2086 93.2206 24.7181C92.5191 24.4884 91.8059 24.286 91.0927 24.107Z" fill="#0C3083"/>
<path d="M97.5153 18.7858C99.156 18.7313 100.797 18.7352 102.437 18.7741C102.371 19.5487 101.931 20.0664 101.147 20.1443C101.194 22.5577 101.159 24.9711 101.124 27.3884C101.412 27.4001 101.981 27.4235 102.266 27.439C102.262 27.8672 102.262 28.2954 102.262 28.7275C100.727 28.6964 99.191 28.6808 97.6556 28.7625C97.6478 28.346 97.6439 27.9256 97.6478 27.5091C97.8426 27.4663 98.2284 27.3807 98.4233 27.3378C98.5597 24.975 98.4818 22.6005 98.4701 20.2338C97.9751 19.8757 97.6322 19.3891 97.5153 18.7858Z" fill="#0C3083"/>
<path d="M103.513 18.7897C104.885 18.5872 106.272 18.5639 107.64 18.813C108.221 20.7749 109.028 22.6706 109.472 24.6714C109.604 24.7103 109.865 24.7882 109.998 24.8271C110.618 22.7796 111.448 20.806 112.079 18.7624C113.279 18.634 114.484 18.5989 115.688 18.6573C115.657 19.14 115.625 19.6188 115.598 20.1015C115.399 20.082 114.998 20.0392 114.799 20.0158C114.846 22.4838 114.823 24.9517 114.815 27.4196C115.029 27.4235 115.45 27.4274 115.664 27.4313C115.672 27.7505 115.688 28.3966 115.696 28.7197C114.339 28.7158 112.983 28.7197 111.627 28.7042C111.646 28.4317 111.682 27.8828 111.701 27.6064C112.278 27.5519 112.851 27.1938 112.699 26.5165C112.742 24.9478 112.59 23.3791 112.43 21.822C111.798 24.0136 110.801 26.065 109.959 28.1748C109.635 28.1864 108.989 28.202 108.669 28.2098C107.804 26.0377 107.02 23.8306 106.175 21.6468C106.093 23.5698 105.964 25.4928 105.906 27.4157C106.194 27.4196 106.763 27.4235 107.052 27.4274C107.079 27.8556 107.106 28.2838 107.141 28.7119C105.925 28.7081 104.709 28.7119 103.497 28.7003C103.509 28.2799 103.525 27.8634 103.54 27.4468C103.731 27.4546 104.117 27.4663 104.312 27.4702C104.374 25.3137 104.168 23.1377 104.518 20.9968C104.904 20.2689 103.985 20.1093 103.568 19.8562C103.548 19.502 103.529 19.1439 103.513 18.7897Z" fill="#0C3083"/>
<path d="M149.823 18.8091C151.234 18.7429 152.649 18.7624 154.059 18.6145C154.091 18.8675 154.157 19.3735 154.188 19.6266C153.962 19.7239 153.506 19.9107 153.28 20.0042C153.241 21.1135 153.183 22.2346 153.401 23.3323C154.562 22.5266 155.291 21.2965 156.183 20.226C155.466 20.0548 155.291 19.4358 155.194 18.8013C156.211 18.7468 157.228 18.7313 158.245 18.6651C158.51 18.704 159.036 18.7819 159.301 18.8208C159.254 19.1556 159.208 19.4903 159.165 19.8251C157.801 20.5258 156.873 21.8103 155.938 22.982C156.865 24.395 157.719 25.8625 158.452 27.3962C158.732 27.4157 159.289 27.4507 159.566 27.4702C159.574 27.8789 159.582 28.2915 159.593 28.7042C158.381 28.7197 157.173 28.7236 155.965 28.6886C155.423 27.1821 154.874 25.6679 154.083 24.2705C153.752 24.2977 153.42 24.3211 153.093 24.3483L153.085 24.7415C153.046 25.847 153.073 26.9642 152.851 28.0502C152.485 29.0195 151.448 28.5251 150.751 28.3188C150.829 25.3954 150.466 22.4721 150.829 19.5604C150.49 19.3113 150.154 19.0621 149.823 18.8091Z" fill="#0C3083"/>
<path d="M160.369 18.7313C163.323 18.7819 166.277 18.704 169.231 18.778C169.266 19.7589 169.317 20.736 169.368 21.7169C168.764 21.7247 168.163 21.7364 167.567 21.7441C167.509 21.1758 167.458 20.6114 167.411 20.0431C166.897 20.0431 166.386 20.047 165.88 20.047C165.891 22.5032 165.903 24.9556 165.852 27.4118C166.149 27.4118 166.745 27.4079 167.045 27.4079C167.045 27.7349 167.049 28.3811 167.049 28.708C165.431 28.7236 163.814 28.7158 162.197 28.7314C162.205 28.2954 162.212 27.8594 162.224 27.4235C162.516 27.4196 163.101 27.4118 163.397 27.4079C163.374 24.9517 163.37 22.4915 163.389 20.0353C162.906 20.0392 162.427 20.0392 161.951 20.0392C161.889 20.5919 161.823 21.1447 161.768 21.6974C161.184 21.7091 160.603 21.7208 160.022 21.7325C160.038 21.1019 160.049 20.4713 160.061 19.8446C160.174 19.4748 160.275 19.105 160.369 18.7313Z" fill="#0C3083"/>
<path d="M180.155 18.634C181.234 18.7235 182.318 18.7274 183.397 18.6067C183.448 18.8169 183.546 19.2334 183.596 19.4436C183.612 19.5799 183.647 19.8562 183.666 19.9925C183.709 22.4993 183.23 25.0101 183.659 27.5052C184.442 27.4313 185.225 27.3417 185.997 27.1744C185.853 26.0455 186.593 25.2203 187.77 25.4616C187.805 26.5632 187.556 27.6376 187.31 28.7042C184.941 28.7314 182.571 28.7197 180.206 28.7158C180.213 28.2915 180.221 27.8672 180.233 27.4429C180.436 27.4468 180.833 27.4507 181.036 27.4546C181.024 25.0295 181.04 22.6005 181.04 20.1754C180.206 20.0703 180.233 19.2879 180.155 18.634Z" fill="#0C3083"/>
<path d="M199.536 18.7546C201.013 18.743 202.49 18.7468 203.967 18.7352C203.982 18.9454 204.017 19.3658 204.033 19.576C202.42 19.8913 203.141 21.9038 203.129 23.0365C204.197 23.0248 205.268 23.017 206.34 23.0326C206.34 22.0283 206.348 21.0201 206.379 20.0158C206.013 19.9886 205.65 19.9613 205.292 19.9341C205.276 19.5487 205.261 19.1634 205.253 18.778C206.78 18.7274 208.308 18.743 209.84 18.7546C209.84 18.9609 209.84 19.3736 209.84 19.5799C209.282 19.685 208.893 20.0081 208.986 20.6192C208.881 22.8691 209.033 25.1307 208.807 27.3768C209.06 27.3924 209.567 27.4274 209.82 27.4468C209.824 27.7505 209.836 28.3616 209.844 28.6691C208.285 28.7275 206.722 28.7314 205.163 28.6964C205.19 28.3811 205.245 27.7466 205.268 27.4274C205.537 27.4235 206.071 27.4157 206.34 27.4118C206.336 26.3725 206.336 25.337 206.344 24.2977C205.226 24.3211 204.111 24.3405 202.996 24.3328C202.989 25.3526 202.981 26.3764 202.95 27.3962C203.203 27.404 203.71 27.4235 203.967 27.4313C203.978 27.8517 203.994 28.2682 204.014 28.6886C202.533 28.7236 201.052 28.7119 199.571 28.7314C199.586 28.2799 199.606 27.8322 199.625 27.3807C199.84 27.3923 200.261 27.4079 200.475 27.4157C200.49 24.9322 200.455 22.4487 200.498 19.9652C200.303 19.9886 199.918 20.0353 199.723 20.0587C199.66 19.6227 199.598 19.1906 199.536 18.7546Z" fill="#0C3083"/>
<path d="M210.919 18.778C212.533 18.7196 214.15 18.7352 215.767 18.7624C215.732 19.1711 215.697 19.5799 215.67 19.9925C215.393 19.9847 214.844 19.973 214.571 19.9691C214.583 22.0127 214.544 24.0564 214.598 26.1C214.723 26.3258 214.976 26.7773 215.101 27.0031C215.923 27.3262 216.785 27.2756 217.63 27.0576C218.421 24.8115 217.958 22.3981 218.086 20.0742C217.661 19.9497 217.244 19.8212 216.831 19.6889C216.839 19.4553 216.855 18.9921 216.863 18.7585C218.23 18.6184 219.602 18.6651 220.966 18.8052C220.822 19.3852 220.635 19.9613 220.054 20.2338C219.871 22.4915 220.499 24.9127 219.489 27.0381C217.946 30.016 212.685 29.4282 211.909 26.1039C211.753 24.1303 211.831 22.1529 211.82 20.1754C211.122 20.0158 211.028 19.3658 210.919 18.778Z" fill="#0C3083"/>
<path d="M221.944 18.778C224.002 18.7702 226.103 18.4082 228.129 18.9259C229.337 19.249 230.339 20.4401 230.214 21.7286C230.07 22.7679 229.146 23.4063 228.433 24.0603C229.096 25.1268 229.696 26.2323 230.284 27.3456C230.53 27.3884 231.025 27.4702 231.274 27.5091C231.27 27.9062 231.274 28.3032 231.278 28.7003C230.168 28.7158 229.053 28.7197 227.942 28.6691C227.607 27.766 227.229 26.8785 226.952 25.9599C226.566 25.4149 226.107 24.9244 225.553 24.5546C225.487 25.5161 225.471 26.4815 225.456 27.4468C225.643 27.4507 226.021 27.4546 226.208 27.4585C226.22 27.875 226.235 28.2915 226.255 28.708C224.817 28.7236 223.375 28.7119 221.941 28.6847C221.96 28.2799 221.983 27.875 222.007 27.4702C222.206 27.478 222.599 27.4974 222.794 27.5052C222.814 27.2405 222.849 26.7111 222.864 26.4425C223.192 24.4651 222.81 22.4565 223.075 20.4752C222.728 20.1365 222.361 19.8173 221.983 19.5176C221.976 19.3307 221.956 18.9609 221.944 18.778ZM225.491 19.6888C225.483 21.059 225.479 22.4292 225.503 23.7995C226.114 23.597 226.8 23.4841 227.284 23.0131C227.767 21.7675 227.432 20.3739 226.247 19.6772C226.056 19.6811 225.678 19.685 225.491 19.6888Z" fill="#0C3083"/>
<path d="M83.6452 26.6917C84.1947 26.3958 84.826 26.3608 85.4379 26.3024C85.6951 27.0654 85.886 27.8517 85.6561 28.6496C84.9624 28.856 84.2414 28.9066 83.5438 28.673L83.6218 28.1942L83.1074 28.1475C83.2399 27.6492 83.3451 27.1276 83.6452 26.6917Z" fill="#0C3083"/>
<path d="M68.7618 38.1437C68.7852 36.4427 68.7696 34.7377 68.8164 33.0327C69.9972 34.2161 71.1001 35.5201 72.5499 36.3882C72.3667 35.2048 72.3862 34.002 72.7448 32.8537C73.5086 34.508 72.9513 36.4582 73.0682 38.2294C71.8952 37.0811 70.7338 35.9211 69.4945 34.8428C69.4711 35.8899 69.475 36.9331 69.4984 37.9803C69.3152 38.0192 68.9489 38.1048 68.7618 38.1437Z" fill="#0C3083"/>
<path d="M85.5158 32.9276C85.6444 33.0678 85.9016 33.3442 86.0342 33.4804C86.1706 35.127 86.0575 36.7774 86.0458 38.4279C85.0443 37.0772 83.7894 35.9522 82.4682 34.9246C82.4526 36.0534 82.4643 37.1862 82.4332 38.315C82.2734 38.1982 81.9538 37.9686 81.7979 37.8518C81.6849 36.322 81.7745 34.7883 81.7628 33.2585C83.123 34.2356 84.2103 35.5162 85.434 36.649C85.4496 35.4072 85.4262 34.1655 85.5158 32.9276Z" fill="#0C3083"/>
<path d="M94.5105 33.1651C95.4654 33.1612 96.4319 33.239 97.2892 33.6984C97.184 34.473 97.5698 35.6875 96.4436 35.7926C96.4513 35.9249 96.4669 36.1974 96.4747 36.3337C96.9658 36.9682 97.4295 37.6221 97.8504 38.3033C96.806 38.206 96.35 37.2562 95.8512 36.4777C95.6953 36.4076 95.3796 36.2675 95.2198 36.1974C95.2276 36.8241 95.2354 37.447 95.2432 38.0698C95.0523 38.0815 94.6703 38.097 94.4794 38.1048C94.5339 36.4582 94.5183 34.8117 94.5105 33.1651ZM95.2783 33.8852C95.2627 34.3523 95.251 34.8233 95.2393 35.2905C95.6485 35.2749 96.0577 35.2593 96.4669 35.2398C96.4786 34.8506 96.4864 34.4574 96.502 34.0682C96.0928 34.0059 95.6836 33.9436 95.2783 33.8852Z" fill="#0C3083"/>
<path d="M100.349 33.0833C101.522 34.1888 102.632 35.3683 103.911 36.3648C103.946 35.3255 103.938 34.2901 103.918 33.2546C104.105 33.2352 104.48 33.2001 104.667 33.1846C104.612 34.8584 104.651 36.5322 104.62 38.206C103.388 37.1356 102.301 35.9172 101.054 34.8662C101.011 35.9405 101.015 37.0149 101.034 38.0893C100.855 38.0893 100.493 38.0931 100.31 38.0931C100.333 36.4232 100.321 34.7533 100.349 33.0833Z" fill="#0C3083"/>
<path d="M132.738 33.2507C132.929 33.2429 133.311 33.2274 133.502 33.2196C133.439 34.874 133.475 36.5322 133.439 38.1905C132.181 37.1667 131.054 35.995 129.932 34.8272C129.885 35.9133 129.885 36.9993 129.901 38.0893C129.722 38.062 129.363 38.0075 129.184 37.9803C129.11 36.4972 129.172 35.0141 129.117 33.5349C129.281 33.5738 129.609 33.6517 129.772 33.6906C130.637 34.7455 131.627 35.6953 132.746 36.4855C132.757 35.4072 132.754 34.329 132.738 33.2507Z" fill="#0C3083"/>
<path d="M133.849 33.6711C134.375 32.9938 135.259 33.1962 136.004 33.169C136.62 33.1962 137.407 33.0522 137.703 33.7607C137.317 33.7568 136.542 33.7451 136.156 33.7412C136.078 35.1114 136.078 36.4816 136.132 37.8518C135.973 38.0075 135.653 38.3267 135.489 38.4824C135.345 36.9254 135.408 35.3605 135.384 33.7957C134.998 33.7646 134.231 33.7023 133.849 33.6711Z" fill="#0C3083"/>
<path d="M154.671 34.2278C155.252 33.749 155.833 33.1223 156.655 33.1495C158.51 32.8459 160.233 35.1464 159.223 36.7891C158.662 38.1749 156.838 38.6887 155.583 37.9219C154.57 37.517 154.391 36.3765 154.133 35.4539C154.321 35.0491 154.5 34.6404 154.671 34.2278ZM154.858 35.3761C155.045 35.9522 155.244 36.5322 155.427 37.1122C156.374 37.6066 157.415 37.6027 158.362 37.1122C158.498 36.54 158.693 35.9756 158.728 35.3878C158.533 34.547 157.777 34.0915 157.142 33.6127C156.137 33.8502 155.377 34.5003 154.858 35.3761Z" fill="#0C3083"/>
<path d="M160.377 33.1807C161.347 33.1495 162.333 33.2196 163.179 33.7412C163.136 34.5742 163.276 35.6992 162.169 35.8821C162.692 36.7229 163.261 37.5443 163.635 38.4629C162.731 38.097 162.154 37.3185 161.71 36.4816C161.55 36.4115 161.226 36.2675 161.067 36.1974C161.094 36.8008 161.125 37.4041 161.156 38.0075C160.957 38.027 160.568 38.062 160.369 38.0815C160.412 36.4505 160.4 34.8156 160.377 33.1807ZM161.109 33.9358C161.109 34.3913 161.109 34.8467 161.113 35.306C161.511 35.2866 161.912 35.2671 162.314 35.2476C162.333 34.8428 162.349 34.4419 162.364 34.0409C161.943 34.002 161.526 33.967 161.109 33.9358Z" fill="#0C3083"/>
<path d="M187.232 33.2001C187.443 33.204 187.86 33.2118 188.07 33.2157C188.043 34.617 188.043 36.0145 188.039 37.4158C188.857 37.4781 189.676 37.5832 190.482 37.7467C190.459 36.2364 190.479 34.726 190.44 33.2157C190.634 33.2118 191.032 33.2079 191.227 33.204C191.211 34.8156 191.2 36.431 191.25 38.0425C189.913 37.8907 188.577 38.1282 187.236 38.1243C187.267 36.4816 187.271 34.8389 187.232 33.2001Z" fill="#0C3083"/>
<path d="M196.196 33.1534C196.921 33.204 197.646 33.2585 198.374 33.3403C198.538 33.5816 198.865 34.0721 199.029 34.3173C198.869 35.2204 197.731 35.9366 198.316 36.8864C198.748 37.3068 199.158 37.7506 199.543 38.2177C198.242 38.1593 197.677 36.902 196.913 36.0534C196.905 36.7074 196.909 37.3613 196.921 38.0192C196.738 38.0425 196.367 38.0931 196.18 38.1204C196.2 36.4621 196.188 34.8078 196.196 33.1534ZM196.905 33.7529C196.921 34.3134 196.948 34.8739 196.979 35.4345C197.365 35.197 198.347 35.3683 198.094 34.6287C198.312 33.9086 197.275 34.0409 196.905 33.7529Z" fill="#0C3083"/>
<path d="M179.937 33.2157C180.829 33.2468 181.807 33.0795 182.614 33.566C182.731 34.1383 182.797 34.7455 182.657 35.3255C182.458 36.2208 181.316 35.8238 180.65 36.0184C180.65 36.8047 180.638 37.5949 180.599 38.3812C180.089 38.0464 179.871 37.5793 179.945 36.9799C179.933 35.7264 179.952 34.473 179.937 33.2157ZM180.693 33.8385C180.681 34.1966 180.658 34.909 180.65 35.2671C181.16 35.2438 181.671 35.2204 182.185 35.197C182.38 34.111 181.566 33.9047 180.693 33.8385Z" fill="#0C3083"/>
<path d="M44.424 5.28617C44.7046 5.23168 45.2697 5.13047 45.5503 5.07597C42.8456 7.84362 41.4777 11.7285 41.4582 15.5627C41.3647 19.7161 41.7193 23.8656 41.6102 28.023C41.7973 35.0297 41.0373 42.4217 37.2765 48.5098C34.8642 52.4608 30.6318 54.8275 26.3878 56.3573C23.4844 57.0424 20.4914 57.1903 17.5217 56.949C17.0151 56.7816 16.4968 56.6376 15.9823 56.4975C13.0595 55.5671 10.5964 53.4924 8.97131 50.9154C8.7102 50.7286 8.44909 50.5379 8.18408 50.351C8.41791 50.386 8.88168 50.46 9.11551 50.495C9.69229 50.8376 10.273 51.1646 10.8614 51.4799C13.7454 52.4569 16.867 53.0603 19.8795 52.309C25.6162 51.2502 30.1291 46.8671 32.9468 41.9624C35.098 38.062 36.1503 33.6089 36.1892 29.1674C36.7037 24.2588 36.0723 19.2568 37.3389 14.4299C37.6039 13.7682 37.8416 13.0948 38.0872 12.4252C39.4707 9.47852 41.8557 7.20913 44.424 5.28617Z" fill="#237E48"/>
<path d="M149.593 18.634L149.823 18.8091C150.154 19.0621 150.49 19.3113 150.829 19.5604C150.466 22.4721 150.829 25.3954 150.751 28.3188C151.448 28.5251 152.485 29.0195 152.851 28.0502C153.073 26.9642 153.046 25.847 153.085 24.7415C153.175 25.6212 153.229 26.5048 153.261 27.3885C153.483 27.404 153.927 27.4352 154.149 27.4507C154.134 27.8828 154.122 28.311 154.114 28.7431C152.649 28.7392 151.187 28.7314 149.726 28.747C149.753 28.3772 149.78 28.0113 149.812 27.6454C149.967 27.5364 150.275 27.3145 150.431 27.2016C150.704 25.0996 150.646 22.9625 150.571 20.845C150.197 20.1326 149.78 19.4319 149.593 18.634Z" fill="#237E48"/>
<path d="M183.397 18.6067C183.885 18.6884 184.376 18.7702 184.871 18.8558C184.839 19.2256 184.812 19.5954 184.785 19.9652C184.411 19.973 184.037 19.9847 183.666 19.9925C183.647 19.8562 183.612 19.5799 183.596 19.4436C183.546 19.2334 183.448 18.8169 183.397 18.6067Z" fill="#237E48"/>
<path d="M15.2926 20.8605C19.8873 19.3619 25.6279 21.7831 27.2101 26.4815C25.4174 25.084 23.3363 23.8578 20.9902 23.8423C16.1811 23.6438 11.9955 28.8365 13.2543 33.4882C13.9208 36.6762 16.5319 39.0274 19.3573 40.4015C19.3729 40.5572 19.408 40.8686 19.4275 41.0204C16.4072 41.3201 13.4297 39.8448 11.4655 37.6105C8.92457 34.8817 8.05939 30.7867 9.02979 27.225C9.76246 24.1809 12.2995 21.6936 15.2926 20.8605Z" fill="#237E48"/>
<path d="M65.1648 33.1612C66.2443 33.1262 67.3433 33.1301 68.3838 33.4843C67.5654 33.7295 66.7275 33.8736 65.8896 34.0137C65.9013 34.3134 65.9208 34.909 65.9325 35.2048C66.6145 35.2126 67.3004 35.2204 67.9824 35.2321C67.9629 35.4073 67.924 35.7498 67.9045 35.9211C67.1991 35.9289 66.4937 35.9405 65.7922 35.9522C65.8273 36.3181 65.9052 37.046 65.9403 37.412C66.7743 37.4431 67.6122 37.5054 68.4111 37.7623C67.3784 38.1632 66.2677 38.1944 65.1765 38.2605C65.1375 36.5595 65.1492 34.8623 65.1648 33.1612Z" fill="#237E48"/>
<path d="M75.2195 33.4882C76.3925 32.7447 77.8852 33.1417 78.7854 34.1149C77.7955 34.1538 76.7667 33.7373 75.8041 34.0448C74.783 34.5081 74.7791 35.7615 75.0402 36.6879C75.7066 37.7856 77.0784 37.6533 78.0956 37.1823C78.119 36.9721 78.1658 36.5439 78.1891 36.3337C77.893 36.3337 77.3045 36.3337 77.0083 36.3376C77.0239 35.1581 78.2866 35.7654 78.953 35.5707C78.9335 36.1546 78.8789 36.7346 78.7971 37.3107C77.7137 38.8172 74.9545 38.5953 74.2725 36.8242C74.0153 35.6642 74.0425 34.1499 75.2195 33.4882Z" fill="#237E48"/>
<path d="M79.7285 33.2546C79.939 33.2313 80.3599 33.1885 80.5742 33.1651C80.5547 34.8156 80.543 36.4621 80.5781 38.1126C80.3638 38.1048 79.9429 38.0854 79.7324 38.0737C79.7636 36.466 79.7597 34.8584 79.7285 33.2546Z" fill="#237E48"/>
<path d="M87.2384 33.1885C88.1425 33.1768 89.0467 33.1651 89.9508 33.1573C89.9118 33.3481 89.83 33.7295 89.7871 33.9203C89.1714 33.9203 88.5361 33.8035 87.9438 34.0293C87.9321 34.3251 87.9048 34.9168 87.8931 35.2126C88.5556 35.197 89.222 35.1854 89.8846 35.1698C89.8846 35.3644 89.8768 35.7498 89.8729 35.9405C89.2259 35.9366 88.5751 35.9366 87.9321 35.9405C87.9321 36.3142 87.9321 37.0655 87.9282 37.4392C88.6686 37.4548 89.413 37.4742 90.1535 37.5287C89.604 38.5992 88.1854 38.0503 87.2306 38.2216C87.2345 36.5439 87.2345 34.8662 87.2384 33.1885Z" fill="#237E48"/>
<path d="M90.894 33.1573C91.9774 33.1573 93.0881 33.095 94.1286 33.4765C93.3102 33.7373 92.4645 33.9008 91.6228 34.0565C91.6539 34.4497 91.6812 34.8428 91.7124 35.236C92.2931 35.2126 92.8737 35.1893 93.4583 35.162C93.4583 35.3605 93.4622 35.7537 93.4661 35.9483C92.8659 35.9405 92.2697 35.9327 91.6695 35.925C91.6734 36.431 91.6734 36.9409 91.6773 37.447C92.3671 37.4548 93.0608 37.4625 93.7545 37.4781C93.735 37.6377 93.6961 37.953 93.6805 38.1126C92.5815 38.1632 91.537 38.4746 90.5237 38.8717C91.2369 37.0577 90.7965 35.053 90.894 33.1573Z" fill="#237E48"/>
<path d="M98.4311 33.2663C98.6221 33.2313 99.004 33.1612 99.1949 33.1262C99.1521 34.9285 99.2846 36.7463 99.0313 38.5369C98.5714 38.1438 98.3454 37.6027 98.4311 37.0032C98.435 35.7576 98.4584 34.5119 98.4311 33.2663Z" fill="#237E48"/>
<path d="M107.032 33.3403C108.17 32.7603 109.425 33.313 110.349 34.0254C109.448 34.1032 108.556 33.9203 107.656 33.9475C106.292 34.2628 106.003 36.2792 106.982 37.155C107.874 37.9141 109.581 37.6572 109.869 36.3882C109.554 36.3726 108.926 36.3454 108.611 36.3298C108.595 36.143 108.56 35.7732 108.54 35.5863C109.211 35.598 109.885 35.6136 110.555 35.633C110.423 36.3882 110.247 37.1356 110.041 37.8752C108.93 38.1399 107.66 38.6031 106.619 37.8752C105.165 36.8008 105.306 34.0916 107.032 33.3403Z" fill="#237E48"/>
<path d="M118.603 34.0565C119.503 32.8226 121.74 32.7136 122.512 34.1344C121.374 34.0915 119.643 33.3636 119.051 34.7922C118.482 35.5085 119.016 36.3687 119.141 37.1434C120.138 37.5949 121.202 37.5326 122.188 37.0928C122.181 37.3185 122.161 37.7701 122.153 37.9958C121 38.3267 119.573 38.5058 118.654 37.556C117.905 36.5634 117.738 35.0336 118.603 34.0565Z" fill="#237E48"/>
<path d="M124.776 33.2157C126.397 32.6863 128.365 34.0604 128.159 35.8276C128.182 37.9647 125.236 39.0819 123.755 37.5988C122.329 36.3376 122.937 33.7178 124.776 33.2157ZM123.677 34.9207C123.798 35.7965 123.767 36.9526 124.733 37.3691C125.988 38.0386 127.609 36.8942 127.364 35.4851C127.352 34.4302 126.234 34.0643 125.478 33.6283C124.85 34.0176 124.246 34.4497 123.677 34.9207Z" fill="#237E48"/>
<path d="M138.132 33.0795C139.09 33.134 140.037 33.3247 140.895 33.7801C140.836 34.5898 140.825 35.4812 139.991 35.9133C140.154 36.7385 140.762 37.338 141.335 37.9063C142.107 36.2909 142.804 34.6326 143.709 33.0834C144.344 34.8856 145.209 36.5906 146.008 38.3189C145.205 38.1788 144.8 37.5949 144.57 36.8787C143.923 36.8709 143.276 36.867 142.633 36.8631C142.446 37.2835 142.259 37.7039 142.072 38.1243C141.518 38.1048 140.965 38.0854 140.415 38.0581C139.956 37.4314 139.542 36.7191 138.825 36.3493C138.845 36.7697 138.884 37.6027 138.907 38.0192C138.693 38.0309 138.272 38.0581 138.062 38.0698C138.116 36.4077 138.089 34.7416 138.132 33.0795ZM138.911 33.8424C138.899 34.3251 138.884 34.8117 138.872 35.2983C139.27 35.271 139.667 35.2438 140.069 35.2204C140.061 34.8545 140.057 34.4886 140.053 34.1266C139.671 34.0254 139.293 33.932 138.911 33.8424ZM143.498 35.1153C143.073 35.4034 142.98 35.7809 143.214 36.2442C143.408 36.2364 143.802 36.2247 144.001 36.2208C144.316 35.8471 144.09 34.9596 143.498 35.1153Z" fill="#237E48"/>
<path d="M147.091 33.6244C148.011 32.877 149.348 33.0327 150.314 33.6089C151.577 32.8109 153.225 33.134 154.597 33.4493C154.001 33.6672 153.401 33.8736 152.797 34.0643C152.731 35.5824 153.116 37.2329 152.356 38.6303C151.795 37.1589 152.091 35.5552 152.052 34.0215C151.694 33.9358 150.973 33.7646 150.614 33.6789C150.474 33.7879 150.197 34.0059 150.057 34.1149C149.02 33.7451 147.96 33.8307 147.068 34.5003C147.021 35.4462 146.647 36.8787 147.804 37.3107C148.588 37.7778 149.449 37.3302 150.232 37.1044C150.232 37.3263 150.229 37.7662 150.229 37.988C149.398 38.1632 148.51 38.498 147.684 38.1204C145.833 37.5599 145.54 34.6871 147.091 33.6244Z" fill="#237E48"/>
<path d="M171.121 33.8813C171.531 32.8732 172.778 33.1885 173.623 33.2546C173.658 33.4999 173.732 33.9903 173.767 34.2317C173.179 34.0487 172.587 33.8541 172.006 33.6711C172.006 34.1149 172.018 34.5548 172.041 34.9985C172.75 35.3333 173.436 35.7264 174.107 36.1352C174.056 36.793 173.916 37.4353 173.674 38.0503C172.75 38.3189 171.823 38.28 170.958 37.8518C170.93 37.6416 170.884 37.2212 170.86 37.011C171.694 37.2562 172.618 37.8168 173.397 37.1044C173.23 36.8709 172.898 36.3999 172.731 36.1663C171.916 35.7381 170.389 35.0258 171.121 33.8813Z" fill="#237E48"/>
<path d="M174.843 33.2001C175.038 33.1923 175.428 33.1768 175.626 33.169C175.595 34.4964 175.603 35.8199 175.619 37.1472C176.285 37.3574 176.971 37.7039 177.676 37.4236C178.768 36.1624 177.236 33.8619 178.764 32.9121C178.822 34.3757 178.912 35.851 178.748 37.3107C178.128 38.7082 176.383 38.2722 175.229 37.9297C174.695 36.4076 174.886 34.7805 174.843 33.2001Z" fill="#237E48"/>
<path d="M183.627 33.1223C184.715 33.1573 186.714 33.0094 186.515 34.656C186.62 35.851 185.323 36.0106 184.438 36.0301C184.422 36.6762 184.426 37.3224 184.368 37.9686C184.146 37.9997 183.701 38.0659 183.475 38.1009C183.635 36.4427 183.623 34.7805 183.627 33.1223ZM184.411 33.9203C184.422 34.3679 184.43 34.8195 184.446 35.2671C184.851 35.2477 185.26 35.2243 185.673 35.2048C185.681 34.8195 185.689 34.438 185.705 34.0565C185.272 34.0059 184.839 33.9592 184.411 33.9203Z" fill="#237E48"/>
<path d="M192.548 33.1495C193.507 33.1612 194.465 33.1768 195.428 33.2546C194.956 34.0215 194.021 33.8736 193.257 33.9864C193.265 34.2901 193.273 34.9012 193.277 35.2048C193.889 35.2009 194.504 35.1932 195.124 35.1893C195.112 35.3761 195.089 35.7498 195.077 35.9366C194.469 35.9405 193.861 35.9444 193.261 35.9522C193.265 36.3181 193.281 37.046 193.285 37.4081C194.025 37.4626 194.765 37.5054 195.502 37.6416C194.656 38.5175 193.464 38.1048 192.423 38.027C192.622 36.4077 192.595 34.7767 192.548 33.1495Z" fill="#237E48"/>
<path d="M166.172 36.3415C166.76 36.3259 167.349 36.3103 167.941 36.2909C167.91 36.4816 167.848 36.8631 167.816 37.0538C167.302 37.046 166.788 37.0383 166.277 37.0344C166.25 36.8631 166.199 36.5166 166.172 36.3415Z" fill="#237E48"/>
</svg>
