<svg width="3494" height="428" viewBox="0 0 3494 428" fill="none" xmlns="http://www.w3.org/2000/svg">
<g clip-path="url(#clip0_119_2408)">
<path d="M237.738 0H237.912C305.812 40.0631 373.421 80.563 441.176 120.859C441.234 165.522 441.176 210.186 441.176 254.849C346.168 254.849 251.16 254.907 156.153 254.82C156.153 228.034 156.124 201.276 156.153 174.519C221.636 174.461 287.09 174.519 352.545 174.49C352.574 166.076 352.545 157.69 352.224 149.276C314.664 129.506 277.686 108.601 240.212 88.628C236.893 86.1241 233.341 89.3559 230.255 90.5497C192.723 111.164 155.017 131.399 117.457 151.925C117.719 228.063 117.224 304.229 117.719 380.396C88.7185 380.774 59.6892 380.862 30.689 380.338C31.0384 299.396 30.3396 218.426 30.2813 137.484C20.1778 137.339 10.0161 136.844 0 138.561V135.504C8.2109 133.524 15.2571 128.691 22.4489 124.528C94.1342 82.8631 166.227 41.9265 237.738 0Z" fill="#3C40A1"/>
<path d="M453.987 70.8381C476.436 48.3317 498.943 25.9126 521.422 3.40625C543.608 25.505 565.737 47.6911 587.895 69.8482C581.256 69.8773 574.647 69.8773 568.008 69.9064C567.833 173.5 568.125 277.064 568.183 380.629C430.898 380.745 293.642 380.396 156.386 380.803C155.891 349.766 156.298 318.729 156.182 287.662C262.371 287.633 368.588 287.662 474.806 287.662C474.747 215.368 474.951 143.103 474.689 70.809C467.789 70.8381 460.888 70.8672 453.987 70.8381Z" fill="#F8352C"/>
<path d="M1492.11 172.161C1509.29 170.909 1525.8 165.872 1542.37 161.505C1541 206.052 1540.59 250.599 1541.09 295.146C1565.02 279.54 1584.47 258.344 1605.35 239.098C1614.9 238.894 1624.48 238.894 1634.06 238.952C1634.06 240.874 1634.06 244.688 1634.09 246.61C1628.9 247.28 1623.46 247.513 1618.92 250.337C1599.79 261.342 1583.57 276.512 1565.98 289.73C1586.6 312.353 1608.96 333.345 1632.16 353.29C1635.92 356.813 1641.01 357.948 1645.82 359.433C1645.41 360.947 1644.63 364.004 1644.25 365.518C1636.09 369.507 1627.18 371.574 1618.57 374.136C1592.13 350.436 1568.16 324.116 1541.64 300.503C1540.3 318.526 1540.8 336.781 1542.28 354.804C1543.07 366.508 1557.95 362.956 1565.95 364.004C1565.95 365.955 1565.95 369.915 1565.95 371.865C1542.02 370.73 1518.06 370.992 1494.15 371.895C1494.15 369.915 1494.18 365.926 1494.18 363.946C1500.85 363.48 1508.1 364.557 1514.21 361.209C1517.27 354.949 1516.31 347.612 1516.86 340.857C1517.39 293.166 1517.5 245.504 1516.57 197.841C1515.75 192.513 1517.12 185.991 1513.54 181.566C1506.7 179.236 1499.27 180.343 1492.23 180.081C1492.2 178.101 1492.14 174.141 1492.11 172.161Z" fill="black"/>
<path d="M3124.51 172.307C3141.51 170.648 3157.88 165.785 3174.36 161.563C3171.94 196.036 3172.38 230.626 3172.38 265.186C3182.28 256.102 3190.37 243.99 3203.68 239.535C3226.68 230.364 3255.94 239.36 3267.39 261.954C3282.67 292.234 3273.09 334.132 3244.35 353.028C3231.6 361.704 3219.43 373.933 3203.1 374.486C3188.33 375.913 3173.66 371.225 3161.92 362.345C3156.97 365.868 3153.04 374.049 3145.91 371.691C3149.78 337.189 3148.33 302.396 3148.62 267.748C3148.44 240.671 3149.23 213.477 3146.49 186.516C3145.42 176.267 3131.61 181.246 3124.63 179.819C3124.6 177.956 3124.54 174.2 3124.51 172.307ZM3198.5 255.52C3184.55 260.149 3171.18 272.581 3172.46 288.42C3172.64 306.763 3171.18 325.252 3173.57 343.478C3186.59 361.675 3216.37 366.479 3233.12 350.611C3245.46 338.266 3250.21 320.127 3250.06 303.066C3249.8 289.614 3247.41 274.969 3237.72 264.895C3227.96 254.297 3211.89 251.647 3198.5 255.52Z" fill="black"/>
<path d="M3286.49 172.161C3303.69 170.996 3320.14 165.697 3336.8 161.592C3335.31 206.081 3334.94 250.598 3335.49 295.087C3359.86 279.743 3378.49 257.295 3400.56 239.185C3409.82 238.486 3419.17 239.098 3428.49 238.952C3428.4 240.932 3428.17 244.921 3428.05 246.93C3421.91 246.988 3415.85 248.24 3410.78 251.734C3392.79 262.972 3376.69 276.861 3360.27 290.196C3382.16 312.44 3404.26 334.539 3428.25 354.599C3432.13 358.384 3441.79 356.9 3439.84 364.673C3431.4 369.245 3421.99 371.486 3412.85 374.136C3386.27 350.436 3362.63 323.62 3335.52 300.503C3335.75 320.272 3333.83 340.537 3337.99 359.957C3343.99 365.314 3352.9 363.159 3360.3 363.916C3360.27 365.896 3360.24 369.885 3360.21 371.894C3336.33 370.7 3312.43 371.021 3288.55 371.894C3288.52 369.972 3288.41 366.1 3288.35 364.178C3294.35 363.742 3300.58 364.091 3306.43 362.286C3311.58 360.277 3310.01 353.639 3310.91 349.329C3312.05 307.665 3311.53 265.942 3311.41 224.278C3310.74 210.331 3312.25 196.036 3308.96 182.351C3302.15 178.654 3293.94 180.575 3286.57 180.08C3286.54 178.1 3286.49 174.141 3286.49 172.161Z" fill="black"/>
<path d="M682.029 172.073C705.118 172.656 728.237 173.005 751.326 172.132C772.32 171.899 793.953 169.424 814.393 175.48C827.379 179.119 839.084 188.495 843.481 201.509C849.974 220.464 843.248 242.009 829.592 256.101C811.045 275.492 781.753 281.898 756.189 274.939C755.374 271.532 754.529 268.155 753.714 264.778C771.679 269.407 794.361 269.553 806.997 253.685C821.818 234.264 820.042 199.442 796.253 187.738C778.085 179.323 757.179 181.74 738.457 186.922C736.39 235.254 737.409 283.645 737.671 331.977C738.399 341.119 736.71 351.135 740.961 359.578C748.386 364.382 757.761 362.548 766.118 363.072C766.059 365.285 765.972 369.71 765.943 371.923C737.962 370.7 709.981 371.079 682.029 371.894C682.058 368.924 682.116 365.954 682.203 362.985C691.521 362.228 709.107 366.857 709.136 352.62C712.135 306.005 710.68 259.246 710.563 212.573C709.835 203.285 711.437 192.833 706.196 184.622C699.208 179.702 689.978 181.449 681.941 180.459C681.971 178.362 682 174.17 682.029 172.073Z" fill="black"/>
<path d="M854.254 172.074C909.896 172.802 965.509 173.297 1021.15 171.986C1019.67 187.214 1018.53 202.5 1018.09 217.814C1015.09 217.785 1012.15 217.727 1009.18 217.669C1008.25 207.828 1008.66 197.637 1005.57 188.146C988.656 182.905 970.051 185.7 952.464 184.826C949.786 237.671 950.921 290.633 951.504 343.507C952.61 349.475 950.077 359.258 957.56 361.587C964.664 363.684 972.235 362.781 979.572 363.014C979.659 365.955 979.776 368.925 979.892 371.865C956.104 371.108 932.286 370.439 908.498 371.574C904.305 371.37 899.705 372.622 895.774 370.934C895.745 368.983 895.658 365.023 895.6 363.043C903.519 362.432 912.312 364.441 919.592 360.597C925.007 352.94 923.027 342.575 924.076 333.695C924.687 284.052 925.182 234.41 923.552 184.797C905.936 185.234 888.117 183.924 870.647 186.515C864.648 195.599 866.454 207.478 864.532 217.814C862.377 217.814 858.039 217.814 855.884 217.814C856.117 202.558 855.797 187.272 854.254 172.074Z" fill="black"/>
<path d="M1175.96 171.986C1206.19 173.18 1236.44 172.568 1266.66 171.549C1285.01 171.258 1304.8 171.317 1320.99 181.187C1334.56 189.339 1341.49 205.848 1339.66 221.308C1337.76 244.979 1319.65 264.865 1297.88 272.814C1282.79 278.957 1266.05 278.462 1250.36 275.259C1249.4 271.736 1248.43 268.243 1247.5 264.749C1265.12 269.145 1286.99 269.757 1299.94 254.791C1315.14 236.215 1314.62 202.674 1292.84 189.223C1274.35 179.003 1251.81 181.391 1232.28 187.097C1230.41 239.243 1230.96 291.506 1231.87 343.681C1232.83 349.533 1230.96 358.385 1237.75 361.267C1244.88 363.596 1252.51 362.868 1259.88 363.014C1259.94 365.955 1259.99 368.924 1260.05 371.865C1232.1 370.846 1204.15 370.904 1176.23 371.982C1176.14 369.74 1175.99 365.256 1175.91 363.043C1183.71 362.665 1191.98 364.033 1199.46 361.267C1203.65 357.773 1202.81 351.397 1203.6 346.505C1205.6 301.9 1204.79 257.208 1204.47 212.573C1203.92 203.431 1205.05 193.503 1200.6 185.146C1193.84 179.411 1184.12 181.478 1175.99 180.75C1175.99 178.566 1175.99 174.199 1175.96 171.986Z" fill="black"/>
<path d="M2463.65 172.045C2491.19 173.53 2518.79 172.831 2546.37 172.278C2546.11 175.102 2545.87 177.955 2545.64 180.809C2537.81 181.566 2529.66 181.275 2522.29 184.361C2518.47 188.903 2519.49 195.367 2519 200.869C2518.77 243.553 2518.97 286.236 2518.91 328.92C2518.71 352.213 2519.35 377.543 2505.49 397.575C2494.1 414.258 2475.5 429.98 2453.95 426.807C2454.13 418.946 2454.1 411.055 2453.98 403.165C2462.86 405.814 2472.79 410.182 2481.88 405.669C2490.76 401.331 2490.67 389.976 2491.69 381.532C2493.26 349.476 2492.1 317.361 2492.44 285.276C2492.1 253.685 2493.38 221.949 2490.7 190.446C2489.04 177.781 2472.53 181.77 2463.68 180.809C2463.68 178.596 2463.65 174.229 2463.65 172.045Z" fill="black"/>
<path d="M2950.95 172.074C3006.59 172.86 3062.23 173.181 3117.87 172.074C3116.18 187.302 3115.22 202.587 3114.73 217.902C3111.7 217.786 3108.73 217.669 3105.79 217.553C3104.86 207.712 3105.38 197.434 3102.12 188C3085.09 183.138 3066.6 185.438 3049.01 184.972C3046.71 229.054 3047.76 273.193 3047.73 317.274C3048.46 331.22 3046.68 345.603 3050.29 359.23C3057.6 364.907 3067.73 362.316 3076.35 363.044C3076.35 365.257 3076.41 369.682 3076.44 371.895C3048.43 370.73 3020.39 370.672 2992.41 371.924C2992.41 369.711 2992.41 365.286 2992.41 363.044C3000.5 362.054 3010.84 365.315 3017.39 359.317C3022.08 345.953 3020.16 331.22 3021.09 317.274C3021.06 273.106 3021.9 228.937 3020.18 184.798C3003.47 185.06 2986.64 184.303 2969.99 186.021C2965.18 185.729 2964.54 191.698 2963.81 195.076C2962.56 202.617 2962.01 210.245 2961.11 217.844C2958.92 217.815 2954.61 217.815 2952.46 217.815C2952.81 202.558 2952.43 187.273 2950.95 172.074Z" fill="black"/>
<path d="M2823.12 176.383C2831.77 169.249 2846.1 175.131 2847.93 185.962C2850.9 197.433 2838.38 208.701 2827.34 204.363C2815.55 200.753 2812.84 183.283 2823.12 176.383Z" fill="black"/>
<path d="M2724.21 204.363C2733.15 201.102 2741.19 195.308 2750.74 193.765C2751 211.845 2749.2 229.868 2748.99 247.949C2762.04 247.862 2775.08 247.716 2788.15 247.105C2787.6 251.879 2787.08 256.654 2786.58 261.4C2774.06 261.4 2761.51 261.459 2748.99 261.488C2749.14 285.887 2748.55 310.315 2749.43 334.743C2749.75 342.022 2750.56 350.931 2757.78 354.803C2766.46 359.957 2776.19 355.124 2783.9 350.523C2788.88 359.054 2777.41 364.848 2773.04 370.904C2760.03 376.786 2742.61 376.349 2731.73 366.275C2724.82 359.753 2724.65 349.562 2724.68 340.77C2725.41 314.711 2725.32 288.682 2725.12 262.623C2717.75 262.914 2710.38 263.264 2703.07 263.759C2703.02 262.274 2702.87 259.275 2702.78 257.79C2710.41 254.82 2717.92 251.501 2725.29 247.891C2724.82 233.391 2724.33 218.891 2724.21 204.363Z" fill="black"/>
<path d="M1363.8 254.821C1379.84 246.174 1396.06 234.935 1415.22 236.129C1434.34 235.517 1456.21 246.814 1459.06 267.341C1462.33 296.573 1460.35 326.154 1462.53 355.474C1462.33 365.198 1474.55 362.112 1480.87 362.665C1480.9 365.752 1480.93 368.809 1480.99 371.895C1466.55 370.992 1452.05 370.818 1437.63 371.953C1437.63 363.713 1437.63 355.474 1437.55 347.234C1425.26 355.736 1414.49 366.654 1401.09 373.351C1385.28 377.078 1364.55 373.584 1356.54 357.745C1347.32 337.946 1356.49 311.218 1376.93 302.571C1396.35 294.68 1417.54 293.254 1437.75 288.129C1436.79 277.822 1435.36 266.263 1427.01 259.072C1413.73 247.571 1393.12 248.474 1378.62 257.15C1376.32 263.73 1373.81 270.194 1371.28 276.658C1359.28 276.104 1364.41 262.682 1363.8 254.821ZM1390.93 310.752C1376.96 317.507 1373.32 337.888 1382.05 350.087C1390.12 360.656 1405.78 359.288 1416.38 353.61C1424.71 348.894 1432.54 342.401 1437.29 334.016C1437.9 321.583 1436.91 309.122 1437.4 296.66C1421.65 300.358 1405.49 303.473 1390.93 310.752Z" fill="black"/>
<path d="M1653.65 247.279C1670.1 245.095 1686.35 241.398 1701.84 235.196C1701.81 269.523 1697.18 304.026 1701 338.324C1702.25 349.329 1712.85 357.191 1723.5 357.831C1738.82 359.433 1753.2 350.232 1761.91 338.207C1767.44 330.521 1766.1 320.505 1766.65 311.596C1766.54 293.078 1767.41 274.473 1765.05 256.043C1757.28 254.878 1749.45 254.5 1741.64 254.616C1741.58 252.753 1741.5 248.997 1741.47 247.104C1758.76 245.357 1775.56 240.932 1791.93 235.167C1791.84 273.25 1788.7 311.363 1790.12 349.475C1790.73 353.406 1789.86 358.792 1793.82 361.296C1799.79 364.499 1806.86 363.509 1813.42 364.12C1813.39 366.071 1813.33 369.972 1813.27 371.923C1797.28 371.428 1781.24 370.351 1765.26 371.778C1765.78 363.392 1766.28 355.036 1766.8 346.651C1755.56 359.811 1741.88 373.379 1723.42 374.194C1704.17 377.834 1679.65 368.517 1676.45 347.088C1672.4 316.895 1678.31 286.236 1674.44 255.956C1667.22 254.849 1659.94 254.5 1652.69 254.5C1652.92 252.695 1653.39 249.084 1653.65 247.279Z" fill="black"/>
<path d="M1939.99 236.449C1941.73 236.42 1945.23 236.391 1946.97 236.391C1960.16 271.97 1974.46 307.142 1988.46 342.43C1998.66 313.722 2011.9 285.829 2018.43 255.985C2019.44 244.776 2004.68 247.513 1997.58 246.93C1997.58 244.921 1997.55 240.933 1997.55 238.924C2016.36 239.797 2035.2 240.409 2054.01 238.924C2054.04 240.874 2054.06 244.747 2054.09 246.668C2048.91 247.367 2042.53 246.581 2039.13 251.414C2033.42 259.013 2030.1 268.068 2026.14 276.628C2012.02 308.19 1998.48 340.101 1988.46 373.263C1983.86 373.263 1979.29 373.176 1974.75 373.176C1962.55 341.12 1950.23 309.092 1937.36 277.298C1936.84 277.269 1935.82 277.24 1935.3 277.211C1920.33 308.918 1905.54 340.77 1893.34 373.642C1888.59 373.322 1883.91 373.118 1879.22 372.797C1868.91 337.16 1858.11 301.668 1847.1 266.263C1845.12 260.877 1844.07 254.763 1839.85 250.628C1835.37 246.406 1828.73 247.455 1823.17 246.756C1823.2 244.776 1823.23 240.874 1823.23 238.924C1846.17 239.914 1869.12 239.855 1892.03 238.924C1892.03 240.933 1892.03 244.921 1892.03 246.93C1884.72 247.775 1867.89 244.31 1870.48 256.393C1876.6 284.693 1886.18 312.12 1893.75 340.042C1910.14 305.977 1925.81 271.504 1939.99 236.449Z" fill="black"/>
<path d="M2124.18 237.963C2149.16 232.634 2178.77 238.166 2194.84 259.566C2216.51 289.177 2210.74 336.315 2181.25 358.793C2163.43 373.205 2138.68 377.892 2116.55 372.564C2096.02 367.585 2079.6 350.407 2074.15 330.172C2068.68 310.082 2069.29 287.343 2080.07 269.029C2089.32 252.87 2106.07 241.719 2124.18 237.963ZM2123.3 248.211C2114.71 251.239 2107.26 257.587 2103.39 265.884C2095.26 282.83 2096.25 302.541 2100.07 320.476C2103.18 333.607 2108.45 347.088 2118.88 356.172C2133.12 368.488 2157.72 367.673 2169.89 352.736C2178.3 343.012 2180.34 329.648 2180.98 317.215C2181.71 297.941 2178.71 277.414 2167.1 261.488C2157.43 248.095 2138.76 242.679 2123.3 248.211Z" fill="black"/>
<path d="M2221.05 247.134C2237.44 245.532 2252.99 240.146 2268.51 234.905C2268.74 244.193 2268.6 253.452 2268.39 262.74C2277.68 255.49 2285.48 246.289 2295.62 240.175C2318.68 230.218 2353.59 238.05 2360.43 265.04C2365.44 291.914 2360.9 319.428 2362.56 346.564C2363.2 352.067 2361.89 360.161 2368.29 362.694C2373.53 364.237 2379.15 363.626 2384.6 363.917C2384.6 365.897 2384.6 369.915 2384.6 371.923C2368.35 371.137 2352.07 370.497 2335.86 371.865C2338.16 346.04 2338.27 320.098 2338.45 294.185C2338.04 283.121 2337.81 270.281 2328.96 262.274C2312.01 247.047 2280.42 252.753 2271.07 273.891C2267.17 294.942 2269.79 316.604 2269.24 337.887C2269.85 345.37 2267.93 353.726 2271.45 360.627C2277.74 365.023 2286.04 363.334 2293.29 364.237C2293.2 366.159 2293.03 369.973 2292.94 371.894C2269.09 371.05 2245.22 370.73 2221.4 371.953C2221.34 369.915 2221.25 365.897 2221.19 363.888C2227.57 363.538 2234.36 364.499 2240.47 362.112C2245.07 359.753 2243.64 353.755 2244.46 349.563C2245.19 320.389 2245.65 291.157 2244.4 262.012C2243.12 251.53 2229.06 256.276 2221.84 255.199C2221.63 253.19 2221.25 249.143 2221.05 247.134Z" fill="black"/>
<path d="M2572.89 255.403C2589.2 245.766 2606.44 234.527 2626.26 236.187C2645.25 235.954 2666.21 247.891 2668.69 268.127C2671.6 296.951 2669.85 326.067 2671.89 354.949C2671.37 365.373 2683.89 362.054 2690.41 362.723C2690.38 365.023 2690.32 369.653 2690.29 371.982C2675.88 370.905 2661.41 370.847 2647.03 371.924C2647.08 363.713 2647.08 355.503 2647 347.292C2635.06 355.59 2624.43 365.839 2611.71 372.914C2596.36 377.194 2576.16 374.253 2567.1 359.724C2555.72 339.489 2565.73 310.315 2587.63 302.017C2606.76 294.797 2627.31 292.875 2647.14 288.304C2646.27 278.259 2645.1 266.991 2637.21 259.741C2624.43 247.949 2603.44 247.949 2589.05 256.771C2585.33 262.74 2583.58 269.67 2581.08 276.192C2578.37 275.58 2575.69 274.998 2573.04 274.386C2573.04 268.068 2572.98 261.721 2572.89 255.403ZM2603.73 309.092C2584.16 315.177 2580.06 347.321 2599.24 356.172C2618.05 362.985 2636.11 349.068 2647 334.86C2646.82 322.136 2646.65 309.383 2646.82 296.66C2632.26 300.037 2617.47 303.094 2603.73 309.092Z" fill="black"/>
<path d="M2797.65 247.192C2814.18 245.183 2830.31 240.845 2845.95 235.051C2847.26 274.648 2842.54 314.566 2846.53 354.163C2848.05 364.237 2861.12 361.762 2868.49 363.888C2868.49 365.896 2868.46 369.914 2868.46 371.923C2844.9 371.166 2821.32 370.409 2797.79 371.894C2797.76 369.885 2797.73 365.867 2797.7 363.858C2804.43 362.956 2811.42 362.839 2817.94 360.597C2820.71 355.444 2820.01 349.33 2820.56 343.71C2821.17 318.292 2821.46 292.845 2820.68 267.427C2820.01 263.526 2820.91 256.8 2815.52 256.101C2809.73 255.053 2803.82 255.286 2797.99 255.199C2797.91 253.19 2797.73 249.201 2797.65 247.192Z" fill="black"/>
<path d="M1052.28 344.787C1061.36 337.8 1076.18 343.768 1077.93 355.065C1080.9 367.177 1067.36 378.562 1055.94 373.67C1043.89 369.71 1041.62 351.6 1052.28 344.787Z" fill="black"/>
<path d="M3466.95 345.719C3475.89 337.567 3489.84 343.099 3494 353.551V362.257C3490.86 370.235 3482.79 376.757 3473.85 374.282C3461.07 371.982 3456.61 353.58 3466.95 345.719Z" fill="black"/>
</g>
<defs>
<clipPath id="clip0_119_2408">
<rect width="3494" height="428" fill="white"/>
</clipPath>
</defs>
</svg>
