<svg width="2481" height="521" viewBox="0 0 2481 521" fill="none" xmlns="http://www.w3.org/2000/svg">
<path d="M29.4051 4.61522C43.8431 0.432352 59.0908 1.9166 73.9337 1.51181C188.763 2.18646 303.526 2.45633 418.355 1.03955C437.246 1.51181 458.903 -0.849487 474.421 12.3063C487.577 22.2238 491.828 39.36 491.423 55.0795C491.558 183.467 492.367 311.854 491.423 440.173C493.717 466.283 472.802 493.134 445.275 491.177C312.499 491.447 179.723 491.582 46.9466 491.245C22.5909 493.201 -1.15772 471.68 0.461504 446.988C0.731374 314.08 0.663907 181.173 0.461504 48.2655C-0.955314 29.5101 11.5936 10.6871 29.4051 4.61522ZM94.1739 82.673C48.0261 122.68 23.0631 182.522 19.7572 242.904C44.1805 243.106 68.5363 243.039 92.9595 243.174C94.7811 179.486 131.281 118.835 186.942 87.8678C241.388 56.9011 311.487 57.036 366.001 87.8004C421.526 119.037 458.971 179.486 460.185 243.511C462.817 243.174 468.012 242.364 470.643 241.959C466.122 190.483 449.795 138.467 413.7 100.214C371.398 51.0991 307.034 24.1803 242.737 23.6405C188.494 26.0018 134.115 45.0946 94.1739 82.673ZM162.249 116.743C123.995 147.103 104.969 194.936 100.921 242.567C125.209 243.241 149.497 242.971 173.786 243.174C175.27 185.963 215.413 131.653 271.411 117.283C326.262 100.619 392.718 124.502 420.987 175.168C438.596 195.813 434.075 226.24 451.617 246.412C452.022 188.392 420.649 131.99 371.128 101.698C308.248 60.5442 218.517 66.6836 162.249 116.743ZM267.228 127.403C216.965 142.245 185.458 192.102 181.275 242.634C201.043 242.836 220.878 243.848 240.646 242.769C251.036 221.652 251.373 194.464 271.006 178.069C302.379 143.257 360.536 141.098 394.337 173.684C417.613 191.495 420.177 222.057 431.512 246.952C438.056 221.652 420.245 199.658 420.987 175.168C407.561 171.795 400.139 159.381 390.154 150.948C358.309 119.577 308.383 116.338 267.228 127.403ZM19.6223 252.214C24.0751 310.842 47.8237 368.727 92.0824 408.465C173.583 488.884 318.301 488.411 399.6 407.992C444.263 368.323 465.853 309.695 471.183 251.405C447.029 250.393 422.876 249.988 398.79 250.46C394.472 307.064 366.675 362.588 319.92 395.714C275.999 427.557 217.707 434.641 165.757 422.228C115.629 409.881 72.9217 373.18 51.1296 326.696C37.3663 303.96 32.0363 277.514 31.8339 251.202C28.7304 251.472 22.6583 251.944 19.6223 252.214ZM40.4698 247.222C34.6676 274.95 54.2331 299.643 51.1296 326.696C61.3847 329.462 66.5122 338.975 72.5843 346.801C114.819 409.207 202.189 436.733 272.423 409.072C340.363 387.618 385.634 320.354 389.412 250.46C365.596 250.46 341.78 250.393 318.031 250.528C314.793 315.497 261.966 376.216 195.713 380.399C137.488 387.618 76.9697 350.647 57.539 295.19C51.6694 279.2 51.1296 261.12 40.4698 247.222ZM57.539 246.749C55.3801 299.305 91.4752 350.444 141.671 365.961C189.438 383.84 246.853 366.838 279.17 327.776C298.601 306.591 304.066 277.581 309.328 250.325C287.941 250.46 266.554 250.527 245.234 251.067C245.908 286.824 224.994 321.569 191.665 335.467C147.608 356.246 88.9114 332.566 73.5288 285.947C67.7941 273.061 69.2784 256.195 57.539 246.749Z" fill="#F42736"/>
<path d="M1694.1 51.3013C1710.97 51.7061 1727.9 51.841 1744.84 51.6386C1745.17 140.626 1744.5 229.68 1745.24 318.735C1729.52 319.342 1713.87 319.477 1698.15 319.477C1698.15 310.369 1698.21 301.329 1698.28 292.221C1680.2 309.087 1658.75 325.886 1632.57 324.335C1593.44 325.279 1563.89 289.32 1557.07 253.496C1548.3 210.79 1555.25 157.155 1594.99 131.855C1626.16 111.75 1665.76 123.827 1693.36 144.336C1693.56 113.37 1693.15 82.3355 1694.1 51.3013ZM1628.93 165.521C1604.03 182.185 1603.76 216.39 1607.47 243.039C1609.97 264.897 1628.32 288.51 1652.54 284.395C1674.47 284.463 1689.38 263.413 1691.94 243.376C1694.71 220.64 1695.52 194.936 1681.69 175.371C1670.55 158.639 1645.52 155.603 1628.93 165.521Z" fill="#414143"/>
<path d="M2056.87 51.436C2072.79 51.7059 2088.78 51.6384 2104.71 51.436C2105.85 66.8182 2106.19 82.2678 2106.6 97.65C2089.53 97.9199 2072.46 97.9199 2055.46 97.65C2055.52 82.2004 2055.93 66.8182 2056.87 51.436Z" fill="#414143"/>
<path d="M779.914 52.3134C796.444 52.1785 812.973 52.1111 829.435 52.5159C829.368 67.5607 829.3 82.6055 829.166 97.7178C812.771 97.9202 796.309 97.9202 779.914 97.9202C779.779 82.7405 779.779 67.4932 779.914 52.3134Z" fill="#414143"/>
<path d="M1206.11 52.4484C1222.84 52.1786 1239.57 52.1111 1256.3 52.3135C1256.84 141.503 1257.04 230.625 1256.23 319.747C1240.78 319.41 1225.33 319.545 1209.88 318.87C1209.41 313.271 1208.4 302.071 1207.93 296.472C1183.98 317.184 1150.65 333.578 1119.14 319.14C1071.64 298.563 1059.23 238.923 1068.27 192.507C1073.6 156.885 1102.07 122.41 1140.12 121.871C1165.63 118.565 1188.3 132.193 1206.65 148.317C1205.5 116.406 1206.04 84.3597 1206.11 52.4484ZM1142.21 163.969C1116.37 181.308 1115.97 216.525 1119.95 244.118C1122.31 266.517 1142.55 288.646 1166.57 284.395C1187.82 283.113 1201.79 262.334 1203.95 242.634C1206.92 219.291 1207.32 192.237 1191.47 173.077C1179.86 158.707 1158.34 156.548 1142.21 163.969Z" fill="#414143"/>
<path d="M1969.16 51.8407C1985.96 51.5034 2002.76 51.5034 2019.56 51.7733C2020.03 140.963 2020.37 230.152 2019.36 319.342C2002.63 319.544 1985.9 319.612 1969.16 319.544C1968.76 230.287 1968.83 141.098 1969.16 51.8407Z" fill="#414143"/>
<path d="M566.717 124.906C581.897 125.041 597.077 125.109 612.257 124.839C612.864 133.407 613.472 141.907 614.146 150.408C629.731 137.522 645.991 121.465 667.85 122.14C709.883 116.945 747.192 152.162 753.129 192.372C763.722 240.137 749.014 303.623 697.806 321.096C667.918 332.498 638.367 317.723 616.238 298.023C616.508 329.597 616.44 361.171 615.968 392.745C599.236 392.88 582.504 393.015 565.772 392.947C566.109 303.623 564.22 214.231 566.717 124.906ZM642.618 163.834C610.031 182.927 611.178 229.613 624.266 260.512C633.644 286.217 671.494 293.57 689.035 272.386C707.454 250.392 705.092 218.683 699.83 192.304C694.028 167.679 665.894 153.512 642.618 163.834Z" fill="#414143"/>
<path d="M864.586 124.906C879.496 125.041 894.407 125.041 909.317 124.771C909.992 133.272 910.734 141.84 911.476 150.341C931.042 135.903 952.429 119.779 978.201 121.196C1006.07 121.196 1037.51 138.332 1040.68 168.556C1046.28 218.279 1041.49 268.608 1043.44 318.6C1026.24 319.342 1009.1 319.679 991.897 319.814C990.008 273.196 995.675 225.97 988.389 179.756C977.122 145.888 922.338 158.909 918.493 191.36C912.555 233.593 916.603 276.501 915.591 319.005C898.59 319.41 881.52 319.545 864.519 319.477C864.586 254.643 864.451 189.741 864.586 124.906Z" fill="#414143"/>
<path d="M1345.02 125.648C1378.01 116.271 1417.08 119.644 1443.46 143.392C1489.54 179.486 1491.97 257.274 1448.59 296.471C1401.09 346.396 1299.48 325.819 1282.68 256.397C1265.68 205.393 1290.71 140.626 1345.02 125.648ZM1364.93 164.711C1326.74 177.799 1321.88 229.41 1338.95 260.647C1353.32 289.387 1398.79 290.737 1415.8 263.953C1428.41 242.836 1429.02 215.513 1420.99 192.642C1413.57 170.378 1387.19 157.222 1364.93 164.711Z" fill="#414143"/>
<path d="M1778.43 160.596C1807.78 112.02 1885.37 108.85 1920.99 151.69C1941.84 174.898 1943.46 207.619 1944.61 237.169C1900.75 238.384 1856.76 236.832 1812.91 238.518C1817.03 260.58 1828.9 287.094 1855.28 287.229C1874.1 289.927 1883.95 272.049 1892.72 258.826C1909.66 261.389 1926.59 264.56 1943.39 268.473C1931.38 289.927 1915.8 312.056 1891.04 319.545C1853.73 330.744 1805.56 324.942 1781.81 290.737C1756.03 252.956 1755.63 199.793 1778.43 160.596ZM1813.25 205.73C1841.11 207.484 1869.04 207.552 1896.91 205.663C1891.1 185.288 1881.19 158.099 1855.14 159.651C1829.03 157.964 1817.63 184.479 1813.25 205.73Z" fill="#414143"/>
<path d="M2056.54 124.636C2072.79 124.974 2089.05 124.974 2105.31 124.839C2107.47 189.741 2106.26 254.643 2106.06 319.544C2089.32 319.544 2072.52 319.477 2055.79 319.342C2055.66 254.44 2054.17 189.471 2056.54 124.636Z" fill="#414143"/>
<path d="M779.847 125.648C796.444 125.379 813.041 125.311 829.638 125.581C828.963 190.213 829.503 254.913 829.3 319.545C812.906 319.612 796.511 319.612 780.184 319.41C779.172 254.845 779.712 190.213 779.847 125.648Z" fill="#414143"/>
<path d="M1247.06 385.121C1252.12 385.054 1262.17 385.054 1267.16 384.986C1266.69 420.743 1267.03 456.5 1266.56 492.257C1244.83 481.057 1217.31 502.444 1200.3 481.26C1187.28 463.989 1188.03 437.272 1201.99 420.811C1214.4 408.06 1232.69 415.143 1247.73 417.505C1247.4 406.71 1247.13 395.916 1247.06 385.121ZM1211.71 447.055C1207.93 463.786 1219.53 475.66 1234.04 481.057C1243.75 467.632 1254.08 448.202 1241.32 433.089C1231.2 419.259 1209.48 431.065 1211.71 447.055Z" fill="#414143"/>
<path d="M1438.73 419.192C1438.26 404.821 1449.26 394.499 1459.18 385.661C1462.75 398.547 1468.82 410.421 1476.31 421.485C1472.2 426.275 1467.95 430.931 1463.5 435.383C1462.96 449.079 1462.89 462.774 1462.96 476.537C1472.2 473.299 1481.44 469.993 1490.68 466.687C1503.77 477.01 1522.06 484.903 1534.07 468.239C1514.84 458.726 1473.68 459.131 1481.85 427.692C1494.33 404.619 1538.38 407.25 1547.15 433.292C1530.09 431.133 1513.29 427.557 1496.08 426.478C1506.94 447.662 1538.25 439.836 1548.98 460.615C1551.2 472.287 1545.2 485.443 1533.59 489.491C1516.12 497.249 1497.57 489.288 1481.17 482.812C1472.06 492.797 1459.31 492.594 1446.9 491.312C1443.39 467.362 1441.37 443.277 1438.73 419.192Z" fill="#414143"/>
<path d="M566.042 415.346C583.516 416.965 600.99 414.266 618.532 414.738C646.126 425.668 648.217 468.306 626.628 486.522C615.765 498.261 599.101 489.221 585.81 488.141C585.54 498.733 585.338 509.325 585.068 519.917C580.278 519.985 570.63 520.12 565.839 520.187C565.097 485.24 564.962 450.293 566.042 415.346ZM586.282 441.05C581.559 454.341 589.386 466.889 594.783 478.494C599.168 478.494 607.939 478.426 612.257 478.359C618.667 465.877 626.358 449.753 617.115 436.665C611.043 423.509 589.183 427.489 586.282 441.05Z" fill="#414143"/>
<path d="M645.721 434.641C655.369 409.611 694.635 403.337 710.557 424.386C716.562 446.043 713.391 469.048 714.268 491.245C695.31 488.748 676.284 492.661 657.393 490.907C644.911 485.24 641.403 467.362 649.364 456.432C661.981 449.214 676.486 446.515 689.98 441.32C703.136 440.038 688.36 423.509 681.344 428.029C669.335 429.716 657.663 432.684 645.721 434.641ZM668.862 479.033C686.809 482.744 695.242 469.588 696.254 453.531C683.705 457.174 655.166 459.671 668.862 479.033Z" fill="#414143"/>
<path d="M727.222 414.941C744.898 416.965 762.507 414.199 780.116 415.076C812.771 426.073 810.477 479.168 779.577 491.312C768.782 493.336 757.92 489.625 747.26 488.209C747.26 498.733 747.192 509.258 747.192 519.783C742.2 520.052 732.282 520.457 727.289 520.727C726.885 485.443 726.75 450.225 727.222 414.941ZM763.587 428.636C740.108 431.74 742.132 466.687 758.122 477.684C788.078 485.51 791.451 428.029 763.587 428.636Z" fill="#414143"/>
<path d="M811.826 429.446C819.99 411.298 843.873 409.139 860.268 415.886C875.583 424.319 877.135 442.737 878.889 458.187C860.875 458.322 842.861 458.659 824.915 459.806C828.356 466.687 832.876 472.692 838.408 477.887C851.767 475.188 864.518 470.128 877.742 467.092C871.198 494.416 833.146 502.174 815.132 481.732C804.877 466.755 806.226 445.976 811.826 429.446ZM825.05 446.583C836.992 446.718 849.001 446.583 860.943 446.245C856.085 438.824 853.116 428.502 842.996 426.815C832.404 427.827 828.895 438.284 825.05 446.583Z" fill="#414143"/>
<path d="M888.537 413.929C904.527 415.278 920.516 414.806 936.506 413.727C935.899 417.64 934.685 425.398 934.077 429.244C925.509 431.605 916.941 433.899 908.507 436.395C907.698 455.016 907.158 473.703 906.483 492.324C902.03 491.582 893.192 490.03 888.807 489.288C886.715 464.191 888.2 439.026 888.537 413.929Z" fill="#414143"/>
<path d="M973.546 414.266C997.16 421.08 1030.22 402.257 1044.79 428.771C1052.42 446.852 1052.35 471.207 1036.83 485.24C1025.36 497.451 1007.82 489.693 993.719 488.411C993.651 499.273 993.584 510.067 993.381 520.929C988.456 520.66 978.471 520.052 973.546 519.783C974.288 484.565 974.018 449.416 973.546 414.266ZM993.584 448.067C989.873 463.111 1002.08 473.164 1011.8 482.204C1028.13 472.017 1036.29 450.833 1024.35 434.034C1013.42 419.866 993.044 432.549 993.584 448.067Z" fill="#414143"/>
<path d="M1059.5 413.929C1075.22 415.211 1091.01 414.739 1106.73 413.524C1106.32 417.64 1105.58 425.938 1105.18 430.121C1097.08 431.808 1088.98 433.494 1080.82 435.046C1079.61 454.071 1078.86 473.164 1078.32 492.189C1073.74 492.189 1064.63 492.257 1060.11 492.257C1059.36 466.148 1059.43 440.038 1059.5 413.929Z" fill="#414143"/>
<path d="M1129.33 415.278C1155.37 403.539 1188.97 423.577 1185.33 453.464C1187.69 481.53 1155.84 501.702 1131.02 489.896C1097.96 480.113 1098.63 427.625 1129.33 415.278ZM1142.01 428.367C1123.12 434.169 1122.11 461.492 1135.4 473.501C1145.86 478.629 1161.24 475.728 1163.8 462.774C1171.5 448.202 1159.08 423.779 1142.01 428.367Z" fill="#414143"/>
<path d="M1280.93 412.985C1285.85 413.187 1295.57 413.66 1300.43 413.929C1300.16 435.518 1300.29 457.175 1303.87 478.561C1311.96 477.01 1320.06 475.323 1328.15 473.569C1329.64 453.599 1330.25 433.629 1330.31 413.66C1335.24 413.457 1345.16 413.187 1350.15 413.052C1350.49 439.094 1350.62 465.203 1349 491.245C1327.41 484.701 1295.91 502.444 1282.68 478.764C1278.63 457.107 1280.93 434.844 1280.93 412.985Z" fill="#414143"/>
<path d="M1375.79 419.057C1395.02 405.429 1432.19 412.917 1431.72 441.05C1419.71 437.475 1408.44 432.145 1396.57 428.434C1374.37 432.01 1383.68 459.873 1384.36 475.053C1400.35 476.402 1413.97 469.116 1425.85 459.131C1440.76 486.32 1401.29 499.813 1381.12 489.288C1356.96 475.93 1353.86 435.923 1375.79 419.057Z" fill="#414143"/>
<path d="M2247 51.9762C2324.58 51.9088 2402.24 50.8293 2479.83 51.9762C2458.37 140.828 2432.8 228.736 2411.41 317.589C2334.23 321.771 2256.85 318.735 2179.53 319.545C2200.78 230.018 2224.93 141.301 2247 51.9762ZM2396.77 69.5173C2393.74 82.3358 2390.16 95.0868 2387.46 107.973C2341.86 73.0255 2269.6 89.6221 2243.55 140.491C2227.9 194.194 2215.42 248.774 2201.79 303.016C2210.43 302.746 2219.06 302.544 2227.77 302.139C2238.63 254.373 2251.18 206.945 2264 159.719C2272.7 127.268 2309 110.267 2340.64 115.192C2367.76 116.541 2384.29 141.436 2398.33 161.608C2407.43 131.046 2414.99 100.079 2421.87 68.9776C2413.44 69.18 2405.14 69.3824 2396.77 69.5173ZM2431.52 69.7197C2421.74 115.664 2408.18 160.731 2397.25 206.405C2390.63 238.384 2357.98 256.195 2327.48 257.544C2298.2 254.845 2274.79 234.606 2260.83 209.778C2252.33 240.543 2243.62 271.509 2238.83 303.151C2246.73 302.814 2254.62 302.341 2262.58 301.802C2265.28 289.118 2268.25 276.502 2270.95 263.818C2293.14 273.061 2316.28 284.733 2341.18 280.685C2377.55 275.557 2414.25 249.448 2421.8 211.87C2433.54 164.239 2446.29 116.811 2457.16 68.9101C2448.59 69.1125 2440.02 69.3149 2431.52 69.7197ZM2316.28 124.434C2272.84 132.125 2252.06 189.943 2280.73 223.406C2307.78 263.144 2377.21 250.663 2388.41 203.909C2405.54 161.136 2360.41 112.628 2316.28 124.434Z" fill="#02ADEE"/>
<path d="M2316.15 150.544C2343.41 137.523 2374.71 166.735 2367.36 194.734C2360.75 220.438 2324.65 232.784 2305.02 213.759C2283.09 198.039 2290.04 157.628 2316.15 150.544Z" fill="#02ADEE"/>
</svg>
