<svg width="1969" height="972" viewBox="0 0 1969 972" fill="none" xmlns="http://www.w3.org/2000/svg">
<path d="M11.8845 0H19.6732C25.2462 21.891 41.3607 38.2757 56.4682 53.9888C101.119 100.524 160.676 128.794 220.165 151.29C178.2 180.97 154.096 227.438 117.032 262.087C108.572 269.675 105.55 281.024 101.522 291.298C51.0966 251.209 11.9516 193.46 5.30437 128.324C-3.96151 85.4823 8.25871 42.6404 11.8845 0Z" fill="#3673B6"/>
<path d="M220.166 151.289C296.844 183.118 374.664 212.261 451.074 244.964C437.309 257.185 415.555 258.864 406.423 276.121C398.903 288.276 388.831 298.482 377.417 307.078C356.132 322.925 342.368 346.092 327.462 367.647C330.685 378.257 333.169 389.135 334.31 400.215C256.289 365.028 170.143 344.413 101.522 291.297C105.551 281.023 108.572 269.675 117.032 262.087C154.096 227.437 178.201 180.969 220.166 151.289Z" fill="#4583C1"/>
<path d="M406.423 276.122C415.554 258.864 437.309 257.185 451.074 244.964C475.246 254.768 499.619 264.236 522.582 276.726C482.161 327.559 431.602 370.199 397.358 425.8C376.611 416.533 355.192 409.012 334.31 400.215C333.169 389.135 330.684 378.257 327.461 367.647C342.367 346.092 356.132 322.925 377.417 307.078C388.831 298.483 398.903 288.276 406.423 276.122Z" fill="#5192CC"/>
<path d="M522.582 276.727C550.044 291.903 574.552 312.048 595.635 335.282C571.06 343.205 554.476 362.612 533.997 376.848C529.901 396.053 515.196 409.818 498.343 418.548C491.494 431.844 485.519 445.542 479.677 459.375C452.484 447.557 424.753 437.149 397.358 425.8C431.602 370.2 482.161 327.559 522.582 276.727Z" fill="#599CD3"/>
<path d="M533.997 376.847C554.476 362.611 571.06 343.205 595.635 335.281C619.068 360.933 636.66 391.352 649.552 423.584C622.56 434.462 596.374 449.772 581.199 475.625C580.058 487.981 580.125 500.404 579.453 512.827C548.701 490.734 515.062 472.805 479.677 459.375C485.519 445.542 491.495 431.843 498.343 418.548C515.196 409.818 529.901 396.052 533.997 376.847Z" fill="#62A5DB"/>
<path d="M186.795 360.127C208.415 391.956 238.026 416.936 271.933 434.865C247.157 451.653 226.813 473.275 209.489 497.516L205.662 496.778C183.572 455.145 184.848 405.991 186.795 360.127Z" fill="#51A951"/>
<path d="M581.199 475.625C596.373 449.773 622.56 434.462 649.552 423.584C675.066 487.712 674.865 559.026 661.503 625.975C647.067 580.581 618.195 540.56 579.453 512.827C580.125 500.404 580.057 487.981 581.199 475.625Z" fill="#6AB1E3"/>
<path d="M271.934 434.865C326.656 456.42 380.841 479.184 435.765 500.202C424.955 509.268 414.346 518.937 407.296 531.36C390.174 561.578 358.549 580.111 342.435 611.135L340.085 614.828C286.168 594.011 229.163 560.168 208.885 503.56L209.49 497.516C226.813 473.275 247.157 451.653 271.934 434.865Z" fill="#6DB251"/>
<path d="M435.765 500.202C477.26 520.347 523.522 530.957 561.593 557.75C527.752 571.247 502.305 597.973 481.222 626.915C475.38 639.203 475.85 653.372 473.97 666.668C429.923 648.537 385.34 631.347 340.286 615.902L342.435 611.134C358.549 580.111 390.174 561.577 407.296 531.36C414.346 518.937 424.955 509.267 435.765 500.202Z" fill="#88BC4E"/>
<path d="M920.948 538.21C938.607 539.888 960.16 533.308 974.529 546.738C990.912 564.465 982.721 590.52 984.668 612.209C997.559 612.276 1010.52 612.276 1023.48 612.411C1026.77 636.652 1009.58 658.14 984.332 656.125C985.272 705.817 983.594 755.508 985.071 805.132C989.167 822.188 1009.78 815.473 1022.54 816.816C1022.13 831.925 1025.76 850.794 1012.06 861.471C990.845 867.917 967.949 864.023 946.396 861.404C925.715 855.763 920.411 831.119 920.679 812.518C920.881 721.06 920.478 629.601 920.948 538.21Z" fill="#565759"/>
<path d="M1094.92 628.527C1136.82 603.346 1191.61 601.868 1235.65 622.282C1268.35 637.391 1284 674.189 1288.96 707.831C1292.72 750.27 1291.38 796.604 1266.67 833.134C1232.97 883.295 1147.02 884.772 1115.2 831.321C1113.65 870.872 1117.21 910.692 1113.52 949.975C1103.92 974.821 1072.89 967.569 1052.08 968.375C1052.21 889.607 1051.95 810.84 1052.15 732.006C1053.15 694.2 1062.02 651.56 1094.92 628.527ZM1145.95 665.997C1126.07 675.599 1116.94 697.692 1116 718.71C1114.05 748.592 1114.12 783.846 1137.76 805.737C1159.91 820.778 1193.82 818.965 1211.88 798.35C1227.19 770.415 1229.81 736.102 1222.29 705.414C1219.34 669.69 1176.63 650.619 1145.95 665.997Z" fill="#565759"/>
<path d="M561.593 557.75C579.588 569.636 594.561 585.08 608.326 601.465C587.309 619.864 569.046 641.285 555.617 665.862C549.172 679.426 535.81 686.746 523.657 694.401C508.885 682.179 491.428 674.256 473.97 666.668C475.85 653.372 475.38 639.203 481.222 626.915C502.305 597.973 527.753 571.247 561.593 557.75Z" fill="#9BC34C"/>
<path d="M555.617 665.862C569.046 641.285 587.309 619.864 608.325 601.465C622.224 624.766 634.444 650.149 635.049 677.882C636.593 720.925 617.457 762.424 591.137 795.596C577.372 759.469 558.437 724.551 528.558 699.168L523.657 694.401C535.81 686.746 549.172 679.426 555.617 665.862Z" fill="#ABCA48"/>
<path d="M715.353 618.118C768.732 598.712 844.739 605.292 873.477 661.162C895.097 705.615 892.882 759.805 879.453 806.407C865.084 857.576 804.184 883.765 755.774 865.567C737.577 860.396 726.23 844.347 713.741 831.455C712.801 871.342 715.957 911.431 712.063 951.116C702.595 974.552 672.313 967.501 652.372 968.575C652.103 885.175 652.17 801.707 652.305 718.306C653.647 677.21 673.119 631.28 715.353 618.118ZM743.352 666.668C706.355 690.439 710.451 743.689 720.456 780.756C730.662 818.897 784.713 826.821 809.825 799.357C828.491 768.333 829.431 728.648 818.419 694.871C810.16 663.915 770.008 652.768 743.352 666.668Z" fill="#565759"/>
<path d="M1637.91 612.141C1661.35 612.343 1684.78 612.41 1708.21 612.074C1722.45 637.39 1737.82 662.101 1750.85 688.088C1722.58 681.91 1699.82 657.736 1669.27 661.967C1658.19 645.784 1647.85 629.13 1637.91 612.141Z" fill="#565759"/>
<path d="M1715.4 737.31C1753 773.705 1797.72 803.855 1847.07 821.785C1856.47 836.826 1866.34 851.599 1875.54 866.775C1851.16 866.842 1826.72 866.641 1802.35 866.977C1787.04 840.788 1773.01 813.928 1758.17 787.538C1756.69 787.269 1753.74 786.732 1752.26 786.464C1738.16 812.988 1724.06 839.579 1708.48 865.298C1683.64 868.723 1658.39 865.969 1633.35 866.842C1659.73 823.06 1686.99 779.749 1715.4 737.31Z" fill="#565759"/>
<path d="M1357.25 628.526C1394.99 603.412 1445.81 600.726 1487.31 617.916C1521.75 630.876 1538.74 669.622 1539.35 704.339C1540.15 758.395 1539.61 812.451 1539.55 866.507C1518.33 865.969 1482.88 871.811 1477.51 843.608C1474.42 792.977 1479.39 741.943 1475.16 691.311C1467.3 648.604 1385.72 651.76 1387.47 697.691C1386.46 753.694 1387.87 809.765 1386.79 865.768C1365.24 867.245 1343.55 867.312 1322 865.902C1322.54 814.532 1321.8 763.095 1322.27 711.725C1323.28 681.306 1332.81 648.335 1357.25 628.526Z" fill="#575859"/>
<path d="M1798.99 614.895C1821.75 602.338 1849.69 611.067 1874.6 608.918C1851.03 642.964 1829.61 678.352 1806.51 712.665C1789.26 704.943 1772.4 696.348 1754.81 689.499C1769.45 664.586 1780.66 637.256 1798.99 614.895Z" fill="#555659"/>
<path d="M1900.11 607.106C1922 607.509 1958.86 600.794 1962.82 631.28C1967.05 700.444 1962.55 769.945 1965.24 839.244C1949.66 816.816 1923.28 809.362 1899.57 798.954C1900.38 735.027 1899.84 671.033 1900.11 607.106Z" fill="#57585A"/>
<path d="M1669.27 661.967C1699.82 657.737 1722.58 681.911 1750.85 688.089L1754.81 689.499C1772.4 696.348 1789.25 704.943 1806.51 712.666C1799.33 723.88 1787.51 736.907 1798.72 749.934C1767.37 749.934 1743.06 720.455 1710.43 729.05L1709.62 729.118C1696.06 706.824 1682.16 684.731 1669.27 661.967Z" fill="#656668"/>
<path d="M528.558 699.169C558.437 724.552 577.372 759.47 591.136 795.597C580.595 807.214 569.113 817.891 557.43 828.232C542.188 789.822 518.688 755.172 486.526 729.051C501.096 719.851 514.794 709.443 528.558 699.169Z" fill="#DE8D2D"/>
<path d="M1710.43 729.05C1743.06 720.455 1767.37 749.934 1798.72 749.934C1817.05 772.228 1831.82 797.275 1847.07 821.785C1797.72 803.856 1753 773.705 1715.4 737.31L1710.43 729.05Z" fill="#77787A"/>
<path d="M438.518 752.956C454.767 745.503 470.479 736.84 486.526 729.051C518.688 755.172 542.189 789.822 557.43 828.232C537.824 839.58 519.225 852.876 498.209 861.538C491.696 847.168 487.399 831.925 480.953 817.555C470.277 798.148 453.961 782.637 437.31 768.334C437.712 763.23 438.115 758.06 438.518 752.956Z" fill="#E3A22E"/>
<path d="M327.797 853.144C341.83 801.976 389.771 767.662 438.518 752.956C438.115 758.059 437.712 763.23 437.309 768.333C453.961 782.636 470.277 798.148 480.953 817.555C487.399 831.925 491.696 847.168 498.209 861.538C458.661 882.69 409.914 885.041 376.477 916.937C362.309 929.427 352.909 946.08 342.435 961.525C325.044 928.89 315.577 889.137 327.797 853.144Z" fill="#EAB42F"/>
<path d="M1899.57 798.954C1923.28 809.362 1949.66 816.816 1965.24 839.244C1964.64 847.907 1964.03 856.636 1963.43 865.299C1942.81 865.299 1922.2 865.231 1901.59 865.634C1900.24 843.408 1899.57 821.181 1899.57 798.954Z" fill="#747577"/>
</svg>
