<svg width="1156" height="780" viewBox="0 0 1156 780" fill="none" xmlns="http://www.w3.org/2000/svg">
<g clip-path="url(#clip0_119_1838)">
<path d="M241.593 0H278.067C291.96 1.45587 305.882 3.09493 319.476 6.44054C368.946 17.9236 414.675 44.5342 449.375 81.5867C450.021 86.7063 451.997 91.5174 453.077 96.5407C459.18 121.262 457.907 147.737 449.423 171.745C441.17 195.212 426.64 216.134 408.968 233.499C387.043 255.163 360.539 271.785 332.492 284.319C275.637 309.513 212.207 318.595 150.405 313.369C126.948 311.315 103.674 307.16 80.9779 300.864C75.0292 299.341 69.2926 297.104 63.3053 295.744C65.3107 312.058 73.8626 327.282 86.0878 338.148C103.587 353.497 126.418 361.095 149.017 364.932C184.324 370.659 220.469 368.615 255.631 362.84C294.968 356.544 333.36 344.993 370.18 329.875C337.949 354.683 300.608 372.906 261.098 382.672C214.077 394.474 164.675 394.184 117.037 386.356C110.885 385.526 104.86 383.897 98.6698 383.309C103.201 392.661 110.548 400.384 118.367 407.104C139.405 424.555 166.69 432.461 193.483 435.132C238.373 439.181 283.495 429.82 325.415 414.133C341.449 408.261 356.837 400.827 372.167 393.355C361.465 403.44 349.336 411.935 337.053 419.966C303.202 441.679 263.971 455.186 223.767 457.703C199.557 459.274 175.145 457.298 151.379 452.468C179.59 475.646 215.851 489.896 252.623 488.662C288.508 487.852 322.938 475.009 354.378 458.455C365.369 452.641 376.119 446.364 386.551 439.577C389.135 437.89 391.767 436.25 394.563 434.93C373.266 459.004 345.759 477.005 316.574 490.118C289.935 502.102 261.638 509.941 233.061 515.726C193.338 511.676 154.609 498.284 120.941 476.822C75.7523 448.351 39.9153 405.494 19.6299 356.1C20.0348 354.423 20.3433 352.716 20.4301 350.99C21.1243 317.11 26.6874 282.854 40.6577 251.779C51.8224 226.836 69.0226 204.632 90.5229 187.75C93.7816 192.995 96.5005 198.577 100.155 203.591C116.429 226.759 139.906 244.153 165.533 255.771C193.984 268.613 225.29 274.842 256.46 274.822C290.331 274.948 324.422 267.726 354.802 252.608C380.468 239.708 403.79 220.743 418.513 195.781C431.143 174.56 436.667 148.779 431.943 124.385C427.653 99.9056 414.049 77.7879 396.27 60.732C372.89 38.3829 342.905 23.6796 311.628 16.1206C286.985 9.96935 261.32 8.35921 236.03 10.4129C207.964 13.0836 180.168 20.4593 155.197 33.7068C148.853 37.1681 142.509 40.7162 136.792 45.1706C135.587 45.5562 134.381 45.9226 133.167 46.2504C120.864 48.4776 109.208 53.0766 97.32 56.779C121.366 37.3609 148.95 22.3491 178.298 12.64C198.766 5.756 220.132 1.9958 241.593 0Z" fill="#DA251D"/>
<path d="M1.9668 284.136C2.93093 288.745 3.46121 293.431 3.70224 298.136C2.73811 293.527 2.19819 288.841 1.9668 284.136Z" fill="#DA251D"/>
<path d="M4.90723 304.479C5.63033 307.15 6.14132 309.879 6.41128 312.636C5.60141 309.985 5.09041 307.247 4.90723 304.479Z" fill="#DA251D"/>
<path d="M236.03 10.4128C261.319 8.35916 286.985 9.9693 311.628 16.1206C342.905 23.6796 372.889 38.3829 396.27 60.732C414.048 77.7878 427.652 99.9055 431.943 124.385C436.667 148.778 431.142 174.56 418.512 195.781C403.79 220.743 380.467 239.708 354.802 252.608C324.422 267.726 290.33 274.948 256.46 274.822C225.29 274.842 193.984 268.613 165.532 255.771C139.906 244.153 116.429 226.759 100.154 203.591C96.5001 198.577 93.7812 192.995 90.5225 187.75L91.0238 187.345C110.818 172.063 133.668 161.033 157.501 153.628C190.725 143.225 225.608 139.339 260.288 138.211C268.049 138.076 275.81 138.452 283.562 137.99C274.653 122.438 261.994 108.805 246.616 99.4909C232.781 91.2474 216.593 87.3522 200.54 87.6222C180.978 87.4872 161.965 92.954 143.598 99.1535C147.995 88.596 158.851 82.5315 169.466 79.8126C188.807 75.0014 208.957 76.7562 228.625 78.0192C218.859 63.2291 204.156 51.3797 187.061 46.2697C170.777 41.3139 153.375 42.548 136.791 45.1705C142.509 40.7162 148.853 37.1681 155.197 33.7068C180.168 20.4593 207.964 13.0835 236.03 10.4128Z" fill="#ED938F"/>
<path d="M1.08949 271.833C2.38143 273.511 2.65139 275.7 1.78367 277.657L1.29196 277.667C0.867736 275.748 0.819529 273.771 1.08949 271.833Z" fill="#ED938F"/>
<path d="M136.792 45.1704C153.375 42.5479 170.778 41.3138 187.062 46.2696C204.156 51.3796 218.859 63.229 228.626 78.0191C208.957 76.7561 188.807 75.0013 169.466 79.8125C158.851 82.5314 147.995 88.5959 143.599 99.1534C161.965 92.9539 180.978 87.4871 200.541 87.6221C216.593 87.3521 232.781 91.2473 246.617 99.4908C261.995 108.805 274.654 122.438 283.562 137.989C275.811 138.452 268.049 138.076 260.288 138.211C225.608 139.339 190.726 143.225 157.501 153.628C133.668 161.033 110.818 172.063 91.0242 187.344C86.676 180.027 84.2271 171.764 82.3759 163.511C78.018 143.745 79.9463 122.708 87.5726 103.984C91.7184 94.4579 96.4523 85.0864 102.931 76.9104C108.224 70.3638 113.489 63.7111 119.91 58.2154C124.335 54.2335 129.474 50.9939 133.167 46.2503C134.381 45.9225 135.587 45.5561 136.792 45.1704Z" fill="#EFEFEF"/>
<path d="M97.3198 56.779C109.208 53.0767 120.864 48.4777 133.166 46.2505C129.474 50.9941 124.335 54.2337 119.91 58.2156C113.488 63.7113 108.224 70.364 102.931 76.9106C96.4521 85.0866 91.7182 94.4581 87.5724 103.984C79.9461 122.708 78.0178 143.746 82.3757 163.511C84.2268 171.764 86.6757 180.027 91.024 187.345L90.5226 187.75C69.0224 204.632 51.8222 226.836 40.6575 251.779C26.6871 282.854 21.1241 317.11 20.4299 350.99C20.3431 352.716 20.0346 354.423 19.6297 356.1C18.3956 353.015 17.2386 349.891 16.0334 346.796C15.9949 346.69 15.9177 346.478 15.8792 346.362C12.7843 337.116 9.78581 327.812 7.75149 318.257C8.41674 316.84 8.17571 315.095 6.76807 314.237C6.68129 313.842 6.49811 313.041 6.41133 312.636C6.14138 309.879 5.63038 307.15 4.90728 304.48C4.84943 304.065 4.74338 303.246 4.68553 302.831C5.37007 301.568 5.12903 300.536 3.97207 299.726C3.90458 299.331 3.7696 298.54 3.70211 298.136C3.46108 293.43 2.9308 288.745 1.96666 284.136L1.87989 283.403C2.25591 281.494 2.33304 279.537 1.78348 277.657C2.6512 275.7 2.38124 273.511 1.0893 271.833C-1.21499 232.322 5.90034 192.31 21.6254 156C21.6833 155.875 21.7893 155.624 21.8472 155.499C32.848 130.006 48.2645 106.558 66.6024 85.7711C68.8006 85.9543 70.6711 84.1128 70.2565 81.8952C78.7794 73.0154 87.5724 64.3284 97.3198 56.779Z" fill="#DEDEDD"/>
<path d="M449.374 81.5869C487.882 120.625 511.648 173.249 517.683 227.598C522.465 268.421 517.49 310.371 503.144 348.898C490.735 382.335 471.308 413.159 446.385 438.68C421.549 464.211 391.256 484.314 358.321 497.812C358.225 497.86 358.022 497.937 357.926 497.976C356.412 498.583 354.908 499.191 353.413 499.808C353.25 499.866 352.922 499.991 352.768 500.058C352.295 500.222 351.37 500.55 350.907 500.724C350.685 500.801 350.232 500.965 350.01 501.042C349.538 501.206 348.612 501.534 348.14 501.697C347.976 501.755 347.648 501.871 347.484 501.929C331.769 507.588 315.484 511.647 298.959 514.068C297.002 513.219 294.726 513.296 293.136 514.839L292.413 514.935C289.655 515.051 286.898 515.292 284.188 515.784C283.571 515.851 282.357 515.996 281.74 516.063C278.047 515.977 274.345 516.121 270.681 516.68C258.147 517.278 245.536 517.037 233.06 515.726C261.637 509.941 289.935 502.102 316.574 490.118C345.758 477.005 373.265 459.005 394.563 434.93C391.767 436.251 389.135 437.89 386.551 439.577C376.119 446.365 365.369 452.641 354.378 458.455C322.937 475.01 288.508 487.852 252.623 488.662C215.85 489.896 179.589 475.646 151.379 452.468C175.145 457.298 199.557 459.275 223.766 457.703C263.97 455.187 303.201 441.679 337.052 419.966C349.335 411.935 361.464 403.441 372.166 393.356C356.836 400.828 341.449 408.261 325.415 414.133C283.494 429.82 238.373 439.182 193.482 435.132C166.689 432.462 139.404 424.556 118.367 407.104C110.547 400.384 103.201 392.661 98.6692 383.309C104.859 383.897 110.885 385.527 117.036 386.356C164.674 394.185 214.076 394.474 261.097 382.673C300.608 372.906 337.949 354.683 370.18 329.876C333.359 344.994 294.968 356.544 255.631 362.84C220.469 368.615 184.323 370.659 149.016 364.932C126.417 361.095 103.586 353.497 86.0872 338.148C73.862 327.282 65.3101 312.058 63.3047 295.745C69.292 297.104 75.0286 299.341 80.9773 300.864C103.673 307.16 126.947 311.316 150.405 313.369C212.206 318.595 275.637 309.513 332.492 284.319C360.538 271.785 387.043 255.163 408.967 233.499C426.64 216.135 441.169 195.212 449.422 171.745C457.907 147.737 459.179 121.262 453.076 96.5409C451.996 91.5177 450.02 86.7066 449.374 81.5869Z" fill="#DEDEDD"/>
<path d="M66.6025 85.7709C67.2967 84.0451 68.6272 82.7531 70.2566 81.895C70.6712 84.1126 68.8008 85.9541 66.6025 85.7709Z" fill="#DE5B55"/>
<path d="M3.97266 299.726C5.12962 300.536 5.37066 301.568 4.68612 302.831C3.68342 301.973 3.45203 300.931 3.97266 299.726Z" fill="#DE5B55"/>
<path d="M6.76844 314.237C8.17608 315.095 8.41712 316.84 7.75186 318.257C6.74916 317.158 6.34422 315.673 6.76844 314.237Z" fill="#DE5B55"/>
<path d="M293.137 514.838C294.728 513.296 297.003 513.219 298.96 514.067C297.176 515.089 295.123 515.243 293.137 514.838Z" fill="#DE5B55"/>
<path d="M284.189 515.784C286.899 515.292 289.656 515.051 292.414 514.935C289.704 515.494 286.947 515.726 284.189 515.784Z" fill="#DE5B55"/>
<path d="M270.682 516.68C274.345 516.121 278.048 515.976 281.74 516.063C278.086 516.67 274.374 516.786 270.682 516.68Z" fill="#DE5B55"/>
<path opacity="0.17" d="M1.29222 277.666L1.78393 277.657C2.33349 279.537 2.25635 281.494 1.88034 283.403C0.761942 281.677 0.39557 279.575 1.29222 277.666Z" fill="#A5605D"/>
<path d="M495.055 532.791C536.937 523.911 580.16 518.531 622.9 523.67C643.108 526.264 663.365 531.287 681.211 541.401C692.916 548.15 703.675 557.416 709.788 569.67C716.306 582.541 716.151 598.44 709.605 611.273C703.666 623.325 693.484 632.697 682.445 640.053C666.894 650.312 649.385 657.234 631.596 662.499C629.794 662.74 630.979 664.321 631.731 665.005C652.287 685.185 661.938 713.657 682.397 733.923C695.75 747.604 713.847 756.561 732.744 759.184C746.396 694.971 760.309 630.817 774.067 566.623C776.207 558.245 777.596 548.796 773.353 540.822C770.48 534.797 764.686 531.21 759.557 527.334C781.124 526.389 802.731 526.322 824.318 525.714C827.22 525.733 830.286 525.203 833.043 526.418C845.133 531.277 854.842 540.418 863.259 550.136C877.606 567.057 888.529 586.485 899.337 605.768C912.623 629.071 924.646 653.262 940.679 674.859C949.694 629.804 959.017 584.807 967.955 539.733C968.909 535.066 969.767 530.361 971.021 525.753C996.031 525.685 1021.04 525.84 1046.05 525.724C1045.39 534.093 1043.2 542.24 1042.08 550.551C1028.93 626.777 1015.82 703.003 1002.66 779.219C988.558 779.817 974.405 779.267 960.28 779.489C957.61 779.344 954.621 780.029 952.317 778.342C935.868 767.929 922.014 753.862 910.251 738.435C886.312 706.734 870.635 669.72 846.936 637.845C844.651 634.856 842.472 631.761 839.773 629.129C833.68 651.093 828.579 673.336 822.765 695.386C816.836 719.364 810.608 743.266 804.688 767.254C803.55 771.323 802.76 775.507 801.294 779.489C749.838 779.441 698.382 779.479 646.936 779.47C642.154 779.248 637.738 777.098 633.38 775.333C620.162 769.587 609.016 759.975 599.867 748.983C587.458 734.212 578.386 717.089 567.703 701.123C560.424 690.054 552.161 679.439 541.758 671.147C540.717 670.279 539.521 669.672 538.297 669.151C530.873 705.818 522.591 742.321 515.331 779.026C513.904 779.306 512.468 779.508 511.022 779.499C489.155 779.441 467.279 779.46 445.412 779.489C444.139 779.441 442.867 779.335 441.613 779.161C454.485 719.432 467.385 659.712 480.285 599.993C483.196 588.201 485.607 574.925 479.668 563.634C474.905 554.137 464.859 548.921 454.996 546.27C455.4 546.048 456.21 545.605 456.625 545.383C466.44 542.876 476.949 544.052 486.552 540.591C490.399 539.347 493.175 536.252 495.055 532.791ZM557.56 554.764C554.196 574.211 551.11 593.706 547.823 613.173C545.788 626.391 543.118 639.513 541.498 652.79C563.017 652.452 584.826 649.695 604.919 641.625C617.327 636.515 629.34 628.985 636.861 617.598C643.831 607.388 645.567 593.523 640.322 582.204C634.903 569.853 623.478 561.06 611.051 556.49C593.995 550.069 575.088 550.715 557.56 554.764Z" fill="#18434C"/>
<path d="M1068.87 524.412C1084.08 523.882 1099.32 524.345 1114.54 524.171C1124.94 524.326 1136.06 524.065 1145.44 529.224C1151.16 532.241 1154.33 538.238 1156 544.255V561.532C1144.1 634.046 1132.76 706.657 1121.13 779.219C1110.58 779.797 1100.01 779.296 1089.46 779.498C1085.39 779.807 1081.84 777.551 1078.55 775.497C1072.73 771.833 1067.65 766.839 1064.42 760.726C1060.96 754.228 1059.39 746.872 1058.99 739.573C1058.35 726.306 1059.92 713.02 1062.73 700.072C1067.28 678.098 1071.38 656.039 1075.74 634.037C1079.67 614.956 1083.32 595.818 1086.94 576.679C1089.24 564.232 1090.04 550.425 1083.58 539.029C1080.17 532.81 1074.25 528.751 1068.87 524.412Z" fill="#18434C"/>
</g>
<defs>
<clipPath id="clip0_119_1838">
<rect width="1156" height="780" fill="white"/>
</clipPath>
</defs>
</svg>
