<svg width="3414" height="512" viewBox="0 0 3414 512" fill="none" xmlns="http://www.w3.org/2000/svg">
<g clip-path="url(#clip0_119_2392)">
<path d="M292.867 0H383.026C396.893 1.08 410.84 3.69333 423.413 9.90667C441.693 18.56 455.973 34.0933 465.507 51.72C494.467 105.013 523.333 158.36 552.413 211.6C554.867 216.147 558.093 220.427 559.333 225.52C560.893 231.973 556.027 238.36 550.12 240.453C544.293 242.387 538.093 241.133 532.133 240.587C470.573 234.187 409.013 227.893 347.44 221.6C327.026 219.573 306.947 211.64 291.853 197.547C281.6 188.373 274.68 176.36 266.947 165.16C237 120.827 207.24 76.3733 177.52 31.8933C174.6 27.4667 171.76 22.68 171.4 17.2533C170.987 10.7467 174.987 3.77333 181.44 1.90667C187.48 0.146667 193.84 0.933333 200.027 0.853333C228.013 0.706667 256.013 0.626667 284 0.76C286.973 0.813333 289.947 0.546667 292.867 0Z" fill="#6F9AB8"/>
<path d="M2494.04 28.9865C2542.83 23.5332 2593.48 36.4798 2633.35 65.1998C2671.65 92.3865 2699.65 133.12 2712.76 178.093C2725.91 221.093 2719.95 266.48 2721.68 310.667C2722.03 358.227 2720.77 405.813 2722.08 453.373C2721.99 458.893 2722.51 465.933 2717.41 469.52C2712.15 472.493 2705.83 471.413 2700.08 471.28C2684.04 470.293 2667.96 470.507 2651.93 471.493C2647.33 471.573 2641.81 471.933 2638.4 468.307C2635.33 464.493 2635.43 459.306 2635.33 454.693C2635.96 382.213 2635.88 309.733 2635.55 237.266C2634.87 211.253 2627.27 185.066 2611.8 163.947C2595 140.96 2570.4 123.16 2542.45 116.773C2516.87 110.733 2489.23 114.907 2466.29 127.626C2437.85 143.066 2417.11 170.72 2407.72 201.453C2402.41 217.28 2401.93 234.133 2401.92 250.666C2401.87 318.667 2401.64 386.667 2402.2 454.667C2402.05 459.787 2402.36 466.347 2397.61 469.627C2392.63 472.36 2386.71 471.307 2381.31 471.253C2362.24 470.147 2343.13 471.2 2324.08 471.227C2317.92 471.56 2314.99 465.24 2315.56 459.947C2316 382.613 2314.91 305.253 2316.63 227.933C2317.51 180.8 2336.65 134.906 2367.13 99.2398C2399.08 61.6532 2444.51 34.2532 2494.04 28.9865Z" fill="black"/>
<path d="M1311.25 30.2661C1360.99 25.1594 1412.48 37.0128 1454.49 64.2394C1503.2 95.4528 1538.24 146.453 1551.45 202.626C1565.4 259.946 1556.72 322.506 1526.91 373.493C1497.24 425.039 1447.15 465.119 1389.29 480.013C1346.35 491.466 1300.17 487.279 1258.71 471.999C1217.59 456.839 1181.41 428.906 1155.95 393.279C1125.36 350.799 1109.75 297.706 1113.05 245.426C1115.17 194.399 1134.91 144.279 1168.43 105.719C1204.33 63.8528 1256.27 35.8661 1311.25 30.2661ZM1319.27 115.613C1291.67 118.893 1265.48 131.559 1245.19 150.439C1213.33 179.666 1196.08 223.706 1199.09 266.773C1201.64 312.146 1226.89 355.719 1265.55 379.799C1288.37 394.226 1315.72 401.453 1342.71 399.693C1369.55 398.093 1395.63 387.746 1416.72 371.146C1447.29 347.306 1467.47 310.693 1471.28 272.106C1475.73 230.533 1460.85 187.506 1431.92 157.373C1403.52 127.053 1360.73 110.253 1319.27 115.613Z" fill="black"/>
<path d="M2080.91 34.5069C2116.76 32.3869 2152.77 34.9736 2188.25 40.3069C2221.92 44.4669 2251.52 67.0002 2267.31 96.6136C2282.29 123.907 2287.13 156.12 2283.21 186.854C2280.23 210.987 2271.68 234.814 2256.4 253.934C2243.88 269.787 2226.85 281.92 2207.95 288.987C2192.24 294.92 2175.39 297.427 2158.65 297.48C2125.79 297.654 2092.92 297.814 2060.07 297.36C2045.13 297.054 2029.67 290.094 2022.01 276.814C2012.31 259.907 2014.01 235.68 2029.11 222.4C2038.55 213.894 2051.63 210.814 2064.07 210.934C2088.48 210.934 2112.89 211.174 2137.32 210.934C2147.97 210.774 2159 211.854 2169.23 208.16C2181.01 204.32 2191.07 195.24 2195.56 183.627C2201.11 169.414 2199.31 152.094 2189.65 140.054C2181.36 129.574 2167.84 124.36 2154.72 124.2C2120.91 123.76 2087.05 123.24 2053.27 124.934C2028.28 126.494 2004.09 136.88 1985.45 153.52C1960.68 175.414 1945.71 207.187 1942.03 239.84C1939.23 262.28 1941.77 285.56 1951.01 306.32C1967.83 345.334 2004.88 375.987 2047.43 381.694C2061.8 383.347 2076.32 382.6 2090.76 382.934C2144.96 382.48 2199.15 383.667 2253.33 382.8C2257.4 382.934 2262.15 382.36 2265.48 385.24C2268.83 388.827 2267.84 394.16 2267.95 398.64C2267.07 420.454 2267.93 442.28 2267.76 464.107C2268.23 469.187 2263.21 472.214 2258.64 471.56C2186.61 469.814 2114.39 475.44 2042.52 468.654C1998.95 464.654 1957.17 445.707 1924.73 416.48C1890.61 385.974 1866.57 344.294 1857.73 299.36C1846.69 246.454 1855.28 189.454 1882.85 142.827C1906.72 101.734 1944.93 69.2536 1989.32 52.2669C2018.51 41.0136 2049.83 36.5469 2080.91 34.5069Z" fill="black"/>
<path d="M116.36 38.9467C121.987 33.8933 131.667 35.32 136.173 41.2C139.587 45.6667 141.44 51.0533 143.88 56.0667C169.453 111.773 195.107 167.44 220.653 223.16C229.16 241.613 232.587 262.733 228.093 282.72C225.653 294.947 219.96 306.133 214.52 317.24C190.2 367.32 166.747 417.827 142.827 468.107C139.68 474.987 133.627 482.32 125.2 481.267C116.787 480.373 112.973 471.76 109.16 465.373C77.7332 413.387 45.8266 361.68 14.2266 309.8C4.53324 293.987 -0.826757 275.533 -9.00999e-05 256.933V251.333C0.79991 242.933 2.33324 234.56 5.33324 226.653C9.23991 215.733 15.6666 206.013 21.5199 196.067C49.9999 148.16 78.5732 100.307 107.147 52.4533C110.013 47.84 112.24 42.64 116.36 38.9467Z" fill="black"/>
<path d="M1597.01 53.3329C1597.01 48.5462 1597.15 41.8262 1602.65 40.0395C1609.17 38.4529 1615.95 39.7462 1622.57 39.7062C1638.16 40.2262 1653.75 40.0129 1669.32 39.2129C1673.81 39.1862 1679.39 38.9462 1682.45 42.8795C1685.31 47.1062 1685 52.4929 1685.11 57.3729C1684.43 150.253 1684.71 243.133 1684.85 336.013C1685.2 348.133 1685.68 361.613 1693.75 371.44C1702.2 381.106 1716.03 382.386 1728.05 382.92C1762.28 383.253 1796.52 382.76 1830.75 383.173C1837.6 383.32 1840.15 390.48 1843.05 395.48C1856.33 417.813 1874 437.466 1894.23 453.746C1900.61 459.253 1907.67 464.013 1913.64 470C1842.48 470.32 1771.04 476.12 1700.09 468.146C1651.43 462.146 1610.32 422.12 1600.09 374.626C1596.65 360.213 1597.53 345.333 1597.37 330.653C1597.01 238.213 1597.44 145.773 1597.01 53.3329Z" fill="black"/>
<path d="M2777.8 40.6402C2780.47 39.1736 2783.67 39.5069 2786.65 39.4536C2807.09 40.0002 2827.56 40.1736 2848.01 39.3736C2852.16 39.4136 2857.29 38.8669 2860.32 42.3869C2862.92 45.8802 2862.51 50.5202 2862.68 54.6402C2862.11 130.654 2862.49 206.667 2862.41 282.68C2862.37 340.467 2862.29 398.267 2862.68 456.04C2862.51 460.694 2862.87 466.454 2858.84 469.68C2853.95 472.64 2847.95 471.334 2842.56 471.374C2822.64 470.187 2802.71 471.587 2782.8 471.28C2776.73 471.494 2774.03 465.2 2774.64 460C2774.81 324 2774.92 188 2774.64 52.0136C2774.81 48.1602 2774.09 43.1069 2777.8 40.6402Z" fill="black"/>
<path d="M749.32 49.4533C760.36 45.1866 772.093 42.6266 783.973 42.7066C867.973 42.4799 951.973 42.7066 1035.97 42.2666C1040.37 42.3999 1045.67 42.1999 1048.84 45.8133C1051.63 49.9066 1050.8 55.1866 1050.76 59.8666C1049.71 78.5599 1050.01 97.2933 1050.83 115.987C1050.84 119.893 1050.97 124.8 1047.36 127.28C1043.59 129.64 1038.93 129.133 1034.71 129.267C956.92 128.867 879.133 130.013 801.346 128.52C791.053 128.28 780.32 129.893 771.56 135.627C763.48 140.72 758.053 149.36 756.066 158.627C753.12 172 755.786 186.173 761.72 198.36C764.76 204.693 770.466 209.6 777.146 211.773C786.213 214.973 795.96 214.293 805.426 214.48C856.08 214.493 906.76 215.627 957.4 213.987C989.16 212.96 1020.88 225.107 1044.39 246.36C1063.53 263.52 1076.89 286.853 1082.45 311.92C1088.53 339.427 1086.95 368.893 1076.36 395.107C1067.32 417.733 1051.35 437.48 1031.15 451.107C1013.55 462.613 993.226 471.307 972 472.24C860.546 472.44 749.08 472.333 637.626 472.44C649.12 449.2 661.253 426.253 672.093 402.693C674.4 397.787 676.666 392.427 681.346 389.307C686.013 386.133 691.866 385.987 697.306 386.027C783.106 386.2 868.907 386.493 954.707 386.133C966.827 385.733 979.933 383.04 988.733 374.04C997.08 365.533 998.96 352.813 997.84 341.387C996.706 330.56 994.4 318.933 986.68 310.733C979.186 302.867 967.733 300.907 957.333 300.907C903.08 300.907 848.826 300.813 794.573 300.76C765.853 300.667 736.733 292.067 714.013 274.173C689.48 255.293 673.573 226.48 668.44 196.133C662.733 164.867 667.706 131.427 684 103.96C698.573 78.9199 722.173 59.4799 749.32 49.4533Z" fill="black"/>
<path d="M3007.53 44.5994C3017.73 42.3994 3028.25 42.6527 3038.65 42.5727C3115.55 42.5594 3192.44 42.626 3269.33 42.226C3276.01 42.4927 3283.08 41.2927 3289.45 43.8927C3294.36 46.3727 3294.11 52.6794 3294 57.3994C3292.79 76.4794 3293.01 95.626 3293.96 114.733C3293.99 119.079 3294.13 124.666 3289.95 127.279C3285.27 129.853 3279.75 129.106 3274.67 129.266C3201.8 128.746 3128.93 128.906 3056.07 128.973C3044.91 129.013 3033.37 128.359 3022.75 132.306C3011.55 136.013 3001.76 144.653 2998 155.986C2993.6 168.586 2996.24 182.519 3001.71 194.373C3005.17 202.293 3011.81 208.893 3020.07 211.679C3029.4 215.066 3039.47 214.439 3049.23 214.479C3093.24 214.586 3137.25 215.279 3181.27 214.533C3194.21 214.399 3207.25 213.146 3220.13 215.106C3256.83 220.213 3290.28 243.026 3309.36 274.639C3321.29 294.199 3327.55 317.119 3327.35 340.026C3327.47 372.839 3317.71 406.706 3295.47 431.453C3273.92 455.879 3241.65 469.693 3209.35 470.959C3106.76 471.253 3004.17 471.333 2901.6 471.293C2915.16 445.146 2929.08 419.186 2942.16 392.786C2943.81 388.893 2947.36 385.279 2951.96 385.879C2965.27 386.893 2978.61 386.159 2991.96 386.306C3059.55 386.199 3127.15 386.213 3194.73 386.226C3206.55 386.306 3219.43 384.853 3228.71 376.813C3237.65 369.093 3240.36 356.639 3240.17 345.306C3240.05 333.239 3238 319.866 3228.93 311.093C3220.29 302.719 3207.61 300.853 3196.08 300.813C3140.96 300.799 3085.84 300.813 3030.72 300.586C3006.49 300.266 2982.39 292.733 2962.51 278.853C2940.32 263.573 2923.55 240.679 2915.59 214.946C2909.43 195.493 2908.83 174.719 2910.89 154.559C2913.61 128.933 2923.04 103.573 2940.16 84.0527C2957.52 63.9594 2981.92 50.826 3007.53 44.5994Z" fill="black"/>
<path d="M3322.61 432.173C3333.57 427.813 3345.81 427.013 3357.39 429.12C3360.77 429.813 3364.16 430.493 3367.67 430.68C3362.95 435.346 3355.2 431.413 3350.41 435.8C3347.28 439.626 3348.56 444.933 3348.8 449.44C3349.56 457.133 3350.21 466.226 3344.51 472.293C3336.44 462.88 3344.35 449.813 3338.95 439.626C3335.59 434 3328.47 433.12 3322.61 432.173Z" fill="black"/>
<path d="M3403.12 429.733C3406.08 427.026 3410.51 428.64 3413.33 430.8V434.12C3411.87 446.986 3414.59 460.106 3411.57 472.826C3409.03 470.6 3406.25 468.133 3405.83 464.586C3405.05 459.133 3405.59 453.493 3403.64 448.24C3397.57 455.226 3397.87 465.826 3390.35 471.88C3382.73 465.56 3383.51 454.48 3377.27 447.253C3374.56 452.533 3376 458.453 3375.68 464.093C3375.6 467.413 3373.09 469.853 3371.21 472.306C3369.4 468.933 3368.07 465.253 3368.09 461.386C3367.97 452.013 3369.17 442.533 3367.48 433.226C3368.19 432.626 3368.92 432 3369.65 431.32C3373.91 433.053 3378.79 434.533 3381.44 438.64C3385.53 444.746 3387.43 451.96 3390.32 458.666C3397.2 450.253 3396.64 438.346 3403.12 429.733Z" fill="black"/>
<path d="M444.187 278.226C478.133 273.92 512.72 269.493 546.8 274.973C551.2 275.933 556.88 276.786 558.893 281.426C560.24 286.32 557.44 291.093 555.467 295.426C527.547 347.853 499.853 400.413 470.92 452.293C466.32 460.466 462.12 468.92 456.52 476.48C448.093 488.053 436.973 497.786 423.973 503.88C415.28 508.12 405.8 510.333 396.32 512H185.853C180.813 511.186 175.107 509.706 172.28 505.026C169.533 500.48 170.893 494.76 173.133 490.32C176.107 484.64 180.147 479.626 183.64 474.28C217.773 424.56 251.773 374.746 287.36 326.053C292.453 318.84 298.08 311.88 305.013 306.333C316.867 296.533 331.747 290.946 346.867 288.746C358.64 286.826 370.6 287.52 382.453 286.506C403.16 284.853 423.6 280.893 444.187 278.226Z" fill="#4F7695"/>
</g>
<defs>
<clipPath id="clip0_119_2392">
<rect width="3413.33" height="512" fill="white"/>
</clipPath>
</defs>
</svg>
