<svg width="1363" height="1033" viewBox="0 0 1363 1033" fill="none" xmlns="http://www.w3.org/2000/svg">
<path d="M680.295 315.68C690.033 315.712 700.031 315.289 709.346 318.805C697.947 319.847 686.515 319.164 675.116 319.326C676.419 318.415 678.992 316.591 680.295 315.68Z" fill="white"/>
<path d="M568.096 434.169C582.654 431.434 597.049 427.95 611.249 423.652C628.413 422.057 645.707 423.619 662.968 422.871C675.312 421.829 686.288 428.569 698.305 430.197C727.454 436.155 753.542 451.72 782.723 457.548C782.17 459.046 780.997 462.042 780.411 463.507C776.666 464.94 772.985 466.405 769.305 467.935C748.266 458.427 725.696 453.152 703.516 447.063C678.373 444.589 652.872 444.914 627.664 446.575C597.375 454.032 567.379 463.539 536.244 466.958C510.319 471.647 483.84 469.368 457.688 469.433C435.899 466.926 411.961 459.599 398.348 441.235C409.454 438.37 420.169 444.133 431.34 443.286C462.703 442.472 494.132 444.003 525.463 442.537C539.435 438.63 553.798 436.611 568.096 434.169Z" fill="white"/>
<path d="M807.508 3.32126C864.08 -2.05131 921.922 0.716383 976.735 16.5411C1012.07 26.8629 1045.85 44.6738 1071.18 71.7972C1089.55 92.9619 1104.37 118.392 1107.47 146.72C1113.56 185.696 1100.5 224.313 1082.32 258.307C1041.71 331.179 976.703 386.533 908.243 432.411C861.963 463.898 813.501 492.519 761.912 514.335C693.062 542.207 619.88 559.236 545.754 563.925C489.377 565.26 431.665 562.981 378.123 543.542C335.783 529.443 294.03 502.776 275.336 460.674C249.639 407.079 259.866 342.38 289.21 292.398C330.409 220.764 395.221 166.127 464.267 122.397C497.454 102.991 530.707 83.6169 565.555 67.2712C642.385 34.0264 723.937 10.6475 807.508 3.32126ZM682.314 53.7584C620.759 79.0909 559.302 107.028 506.411 148.023C443.032 194.585 388.935 254.595 353.012 324.797L351.253 323.331C350.602 325.969 349.364 331.211 348.746 333.849C341.255 347.199 337.314 362.144 331.517 376.243C325.263 390.57 327.478 406.492 327.12 421.666C327.38 434.528 326.306 447.519 327.902 460.316C331.777 475.424 342.036 487.472 349.495 500.854C356.236 512.609 368.84 518.535 379.914 525.405C397.989 538.007 420.429 540.905 440.361 549.533C447.787 553.05 456.19 551.812 464.136 552.008C493.969 551.357 523.835 552.561 553.668 551.292L555.101 548.361C572.655 543.086 591.415 544.454 608.741 538.169C628.38 535.532 645.642 524.819 665.216 521.596C682.412 514.139 700.683 508.702 716.446 498.315C725.5 492.584 736.378 490.565 745.269 484.509C751.132 480.699 757.32 477.443 763.703 474.61C768.523 473.243 770.38 470.996 769.305 467.935C772.985 466.405 776.666 464.94 780.411 463.507C792.168 460.804 802.916 455.301 811.384 446.64C833.889 435.048 853.398 418.833 874.079 404.409C874.339 402.422 874.86 398.482 875.121 396.496C884.696 391.156 891.959 382.755 900.72 376.308C908.569 370.61 919.805 370.415 925.7 361.949C930.032 356.414 938.793 350.748 932.67 343.226C933.679 342.64 935.666 341.435 936.676 340.849C976.377 297.966 1012.63 249.678 1030.15 193.185C1038.42 161.829 1043.47 127.216 1030.41 96.4459C1025.75 82.0214 1014.74 71.1134 1005.43 59.6519C971.394 25.3651 921.466 13.5129 874.502 13.6757C808.583 14.4572 743.739 30.7051 682.314 53.7584Z" fill="#B0D237"/>
<path d="M867.272 247.562C883.394 247.204 899.581 245.967 915.637 247.497C923.063 248.278 925.44 256.354 927.264 262.377C919.838 263.126 912.478 263.973 905.085 264.852C905.15 261.954 905.215 259.056 905.313 256.158C893.197 256.419 880.202 258.372 869.096 252.316C868.64 251.111 867.728 248.734 867.272 247.562Z" fill="#A5AAA6"/>
<path d="M918.307 270.974C919.936 270.062 923.16 268.238 924.788 267.327C925.407 270.322 926.677 276.314 927.296 279.277C924.723 279.146 919.577 278.853 917.037 278.723C917.33 276.769 917.982 272.927 918.307 270.974Z" fill="#A5AAA6"/>
<path d="M6.44907 636.146C7.75182 636.667 10.3899 637.676 11.6926 638.197L12.572 639.435C8.33804 661.804 11.1389 684.727 10.5853 707.357C4.5275 702.994 6.35136 695.179 6.09081 688.797C6.64448 671.247 5.83026 653.696 6.44907 636.146Z" fill="#A5AAA6"/>
<path d="M167.143 637.611C168.608 637.546 171.539 637.416 173.005 637.318C172.972 657.636 171.8 678.019 173.787 698.305C179.682 698.565 185.576 698.858 191.471 699.184C190.364 700.91 188.215 704.394 187.14 706.119C188.866 706.087 192.318 706.022 194.077 705.989C188.117 712.729 176.457 712.664 170.888 705.468C172.451 705.631 175.545 705.989 177.076 706.152C173.461 699.64 167.957 693.421 168.38 685.508C167.957 669.553 168.738 653.533 167.143 637.611Z" fill="#A5AAA6"/>
<path d="M588.745 697.752C588.81 679.81 587.605 661.706 590.602 643.896C595.91 644.416 601.284 644.872 606.593 645.621C607.668 646.403 609.785 647.933 610.859 648.715C605.03 648.552 599.232 648.487 593.435 648.421C592.588 665.646 592.491 682.904 593.859 700.096C592.556 699.51 590.015 698.338 588.745 697.752Z" fill="#A5AAA6"/>
<path d="M621.606 652.166C628.283 664.018 628.153 680.722 621.672 692.639C621.834 679.159 621.802 665.646 621.606 652.166Z" fill="#A5AAA6"/>
<path d="M856.069 675.252C866.621 674.21 877.271 674.177 887.856 674.959C888.866 685.411 885.804 697.231 892.188 706.478L893.165 708.171C891.211 707.943 887.27 707.52 885.316 707.324C885.088 697.524 884.925 687.755 884.697 677.987C876.652 677.661 868.608 677.596 860.564 677.824C860.27 687.202 860.857 696.677 859.13 705.957C855.613 706.869 852.03 707.618 848.48 708.204L850.272 706.51C851.77 705.143 854.701 702.44 856.167 701.105C856.134 692.477 856.134 683.88 856.069 675.252Z" fill="#A5AAA6"/>
<path d="M360.145 957.915C373.726 963.189 366.072 980.414 367.994 991.615C380.696 982.303 384.311 963.645 400.107 958.305C400.986 971.981 386.102 978.949 383.236 991.094C388.48 1005.23 401.116 1015.74 403.559 1031.05C389.229 1030.53 387.177 1013.4 379.263 1004.48C376.657 998.714 371.544 1003.6 367.798 1005.03C367.114 1014.34 371.869 1027.82 360.145 1031.57C359.559 1007.02 359.559 982.433 360.145 957.915Z" fill="#A5AAA6"/>
<path d="M422.937 960.292C431.373 957.784 443.162 956.417 449.611 963.906C461.303 973.935 458.567 990.964 458.567 1004.67C458.926 1017.47 448.862 1032.71 434.76 1030.92C422.774 1033 413.492 1021.41 411.017 1010.92C409.975 993.634 406.751 971.948 422.937 960.292ZM429.907 967.162C415.479 974.163 420.462 991.843 419.811 1004.64C418.703 1012.26 423.524 1018.74 429.874 1022.35C437.496 1024.76 447.299 1019.29 447.917 1010.99C449.318 1000.21 449.351 989.238 447.885 978.493C447.266 970.223 437.43 964.752 429.907 967.162Z" fill="#A5AAA6"/>
<path d="M464.593 959.477C479.835 958.501 495.175 958.566 510.45 959.184C510.222 961.301 509.766 965.566 509.538 967.683C504.196 968.171 498.855 968.692 493.514 969.246C491.918 989.401 493.221 1009.59 492.504 1029.78C490.452 1029.84 486.316 1029.94 484.264 1029.97C482.408 1009.75 483.808 989.466 483.059 969.213C477.295 968.432 471.562 967.715 465.83 966.966C465.505 965.11 464.886 961.366 464.593 959.477Z" fill="#A5AAA6"/>
<path d="M536.342 958.077C540.902 960.291 544.712 963.678 545.819 968.855C552.333 989.206 560.019 1009.26 564.84 1030.13C562.69 1030 558.358 1029.74 556.176 1029.61C554.19 1024.21 552.724 1018.54 549.532 1013.72C542.888 1010.5 534.909 1012.62 527.744 1012.23C525.073 1018.9 522.891 1026.91 515.042 1029.19C517.387 1004.51 527.027 980.902 536.342 958.077ZM537.84 975.269C535.43 983.638 532.336 991.843 530.349 1000.37C534.42 1006.33 542.237 1002.43 548.001 1001.97C545.168 992.852 542.009 983.833 537.84 975.269Z" fill="#A5AAA6"/>
<path d="M596.17 975.204C596.593 950.425 639.942 954.691 636.425 978.395C626.589 983.28 626.068 965.892 616.786 966.413C609.556 965.762 603.303 973.414 605.387 980.382C610.272 988.229 620.108 989.89 627.599 994.253C638.379 999.202 641.962 1015.42 633.429 1023.98C621.834 1038.83 593.271 1029.68 593.662 1009.98C602.684 1008.51 605.843 1018.35 612.161 1022.61C616.949 1023.59 621.671 1021.41 626.329 1020.53C626.524 1015.29 626.752 1010.04 626.947 1004.84C614.343 998.16 593.564 993.797 596.17 975.204Z" fill="#A5AAA6"/>
<path d="M647.042 959.445C649.257 959.51 653.752 959.608 655.966 959.673C658.507 977.549 656.455 995.653 657.53 1013.59C657.334 1026.75 680.295 1026.1 680.784 1013.56C681.598 996.043 680.295 978.493 681.402 961.008C683.487 961.008 687.623 961.04 689.707 961.04C690.033 979.763 691.271 998.583 689.447 1017.24C684.106 1036.35 652.514 1035.87 647.14 1017.08C645.219 997.965 646.359 978.623 647.042 959.445Z" fill="#A5AAA6"/>
<path d="M705.992 960.031C718.694 957.263 736.378 956.482 742.925 970.418C749.862 981.488 740.189 992.168 735.695 1001.94C736.737 1011.9 746.149 1019.85 744.455 1030.26C742.925 1030.23 739.863 1030.23 738.333 1030.23C732.112 1022.55 730.06 1012.49 724.849 1004.22C721.788 1001.42 717.098 1002.91 713.385 1002.13C712.766 1011.71 712.343 1021.28 711.626 1030.85C700.553 1031.53 704.787 1018.05 703.712 1011.05C704.982 994.122 701.367 976.474 705.992 960.031ZM712.441 968.79C712.441 975.953 712.05 983.214 712.994 990.378C715.958 995.978 723.742 993.894 728.595 992.396C736.9 987.708 733.024 976.637 733.968 968.92C726.771 968.594 719.606 968.529 712.441 968.79Z" fill="#A5AAA6"/>
<path d="M767.841 972.469C770.055 967.39 771.651 958.175 779.077 959.705C787.219 974.977 790.313 992.201 796.175 1008.35C798.944 1015.74 800.637 1023.53 800.572 1031.47C790.573 1030.1 791.974 1017.6 785.232 1012.55C778.49 1011.74 771.684 1012.1 764.942 1012.13C763.02 1017.96 761.099 1023.79 759.242 1029.65C757.223 1029.71 753.217 1029.84 751.23 1029.94C754.259 1010.11 762.434 991.68 767.841 972.469ZM775.364 975.302C772.693 984.126 770.218 993.048 767.743 1001.97C772.791 1002.75 777.839 1003.47 782.92 1004.22C783.05 994.025 780.933 983.898 775.364 975.302Z" fill="#A5AAA6"/>
<path d="M812.134 959.152C824.64 959.38 841.413 954.984 849.457 967.65C855.776 975.367 849.588 984.061 846.917 991.81C850.434 1001.29 856.948 1012.62 849.881 1022.12C841.12 1034.2 824.868 1030.27 812.166 1030.3C810.994 1006.63 811.026 982.856 812.134 959.152ZM823.207 969.05C817.084 975.107 821.709 984.028 823.142 991.062C830.795 990.899 842.422 988.62 841.185 978.493C843.562 967.911 830.568 966.445 823.207 969.05ZM821.709 998.16C821.253 1005.84 821.318 1013.53 821.969 1021.21C828.385 1020.99 834.834 1020.63 841.283 1020.24C842.39 1013.95 846.038 1006.92 842.683 1000.8C836.69 996.76 828.548 999.006 821.709 998.16Z" fill="#A5AAA6"/>
<path d="M884.533 958.989C885.804 959.282 888.311 959.901 889.582 960.194C897.04 975.66 900.459 992.657 906.224 1008.77C908.243 1015.68 911.826 1022.65 910.458 1030.07C900.101 1031.76 902.088 1017.34 895.77 1012.45C888.474 1011.54 881.146 1012.36 873.883 1012.88C871.734 1020.37 871.506 1032.12 860.628 1030.85C866.295 1006.37 873.33 981.423 884.533 958.989ZM885.054 979.502C880.332 986.535 880.071 995.425 878.215 1003.5C883.393 1003.5 888.539 1003.53 893.718 1003.56C892.61 995.49 891.373 987.447 889.093 979.632C888.083 979.6 886.064 979.535 885.054 979.502Z" fill="#A5AAA6"/>
<path d="M912.901 958.565C915.051 959.249 919.317 960.584 921.467 961.268C927.46 970.841 929.772 982.172 935.667 991.843C940.878 981.293 945.144 970.32 949.899 959.542C952.147 959.575 956.706 959.607 958.986 959.64C955.534 971.46 950.127 982.53 944.819 993.634C938.924 1004.83 940.585 1017.86 939.25 1030.04C937.165 1029.97 932.964 1029.81 930.879 1029.74C931.01 1022.42 931.368 1015.03 930.586 1007.73C927.818 990.28 914.855 976.279 912.901 958.565Z" fill="#A5AAA6"/>
<path d="M982.663 959.835C983.933 959.835 986.441 959.77 987.711 959.738C998.068 982.172 1004.13 1006.53 1011.13 1030.2C1008.88 1030.1 1004.42 1029.87 1002.2 1029.78C1000.45 1023.92 998.687 1018.05 996.961 1012.23C989.144 1012.16 981.36 1012.16 973.544 1012.23C970.548 1019.06 970.71 1029.87 961.461 1031.18C960.321 1017.83 966.379 1005.62 970.092 993.178C973.804 981.912 976.182 969.962 982.663 959.835ZM983.608 975.302C980.676 984.517 978.527 993.992 978.69 1003.73C982.956 1003.7 987.223 1003.7 991.522 1003.73C991.847 993.601 989.991 983.442 983.608 975.302Z" fill="#A5AAA6"/>
<path d="M862.68 256.288C864.276 255.279 867.5 253.293 869.096 252.316C880.202 258.372 893.197 256.419 905.313 256.158C905.215 259.056 905.15 261.954 905.085 264.852C912.478 263.973 919.838 263.126 927.264 262.377C926.645 263.615 925.407 266.089 924.789 267.327C923.16 268.238 919.936 270.062 918.307 270.973C917.982 272.927 917.33 276.769 917.037 278.723C916.712 280.807 916.06 285.007 915.735 287.124C899.548 286.896 883.329 286.505 867.207 288.361C865.742 288.524 862.745 288.817 861.247 288.98C861.312 278.072 861.833 267.164 862.68 256.288Z" fill="#3591CD"/>
<path d="M550.607 297.283C563.048 293.147 575.392 288.556 588.126 285.593C605.355 283.802 622.681 285.43 639.975 284.779C661.927 283.77 684.204 288.719 703.419 299.497C690.522 300.604 677.625 302.037 664.89 304.446C669.873 308.386 674.922 312.228 680.295 315.68C678.993 316.591 676.42 318.415 675.117 319.326C660.95 324.146 646.88 329.388 633.983 337.007C597.343 358.4 559.107 380.085 516.247 385.132C486.87 387.542 457.037 385.719 428.214 379.434C397.99 372.694 368.874 357.814 348.746 333.849C349.365 331.211 350.603 325.969 351.254 323.332L353.013 324.797C360.275 331.081 368.19 337.593 378.286 338.049C402.452 340.491 426.878 339.254 451.109 339.189C487.521 334.402 517.517 311.186 550.607 297.283Z" fill="#3591CD"/>
<path d="M602.358 371.359C632.777 354.948 667.235 344.561 701.986 345.44C737.062 347.231 766.635 367.777 798.422 380.183C822.294 390.798 848.512 401.446 875.121 396.496C874.86 398.482 874.339 402.422 874.079 404.409C853.398 418.833 833.889 435.049 811.384 446.64C802.916 455.302 792.168 460.804 780.411 463.507C780.997 462.042 782.17 459.046 782.724 457.548C753.542 451.72 727.454 436.156 698.305 430.197C686.288 428.569 675.312 421.829 662.968 422.871C645.707 423.62 628.413 422.057 611.249 423.652C597.049 427.95 582.654 431.434 568.096 434.169C562.917 434.365 557.772 434.397 552.658 434.43C560.377 425.28 564.741 414.014 564.578 401.966C551.649 398.059 536.407 403.301 525.04 394.966C551.844 391.319 578.29 383.928 602.358 371.359Z" fill="#3591CD"/>
<path d="M511.394 397.017C513.576 394.152 521.686 394.022 521.197 398.711C519.015 401.576 510.906 401.674 511.394 397.017Z" fill="#3591CD"/>
<path d="M611.478 462.107C645.219 452.827 681.24 452.209 715.274 460.349C731.852 463.605 746.703 472.917 763.704 474.611C757.321 477.443 751.133 480.7 745.27 484.509C736.379 490.566 725.501 492.584 716.447 498.315C700.684 508.702 682.413 514.14 665.216 521.596C645.643 524.82 628.381 535.532 608.742 538.17C591.416 544.454 572.656 543.087 555.102 548.361C558.521 540.319 564.644 532.83 564.221 523.68C564.514 507.074 561.42 489.556 567.999 473.797C581.58 467.187 597.115 466.405 611.478 462.107Z" fill="#3591CD"/>
<path d="M917.037 278.723C919.578 278.853 924.723 279.146 927.296 279.276C925.603 285.658 922.639 291.519 919.48 297.25C904.27 308.581 882.449 306.79 866.36 298.194C866.556 295.72 867.012 290.803 867.207 288.361C883.329 286.505 899.548 286.895 915.735 287.123C916.06 285.007 916.712 280.807 917.037 278.723Z" fill="#305DA8"/>
<path d="M664.89 304.446C677.625 302.036 690.522 300.604 703.419 299.497C719.801 308.418 738.854 310.372 755.138 319.457C776.894 327.271 796.989 338.7 818.028 348.078C834.052 353.971 851.346 354.818 867.989 358.237C890.917 362.339 912.022 351.301 932.67 343.226C938.793 350.748 930.032 356.413 925.7 361.949C919.806 370.415 908.569 370.61 900.72 376.308C891.959 382.755 884.696 391.156 875.121 396.496C848.513 401.445 822.295 390.798 798.422 380.183C766.635 367.777 737.063 347.231 701.986 345.44C667.235 344.561 632.778 354.948 602.358 371.359C578.29 383.927 551.844 391.319 525.04 394.966C536.407 403.301 551.649 398.059 564.579 401.966C564.742 414.014 560.377 425.28 552.659 434.43C557.772 434.397 562.918 434.365 568.096 434.169C553.798 436.611 539.436 438.63 525.464 442.537C494.133 444.003 462.704 442.472 431.34 443.286C420.169 444.133 409.454 438.37 398.348 441.235C411.962 459.599 435.9 466.926 457.688 469.433C483.841 469.368 510.319 471.647 536.244 466.958C567.38 463.539 597.375 454.031 627.664 446.575C652.872 444.914 678.374 444.589 703.517 447.063C725.696 453.152 748.266 458.427 769.306 467.935C770.38 470.996 768.524 473.242 763.704 474.61C746.703 472.917 731.852 463.604 715.274 460.348C681.24 452.208 645.219 452.827 611.478 462.107C597.115 466.405 581.58 467.186 567.998 473.796C561.42 489.556 564.514 507.073 564.22 523.68C564.644 532.829 558.521 540.318 555.101 548.361L553.668 551.291C523.835 552.561 493.97 551.356 464.137 552.008C456.19 551.812 447.787 553.05 440.362 549.533C420.43 540.904 397.99 538.006 379.914 525.405C368.841 518.535 356.237 512.609 349.495 500.854C342.037 487.472 331.778 475.424 327.902 460.316C326.306 447.519 327.381 434.527 327.12 421.666C327.479 406.492 325.264 390.57 331.517 376.243C337.314 362.144 341.255 347.199 348.746 333.849C368.873 357.813 397.99 372.694 428.214 379.434C457.037 385.718 486.87 387.542 516.247 385.132C559.107 380.085 597.343 358.4 633.983 337.007C646.88 329.388 660.949 324.145 675.117 319.326C686.516 319.164 697.947 319.847 709.347 318.805C700.032 315.289 690.033 315.712 680.295 315.679C674.921 312.228 669.873 308.386 664.89 304.446ZM511.394 397.017C510.905 401.673 519.015 401.576 521.197 398.71C521.686 394.021 513.576 394.152 511.394 397.017Z" fill="#305DA8"/>
<path d="M11.6924 638.197C21.1699 634.68 31.6244 636.992 41.395 638.002L39.1152 638.653C37.9753 638.978 35.663 639.63 34.523 639.923C35.3698 641.323 37.0308 644.123 37.8776 645.491C31.0056 645.393 24.1336 645.426 17.2617 645.426C15.8286 643.309 14.2653 641.29 12.5718 639.434L11.6924 638.197Z" fill="#305DA8"/>
<path d="M65.5938 637.155C76.7322 636.406 87.9033 636.406 99.0418 636.927C98.9115 639.076 98.6184 643.407 98.4556 645.588C90.3785 644.97 81.6176 646.923 74.0291 643.7C71.1956 641.551 68.3947 639.369 65.5938 637.155Z" fill="#305DA8"/>
<path d="M582.719 637.578C590.406 636.373 598.222 636.634 605.973 636.341L606.071 638.164C606.169 640.639 606.332 643.114 606.592 645.621C601.284 644.872 595.91 644.416 590.601 643.895C590.047 642.56 588.94 639.89 588.386 638.555C586.66 639.564 583.24 641.551 581.547 642.56C581.84 641.323 582.426 638.815 582.719 637.578Z" fill="#305DA8"/>
<path d="M692.931 637.187C704.689 636.243 716.479 636.471 728.268 636.959C728.008 639.076 727.487 643.276 727.226 645.36C718.628 645.849 708.499 643.244 701.595 649.756C699.771 655.194 700.715 660.924 701.236 666.492C699.445 657.668 701.008 647.867 698.598 639.532C697.817 640.216 696.319 641.616 695.57 642.332C691.792 662.845 694.755 683.945 694.397 704.719C691.14 682.48 694.332 659.655 692.931 637.187Z" fill="#305DA8"/>
<path d="M741.752 637.318C754.096 636.927 769.566 633.085 778.034 644.839C776.177 644.286 772.497 643.211 770.641 642.69L771.097 645.783C763.997 645.588 756.864 645.425 749.764 645.328C748.95 643.341 747.354 639.336 746.572 637.35C741.622 659.687 741.101 683.652 746.312 705.956C748.591 694.169 749.243 682.122 749.21 670.139C755.398 670.335 761.586 670.465 767.774 670.595C765.69 672.418 763.606 674.242 761.489 676.065C762.075 677.303 763.215 679.777 763.801 681.015C758.818 679.549 754.552 680.07 751.067 682.48C748.982 690.522 749.373 698.858 749.308 707.096C747.452 707.129 743.739 707.226 741.882 707.259C741.557 683.945 741.72 660.631 741.752 637.318Z" fill="#305DA8"/>
<path d="M1013.31 642.202C1015.82 634.713 1024.77 636.96 1030.87 636.471C1037.12 635.82 1042.82 638.425 1047.83 641.941C1045.94 642.462 1042.13 643.537 1040.24 644.058C1034.12 645.133 1027.93 645.751 1021.78 646.533C1022.14 644.644 1022.85 640.932 1023.21 639.044C1019.92 640.118 1016.6 641.16 1013.31 642.202Z" fill="#305DA8"/>
<path d="M333.178 666.786C342.492 667.372 351.807 667.469 361.154 667.535C361.154 669.456 361.122 673.233 361.122 675.154C351.905 676.684 342.525 676.684 333.21 676.033C333.21 673.721 333.178 669.097 333.178 666.786Z" fill="#305DA8"/>
<path d="M701.237 666.493C709.282 667.176 717.391 667.502 725.501 668.023C725.892 669.716 726.673 673.135 727.064 674.861C718.662 676.196 710.161 676.619 701.693 676.228C701.758 672.972 701.53 669.716 701.237 666.493Z" fill="#305DA8"/>
<path d="M820.699 672.061C822.23 678.312 823.858 684.597 826.008 690.751C818.061 690.425 810.114 690.36 802.2 690.392C803.438 686.974 804.447 683.49 805.229 679.973C810.31 680.038 815.358 680.005 820.471 679.81C820.504 677.889 820.634 673.982 820.699 672.061Z" fill="#305DA8"/>
<path d="M113.632 637.676C122.426 637.904 131.415 636.732 140.078 638.653C147.373 643.049 151.868 650.668 150.24 659.33C152.063 668.316 140.729 673.135 142.521 681.797C144.833 690.653 150.956 698.37 150.728 707.911C137.082 703.84 140.273 684.402 128.484 677.792C126.367 677.954 122.165 678.28 120.048 678.443C119.82 688.439 119.299 698.5 117.019 708.301C109.691 702.961 111.646 693.193 111.418 685.378C111.874 669.456 110.05 653.338 113.632 637.676ZM120.113 644.579C119.495 653.469 119.462 662.39 119.82 671.279C125.878 670.856 132.359 672.354 138.124 669.944C144.735 665.158 143.074 656.497 142.814 649.496C138.189 641.291 127.669 645.654 120.113 644.579Z" fill="black"/>
<path d="M162.583 637.579C163.723 637.579 166.003 637.611 167.142 637.611C168.738 653.534 167.957 669.554 168.38 685.509C167.957 693.421 173.461 699.64 177.076 706.152C175.545 705.989 172.451 705.631 170.888 705.468C166.914 701.822 161.313 698.012 162.387 691.825C162.29 673.754 162.257 655.65 162.583 637.579Z" fill="black"/>
<path d="M195.77 637.969C197.399 637.872 200.656 637.676 202.284 637.579C202.74 656.562 202.87 675.545 202.349 694.495C202.349 699.673 197.301 702.668 194.077 705.989C192.318 706.022 188.866 706.087 187.14 706.12C188.214 704.394 190.364 700.91 191.471 699.184C192.513 697.361 194.63 693.681 195.705 691.858C196.226 673.884 195.803 655.91 195.77 637.969Z" fill="black"/>
<path d="M216.322 650.115C220.36 644.319 225.115 636.634 233.029 636.504C244.428 634.616 256.349 644.775 255.502 656.464C247.425 653.664 244.038 644.677 236.254 641.356C228.665 644.156 222.314 650.636 224.757 659.297C229.251 668.121 240.716 668.121 248.044 673.624C258.726 680.038 259.768 697.817 248.988 704.622C236.384 711.753 213.39 705.859 215.638 687.983C221.272 691.435 225.376 696.938 231.075 700.291C237.98 701.854 248.89 700.65 248.532 691.337C250.714 680.592 238.631 677.173 231.01 673.949C221.533 670.889 213.26 660.176 216.322 650.115Z" fill="black"/>
<path d="M286.474 637.774C287.972 637.806 290.903 637.839 292.402 637.872C298.948 661.25 308.653 683.783 313.604 707.552C304.713 706.934 303.866 697.328 302.042 690.49C293.672 687.397 284.781 686.648 276.345 689.904C274.945 695.179 273.609 700.487 272.307 705.794C269.31 706.055 266.281 706.315 263.285 706.608C271.492 683.815 277.843 660.404 286.474 637.774ZM286.702 653.729C284.781 662.585 282.175 671.279 279.114 679.81C284.618 683.783 291.327 683.685 297.743 682.676C297.026 673.135 293.9 664.083 292.239 654.738C290.838 654.478 288.07 653.957 286.702 653.729Z" fill="black"/>
<path d="M325.622 637.774C327.348 637.741 330.833 637.644 332.559 637.579C332.82 647.314 332.95 657.05 333.178 666.786C333.178 669.098 333.21 673.721 333.21 676.033C331.908 686.388 335.327 697.914 330.475 707.487C329.433 707.031 327.316 706.12 326.273 705.696C324.58 683.132 326.013 660.404 325.622 637.774Z" fill="black"/>
<path d="M362.49 636.569C363.89 637.155 366.626 638.328 367.994 638.914C369.069 661.902 368.841 685.053 367.994 708.041C366.626 707.129 363.858 705.306 362.49 704.394C361.22 694.723 361.936 684.89 361.122 675.154C361.122 673.233 361.155 669.456 361.155 667.535C361.741 657.213 361.773 646.859 362.49 636.569Z" fill="black"/>
<path d="M403.95 637.937C405.416 637.904 408.347 637.806 409.812 637.774C416.163 661.25 427.302 683.685 430.624 707.845C422.644 705.762 421.439 697.068 419.322 690.36C411.017 686.909 402.126 687.137 393.723 690.132C392.421 695.537 391.151 700.975 390.043 706.413C386.917 706.315 383.823 706.25 380.729 706.217C389.457 683.815 395.58 660.502 403.95 637.937ZM403.787 657.441C401.507 664.962 399.456 672.582 396.687 679.941C402.354 683.066 408.575 684.076 414.958 682.806C414.926 673.624 412.385 664.767 409.096 656.269C407.761 656.562 405.122 657.148 403.787 657.441Z" fill="black"/>
<path d="M537.383 636.309C541.422 638.165 544.483 641.193 543.441 646.044C542.66 666.623 545.721 687.69 541.096 707.91C538.035 706.152 534.387 704.817 532.922 701.301C524.356 686.681 517.875 670.954 509.114 656.496C504.229 672.81 511.231 690.718 505.271 706.706C499.929 708.529 497.975 703.091 498.529 698.793C498.594 680.071 498.138 661.348 498.822 642.658C499.864 640.9 501.949 637.351 502.991 635.592C515.79 649.333 520.676 667.991 531 683.294C532.368 684.239 535.136 686.062 536.504 686.974C537.481 670.107 536.244 653.175 537.383 636.309Z" fill="black"/>
<path d="M811.318 636.797C820.307 639.858 820.601 650.472 823.467 658.027C827.961 674.307 835.257 689.806 837.764 706.608C836.168 706.575 832.912 706.543 831.316 706.543C829.622 701.235 827.798 695.993 826.007 690.751C823.857 684.597 822.229 678.312 820.698 672.06C819.233 665.711 817.246 659.492 815.162 653.37C808.681 660.827 806.629 670.465 805.228 679.973C804.447 683.489 803.437 686.973 802.199 690.392C799.594 696.937 796.695 703.677 791.191 708.334C791.126 703.515 790.344 698.5 792.201 693.909C798.877 674.958 804.284 655.617 811.318 636.797Z" fill="black"/>
<path d="M849.847 637.644C851.541 637.676 854.993 637.676 856.719 637.709C856.817 647.803 856.557 657.929 857.827 667.991C867.272 668.121 876.749 668.121 886.227 667.861C887.041 657.115 884.11 645.231 891.112 635.951C894.694 645.524 893.099 655.911 893.294 665.907C892.871 679.42 894.466 693.03 892.187 706.478C885.803 697.231 888.865 685.411 887.855 674.959C877.27 674.177 866.62 674.21 856.068 675.252C856.133 683.881 856.133 692.477 856.166 701.105C854.7 702.44 851.769 705.143 850.271 706.511C849.001 683.588 849.815 660.599 849.847 637.644Z" fill="black"/>
<path d="M949.02 638.588C951.462 638.262 953.905 637.969 956.348 637.676C962.698 660.827 971.72 683.197 977.745 706.413C975.986 706.413 972.469 706.348 970.71 706.348C968.691 700.877 966.737 695.342 964.913 689.839C956.641 686.844 947.945 687.365 939.705 690.165C938.532 695.309 937.62 700.552 936.708 705.794C933.614 706.087 930.52 706.38 927.459 706.673C934.689 684.011 942.376 661.446 949.02 638.588ZM943.353 681.536C949.345 683.49 955.696 683.913 961.786 681.862C960.94 671.735 957.227 662.227 954.524 652.557C946.512 659.948 945.893 671.572 943.353 681.536Z" fill="black"/>
<path d="M990.088 637.774C991.716 637.774 994.941 637.774 996.569 637.774C996.439 659.72 997.155 681.666 996.309 703.58C996.732 707.65 989.892 708.399 990.381 703.612C989.436 681.699 990.251 659.72 990.088 637.774Z" fill="black"/>
<path d="M1089.91 637.514C1091.38 637.481 1094.24 637.416 1095.68 637.416C1104.76 654.478 1109.06 673.656 1114.6 692.086C1117.3 689.904 1120.23 687.658 1120.72 683.913C1125.02 668.968 1129.55 654.087 1134.73 639.435C1137.49 638.425 1140.33 637.579 1143.19 636.862C1148.7 657.994 1145.08 680.234 1145.73 701.854C1146.22 708.432 1136.45 708.562 1137.14 701.854C1136.29 687.43 1137.95 672.973 1136.75 658.581C1128.41 673.168 1126.16 690.425 1119.45 705.827C1118.12 706.087 1115.45 706.608 1114.11 706.869C1106.62 691.239 1105.8 672.028 1094.41 658.646C1093.85 674.633 1095.68 690.686 1093.62 706.608C1092.19 705.371 1089.29 702.864 1087.86 701.626C1088.9 680.364 1085.61 658.222 1089.91 637.514Z" fill="black"/>
<path d="M1162.25 637.513C1164.01 637.578 1167.49 637.741 1169.25 637.806C1169.18 660.534 1169.67 683.262 1168.99 705.989C1167.33 706.282 1163.97 706.868 1162.28 707.129C1161.56 683.945 1161.66 660.729 1162.25 637.513Z" fill="black"/>
<path d="M1224.45 638.881C1225.82 638.327 1228.52 637.188 1229.89 636.634C1231 657.245 1230.51 677.889 1230.32 698.5C1230.77 704.133 1225.43 710.971 1221.33 703.645C1212.57 690.002 1206.15 675.056 1198.76 660.664C1197.52 660.469 1195.04 660.078 1193.77 659.883C1190.94 675.675 1193.94 692.053 1192.05 708.041C1188.17 706.185 1184.49 703.743 1185.66 698.793C1186.28 678.899 1184.03 658.58 1187.03 638.946L1190.39 636.537C1203.54 651.645 1209.37 671.605 1220.32 688.276C1227.71 672.907 1221.49 655.194 1224.45 638.881Z" fill="black"/>
<path d="M1279.4 637.481C1281.19 637.546 1284.77 637.709 1286.56 637.774C1286.5 655.748 1286.79 673.754 1286.43 691.728C1287.02 698.24 1281.15 702.505 1276.73 706.185C1269.1 707.878 1261.29 706.868 1253.6 706.575C1246.18 699.151 1242.59 689.448 1244.29 678.931C1246.14 664.669 1239.86 648.031 1249.01 635.788C1258.45 654.575 1250.38 676.652 1254.19 696.774C1259.92 703.352 1269.76 700.161 1277.08 698.663C1280.67 678.443 1278.06 657.864 1279.4 637.481Z" fill="black"/>
<path d="M1302.62 638.002C1304.64 637.839 1308.71 637.481 1310.73 637.285C1317.34 655.389 1322.75 673.852 1328.8 692.118C1341.96 675.903 1338.77 651.124 1353.49 635.69C1354.56 637.448 1356.75 640.965 1357.85 642.723C1357.72 663.334 1360.07 684.662 1356.84 704.882L1352.81 704.915C1349.22 689.969 1352.77 674.079 1351.31 658.776C1342.84 667.86 1342.71 681.666 1337.79 692.77C1335.35 697.296 1335.9 707.357 1328.67 706.543C1318.48 692.151 1319.72 672.679 1309.03 658.548C1307.41 675.056 1310.92 691.955 1306.92 708.203C1305.81 706.999 1303.63 704.589 1302.55 703.384C1301.58 681.634 1302.39 659.785 1302.62 638.002Z" fill="black"/>
<path d="M12.5715 639.434C14.2651 641.29 15.8284 643.309 17.2614 645.426C16.61 654.836 16.3821 664.311 16.8054 673.754C24.0031 673.07 32.6664 676 38.5288 670.465C46.6384 664.409 42.893 652.426 37.8774 645.491C37.0306 644.123 35.3696 641.323 34.5228 639.923C35.6627 639.63 37.9751 638.978 39.115 638.653C53.5429 645.621 56.4415 668.576 41.981 676.945C35.0113 683.717 24.0357 677.368 16.61 682.22C14.5908 690.555 21.2999 703.84 10.5848 707.357C11.1385 684.727 8.33758 661.804 12.5715 639.434Z" fill="black"/>
<path d="M64.7465 706.576C64.5837 683.457 63.1181 660.176 65.5933 637.155C68.3942 639.369 71.1952 641.551 74.0286 643.7C68.7525 650.733 71.2929 659.753 71.13 667.86C79.7281 668.316 89.3685 666.33 96.3707 672.777C88.1634 675.545 79.435 674.731 70.9346 675.382C70.8043 683.327 70.8043 691.304 70.7066 699.282C79.9236 699.901 89.1731 699.835 98.4226 699.673C98.3575 701.431 98.2598 704.915 98.2272 706.641C87.0561 706.38 75.885 706.348 64.7465 706.576Z" fill="black"/>
<path d="M461.009 638.002C462.703 639.239 466.025 641.681 467.686 642.886C473.516 660.078 479.02 677.401 484.589 694.723C486.25 699.119 485.924 703.775 483.97 708.073C480.062 702.636 477.522 696.449 475.177 690.262C467.621 687.169 459.511 686.909 451.792 689.644C448.861 695.798 447.852 704.427 439.807 705.892C439.416 697.752 443.227 690.393 445.442 682.741C450.587 667.828 454.431 652.427 461.009 638.002ZM461.954 652.524C458.371 662.195 454.756 672.061 454.984 682.545C461.27 684.239 467.393 682.936 472.995 679.778C469.608 670.596 468.5 660.241 461.954 652.524Z" fill="black"/>
<path d="M581.547 642.56C583.24 641.551 586.66 639.565 588.386 638.555C588.94 639.89 590.047 642.56 590.601 643.895C587.605 661.706 588.81 679.81 588.745 697.751C590.015 698.337 592.555 699.51 593.858 700.096C603.791 701.919 615.028 696.612 615.288 685.443C614.962 673.233 618.545 659.329 610.859 648.714C609.784 647.933 607.667 646.402 606.592 645.621C606.332 643.114 606.169 640.639 606.071 638.165C612.585 641.095 618.252 645.751 621.606 652.166C621.802 665.646 621.834 679.159 621.672 692.639C618.35 697.751 614.441 702.831 609.002 705.794C600.176 707.031 591.252 706.282 582.394 706.608C581.449 685.28 582.784 663.888 581.547 642.56Z" fill="black"/>
<path d="M639.682 681.862C645.121 666.721 647.954 650.375 656.454 636.504C660.395 641.746 663.88 647.444 665.443 653.924C670.198 669.944 676.126 685.606 680.555 701.724C675.442 710.939 670.817 694.137 668.277 689.774C662.317 688.504 656.161 686.453 650.071 688.048C641.961 691.337 641.082 701.431 636.327 707.813C631.605 699.184 637.532 690.295 639.682 681.862ZM656.552 651.873C652.416 660.827 649.908 670.367 647.368 679.875C652.937 683.131 659.027 684.271 665.28 682.252C664.922 671.572 662.089 661.055 656.552 651.873Z" fill="black"/>
<path d="M695.57 642.332C696.319 641.616 697.817 640.216 698.598 639.532C701.009 647.868 699.445 657.669 701.236 666.493C701.53 669.716 701.758 672.972 701.693 676.229C700.129 683.913 699.966 691.728 700.357 699.542C709.281 699.77 718.237 699.803 727.161 699.705C727.096 701.431 726.998 704.947 726.933 706.673C716.088 706.38 705.275 706.25 694.462 706.803L694.397 704.719C694.755 683.945 691.792 662.846 695.57 642.332Z" fill="black"/>
<path d="M746.312 705.957C741.101 683.652 741.622 659.687 746.572 637.351C747.354 639.337 748.95 643.342 749.764 645.328C748.95 653.566 748.95 661.869 749.211 670.14C749.243 682.122 748.592 694.17 746.312 705.957Z" fill="black"/>
<path d="M1013.31 642.202C1016.6 641.16 1019.92 640.118 1023.21 639.044C1022.85 640.932 1022.14 644.644 1021.78 646.533C1019.89 654.771 1020.15 663.269 1021.48 671.605C1028.84 670.4 1040.47 674.308 1043.63 664.963C1046.92 657.929 1044.12 650.18 1040.24 644.058C1042.13 643.537 1045.94 642.463 1047.83 641.942C1055.91 653.762 1053.04 669.782 1042.1 678.768C1046.56 688.146 1052.39 697.328 1052.91 707.976C1039.04 703.906 1042.04 684.792 1030.57 677.889C1028.42 678.052 1024.12 678.378 1022.01 678.508C1020.12 688.341 1020.31 698.403 1019.33 708.334C1016.79 705.664 1013.05 702.961 1013.67 698.793C1013.15 679.941 1013.96 661.055 1013.31 642.202Z" fill="black"/>
<path d="M770.64 642.69C772.496 643.211 776.177 644.286 778.033 644.839C785.882 656.724 779.303 669.716 770.868 679.029C774.809 688.211 779.141 697.263 782.593 706.673C779.531 706.347 776.502 706.022 773.474 705.696C770.705 697.263 767.351 689.09 763.801 681.015C763.214 679.777 762.075 677.303 761.488 676.066C763.605 674.242 765.69 672.419 767.774 670.595C774.19 663.692 772.366 654.184 771.096 645.784L770.64 642.69Z" fill="black"/>
<path d="M7.62103 775.605C14.8513 762.678 28.0742 750.793 43.8049 752.063C57.6791 750.403 72.7259 753.268 82.529 763.915C88.424 771.86 91.8437 781.466 91.6483 791.462C82.8547 791.853 74.0612 791.885 65.3002 791.69C65.7887 782.931 60.4475 771.925 50.4814 772.088C37.6494 769.711 26.9017 785.699 33.7086 796.672C44.1957 810.445 63.1832 811.813 76.2107 822.33C99.2694 838.285 96.4359 881.396 67.8406 889.764C39.6687 903.635 0.879315 881.461 1.46555 849.421C10.4871 849.518 19.5086 849.551 28.4976 849.909C27.9113 863.617 39.7663 875.274 53.7057 872.441C67.4823 872.832 65.6585 857.659 64.942 848.086C55.5296 830.535 31.4939 832.359 19.0201 817.837C6.18801 807.84 3.58251 790.518 7.62103 775.605Z" fill="black"/>
<path d="M592.164 761.441C600.631 753.203 612.389 751.151 623.788 751.933C645.641 749.035 666.778 769.972 665.183 791.69C657.138 791.853 649.126 791.853 641.082 791.788C637.857 783.81 634.34 771.762 623.723 772.088C615.19 770.33 605.94 777.754 605.777 786.35C603.497 800.677 619.391 807.156 630.139 811.813C647.954 818.423 667.821 833.335 664.727 854.728C667.43 871.432 654.63 886.41 639.062 890.676C611.77 902.756 573.274 881.07 575.944 849.649C584.054 849.551 592.196 849.551 600.338 849.551C602.195 855.542 603.302 862.315 608.057 866.841C615.939 873.907 628.771 874.525 637.336 868.339C640.984 857.333 640.333 842.811 628.38 837.275C611.151 829.884 591.186 822.818 582.393 804.747C576.954 790.192 579.006 771.339 592.164 761.441Z" fill="black"/>
<path d="M110.961 752.845C119.885 752.617 128.809 752.584 137.7 753.04C137.602 787.001 137.602 820.963 137.635 854.924C137.146 861.436 141.673 869.869 148.904 869.934C157.372 870.293 170.138 872.344 172.516 861.273C173.786 825.749 173.2 790.127 172.809 754.603C182.124 751.901 191.862 752.649 201.404 752.78C201.665 784.657 201.698 816.534 201.437 848.379C199.809 860.199 197.561 873.353 188.116 881.656C171.506 897.383 143.269 897.449 125.357 884.001C113.176 875.046 110.635 859.059 110.701 844.96C110.863 814.255 110.375 783.55 110.961 752.845Z" fill="black"/>
<path d="M224.691 752.78C249.541 754.864 279.96 745.356 299.827 764.99C312.627 775.768 309.663 793.514 309.044 808.296C307.025 819.041 298.036 826.596 290.024 833.271C298.459 851.7 306.634 870.26 313.767 889.211C304.354 888.755 293.998 891.587 285.139 887.973C277.648 872.669 271.688 856.682 265.728 840.76C260.68 840.434 255.599 840.174 250.518 839.881C250.127 855.738 250.844 871.595 250.258 887.452C243.809 895.202 232.182 891.425 224.138 888.494C224.952 843.234 223.877 798.007 224.691 752.78ZM250.779 774.889C250.225 789.085 250.323 803.314 250.616 817.544C258.954 817.674 267.324 817.609 275.661 817.381C285.562 809.273 285.139 796.118 282.892 784.657C276.573 772.968 261.983 774.628 250.779 774.889Z" fill="black"/>
<path d="M318.262 752.877C327.804 752.584 337.347 752.649 346.89 752.812C352.491 772.219 359.559 791.169 365.356 810.543C366.724 810.771 369.492 811.292 370.86 811.552C374.931 792.048 383.888 774.009 387.991 754.538C397.469 751.673 407.435 752.682 417.173 752.975C407.63 783.322 391.932 811.487 381.706 841.574C381.087 857.626 381.771 873.711 381.51 889.797C372.651 892.727 363.402 891.522 354.641 889.048C353.566 868.502 358.94 846.49 348.811 827.507C339.203 802.37 327.088 778.275 318.262 752.877Z" fill="black"/>
<path d="M454.496 753.073C461.889 752.291 469.347 752.421 476.773 753.007C491.559 798.072 505.498 843.657 518.949 889.178C510.351 889.536 501.753 889.894 493.155 889.275C486.25 882.633 489.507 871.367 483.71 863.748C471.725 861.143 459.12 863.455 446.907 862.51C442.413 870.618 439.351 879.442 439.416 888.787C429.678 891.066 419.028 894.062 409.909 888.234C424.337 848.802 434.499 808.003 447.949 768.246C450.099 763.232 449.708 756.459 454.496 753.073ZM451.434 840.238C460.586 840.369 469.803 840.401 478.922 839.587C474.167 825.944 471.431 811.748 468.044 797.746C467.002 796.509 464.918 794.067 463.875 792.83C458.534 808.264 454.463 824.153 451.434 840.238Z" fill="black"/>
<path d="M684.497 756.98C685.441 750.338 694.072 753.463 698.534 752.617C719.899 753.04 741.264 751.933 762.596 753.301C761.587 760.269 764.518 768.637 760.349 774.661C744.553 775.149 728.757 774.726 712.962 774.693C712.734 786.708 712.734 798.723 713.059 810.738C727.259 810.38 741.427 810.348 755.627 810.803C755.724 817.413 755.789 824.088 755.855 830.731C741.459 830.633 727.031 830.112 712.636 831.219C712.897 843.983 712.799 856.747 712.831 869.544C729.344 869.316 745.856 869.348 762.368 869.479C762.466 876.088 762.466 882.731 762.434 889.373C736.444 889.406 710.389 890.09 684.431 888.95C684.464 844.96 684.236 800.97 684.497 756.98Z" fill="black"/>
<path d="M781.258 753.268C791.745 752.584 802.265 752.194 812.752 752.91C817.832 754.473 818.907 759.976 820.015 764.469C825.714 793.872 835.354 822.395 841.184 851.765C844.539 848.249 846.981 843.918 848.121 839.197C855.286 810.25 862.093 781.173 870.496 752.584C881.504 753.431 893.001 751.021 903.651 753.984L904.856 756.948C905.149 800.97 904.889 844.993 904.954 889.015C896.29 889.569 887.66 889.601 879.029 889.406C878.378 860.296 879.811 831.154 879.192 802.077C874.404 808.687 873.362 816.99 870.919 824.544C865.122 846.328 858.934 867.981 852.518 889.569C845.711 888.234 835.354 892.923 831.967 884.717C827.961 869.576 823.662 854.533 819.07 839.588C815.129 827.052 813.501 813.669 807.313 801.947C805.684 808.524 804.642 815.297 805.424 822.102C807.964 843.723 807.476 865.539 807.15 887.257C800.31 894.453 789.693 891.588 781.388 889.276C781.356 843.918 781.551 798.593 781.258 753.268Z" fill="black"/>
<path d="M928.664 752.942C952.472 754.212 978.755 747.309 1000.25 760.659C1010.8 766.162 1014.19 778.731 1015.75 789.606C1017.22 801.882 1008.52 812.041 999.533 819.139C1006.86 826.205 1017.64 833.271 1016.18 844.862C1015.62 853.947 1017.87 864.139 1012.43 872.181C1007.06 881.787 996.635 889.536 985.301 889.276C966.346 889.601 947.391 889.862 928.468 889.048C928.534 843.69 928.175 798.3 928.664 752.942ZM957.227 774.824C956.64 786.871 956.706 798.919 956.999 810.966C966.444 810.413 976.54 812.855 985.561 809.436C988.851 800.221 987.971 789.704 985.887 780.294C978.657 771.893 966.769 775.605 957.227 774.824ZM956.64 831.089C956.868 843.69 956.933 856.259 956.575 868.86C964.945 869.316 973.446 870.26 981.783 868.665C985.659 864.757 991.293 860.882 990.512 854.598C990.154 846.556 993.248 836.169 984.877 831.219C975.53 829.819 966.02 830.666 956.64 831.089Z" fill="black"/>
<path d="M1070.14 761.148C1072.23 748.254 1087.79 753.626 1096.78 752.812C1109.94 792.504 1121.8 832.587 1134.53 872.442C1136.71 877.814 1137.3 883.61 1137.79 889.374C1129.29 889.471 1120.75 890.122 1112.32 888.787C1108.08 881.429 1107.07 872.995 1106.94 864.692C1093.62 860.817 1079.59 863.325 1065.94 862.771C1063.07 871.66 1060.24 880.582 1057.8 889.634C1048.87 889.504 1039.98 889.569 1031.06 889.374C1042.88 846.295 1057.64 804.031 1070.14 761.148ZM1081.12 800.97C1077.73 814.06 1074.31 827.117 1071.02 840.206C1080.24 840.239 1089.46 840.337 1098.7 840.109C1095.19 824.089 1089.68 808.524 1087.08 792.309C1084.5 794.751 1081.64 797.226 1081.12 800.97Z" fill="black"/>
<path d="M1155.86 753.3C1177.78 752.975 1202.24 748.644 1221.42 761.864C1240.61 775.149 1245.43 800.319 1244.42 822.167C1245.3 838.415 1242.5 855.216 1234.16 869.348C1226.64 880.419 1214.1 889.861 1200.22 889.308C1185.4 889.666 1170.58 889.601 1155.77 889.308C1156.25 843.983 1156.06 798.625 1155.86 753.3ZM1181.95 774.693C1181.53 805.496 1181.53 836.331 1181.89 867.134C1187 872.148 1196.38 868.729 1203.15 868.827C1208.69 864.334 1214.68 858.798 1215.3 851.244C1219.08 829.851 1219.8 806.928 1213.18 786.057C1208.89 772.349 1193.12 774.888 1181.95 774.693Z" fill="black"/>
<path d="M1295.94 758.933C1299.43 748.091 1312.97 754.082 1321.31 752.877C1332.22 784.494 1341.41 816.697 1351.96 848.411C1355.74 861.989 1361.57 875.144 1362.48 889.373C1354.04 888.917 1345.02 891.164 1336.98 888.168C1333.2 880.842 1331.54 872.832 1331.67 864.627C1318.32 860.85 1304.28 863.292 1290.63 862.771C1287.96 871.725 1285.13 880.647 1282.36 889.569C1273.57 889.536 1264.8 889.536 1256.04 889.275C1268.39 845.578 1282.23 802.24 1295.94 758.933ZM1307.24 794.979C1303.95 809.957 1299.82 824.739 1296.4 839.685C1305.19 840.369 1314.05 840.369 1322.91 839.945C1320.2 824.284 1315.06 809.175 1312.06 793.579C1310.86 793.904 1308.45 794.62 1307.24 794.979Z" fill="black"/>
</svg>
