<svg width="2467" height="618" viewBox="0 0 2467 618" fill="none" xmlns="http://www.w3.org/2000/svg">
<path d="M42.9751 6.4741C54.0132 3.3841 65.5663 3.82554 76.8987 3.53125C224.293 4.04625 371.761 3.6784 519.229 3.75197C547.781 2.1334 580.527 23.9106 578.908 54.9577C579.791 209.531 579.423 364.252 579.35 518.826C583.029 548.843 557.715 579.89 526.441 576.873C369.333 576.432 212.299 576.8 55.1905 576.726C25.3879 578.124 1.54571 547.592 3.82691 519.12C4.12125 366.753 3.90049 214.461 4.19483 62.0941C2.35516 37.3741 19.4273 13.6105 42.9751 6.4741ZM29.9502 284.353C57.6189 284.868 85.214 285.089 112.883 284.721C118.107 198.569 176.167 117.42 258.658 89.757C357.191 50.9113 480.375 103.588 521.363 200.997C535.639 225.864 541.968 254.336 542.63 282.882C546.015 282.735 552.859 282.441 556.244 282.293C551.092 233.81 538.068 185.179 509.737 144.862C459.403 68.9362 366.389 24.352 275.657 32.2977C144.304 35.167 30.6861 153.617 29.9502 284.353ZM180.73 151.189C145.261 186.356 127.085 235.355 124.509 284.648C152.399 285.236 180.288 285.016 208.251 284.206C210.532 243.742 225.691 202.763 255.715 174.658C295.01 135.886 356.087 118.303 409.291 135.518C463.892 150.821 509.737 197.907 518.42 254.631C521.29 266.328 518.861 282.735 534.315 285.531C535.786 256.396 519.744 229.763 521.363 200.997C507.455 195.258 502.157 180.323 493.253 169.361C471.03 136.696 436.518 114.403 400.092 100.351C325.475 72.0998 235.11 92.5527 180.73 151.189ZM289.565 163.917C247.767 188.931 221.718 234.987 217.965 283.176C242.175 284.868 266.532 284.942 290.816 284.353C295.305 245.949 315.32 206.809 352.482 191.138C402.521 163.402 472.281 190.844 492.591 243.595C498.257 258.236 499.802 274.936 511.208 286.781C515.403 244.919 493.032 204.528 462.052 177.896C415.545 136.622 342.253 131.472 289.565 163.917ZM32.4522 293.476C25.4614 423.918 140.478 541.265 268.519 550.167C351.304 558.113 436.886 524.343 491.046 461.146C531.15 416.193 551.46 356.895 555.655 297.376C527.03 296.419 498.331 296.493 469.632 297.596C467.203 330.188 460.36 363.075 443.361 391.4C398.547 476.89 289.27 525.006 196.845 494.179C123.258 474.168 62.3285 411.264 47.096 336.221C43.3431 321.654 42.0185 305.763 32.4522 293.476ZM49.4508 298.7C55.5585 368.74 94.6331 435.396 157.329 468.944C227.825 507.128 320.324 499.771 382.799 449.153C430.778 413.471 455.062 354.908 461.832 296.934C432.838 296.346 403.845 296.198 374.926 298.258C372.939 318.711 369.848 339.385 359.767 357.557C357.191 337.104 364.403 317.24 366.169 297.081C341.664 296.493 317.16 296.713 292.655 297.376C290.374 321.286 285.223 346.153 269.476 365.135C234.963 409.793 162.995 417.15 120.536 379.776C95.5162 360.794 85.8027 329.747 82.2705 299.877C79.0327 298.7 72.6306 296.419 69.4664 295.316C71.2325 324.891 86.8329 351.377 90.0707 380.291C71.5268 356.674 63.4323 327.025 61.0775 297.523C58.2076 297.817 52.3207 298.406 49.4508 298.7Z" fill="#F42736"/>
<path d="M798.785 62.4618C818.359 62.1675 837.933 62.1675 857.581 62.2411C857.655 80.2661 857.581 98.2911 857.507 116.316C838.007 116.758 818.506 116.684 799.006 116.169C798.859 98.2911 798.785 80.3397 798.785 62.4618Z" fill="#414143"/>
<path d="M900.409 62.3154C920.278 62.1683 940.146 62.1683 960.088 62.3154C960.162 80.2669 960.309 98.2919 960.382 116.317C940.44 116.832 920.425 116.832 900.556 116.243C900.336 98.2919 900.336 80.2669 900.409 62.3154Z" fill="#414143"/>
<path d="M1322.43 62.9771C1342.3 62.315 1362.17 62.0942 1382.11 62.1678C1382.33 80.1928 1382.33 98.2914 1382.11 116.316C1362.09 116.905 1342.15 116.831 1322.21 115.875C1322.36 98.2178 1322.43 80.6343 1322.43 62.9771Z" fill="#414143"/>
<path d="M1469.82 63.1976C1489.55 62.7562 1509.27 62.6091 1529.06 62.4619C1530.61 116.978 1528.77 171.495 1530.02 226.011C1557.54 204.675 1575.2 173.481 1602.21 151.851C1625.75 147.878 1649.74 150.748 1673.51 151.557C1647.68 177.822 1622 204.308 1597.94 232.265C1624.72 280.895 1653.94 328.202 1680.72 376.833C1659.6 376.097 1638.49 376.023 1617.37 376.097C1597.64 343.063 1578.81 309.515 1560.7 275.525C1550.33 283.838 1540.25 292.52 1530.17 301.128C1529.94 326.289 1529.94 351.451 1527.88 376.538C1508.53 376.171 1489.18 376.097 1469.9 376.465C1469.53 272.067 1469.97 167.669 1469.82 63.1976Z" fill="#414143"/>
<path d="M1696.32 62.3146C1715.9 62.1674 1735.55 62.241 1755.19 62.3881C1754.9 80.3396 1754.68 98.291 1754.61 116.242C1735.18 116.757 1715.82 116.757 1696.47 116.39C1696.4 98.3646 1696.32 80.3396 1696.32 62.3146Z" fill="#414143"/>
<path d="M2168.53 62.9035C2188.25 62.3885 2207.97 62.1678 2227.77 62.2413C2227.84 80.2663 2227.84 98.2178 2227.55 116.243C2207.83 116.831 2188.03 116.758 2168.31 116.022C2168.53 98.2913 2168.6 80.5606 2168.53 62.9035Z" fill="#414143"/>
<path d="M668.242 102.043C687.522 91.449 706.655 80.4869 726.008 69.8926C726.891 96.084 726.891 122.275 726.744 148.467C740.799 148.761 754.781 149.055 768.836 149.423C768.836 164.8 768.836 180.176 768.762 195.553C754.707 195.994 740.725 196.362 726.67 196.73C727.627 241.608 724.536 286.634 729.467 331.365C742.786 331.145 756.105 330.335 769.424 329.158C770.528 344.976 771.264 360.868 770.528 376.759C743.301 379.702 712.836 386.544 687.964 371.315C670.524 360.868 669.052 338.428 667.359 320.33C665.814 279.203 667.654 238.003 665.593 196.803C656.689 195.626 647.712 194.375 638.808 193.125C639.102 179.44 639.102 165.683 638.955 152.072C647.638 150.674 656.321 149.423 665.005 148.173C666.108 132.796 667.065 117.42 668.242 102.043Z" fill="#414143"/>
<path d="M1849.53 174.659C1873.15 157.516 1900.38 140.08 1931.07 145.377C1953.36 146.554 1969.99 162.446 1984.64 177.528C2012.31 150.159 2055.58 133.164 2092.66 151.851C2121.29 163.181 2128.79 196.436 2129.75 224.025C2130.63 275.01 2129.82 326.069 2129.53 377.054C2109.96 376.906 2090.38 376.98 2070.81 377.054C2068.01 328.791 2071.03 280.381 2068.97 232.044C2067.72 217.771 2066.61 199.305 2051.68 192.316C2026.95 180.324 1997.22 201.365 1994.2 227.189C1986.04 276.702 1992 327.246 1989.79 377.201C1970.66 376.98 1951.45 376.98 1932.39 377.127C1930.18 328.57 1933.2 279.866 1931.21 231.309C1930.11 215.491 1927.46 192.168 1907.89 189.667C1882.65 183.855 1857.04 202.984 1855.05 228.586C1848.5 277.732 1854.32 327.614 1851 377.054C1831.43 377.054 1811.93 377.127 1792.5 377.348C1791.47 301.201 1791.99 225.129 1792.28 148.982C1810.68 148.761 1829.08 149.129 1847.47 150.748C1847.99 156.707 1849.02 168.699 1849.53 174.659Z" fill="#414143"/>
<path d="M2260.37 208.207C2267.65 169.803 2304.81 143.685 2343.08 144.862C2380.76 142.949 2431.97 144.421 2449.34 184.959C2464.57 247.568 2440.36 315.548 2466.78 376.392C2448.68 375.877 2430.65 375.803 2412.62 376.097C2407.47 369.108 2402.39 362.045 2397.39 355.056C2365.08 380.512 2316.59 393.092 2280.6 367.931C2243.66 344.094 2244.62 280.749 2284.8 260.59C2319.46 243.742 2358.97 241.094 2395.4 229.249C2394.22 216.521 2395.77 200.114 2382.01 193.493C2355.96 181.501 2325.49 191.801 2311.14 216.374C2294.14 213.799 2277.29 210.929 2260.37 208.207ZM2320.42 289.209C2299.37 312.679 2327.85 349.832 2356.47 339.017C2390.76 334.529 2399.67 297.229 2396.21 268.094C2370.82 274.274 2343.15 275.231 2320.42 289.209Z" fill="#414143"/>
<path d="M799.006 149.129C818.433 148.835 837.86 148.835 857.213 149.129C858.096 228.292 858.096 307.528 857.36 386.691C855.815 411.19 855.226 441.723 832.194 456.658C807.1 473.579 774.869 469.827 747.495 460.998C750.586 446.284 753.529 431.496 756.252 416.708C767.584 413.913 779.653 412.882 790.323 407.732C799.521 398.536 797.166 383.822 798.638 371.977C799.3 297.743 798.344 223.362 799.006 149.129Z" fill="#414143"/>
<path d="M900.556 149.644C920.351 149.35 940.146 149.35 959.867 149.57C959.573 225.275 961.412 301.128 959.352 376.833C940.072 376.685 920.866 376.685 901.66 376.759C898.569 301.128 900.409 225.349 900.556 149.644Z" fill="#414143"/>
<path d="M973.334 150.895C992.614 150.307 1011.89 150.822 1031.17 152.146C1043.61 199.673 1055.9 247.421 1072.16 293.845C1089.16 247.862 1099.09 199.526 1110.65 151.999C1130.96 150.233 1151.34 150.38 1171.65 151.925C1182.76 199.011 1194.54 245.95 1206.83 292.741C1229.93 248.083 1235.45 196.877 1253.99 150.307C1273.27 150.38 1292.48 150.454 1311.76 150.601C1286.89 225.717 1263.27 301.275 1238.17 376.392C1219.56 376.171 1200.94 376.171 1182.32 376.392C1167.01 330.042 1157.74 281.926 1142.07 235.723C1123.82 280.528 1115.21 328.57 1102.55 375.141C1082.9 376.024 1063.26 376.171 1043.68 376.392C1020.5 301.128 994.085 226.894 973.334 150.895Z" fill="#414143"/>
<path d="M1322.36 149.938C1342.15 149.423 1362.02 149.35 1381.96 149.57C1382.4 225.349 1384.1 301.201 1380.93 376.833C1361.5 376.612 1342.08 376.685 1322.65 376.906C1321.99 301.275 1322.87 225.57 1322.36 149.938Z" fill="#414143"/>
<path d="M1696.77 149.645C1715.97 149.424 1735.18 149.424 1754.38 149.718C1754.24 225.497 1755.78 301.275 1754.24 376.98C1735.1 376.686 1716.05 376.686 1696.99 376.907C1695.81 301.202 1696.18 225.423 1696.77 149.645Z" fill="#414143"/>
<path d="M2168.09 149.791C2187.81 149.423 2207.61 149.423 2227.4 149.644C2227.99 225.275 2229.46 301.054 2226.59 376.685C2207.31 376.464 2188.03 376.464 2168.83 376.759C2168.02 301.054 2168.6 225.422 2168.09 149.791Z" fill="#414143"/>
<path d="M303.767 413.765C325.548 398.242 339.383 374.552 359.766 357.557C337.837 417.444 272.566 452.611 210.679 450.257C163.142 445.916 114.133 423.33 90.0703 380.29C110.38 391.62 125.539 409.866 145.334 421.858C193.754 450.109 258.511 446.652 303.767 413.765Z" fill="#414143"/>
<path d="M1465.41 451.435C1471.37 451.655 1483.14 452.097 1489.03 452.317C1488.52 493.812 1488.52 535.38 1489.03 576.947C1467.84 571.945 1446.5 576.432 1425.23 576.432C1388.14 561.277 1391.23 491.457 1433.1 484.174C1444.88 483.291 1455.47 489.912 1466.29 493.591C1465.63 479.539 1465.41 465.487 1465.41 451.435ZM1433.47 504.332C1420.01 516.913 1419.64 541.927 1431.78 555.391C1440.83 566.5 1459.74 560.835 1462.24 547.077C1470.85 527.875 1459.37 493.002 1433.47 504.332Z" fill="#414143"/>
<path d="M1682.71 494.842C1691.91 481.01 1700.96 467.032 1711.34 454.083C1717 468.577 1723.92 482.629 1731.06 496.46C1717.08 511.689 1714.35 533.172 1719.95 552.669C1723.04 561.056 1740.7 567.309 1732.82 577.021C1720.61 577.757 1703.39 582.612 1697.21 568.192C1692.13 543.619 1700.67 515.368 1682.71 494.842Z" fill="#414143"/>
<path d="M666.402 487.925C691.643 498.887 720.636 472.255 742.05 493.885C761.992 515.588 761.035 556.42 736.236 574.372C721.519 582.465 705.035 574.151 690.097 571.135C689.877 584.892 689.509 598.65 688.846 612.335C683.475 612.408 672.804 612.482 667.506 612.555C667.359 570.987 666.623 529.42 666.402 487.925ZM704.3 503.743C681.782 517.06 686.05 562.306 715.779 561.57C743.153 552.08 737.634 496.018 704.3 503.743Z" fill="#414143"/>
<path d="M857.655 487.705C881.277 498.3 906.664 476.228 928.299 491.016C954.128 513.75 950.522 558.555 921.382 576.8C907.106 579.67 893.051 574.225 879.364 571.135C878.996 584.967 878.628 598.872 878.113 612.777C873.035 612.703 863.027 612.483 858.023 612.409C855.521 570.841 856.699 529.2 857.655 487.705ZM889.666 506.245C869.724 521.475 878.113 565.544 906.811 561.277C934.406 549.726 922.706 490.648 889.666 506.245Z" fill="#414143"/>
<path d="M952.067 547.592C940.882 516.766 966.49 475.566 1001.44 484.983C1026.17 489.029 1033.16 515.147 1035.74 536.336C1016.01 537.513 996.219 537.587 976.498 536.851C976.13 541.412 975.32 550.535 974.879 555.097C993.938 569.811 1011.6 544.87 1032.2 553.11C1020.94 590.779 956.556 587.542 952.067 547.592ZM972.818 525.374C986.285 525.447 999.825 525.227 1013.36 524.712C1007.63 515.515 1004.61 500.065 990.406 503.964C977.97 501.389 977.234 518.017 972.818 525.374Z" fill="#414143"/>
<path d="M1046.18 488.44C1063.7 487.778 1081.14 486.38 1098.51 484.1C1098.8 488.661 1099.39 497.857 1099.68 502.419C1089.67 505.362 1079.67 508.378 1069.66 511.468C1068.33 533.098 1067.97 554.728 1068.78 576.358C1063.18 576.579 1051.92 576.947 1046.33 577.167C1044.86 547.592 1044.79 518.016 1046.18 488.44Z" fill="#414143"/>
<path d="M1145.23 488.146C1170.4 499.035 1199.1 472.328 1220.36 493.885C1240.31 515.588 1240.01 556.936 1214.7 574.519C1199.91 580.846 1183.87 574.519 1168.93 571.871C1168.78 585.334 1168.41 598.871 1167.68 612.335C1162.16 612.409 1151.12 612.556 1145.6 612.556C1145.6 571.135 1145.6 529.641 1145.23 488.146ZM1182.61 504.038C1158.7 516.619 1166.2 561.129 1194.17 561.791C1221.62 552.448 1216.17 495.136 1182.61 504.038Z" fill="#414143"/>
<path d="M1245.83 488.44C1263.93 487.778 1282.03 486.38 1300.13 484.1C1299.84 488.44 1299.25 497.048 1298.96 501.389C1289.68 505.288 1278.72 506.76 1271.36 514.19C1267.83 535.085 1269.01 556.347 1268.78 577.462C1263.05 577.241 1251.57 576.873 1245.83 576.652C1245.09 547.297 1245.02 517.869 1245.83 488.44Z" fill="#414143"/>
<path d="M1338.91 485.056C1373.94 475.345 1407.35 519.341 1390.5 550.682C1379.24 584.451 1328.02 588.424 1308.74 560.173C1289.24 533.613 1304.84 489.176 1338.91 485.056ZM1337 503.964C1316.03 517.428 1320.37 562.233 1349.14 560.541C1382.7 555.832 1372.32 491.016 1337 503.964Z" fill="#414143"/>
<path d="M1626.34 486.012C1647.9 477.184 1668.36 491.236 1683.45 505.509C1678.3 509.629 1673.15 513.749 1668.07 517.795C1657.32 511.321 1646.36 499.549 1632.67 505.214C1616.48 518.678 1618.18 552.815 1639.37 560.54C1651.51 562.159 1658.06 549.578 1666.08 542.809C1670.2 544.428 1678.59 547.739 1682.71 549.431C1674.91 584.009 1620.68 589.601 1605.15 558.554C1593.16 534.054 1598.01 496.607 1626.34 486.012Z" fill="#414143"/>
<path d="M1740.4 524.196C1724.66 478.214 1808.84 467.62 1814.8 510.512C1796.4 507.496 1778.15 502.934 1759.46 502.64C1769.69 528.316 1809.72 516.03 1819.44 542.736C1823.04 565.911 1797.87 581.582 1777.05 578.566C1758.28 580.184 1744.08 567.236 1732.97 553.919C1756.22 539.793 1779.11 577.683 1799.57 554.213C1783.38 537.881 1756.3 540.676 1740.4 524.196Z" fill="#414143"/>
<path d="M761.477 512.204C770.233 488.073 797.019 480.495 820.199 486.896C831.458 486.969 838.89 495.798 839.92 506.539C842.569 529.714 840.95 553.257 841.907 576.579C816.446 571.871 790.691 580.184 765.45 573.784C763.831 563.484 760.961 553.184 761.697 542.736C773.766 520.739 805.408 530.303 820.052 512.278C805.261 494.253 780.536 512.425 761.477 512.204ZM786.275 542.957C776.341 563.557 802.98 564.44 816.078 559.143C816.961 550.535 817.844 542.001 818.727 533.466C807.763 536.115 796.651 538.396 786.275 542.957Z" fill="#414143"/>
<path d="M1504.85 487.484C1510.3 487.411 1521.11 487.337 1526.56 487.264C1526.78 509.335 1525.38 531.554 1528.69 553.404C1534.8 562.086 1546.13 560.688 1555.26 562.601C1565.85 538.911 1564.46 512.719 1564.53 487.484C1569.9 487.411 1580.57 487.337 1585.94 487.337C1586.53 517.207 1586.68 547.224 1585.65 577.168C1560.63 566.5 1527.52 588.939 1508.6 566.206C1499.99 541.265 1505.88 513.529 1504.85 487.484Z" fill="#414143"/>
</svg>
