<svg width="2382" height="505" viewBox="0 0 2382 505" fill="none" xmlns="http://www.w3.org/2000/svg">
<g clip-path="url(#clip0_119_6)">
<path d="M133.84 0H145.312C195.067 1.21009 245.26 20.0761 280.304 56.0264C280.247 94.2254 280.314 132.434 280.276 170.633C261.925 143.001 237.238 119.066 207.377 104.211C183.166 92.0148 155.649 86.4122 128.599 88.5656C97.5667 90.7761 67.5916 103.087 43.2667 122.362C26.1734 135.816 11.6337 152.405 0 170.757V56.0264C11.2049 44.1827 24.2964 34.159 38.4074 26.0218C67.3249 9.33774 100.606 1.10528 133.84 0Z" fill="#B6BD0C"/>
<path d="M1818.45 25.5072C1831.63 22.8488 1846.07 30.3094 1851.23 42.7915C1856.74 55.1783 1852.3 70.8333 1841.3 78.6751C1832.48 85.3068 1819.8 86.5359 1810.07 81.1905C1799.73 75.8166 1793.45 63.9253 1794.54 52.3674C1795.4 39.428 1805.64 27.7844 1818.45 25.5072Z" fill="#B6BD0C"/>
<path d="M1986.12 25.5547C1999.09 22.8391 2013.37 29.89 2018.82 42.0196C2024.75 54.3587 2020.59 70.3091 2009.61 78.3796C2000.52 85.4877 1987.14 86.6311 1977.12 80.8283C1966.3 74.8065 1960.54 61.5335 1962.84 49.4802C1964.83 37.7795 1974.42 27.7843 1986.12 25.5547Z" fill="#B6BD0C"/>
<path d="M1603.08 96.0642C1603.1 82.696 1603.07 69.3278 1603.1 55.9691C1619.5 55.9691 1635.9 55.9596 1652.32 55.9691C1652.32 69.3373 1652.32 82.696 1652.32 96.0642C1661.05 96.0642 1669.78 96.0546 1678.52 96.0642C1678.52 111.014 1678.51 125.964 1678.52 140.904C1669.78 140.923 1661.05 140.904 1652.32 140.923C1652.31 179.951 1652.33 218.979 1652.31 258.017C1635.89 257.979 1619.46 258.093 1603.05 257.96C1603.13 218.817 1603.06 179.665 1603.09 140.523C1597.79 140.514 1592.49 140.523 1587.2 140.514C1587.2 125.697 1587.2 110.881 1587.2 96.0642C1592.49 96.0546 1597.78 96.0546 1603.08 96.0642Z" fill="#B6BD0C"/>
<path d="M1878.61 55.9692C1895.01 55.9692 1911.42 55.9692 1927.83 55.9692C1927.84 69.3374 1927.83 82.6961 1927.83 96.0548C1936.56 96.0643 1945.29 96.0548 1954.03 96.0643C1954.03 111.014 1954.03 125.964 1954.03 140.914C1945.29 140.924 1936.57 140.905 1927.84 140.924C1927.83 179.951 1927.84 218.989 1927.83 258.017C1911.42 258.017 1895.01 258.017 1878.61 258.017C1878.59 218.856 1878.61 179.685 1878.6 140.523C1873.3 140.523 1868.01 140.523 1862.72 140.514C1862.72 125.697 1862.71 110.881 1862.72 96.0643C1868.01 96.0548 1873.3 96.0643 1878.61 96.0548C1878.6 82.6961 1878.6 69.3374 1878.61 55.9692Z" fill="#B6BD0C"/>
<path d="M1289.42 117.046C1298.17 105.069 1311.5 96.398 1326.15 93.8158C1342.87 90.9097 1360.86 94.9021 1374.39 105.259C1383.24 112.005 1390.03 121.543 1393.07 132.291C1395.06 138.818 1395.17 145.688 1395.06 152.443C1395.05 187.498 1395.06 222.553 1395.06 257.607C1378.24 257.617 1361.45 257.617 1344.64 257.607C1344.64 225.735 1344.66 193.863 1344.63 162C1344.57 154.911 1343.36 146.965 1337.76 142.02C1332.01 137.074 1323.93 136.255 1316.65 136.674C1304.79 137.627 1294.12 146.631 1291.17 158.141C1290.01 162.162 1290.26 166.364 1290.25 170.49C1290.25 199.666 1290.25 228.841 1290.24 258.027C1273.7 258.027 1257.16 258.017 1240.63 258.027C1240.62 204.039 1240.62 150.061 1240.62 96.074C1256.91 96.074 1273.18 96.074 1289.45 96.074C1289.44 103.068 1289.48 110.062 1289.42 117.046Z" fill="#B6BD0C"/>
<path d="M1771.14 93.7681C1777.34 92.3484 1783.75 93.082 1790.05 92.8915C1790.09 109.671 1790.04 126.441 1790.08 143.21C1782.66 140.238 1774.42 139.542 1766.54 140.619C1759.36 141.648 1752.68 145.831 1748.98 152.11C1743.61 161.028 1742.6 171.757 1742.45 181.943C1742.4 207.307 1742.44 232.662 1742.43 258.026C1725.89 258.026 1709.35 258.017 1692.81 258.026C1692.8 204.039 1692.8 150.061 1692.81 96.0739C1708.68 96.0739 1724.57 96.0739 1740.44 96.0739C1740.43 104.478 1740.47 112.872 1740.42 121.276C1745.54 107.984 1757.21 97.1125 1771.14 93.7681Z" fill="#B6BD0C"/>
<path d="M2106.25 94.1015C2133.57 89.6899 2163.3 97.1601 2183.54 116.522C2195.76 128.022 2204.11 143.477 2207.27 159.952C2212.49 187.145 2205.26 217.198 2185.83 237.379C2164.55 259.875 2130.75 268.022 2100.98 261.218C2081.48 256.759 2063.66 245.401 2051.34 229.642C2039.24 214.358 2032.42 194.835 2033.08 175.292C2033.51 157.084 2039.99 139.037 2051.56 124.945C2065.05 108.241 2085.11 97.3316 2106.25 94.1015ZM2112.8 139.694C2103.52 141.371 2094.88 146.593 2089.39 154.282C2078.66 169.137 2079.27 191.624 2092.14 205.03C2104.42 218.436 2125.94 220.609 2141.62 212.176C2150.74 207.212 2156.64 197.665 2158.57 187.612C2160.14 179.18 2160.39 170.175 2157.26 162.057C2154.41 154.482 2148.78 148.032 2141.73 144.077C2133.03 139.161 2122.54 137.932 2112.8 139.694Z" fill="#B6BD0C"/>
<path d="M2312.45 93.9395C2330.26 90.6237 2349.64 95.2449 2363.53 107.041C2374.32 116.026 2381.1 129.471 2382 143.477V257.617C2365.19 257.617 2348.39 257.617 2331.59 257.617C2331.57 225.735 2331.6 193.863 2331.57 161.991C2331.49 155.13 2330.41 147.498 2325.22 142.505C2319.55 137.179 2311.22 136.255 2303.8 136.664C2289.56 137.598 2277.17 150.423 2277.21 164.782C2277.16 195.864 2277.21 226.945 2277.18 258.026C2260.64 258.017 2244.1 258.026 2227.57 258.026C2227.56 204.039 2227.56 150.061 2227.57 96.0739C2243.84 96.0739 2260.12 96.0739 2276.4 96.0834C2276.38 103.058 2276.43 110.033 2276.36 117.017C2285.02 105.259 2298.04 96.6456 2312.45 93.9395Z" fill="#B6BD0C"/>
<path d="M1420.06 187.736C1420.12 157.169 1419.97 126.593 1420.14 96.0264C1436.4 96.1883 1452.68 95.9311 1468.95 96.1598C1468.84 124.43 1468.93 152.71 1468.9 180.99C1468.87 188.403 1468.42 196.255 1471.96 203.039C1475.48 210.461 1483.15 215.235 1491.15 216.302C1499.64 217.493 1509.14 216.274 1515.85 210.518C1521.56 205.659 1524.03 197.998 1524.06 190.681C1524.12 159.142 1524.06 127.613 1524.09 96.074C1540.1 96.074 1556.1 96.074 1572.12 96.074C1572.12 123.439 1572.12 150.805 1572.12 178.179C1572.05 189.337 1572.67 200.666 1570.01 211.605C1566.95 225.506 1559.23 238.513 1547.75 247.069C1533.8 257.645 1515.97 261.638 1498.75 261.952C1480.74 262.352 1461.99 258.636 1447.09 248.022C1435.32 239.761 1426.88 227.164 1423.11 213.329C1420.74 205.03 1419.96 196.35 1420.06 187.736Z" fill="#B6BD0C"/>
<path d="M1799.2 96.0833C1815.48 96.0929 1831.78 96.0166 1848.07 96.1215C1848 150.09 1848.05 204.058 1848.04 258.017C1831.76 258.026 1815.47 258.026 1799.2 258.017C1799.2 204.039 1799.2 150.061 1799.2 96.0833Z" fill="#B6BD0C"/>
<path d="M1967.14 96.0737C1983.42 96.0737 1999.69 96.0737 2015.96 96.0833C2015.96 150.061 2015.96 204.039 2015.96 258.026C1999.69 258.026 1983.42 258.017 1967.14 258.026C1967.13 204.048 1967.13 150.061 1967.14 96.0737Z" fill="#B6BD0C"/>
<path d="M0 189.975C0.114336 190.385 0.33348 191.185 0.447816 191.595C1.22911 192.195 1.92466 192.891 2.53445 193.672C14.4349 211.233 28.9746 227.069 45.8297 239.97C67.5154 256.626 93.3553 268.088 120.529 271.737C150.685 275.854 182.013 270.527 209.187 256.826C238.715 242.104 263.02 218.217 280.676 190.547C280.657 228.822 280.733 267.088 280.638 305.363C261.067 325.677 236.399 340.827 209.749 349.936C176.659 361.265 140.757 363.971 106.266 358.464C70.9264 352.766 36.8067 337.807 9.79478 314.138C6.40282 311.061 2.84887 308.097 0 304.477V189.975Z" fill="#B6BD0C"/>
<path d="M362.064 55.969C378.452 55.9404 394.831 56.0262 411.219 55.9214C411.391 69.2991 411.238 82.6864 411.305 96.0641C420.033 96.0641 428.76 96.0546 437.488 96.0641C437.497 111.014 437.497 125.964 437.488 140.914C428.76 140.923 420.033 140.904 411.295 140.923C411.286 179.951 411.295 218.979 411.295 258.017C394.888 258.036 378.481 258.007 362.074 258.026C362.036 218.855 362.093 179.685 362.045 140.514C356.624 140.523 351.212 140.523 345.79 140.514C345.781 125.697 345.781 110.881 345.79 96.0641C351.212 96.0546 356.633 96.0641 362.055 96.0641C362.074 82.6959 362.055 69.3372 362.064 55.969Z" fill="#163D6D"/>
<path d="M527.108 94.4631C534.073 92.2049 541.486 93.0148 548.689 92.9481C548.622 109.67 548.66 126.402 548.67 143.134C540.838 140.132 532.148 139.418 523.897 140.847C516.675 142.162 510.224 146.869 506.813 153.367C501.954 162.39 501.106 172.91 501.03 182.972C501.001 207.993 501.03 233.005 501.011 258.026C484.47 258.026 467.939 258.026 451.399 258.026C451.38 204.048 451.389 150.061 451.389 96.083C467.272 96.0734 483.146 96.0734 499.029 96.083C499.048 104.287 498.981 112.5 499.067 120.704C504.231 108.603 514.445 98.4555 527.108 94.4631Z" fill="#163D6D"/>
<path d="M624.628 94.1014C645.723 90.776 668.104 94.2824 686.598 105.154C702.3 114.263 714.886 128.689 721.47 145.63C733.533 176.75 726.758 215.073 702.833 238.798C676.25 265.344 632.097 270.928 599.035 253.691C579.322 243.581 563.553 225.878 556.159 204.944C545.116 174.663 553.873 138.322 577.75 116.598C590.613 104.554 607.258 96.7979 624.628 94.1014ZM631.164 139.704C623.703 141.095 616.614 144.668 611.298 150.128C598.235 163.439 596.482 186.335 607.534 201.4C613.947 210.356 624.446 216.083 635.385 216.95C645.589 217.769 656.499 215.635 664.597 209.07C676.164 199.761 679.385 183.591 677.622 169.499C676.241 160.075 670.895 151.3 663.035 145.907C653.869 139.504 642.035 137.722 631.164 139.704Z" fill="#163D6D"/>
<path d="M744.775 96.0833C761.049 96.0738 777.323 96.0738 793.597 96.0833C793.606 125.03 793.606 153.977 793.606 182.934C793.473 189.889 793.473 197.245 796.913 203.524C800.628 210.937 808.537 215.521 816.636 216.407C825.058 217.417 834.434 216.054 840.932 210.175C846.42 205.287 848.745 197.75 848.764 190.566C848.821 159.075 848.764 127.574 848.793 96.0833C864.8 96.0738 880.807 96.0738 896.823 96.0833C896.823 128.213 896.842 160.342 896.814 192.462C896.833 208.374 892.717 224.839 882.503 237.35C871.965 250.509 855.738 257.941 839.35 260.532C822.924 263.067 805.754 262.495 789.909 257.188C776.799 252.814 764.841 244.515 756.981 233.053C750.444 223.639 746.729 212.462 745.423 201.133C744.575 194.473 744.794 187.746 744.775 181.047C744.775 152.729 744.766 124.401 744.775 96.0833Z" fill="#163D6D"/>
<path d="M907.161 96.083C924.35 96.064 941.548 96.083 958.736 96.064C969.169 125.04 979.526 154.034 989.921 183.01C990.255 183.743 990.645 184.448 991.093 185.135C1000.87 155.463 1010.54 125.754 1020.3 96.083C1033.39 96.0735 1046.49 96.0735 1059.59 96.083C1069.94 126.097 1080.21 156.13 1090.57 186.145C1101.28 156.13 1111.99 126.107 1122.7 96.083C1139.64 96.064 1156.58 96.0735 1173.52 96.083C1153.17 150.061 1132.75 204.01 1112.42 257.997C1098.38 258.055 1084.34 258.026 1070.3 258.017C1060.25 229.05 1050.25 200.075 1040.11 171.147C1030.46 200.103 1020.81 229.07 1011.15 258.026C996.972 257.988 982.794 258.093 968.617 257.969C948.208 203.981 927.618 150.051 907.161 96.083Z" fill="#163D6D"/>
<path d="M605.028 404.495C609.525 404.486 614.022 404.486 618.52 404.495C618.529 409.784 618.52 415.072 618.529 420.36C621.835 420.37 625.142 420.37 628.457 420.379C628.448 424.467 628.448 428.554 628.457 432.652C625.142 432.68 621.835 432.68 618.529 432.68C618.529 448.154 618.529 463.638 618.52 479.112C614.022 479.121 609.525 479.112 605.038 479.121C605.018 463.638 605.038 448.154 605.018 432.68C602.903 432.671 600.788 432.671 598.673 432.671C598.673 428.564 598.673 424.467 598.673 420.379C600.788 420.37 602.903 420.36 605.028 420.36C605.028 415.072 605.018 409.784 605.028 404.495Z" fill="#163D6D"/>
<path d="M458.935 405.686C463.719 405.686 468.502 405.648 473.285 405.715C485.662 423.456 498.105 441.141 510.539 458.845C510.539 441.122 510.53 423.409 510.549 405.686C515.036 405.677 519.534 405.677 524.04 405.686C524.04 430.164 524.05 454.643 524.031 479.121C519.391 479.102 514.741 479.14 510.101 479.092C497.714 461.608 485.242 444.19 472.837 426.725C472.808 444.19 472.846 461.646 472.827 479.111C468.197 479.121 463.566 479.111 458.945 479.121C458.926 454.643 458.935 430.164 458.935 405.686Z" fill="#163D6D"/>
<path d="M1072.68 426.487C1078.43 416.492 1093.05 415.024 1101.99 421.389C1106.14 424.343 1108.45 429.421 1108.4 434.471C1108.45 449.221 1108.41 463.971 1108.42 478.73C1104.05 478.74 1099.68 478.74 1095.33 478.73C1095.28 465.276 1095.4 451.822 1095.27 438.378C1095.27 434.471 1093.56 429.66 1089.19 428.964C1082.46 427.182 1075.43 432.652 1075.15 439.512C1074.96 452.585 1075.14 465.658 1075.07 478.73C1070.7 478.74 1066.34 478.74 1061.98 478.73C1061.94 464.933 1062.03 451.127 1061.94 437.33C1061.99 433.995 1060.81 429.803 1057.05 429.069C1049.95 426.915 1042.3 432.947 1042.17 440.207C1042.06 453.175 1042.16 466.143 1042.13 479.112C1037.89 479.121 1033.65 479.121 1029.42 479.112C1029.42 459.521 1029.42 439.941 1029.42 420.36C1033.39 420.35 1037.35 420.35 1041.33 420.36C1041.33 422.409 1041.32 424.457 1041.31 426.525C1044.28 422.371 1048.65 419.064 1053.8 418.292C1061 416.882 1068.98 420.017 1072.68 426.487Z" fill="#163D6D"/>
<path d="M358.339 428.821C367.59 416.682 388.628 415.539 398.261 427.754C398.185 425.276 398.175 422.818 398.185 420.36C402.291 420.35 406.388 420.35 410.495 420.36C410.504 439.941 410.504 459.531 410.495 479.111C406.388 479.121 402.291 479.121 398.194 479.111C398.175 476.52 398.175 473.918 398.242 471.336C389.533 483.59 369.886 483.494 359.901 472.928C348.811 461.274 348.61 441.36 358.339 428.821ZM376.813 431.346C370.306 433.118 366.38 439.645 365.551 446.01C364.722 452.461 365.494 459.721 369.867 464.838C376.137 472.003 389.171 470.908 394.154 462.77C398.794 455.252 399.242 444.838 394.373 437.32C390.705 431.651 383.149 429.44 376.813 431.346Z" fill="#163D6D"/>
<path d="M649.029 428.373C651.306 424.343 654.736 420.722 659.347 419.512C663.397 418.111 667.618 419.302 671.686 419.96C670.305 424.343 668.799 428.697 667.351 433.061C664.14 432.375 660.634 431.175 657.48 432.737C652.144 435.072 649.953 441.332 649.905 446.782C649.858 457.559 649.915 468.335 649.886 479.112C645.513 479.121 641.149 479.121 636.785 479.112C636.785 459.531 636.785 439.95 636.785 420.37C640.892 420.341 644.989 420.351 649.105 420.37C649.105 423.028 649.095 425.705 649.029 428.373Z" fill="#163D6D"/>
<path d="M675.64 437.473C679.613 428.259 688.332 421.189 698.298 419.617C706.873 418.264 716.468 419.979 722.918 426.115C730.274 433.023 732.322 443.58 732.542 453.261C717.125 453.423 701.709 453.261 686.302 453.337C686.474 459.616 690.275 465.753 696.268 467.992C704.882 471.498 715.372 467.182 719.479 458.93C723.299 460.76 727.111 462.618 730.931 464.457C722.804 481.836 697.278 485.819 683.034 473.766C672.715 465.171 670.324 449.469 675.64 437.473ZM687.045 442.98C697.726 443.018 708.417 443.018 719.098 442.98C718.383 436.806 713.609 431.384 707.416 430.326C698.698 428.144 688.57 433.88 687.045 442.98Z" fill="#163D6D"/>
<path d="M754.999 423.447C764.975 417.673 777.809 417.902 787.899 423.295C788.176 427.706 788.004 432.127 788.052 436.548C782.325 433.061 775.561 430.679 768.777 431.727C762.898 432.375 757.486 436.263 755.295 441.799C753.074 447.401 752.655 454.1 755.409 459.597C758.22 465.305 764.699 468.211 770.825 468.363C777.228 468.802 783.269 466.02 788.452 462.513C788.433 466.877 788.433 471.251 788.452 475.624C775.522 483.466 756.943 481.484 746.795 469.974C734.8 456.329 739.364 432.375 754.999 423.447Z" fill="#163D6D"/>
<path d="M819.818 419.769C829.231 417.397 839.845 419.283 847.439 425.467C858.578 434.205 861.56 450.67 855.948 463.352C852.194 472.432 843.333 478.902 833.662 480.236C820.866 482.513 806.402 477.091 799.961 465.419C792.815 453.204 795.674 436.425 806.278 427.116C810.08 423.581 814.787 421.056 819.818 419.769ZM822.6 432.08C818.36 433.166 814.625 436.015 812.462 439.817C807.736 447.944 809.556 459.645 817.331 465.257C824.515 470.412 835.777 469.173 841.303 462.132C846.534 455.329 846.477 445.038 841.532 438.092C837.359 432.242 829.317 430.393 822.6 432.08Z" fill="#163D6D"/>
<path d="M906.418 430.098C915.965 418.245 934.497 415.92 947.312 423.638C947.188 427.935 947.246 432.242 947.255 436.549C941.252 432.861 934.059 430.479 926.98 431.889C921.215 432.813 916.156 436.968 914.212 442.485C911.935 448.869 911.859 456.777 916.346 462.256C920.681 467.516 928.104 469.059 934.592 468.135C939.366 467.477 943.673 465.133 947.646 462.504C947.608 466.915 947.693 471.327 947.579 475.738C934.554 483.38 916.07 481.484 905.942 469.917C896.271 458.911 897.5 441.17 906.418 430.098Z" fill="#163D6D"/>
<path d="M978.945 419.788C988.997 417.215 1000.44 419.569 1008.11 426.734C1017.94 435.605 1020.39 450.803 1015.37 462.808C1012.41 470.278 1006.06 476.272 998.458 478.835C987.739 482.484 975.048 480.845 966.149 473.642C956.649 466.134 952.914 452.556 956.583 441.122C959.689 430.774 968.464 422.408 978.945 419.788ZM981.679 432.146C977.935 433.204 974.6 435.605 972.409 438.816C967.187 446.315 968.188 457.558 974.857 463.866C982.118 470.888 995.676 469.631 1001.26 461.093C1005.7 454.223 1005.44 444.571 1000.74 437.911C996.495 432.089 988.378 430.384 981.679 432.146Z" fill="#163D6D"/>
<path d="M1146.53 420.398C1156.28 417.197 1167.82 420.379 1174.44 428.259C1184.69 440.35 1185.1 460.179 1174.34 472.08C1164.9 482.704 1145.48 483.58 1136.57 471.832C1136.66 482.885 1136.59 493.947 1136.61 505H1123.11C1123.11 476.787 1123.1 448.573 1123.11 420.36C1127.34 420.351 1131.58 420.351 1135.81 420.36C1135.81 423.209 1135.81 426.068 1135.77 428.936C1138.51 425.2 1142.02 421.827 1146.53 420.398ZM1149.48 432.213C1136.13 434.757 1132.18 453.519 1140.48 463.075C1147.03 470.079 1160.21 469.726 1165.82 461.713C1168.66 457.74 1169.14 452.594 1168.53 447.868C1167.96 443.19 1166.24 438.359 1162.58 435.215C1159.03 432.137 1153.98 431.356 1149.48 432.213Z" fill="#163D6D"/>
<path d="M1197.66 428.745C1206.94 416.672 1227.86 415.586 1237.54 427.716C1237.43 425.276 1237.43 422.847 1237.4 420.407C1241.52 420.322 1245.63 420.341 1249.76 420.369C1249.76 439.95 1249.75 459.521 1249.76 479.102C1245.64 479.121 1241.54 479.121 1237.44 479.111C1237.42 476.52 1237.44 473.937 1237.51 471.355C1228.2 484.333 1206.8 483.371 1197.35 471.069C1188.13 459.054 1188.36 440.655 1197.66 428.745ZM1217.91 430.936C1210.95 432.003 1206.18 438.435 1205 445.038C1203.83 451.803 1204.57 459.559 1209.22 464.943C1215.55 472.032 1228.56 470.85 1233.48 462.666C1237.91 455.414 1238.43 445.534 1234.05 438.14C1230.84 432.67 1224.12 429.726 1217.91 430.936Z" fill="#163D6D"/>
<path d="M1277.07 428.478C1284.52 416.053 1306.07 415.767 1313.08 428.735C1316.03 433.976 1315.68 440.141 1315.66 445.944C1315.65 456.996 1315.66 468.049 1315.65 479.112C1311.28 479.121 1306.92 479.112 1302.56 479.121C1302.51 467.43 1302.63 455.748 1302.51 444.076C1302.39 439.731 1301.38 434.319 1296.9 432.432C1292.05 430.593 1285.86 431.289 1282.26 435.262C1279.16 438.635 1277.93 443.333 1277.95 447.83C1277.92 458.254 1277.96 468.688 1277.94 479.112C1273.44 479.121 1268.94 479.112 1264.45 479.112C1264.44 459.531 1264.44 439.941 1264.45 420.351C1268.68 420.351 1272.91 420.341 1277.15 420.37C1277.15 423.066 1277.13 425.772 1277.07 428.478Z" fill="#163D6D"/>
<path d="M539.523 420.36C543.887 420.351 548.251 420.351 552.615 420.351C552.662 432.051 552.557 443.762 552.662 455.462C552.729 459.807 553.901 465.153 558.398 466.954C562.343 468.373 566.878 468.411 570.851 467.068C575.415 465.267 576.368 459.779 576.415 455.453C576.492 443.752 576.416 432.051 576.454 420.351C580.675 420.351 584.905 420.351 589.135 420.351C589.126 433.309 589.202 446.258 589.107 459.217C589.05 465.677 585.886 472.089 580.522 475.777C574.11 480.303 565.754 481.027 558.207 479.721C552.1 478.664 546.059 475.548 542.696 470.184C540.428 466.677 539.533 462.447 539.533 458.321C539.504 445.667 539.533 433.014 539.523 420.36Z" fill="#163D6D"/>
<path d="M1320.82 420.36C1325.71 420.351 1330.6 420.341 1335.51 420.37C1341.42 432.652 1347.42 444.895 1353.3 457.197C1358.53 444.991 1363.39 432.642 1368.45 420.37C1372.95 420.341 1377.44 420.351 1381.95 420.36C1370.04 448.326 1358.1 476.282 1346.17 504.238C1341.28 504.238 1336.39 504.247 1331.5 504.228C1336.65 493.337 1341.85 482.456 1347.02 471.575C1338.28 454.5 1329.55 437.435 1320.82 420.36Z" fill="#163D6D"/>
</g>
<defs>
<clipPath id="clip0_119_6">
<rect width="2382" height="505" fill="white"/>
</clipPath>
</defs>
</svg>
